<svg width="130" height="140" viewBox="0 0 130 140" fill="none" xmlns="http://www.w3.org/2000/svg">
<path d="M0 0H130V75C130 110.899 100.899 140 65 140C29.1015 140 0 110.899 0 75V0Z" fill="white"/>
<path fill-rule="evenodd" clip-rule="evenodd" d="M93.5459 110.784C94.3147 109.611 96.2696 110.371 97.1484 111.066C98.0271 111.762 97.8295 111.827 97.3682 111.653C96.6654 111.371 96.2476 110.719 95.2373 110.719C94.3368 110.719 93.349 111.871 94.1836 112.566L106.858 112.501L107.188 113.109H106.243V116.348C106.243 116.978 104.684 116.674 104.64 116.022C104.969 116.022 105.364 116.13 105.584 115.826V113.109L103.629 113.24V116.435C103.761 116.913 106.682 118.282 107.254 118.804C107.715 119.217 107.539 119.63 107.122 119.999C106.485 119.651 106.858 119.304 106.771 119.021C106.683 118.717 103.278 117.065 102.904 116.5V113.131H101.301V118.543C99.8072 118.5 100.773 116.435 100.642 115.436C100.488 114.175 98.8187 115.326 98.6865 116.174L98.1377 115.913C98.7742 114.87 97.0394 114.24 96.5781 115.283C95.8532 116.979 97.7643 117.565 98.4893 118.348C99.2139 119.13 98.5766 118.652 98.4229 118.674C98.0491 118.739 96.6654 117.413 96.4238 117.087C94.7545 114.957 96.8632 112.871 98.5547 115.109C99.038 114.197 99.7414 114.262 100.62 114.588L100.488 113.131H94.3369V118.502L93.5684 118.174V113.109C93.0851 113.109 92.558 113.261 92.2285 112.783C92.1629 112.479 92.4479 112.588 92.6455 112.545C92.9529 112.501 93.2385 112.523 93.5459 112.566C93.3922 111.828 93.0629 111.501 93.5459 110.784ZM32.126 111.045C32.4994 110.132 33.5535 110.111 34.3662 110.35C34.5858 110.415 36.6064 111.37 36.2998 111.675C35.487 111.371 34.5203 110.567 33.5977 110.784C32.8728 110.936 32.258 112.023 32.917 112.609L47.3057 112.501L47.6572 113.131H46.8662V118.543C45.7679 118.478 46.3169 117.174 46.207 116.435C45.8336 116.435 45.5917 116.761 45.1963 116.826C43.8344 117.043 43.0219 116.174 42.6484 114.979C42.1652 115.065 40.7587 114.783 40.5391 115.283C40.1439 116.457 40.9573 117.369 41.6602 118.217C41.5503 118.391 41.3085 118.499 41.1328 118.391C40.9572 118.282 40.1666 116.914 40.0781 116.718C39.8365 116.196 39.6165 115.435 39.8799 114.87C39.9458 114.74 40.4736 114.305 40.5176 114.305H42.9775C42.9336 114.5 42.6485 114.87 43.0439 114.826C43.9883 114.717 44.5596 113.805 43.7031 113.131H37.9248C37.9222 113.137 37.7939 114.501 37.7939 114.501C37.3546 114.805 34.8721 114.109 35.0039 115.131C35.1357 116.131 35.8605 115.414 36.3877 115.37C37.7277 115.218 39.1115 116.848 37.8154 117.587C37.2223 117.935 37.2885 117.695 36.959 117.282C38.8256 116.478 36.7609 115.131 35.7725 116.37C34.6747 117.761 36.9141 118.63 37.8809 119.13C37.0461 119.303 35.3556 118.391 34.96 117.652C34.4987 116.761 35.0911 116.413 35.0693 115.957C35.0474 115.501 34.7397 115.544 34.6299 115.326C33.9055 113.697 36.0139 113.761 37.0684 114.044V113.109H33.1367L32.9385 113.305V118.521L32.2793 118.195V113.109H30.6758V118.521L29.8633 118.174L29.9512 113.24C29.8194 113.045 28.6111 113.001 28.4131 113.305V118.521L27.7324 118.174V116.087C27.3151 116.087 26.9417 116.218 26.4805 116.152C26.107 116.087 25.5576 115.631 25.4258 115.652C25.2936 115.674 24.5249 116.283 24.5469 116.479L26.4141 118.348L25.9092 118.521C25.4698 117.739 24.6346 117.109 24.1074 116.413C23.5803 115.718 23.2512 115.37 23.8223 114.979L24.7012 115.37L24.7666 113.24C24.4591 112.806 22.5039 113.652 22.5479 112.457L32.3018 112.588C32.2359 111.958 31.8625 111.719 32.126 111.045ZM82.9141 109.958C84.4518 109.436 85.2424 111.458 85.9453 112.479C86.4286 112.458 86.9122 112.609 87.3955 112.609C88.1204 112.609 89.6793 112.066 89.7236 113.131H86.3848V115.109C86.7143 115.109 86.8248 114.804 87.1543 114.739C88.1864 114.501 88.8017 115.609 88.8018 116.5C88.8018 117.391 88.4936 117.478 88.2959 117.848C88.0543 118.239 87.8564 117.804 87.6367 117.565C87.9443 116.848 88.5595 116.217 88.1201 115.413C87.7901 115.153 86.4072 115.783 86.4072 115.979V118.564L86.3633 118.521C85.309 118.456 85.7918 117.261 85.7041 116.544C85.3307 116.544 85.0888 116.869 84.6934 116.935C82.2112 117.326 81.7939 113.544 84.6494 114.218L85.7041 115.087L85.5723 113.175L81.8154 113.044L81.7061 112.457L85.2207 112.522L85.5723 112.393C85.2428 111.936 84.7595 111.023 84.2324 110.806C83.7052 110.588 83.1118 111.306 82.9141 109.958ZM50.6445 112.457C51.5453 112.305 53.3686 112.457 54.3789 112.457C56.5975 112.457 58.8381 112.457 61.0566 112.609C61.6936 112.653 61.9796 112.175 62.3311 113.131C62.0015 113.131 61.6054 113.023 61.3857 113.327V118.543L60.7051 118.195L60.793 115.5L59.0576 115.392L58.9043 115.5L58.6406 116.305C58.3551 116.066 57.564 115.24 57.7832 114.87C57.893 114.87 58.0474 114.718 58.1133 114.718H60.8594C60.7935 114.218 61.0565 113.522 60.6611 113.131H56.6631L56.4658 113.327V118.543L55.8066 118.217V114.979H54.2031C54.7523 115.522 55.4551 116.957 54.335 117.305C53.2146 117.652 51.7201 116.043 51.3906 114.913C51.3034 114.653 51.6548 114.652 51.7646 114.739C51.9843 114.891 52.3356 116.174 53.0605 116.544C53.8951 116.979 54.5762 116.457 54.1592 115.609C53.8957 115.066 53.1712 114.87 52.9951 114.327H55.8066V113.131H50.666L50.6445 113.109C50.4688 113.066 50.1173 112.544 50.6445 112.457ZM94.3809 118.521L94.3369 118.543V118.502L94.3809 118.521ZM67.208 112.479C69.2948 112.306 71.4035 112.566 73.4902 112.588C75.0499 112.588 76.2582 112.457 77.8838 112.588C78.4109 112.631 78.6749 112.175 79.0264 113.109C78.6969 113.109 78.3008 113.001 78.0811 113.305V118.521L77.4219 118.261V115.349L75.6865 115.413L75.5547 116.196C75.4881 116.738 74.2594 115.239 74.501 114.826C74.6107 114.826 74.7642 114.675 74.8301 114.675H77.4443V113.088H73.1611V118.5L72.502 118.174V114.936H70.8984C72.8309 116.913 70.459 118.434 68.8994 116.326C68.7237 116.109 68.1745 115.109 68.1084 114.87C68.0205 114.609 68.3496 114.609 68.4814 114.696C68.723 114.848 69.0089 116.152 69.9092 116.521C70.7438 116.869 71.2936 116.348 70.8984 115.544C70.6348 115.001 69.9092 114.805 69.7334 114.262H72.5459V113.066C71.8214 112.936 67.6298 113.24 67.3398 113.066L67.2734 113.109C67.2724 113.101 67.2277 112.762 67.0762 112.719L67.208 112.479ZM84.4961 116.348C86.3847 115.848 85.3305 114.501 83.793 114.849C82.8044 115.066 82.9145 116.761 84.4961 116.348ZM44.4277 113.109C44.3179 113.501 44.6475 113.783 44.6914 114.109C44.8451 115.239 43.4392 115.24 43.373 115.565C43.5927 117.087 46.0528 116.065 46.1846 115.152C46.2285 114.891 46.207 113.348 46.1191 113.218L44.4492 113.088L44.4277 113.109ZM66.5928 115.761H62.7266V115.565L62.9238 115.349H66.5928V115.761ZM25.4697 115.152C26.1727 115.717 27.0514 115.739 27.7324 115.152V113.109H25.4697V115.152ZM110 107.697H20V105.851H110V107.697ZM84.1221 21.3457C84.4517 19.7376 86.8457 19.4986 87.5928 21.0195C88.098 24.0624 88.6697 26.9968 89.7021 29.9092C92.7116 38.4509 98.8402 46.1668 98.3789 55.6865C98.1812 59.7943 96.7534 63.75 94.7764 67.3145C95.6111 67.8144 96.5339 68.0973 97.3906 68.5537C101.498 70.7489 104.112 74.3571 102.904 79.1387L102.926 79.1602H97.7197C97.9614 75.4435 94.9738 72.4003 91.7666 70.9658C90.1851 72.1612 88.845 73.9217 88.0322 75.7256C87.7027 76.4428 87.571 77.5948 86.9561 78.0947C85.8577 79.0076 83.9904 79.1164 82.6943 78.5947C80.9371 77.8992 81.0692 76.5732 80.4102 75.0518C79.4875 72.9653 77.9273 71.0529 76.5215 69.249C71.6009 70.2489 67.1638 74.1827 69.1846 79.5293H75.4014L75.4668 81.2461C77.268 80.2464 79.2453 79.5299 81.332 79.3994C84.5392 79.1821 91.6566 79.7685 91.1514 84.3545C90.8219 87.2669 85.8579 87.4842 83.6611 87.2451L83.2656 86.2676C84.5396 86.1372 85.5941 86.2674 86.6045 85.4199C88.2301 84.0724 87.6587 82.094 85.9014 81.2246C82.8699 79.7686 77.9496 81.3555 77.6641 85.0068C77.3786 88.6798 80.915 90.4183 84.1221 90.6357C86.0113 90.7662 88.0327 90.4181 89.8779 90.7441C89.9438 91.0702 90.0971 92.4834 89.7236 92.5703C89.5029 92.6136 87.9221 92.4402 87.4609 92.4619C84.9128 92.5489 80.4535 92.8311 79.5527 95.7432C77.9931 100.786 85.1112 101.916 88.6699 101.721C92.1626 101.525 96.029 100.025 98.3574 97.417V81.5723L98.1592 81.377H94.2275V79.3994H109.846V81.3115L109.648 81.4854C109.605 81.4854 109.539 81.3777 109.517 81.377H102.97L102.772 81.5723V104.024L102.575 104.22H98.3789V100.199L98.1152 100.068C95.7428 101.677 92.843 102.807 89.9873 103.264C85.9013 103.937 77.1371 103.655 74.9404 99.46C74.0398 97.743 74.2587 95.374 75.5986 93.9395C77.0265 92.418 78.4331 92.4397 80.1904 91.7441C80.3222 91.7009 80.4979 91.7441 80.4541 91.5488C77.6862 91.2446 73.8851 89.9401 73.1602 86.919C72.699 84.9847 73.3584 82.833 74.9619 81.6377H69.3604V104.024L69.1631 104.22H65.4941V81.5508C65.6259 79.7904 64.6812 78.1821 64.5713 76.5303C64.1759 70.9445 69.9538 67.7278 74.7207 66.6846C71.1181 59.6643 68.8988 51.7091 72.3037 44.1455C75.2692 37.5383 82.1227 32.5611 83.6387 25.3672C83.9242 24.0197 83.8585 22.5846 84.1221 21.3457ZM46.7783 67.4014C48.0087 67.641 52.7525 72.9003 53.7852 74.0742C55.1909 75.6825 56.5092 77.3776 57.8711 79.0293H63.5391V80.9424L63.3418 81.1377H57.3887V103.872H53.6543V81.3555L53.4561 81.1592H47.2393V103.894H42.8242V99.0039C41.1767 100.069 38.9799 100.873 37.0029 101.112C31.9065 101.764 22.7017 99.9814 22.8994 93.374C23.1415 85.811 34.5858 84.8543 40.1436 86.2451C40.6268 86.3755 41.111 86.615 41.6162 86.7236C41.3527 86.9409 41.0229 87.723 40.7812 87.832C40.2321 88.0711 38.826 87.4627 38.0791 87.3975C36.2558 87.2453 33.8609 87.3975 32.1475 87.9844C31.8169 88.0936 30.0609 88.8321 30.1484 89.1797L42.8242 96.2432V81.1817H20.1318V79.0733H53.917C53.6534 78.4866 53.0829 77.8563 52.6436 77.3565C51.5672 76.0958 45.5256 69.292 44.2295 69.292H41.0889V67.4453H46.7559L46.7783 67.4014ZM29.3584 89.919C26.5905 91.9837 26.7224 95.9829 29.71 97.8955C33.027 100.004 37.9038 99.8513 41.2207 97.8301C41.4189 97.7211 42.3186 97.1997 42.165 96.9824V97.0039L29.3584 89.919ZM80.8936 68.7061L84.4961 74.791C85.1112 72.8351 86.4072 71.0531 87.835 69.5752C87.835 69.3579 85.0686 68.9011 84.6719 68.8574C83.4199 68.7053 82.1455 68.6843 80.8936 68.7061ZM85.9014 30.4092C82.7162 37.3424 75.0064 42.7109 74.3691 50.709C73.9518 55.8818 76.0168 61.512 78.6309 65.9024C82.6947 65.5546 86.8468 65.489 90.8447 66.3584L91.042 66.293C92.338 64.3805 93.3708 62.0552 93.9639 59.7949C96.512 50.297 91.4151 43.3633 87.8125 35.126C87.1315 33.5611 86.5604 31.9741 85.9014 30.4092ZM83.2656 46.5576C91.1297 45.5145 94.3149 55.3168 87.8789 58.9248C82.2773 62.0546 75.841 56.3383 78.3672 50.4483C79.1362 48.6879 81.3107 46.8184 83.2656 46.5576Z" fill="#0E0E0E"/>
</svg>
