<svg width="90" height="100" viewBox="0 0 90 100" fill="none" xmlns="http://www.w3.org/2000/svg">
<path d="M73.5459 90.7845C74.3147 89.611 76.2696 90.3713 77.1484 91.0667C78.0271 91.7622 77.8295 91.8275 77.3682 91.6536C76.6654 91.371 76.2476 90.7191 75.2373 90.7191C74.3368 90.7194 73.349 91.8713 74.1836 92.5667L86.8584 92.5013L87.1875 93.1097H86.2432V96.348C86.2432 96.9781 84.6843 96.6745 84.6396 96.0228C84.9692 96.0228 85.3643 96.1308 85.584 95.8265V93.1097L83.6289 93.2405V96.4349C83.7607 96.913 86.6825 98.2823 87.2539 98.804C87.7151 99.2169 87.5393 99.6299 87.1221 99.9993C86.4853 99.6516 86.8583 99.3043 86.7705 99.0218C86.6826 98.7175 83.2777 97.0654 82.9043 96.5003V93.1312H81.3008V98.5433C79.8072 98.4998 80.7731 96.4358 80.6416 95.4359C80.4878 94.1754 78.8187 95.3265 78.6865 96.1741L78.1377 95.9134C78.7742 94.8703 77.0394 94.2404 76.5781 95.2835C75.8532 96.9788 77.7643 97.5655 78.4893 98.348C79.2139 99.1301 78.5766 98.6524 78.4229 98.6741C78.0491 98.7389 76.6654 97.4132 76.4238 97.0872C74.7545 94.9573 76.8632 92.8711 78.5547 95.1097C79.038 94.1968 79.7414 94.2622 80.6201 94.5882L80.4883 93.1312H74.3369V98.5023L73.5684 98.1741V93.1097C73.0851 93.1097 72.558 93.2617 72.2285 92.7835C72.1629 92.4797 72.4479 92.5886 72.6455 92.5452C72.9529 92.5018 73.2385 92.5233 73.5459 92.5667C73.3922 91.8279 73.0629 91.5015 73.5459 90.7845ZM12.126 91.0452C12.4994 90.1325 13.5535 90.1109 14.3662 90.3499C14.5858 90.4151 16.6064 91.3706 16.2998 91.6751C15.487 91.3708 14.5203 90.5671 13.5977 90.7845C12.8728 90.9367 12.258 92.0229 12.917 92.6097L27.3057 92.5013L27.6572 93.1312H26.8662V98.5433C25.7678 98.4781 26.3169 97.1739 26.207 96.4349C25.8336 96.4349 25.5917 96.7613 25.1963 96.8265C23.8344 97.0438 23.0219 96.1742 22.6484 94.9788C22.1652 95.0658 20.7587 94.7836 20.5391 95.2835C20.1439 96.4571 20.9573 97.3695 21.6602 98.2171C21.5503 98.391 21.3085 98.4996 21.1328 98.3909C20.9572 98.2823 20.1666 96.9147 20.0781 96.7181C19.8365 96.1965 19.6165 95.4355 19.8799 94.8704C19.9458 94.74 20.4736 94.305 20.5176 94.305H22.9775C22.9336 94.5006 22.6485 94.87 23.0439 94.8265C23.9883 94.7176 24.5596 93.8049 23.7031 93.1312H17.9248C17.9222 93.1373 17.7939 94.5013 17.7939 94.5013C17.3546 94.8056 14.8721 94.1096 15.0039 95.1312C15.1357 96.1309 15.8605 95.4139 16.3877 95.3704C17.7277 95.2184 19.1115 96.8483 17.8154 97.5872C17.2223 97.935 17.2885 97.6955 16.959 97.2825C18.8256 96.4783 16.7609 95.1316 15.7725 96.3704C14.6747 97.7611 16.9141 98.6303 17.8809 99.1302C17.0461 99.3037 15.3556 98.3915 14.96 97.6527C14.4987 96.7617 15.0911 96.4137 15.0693 95.9573C15.0474 95.5009 14.7397 95.5438 14.6299 95.3265C13.9055 93.6969 16.0139 93.7618 17.0684 94.0443V93.1097H13.1367L12.9385 93.305V98.5218L12.2793 98.1956V93.1097H10.6758V98.5218L9.86328 98.1741L9.95117 93.2405C9.81939 93.045 8.6111 93.0009 8.41309 93.305V98.5218L7.73242 98.1741V96.0872C7.3151 96.0872 6.94171 96.2178 6.48047 96.1527C6.10703 96.0875 5.55758 95.6309 5.42578 95.6527C5.29364 95.6747 4.52491 96.2833 4.54688 96.4788L6.41406 98.348L5.90918 98.5218C5.46984 97.7394 4.63463 97.1089 4.10742 96.4134C3.58034 95.7181 3.2512 95.37 3.82227 94.9788L4.70117 95.3704L4.7666 93.2405C4.45906 92.8059 2.50392 93.6528 2.54785 92.4573L12.3018 92.5882C12.2359 91.9579 11.8625 91.7189 12.126 91.0452ZM62.9141 89.9583C64.4518 89.4367 65.2424 91.4583 65.9453 92.4798C66.4286 92.4581 66.9122 92.6097 67.3955 92.6097C68.1204 92.6097 69.6793 92.0667 69.7236 93.1312H66.3848V95.1097C66.7143 95.1097 66.8248 94.8048 67.1543 94.7396C68.1864 94.501 68.8017 95.6094 68.8018 96.5003C68.8018 97.3914 68.4936 97.4785 68.2959 97.848C68.0543 98.239 67.8564 97.8048 67.6367 97.5657C67.9443 96.8485 68.5595 96.2176 68.1201 95.4134C67.7901 95.1532 66.4072 95.7833 66.4072 95.9788V98.5648L66.3633 98.5218C65.309 98.4566 65.7918 97.2615 65.7041 96.5443C65.3307 96.5443 65.0888 96.8697 64.6934 96.9349C62.2112 97.326 61.7939 93.5445 64.6494 94.2181L65.7041 95.0872L65.5723 93.1751L61.8154 93.0443L61.7061 92.4573L65.2207 92.5228L65.5723 92.3929C65.2428 91.9365 64.7595 91.0235 64.2324 90.806C63.7052 90.5886 63.1118 91.3058 62.9141 89.9583ZM30.6445 92.4573C31.5453 92.3053 33.3686 92.4573 34.3789 92.4573C36.5975 92.4573 38.8381 92.4576 41.0566 92.6097C41.6936 92.6532 41.9796 92.1752 42.3311 93.1312C42.0015 93.1312 41.6054 93.0232 41.3857 93.3275V98.5433L40.7051 98.1956L40.793 95.5003L39.0576 95.3919L38.9043 95.5003L38.6406 96.305C38.3551 96.066 37.564 95.24 37.7832 94.8704C37.893 94.8704 38.0474 94.7181 38.1133 94.7181H40.8594C40.7935 94.2182 41.0565 93.5224 40.6611 93.1312H36.6631L36.4658 93.3275V98.5433L35.8066 98.2171V94.9788H34.2031C34.7523 95.5222 35.4551 96.9572 34.335 97.305C33.2146 97.6528 31.7201 96.0436 31.3906 94.9134C31.3034 94.6532 31.6548 94.6528 31.7646 94.7396C31.9843 94.8917 32.3356 96.1748 33.0605 96.5443C33.8951 96.9788 34.5762 96.4571 34.1592 95.6097C33.8957 95.0665 33.1712 94.8704 32.9951 94.3275H35.8066V93.1312H30.666L30.6445 93.1097C30.4688 93.0662 30.1173 92.5443 30.6445 92.4573ZM74.3809 98.5218L74.3369 98.5433V98.5023L74.3809 98.5218ZM47.208 92.4798C49.2948 92.306 51.4035 92.5665 53.4902 92.5882C55.0499 92.5882 56.2582 92.4578 57.8838 92.5882C58.4109 92.6316 58.6749 92.1752 59.0264 93.1097C58.6969 93.1097 58.3008 93.0009 58.0811 93.305V98.5218L57.4219 98.2611V95.3489L55.6865 95.4134L55.5547 96.1966C55.4881 96.7386 54.2594 95.2393 54.501 94.8265C54.6107 94.8262 54.7642 94.6753 54.8301 94.6751H57.4443V93.0882H53.1611V98.5003L52.502 98.1741V94.9359H50.8984C52.8309 96.9135 50.459 98.4344 48.8994 96.3265C48.7237 96.1092 48.1745 95.1098 48.1084 94.8704C48.0205 94.6097 48.3496 94.6097 48.4814 94.6966C48.723 94.8487 49.0089 96.1521 49.9092 96.5218C50.7438 96.8695 51.2936 96.3483 50.8984 95.5443C50.6348 95.0009 49.9092 94.8053 49.7334 94.262H52.5459V93.0667C51.8214 92.9364 47.6298 93.2399 47.3398 93.0667L47.2734 93.1097C47.2724 93.1017 47.2277 92.7626 47.0762 92.7191L47.208 92.4798ZM64.4961 96.348C66.3847 95.848 65.3305 94.5013 63.793 94.8489C62.8044 95.0663 62.9145 96.7609 64.4961 96.348ZM24.4277 93.1097C24.3179 93.5009 24.6475 93.7837 24.6914 94.1097C24.8451 95.2397 23.4392 95.2398 23.373 95.5657C23.5927 97.0872 26.0528 96.0655 26.1846 95.1527C26.2285 94.8913 26.207 93.3485 26.1191 93.2181L24.4492 93.0882L24.4277 93.1097ZM46.5928 95.7611H42.7266V95.5657L42.9238 95.3489H46.5928V95.7611ZM5.46973 95.1527C6.17268 95.7178 7.05144 95.7395 7.73242 95.1527V93.1097H5.46973V95.1527ZM90 87.6976H0V85.8509H90V87.6976ZM64.1221 1.34602C64.4517 -0.262093 66.8457 -0.501104 67.5928 1.01985C68.098 4.06267 68.6697 6.99707 69.7021 9.90949C72.7116 18.4512 78.8402 26.1671 78.3789 35.6868C78.1812 39.7946 76.7534 43.7503 74.7764 47.3148C75.6111 47.8147 76.5339 48.0976 77.3906 48.554C81.4984 50.7492 84.1125 54.3574 82.9043 59.139L82.9258 59.1605H77.7197C77.9614 55.4438 74.9738 52.4006 71.7666 50.9661C70.1851 52.1615 68.845 53.922 68.0322 55.7259C67.7027 56.4431 67.571 57.5951 66.9561 58.095C65.8577 59.0079 63.9904 59.1167 62.6943 58.595C60.9371 57.8995 61.0692 56.5735 60.4102 55.0521C59.4875 52.9656 57.9273 51.0533 56.5215 49.2493C51.6009 50.2492 47.1638 54.183 49.1846 59.5296H55.4014L55.4668 61.2464C57.268 60.2467 59.2453 59.5302 61.332 59.3997C64.5392 59.1824 71.6566 59.7688 71.1514 64.3548C70.8219 67.2672 65.8579 67.4845 63.6611 67.2454L63.2656 66.2679C64.5396 66.1375 65.5941 66.2677 66.6045 65.4202C68.2301 64.0727 67.6587 62.0943 65.9014 61.2249C62.8699 59.7689 57.9496 61.3558 57.6641 65.0072C57.3786 68.6801 60.915 70.4186 64.1221 70.6361C66.0113 70.7665 68.0327 70.4184 69.8779 70.7445C69.9438 71.0705 70.0971 72.4837 69.7236 72.5706C69.5029 72.6139 67.9221 72.4405 67.4609 72.4622C64.9128 72.5492 60.4535 72.8314 59.5527 75.7435C57.9931 80.7859 65.1112 81.9166 68.6699 81.721C72.1626 81.5253 76.029 80.0254 78.3574 77.4173V61.5726L78.1592 61.3773H74.2275V59.3997H89.8457V61.3118L89.6484 61.4857C89.6046 61.4857 89.5388 61.378 89.5166 61.3773H82.9697L82.7725 61.5726V84.0247L82.5752 84.22H78.3789V80.1995L78.1152 80.0687C75.7428 81.677 72.843 82.8076 69.9873 83.264C65.9013 83.9377 57.1371 83.655 54.9404 79.4603C54.0398 77.7433 54.2587 75.3743 55.5986 73.9398C57.0265 72.4183 58.4331 72.44 60.1904 71.7445C60.3222 71.7012 60.4979 71.7444 60.4541 71.5491C57.6862 71.2449 53.8851 69.9404 53.1602 66.9193C52.699 64.985 53.3584 62.8333 54.9619 61.638H49.3604V84.0247L49.1631 84.22H45.4941V61.5511C45.6259 59.7907 44.6812 58.1824 44.5713 56.5306C44.1759 50.9448 49.9538 47.7281 54.7207 46.6849C51.1181 39.6646 48.8988 31.7095 52.3037 24.1458C55.2692 17.5386 62.1227 12.5614 63.6387 5.3675C63.9242 4.01995 63.8585 2.58489 64.1221 1.34602ZM26.7783 47.4017C28.0087 47.6413 32.7525 52.9006 33.7852 54.0745C35.1909 55.6828 36.5092 57.3779 37.8711 59.0296H43.5391V60.9427L43.3418 61.138H37.3887V83.8724H33.6543V61.3558L33.4561 61.1595H27.2393V83.8939H22.8242V79.0042C21.1767 80.0692 18.9799 80.8735 17.0029 81.1126C11.9065 81.7647 2.70171 79.9817 2.89941 73.3743C3.14146 65.8113 14.5858 64.8546 20.1436 66.2454C20.6268 66.3758 21.111 66.6153 21.6162 66.7239C21.3527 66.9412 21.0229 67.7233 20.7812 67.8323C20.2321 68.0714 18.826 67.463 18.0791 67.3978C16.2558 67.2456 13.8609 67.3979 12.1475 67.9847C11.8169 68.0939 10.0609 68.8324 10.1484 69.18L22.8242 76.2435V61.182H0.131836V59.0736H33.917C33.6534 58.4869 33.0829 57.8566 32.6436 57.3568C31.5672 56.0962 25.5256 49.2923 24.2295 49.2923H21.0889V47.4456H26.7559L26.7783 47.4017ZM9.3584 69.9193C6.59053 71.984 6.72242 75.9832 9.70996 77.8958C13.027 80.0038 17.9038 79.8516 21.2207 77.8304C21.4189 77.7214 22.3186 77.2 22.165 76.9827V77.0042L9.3584 69.9193ZM60.8936 48.7064L64.4961 54.7913C65.1112 52.8354 66.4072 51.0534 67.835 49.5755C67.835 49.3582 65.0686 48.9015 64.6719 48.8577C63.4199 48.7056 62.1455 48.6846 60.8936 48.7064ZM65.9014 10.4095C62.7162 17.3427 55.0064 22.7112 54.3691 30.7093C53.9518 35.8821 56.0168 41.5123 58.6309 45.9027C62.6947 45.5549 66.8468 45.4894 70.8447 46.3587L71.042 46.2933C72.338 44.3808 73.3708 42.0555 73.9639 39.7952C76.512 30.2973 71.4151 23.3636 67.8125 15.1263C67.1315 13.5614 66.5604 11.9744 65.9014 10.4095ZM63.2656 26.5579C71.1297 25.5148 74.3149 35.3171 67.8789 38.9251C62.2773 42.0549 55.841 36.3386 58.3672 30.4486C59.1362 28.6882 61.3107 26.8187 63.2656 26.5579Z" fill="#0E0E0E"/>
</svg>
