<svg width="643" height="271" viewBox="0 0 643 271" fill="none" xmlns="http://www.w3.org/2000/svg">
<path d="M6.82578 230V157.1H43.7258C51.2591 157.1 56.8925 158.833 60.6258 162.3C64.3591 165.7 66.2258 170.233 66.2258 175.9C66.2258 178.633 65.6925 181.067 64.6258 183.2C63.6258 185.333 62.1925 187.133 60.3258 188.6C58.4591 190.067 56.2258 191.1 53.6258 191.7L53.5258 192.4C56.9258 192.933 59.6924 194 61.8258 195.6C63.9591 197.133 65.5258 199.067 66.5258 201.4C67.5925 203.667 68.1258 206.2 68.1258 209C68.1258 213.667 67.0591 217.567 64.9258 220.7C62.8591 223.833 59.8591 226.167 55.9258 227.7C51.9924 229.233 47.1591 230 41.4258 230H6.82578ZM24.2258 216.4H39.3258C43.1258 216.4 45.8258 215.633 47.4258 214.1C49.0925 212.5 49.9258 210.433 49.9258 207.9C49.9258 204.9 48.9925 202.733 47.1258 201.4C45.3258 200 42.8925 199.3 39.8258 199.3H22.7258V186.2H39.0258C41.1591 186.2 42.8924 185.867 44.2258 185.2C45.5591 184.533 46.5258 183.633 47.1258 182.5C47.7925 181.3 48.1258 179.9 48.1258 178.3C48.1258 175.7 47.2591 173.8 45.5258 172.6C43.8591 171.333 41.5925 170.7 38.7258 170.7H24.2258V216.4ZM108.498 231C102.898 231 97.8318 230.167 93.2984 228.5C88.8318 226.833 84.9651 224.433 81.6984 221.3C78.4318 218.1 75.9318 214.167 74.1984 209.5C72.4651 204.833 71.5984 199.5 71.5984 193.5C71.5984 187.5 72.4651 182.2 74.1984 177.6C75.9318 172.933 78.4318 169.033 81.6984 165.9C84.9651 162.7 88.8318 160.267 93.2984 158.6C97.8318 156.933 102.898 156.1 108.498 156.1C114.032 156.1 119.065 156.933 123.598 158.6C128.132 160.267 132.032 162.7 135.298 165.9C138.565 169.1 141.065 173 142.798 177.6C144.532 182.2 145.398 187.5 145.398 193.5C145.398 199.5 144.532 204.833 142.798 209.5C141.065 214.167 138.565 218.1 135.298 221.3C132.032 224.433 128.132 226.833 123.598 228.5C119.065 230.167 114.032 231 108.498 231ZM108.498 215.7C112.232 215.7 115.498 214.9 118.298 213.3C121.098 211.7 123.232 209.267 124.698 206C126.232 202.733 126.998 198.567 126.998 193.5C126.998 189.7 126.565 186.433 125.698 183.7C124.832 180.9 123.565 178.6 121.898 176.8C120.298 175 118.365 173.667 116.098 172.8C113.832 171.867 111.298 171.4 108.498 171.4C104.765 171.4 101.498 172.2 98.6984 173.8C95.9651 175.333 93.8318 177.733 92.2984 181C90.7651 184.267 89.9984 188.433 89.9984 193.5C89.9984 197.3 90.4318 200.633 91.2984 203.5C92.2318 206.3 93.4984 208.6 95.0984 210.4C96.6984 212.2 98.6318 213.533 100.898 214.4C103.165 215.267 105.698 215.7 108.498 215.7Z" fill="white"/>
<path d="M471.427 231C465.827 231 460.761 230.167 456.227 228.5C451.761 226.833 447.894 224.433 444.627 221.3C441.361 218.1 438.861 214.167 437.127 209.5C435.394 204.833 434.527 199.5 434.527 193.5C434.527 187.5 435.394 182.2 437.127 177.6C438.861 172.933 441.361 169.033 444.627 165.9C447.894 162.7 451.761 160.267 456.227 158.6C460.761 156.933 465.827 156.1 471.427 156.1C476.961 156.1 481.994 156.933 486.527 158.6C491.061 160.267 494.961 162.7 498.227 165.9C501.494 169.1 503.994 173 505.727 177.6C507.461 182.2 508.327 187.5 508.327 193.5C508.327 199.5 507.461 204.833 505.727 209.5C503.994 214.167 501.494 218.1 498.227 221.3C494.961 224.433 491.061 226.833 486.527 228.5C481.994 230.167 476.961 231 471.427 231ZM471.427 215.7C475.161 215.7 478.427 214.9 481.227 213.3C484.027 211.7 486.161 209.267 487.627 206C489.161 202.733 489.927 198.567 489.927 193.5C489.927 189.7 489.494 186.433 488.627 183.7C487.761 180.9 486.494 178.6 484.827 176.8C483.227 175 481.294 173.667 479.027 172.8C476.761 171.867 474.227 171.4 471.427 171.4C467.694 171.4 464.427 172.2 461.627 173.8C458.894 175.333 456.761 177.733 455.227 181C453.694 184.267 452.927 188.433 452.927 193.5C452.927 197.3 453.361 200.633 454.227 203.5C455.161 206.3 456.427 208.6 458.027 210.4C459.627 212.2 461.561 213.533 463.827 214.4C466.094 215.267 468.627 215.7 471.427 215.7ZM558.803 230L541.003 200.3L530.903 211.8V191L558.303 157.1H579.603L553.303 187.3L579.903 230H558.803ZM513.903 230V157.1H531.803V230H513.903ZM608.978 231C602.312 231 596.678 230 592.078 228C587.545 226 584.078 223.2 581.678 219.6C579.345 215.933 578.178 211.733 578.178 207H596.378C596.378 209.067 596.845 210.867 597.778 212.4C598.712 213.933 600.145 215.133 602.078 216C604.012 216.867 606.545 217.3 609.678 217.3C612.012 217.3 614.012 217.033 615.678 216.5C617.412 215.967 618.745 215.133 619.678 214C620.612 212.8 621.078 211.267 621.078 209.4C621.078 208 620.812 206.867 620.278 206C619.812 205.133 618.978 204.4 617.778 203.8C616.645 203.2 615.045 202.667 612.978 202.2C610.912 201.733 608.312 201.267 605.178 200.8C600.978 200.133 597.278 199.233 594.078 198.1C590.878 196.9 588.212 195.433 586.078 193.7C583.945 191.967 582.345 189.9 581.278 187.5C580.212 185.1 579.678 182.3 579.678 179.1C579.678 174.367 580.845 170.3 583.178 166.9C585.578 163.433 588.945 160.8 593.278 159C597.678 157.133 602.912 156.2 608.978 156.2C614.778 156.2 619.812 157.133 624.078 159C628.345 160.8 631.645 163.333 633.978 166.6C636.312 169.867 637.512 173.667 637.578 178H619.478C619.412 175.933 618.845 174.3 617.778 173.1C616.778 171.833 615.445 170.933 613.778 170.4C612.112 169.867 610.345 169.6 608.478 169.6C606.412 169.6 604.612 169.867 603.078 170.4C601.545 170.933 600.345 171.733 599.478 172.8C598.678 173.8 598.278 175.133 598.278 176.8C598.278 178.467 598.712 179.8 599.578 180.8C600.512 181.733 602.178 182.533 604.578 183.2C606.978 183.867 610.412 184.533 614.878 185.2C617.878 185.667 620.812 186.3 623.678 187.1C626.612 187.9 629.278 189.1 631.678 190.7C634.145 192.3 636.078 194.5 637.478 197.3C638.945 200.1 639.678 203.733 639.678 208.2C639.678 212.667 638.512 216.633 636.178 220.1C633.912 223.5 630.512 226.167 625.978 228.1C621.445 230.033 615.778 231 608.978 231Z" fill="white"/>
<rect x="159" y="3.14014" width="60" height="240" transform="rotate(-3 159 3.14014)" fill="#32130C"/>
<rect x="250.22" y="1.14014" width="40" height="240" transform="rotate(4 250.22 1.14014)" fill="#FFBD09"/>
<rect x="292.123" y="43.1401" width="60" height="200" transform="rotate(-2 292.123 43.1401)" fill="#76199D"/>
<rect x="381.044" y="11" width="40" height="230" transform="rotate(4 381.044 11)" fill="#D21010"/>
<path d="M330.535 66.7129C331.033 66.6555 331.41 66.5523 331.665 66.4033C331.92 66.2543 332.104 66.0878 332.218 65.9037C332.372 65.7182 332.455 65.5252 332.468 65.3246C332.482 65.144 332.48 64.8039 332.462 64.3042L332.577 64.1501L333.713 64.0204L333.835 64.0761C333.84 64.216 333.837 64.4163 333.826 64.6768C333.815 64.9374 333.805 65.2179 333.795 65.5184C333.786 65.8189 333.776 66.1094 333.766 66.39C333.756 66.6905 333.755 66.9507 333.763 67.1705L333.865 70.0788C333.873 70.3186 333.884 70.6184 333.896 70.9782C333.929 71.3573 333.963 71.7364 333.996 72.1154C334.029 72.4945 334.052 72.8539 334.063 73.1937C334.096 73.5528 334.117 73.8523 334.125 74.0921C334.179 75.6512 333.958 77.0498 333.461 78.2879C332.985 79.5452 332.311 80.6094 331.441 81.4803C330.571 82.3512 329.544 83.0274 328.36 83.5091C327.177 84.0107 325.916 84.2848 324.576 84.3316C323.257 84.3777 321.99 84.2018 320.776 83.8039C319.582 83.4254 318.51 82.8324 317.562 82.025C316.633 81.2169 315.877 80.1927 315.293 78.9523C314.709 77.7119 314.389 76.2622 314.331 74.6032C314.325 74.4433 314.326 74.1931 314.334 73.8527C314.323 73.5328 314.311 73.1831 314.298 72.8033C314.285 72.4435 314.283 72.0834 314.29 71.7229C314.278 71.3831 314.269 71.1133 314.262 70.9134L314.164 68.1251C314.16 67.9852 314.142 67.7557 314.11 67.4366C314.079 67.1175 314.048 66.7884 314.016 66.4493C313.984 66.1102 313.953 65.7811 313.921 65.462C313.89 65.1429 313.872 64.9133 313.867 64.7734L313.985 64.7093L315.128 64.7594L315.253 64.9052C315.261 65.145 315.281 65.4245 315.312 65.7436C315.363 66.062 315.452 66.3091 315.578 66.4848C315.704 66.6405 315.899 66.7838 316.163 66.9146C316.428 67.0454 316.821 67.1318 317.343 67.1736C317.483 67.1687 317.643 67.1631 317.823 67.1568C318.023 67.1698 318.264 67.1715 318.544 67.1617C318.824 67.1719 319.164 67.17 319.564 67.1561C319.964 67.1421 320.463 67.1247 321.063 67.1037L325.95 66.9331C326.15 66.9261 326.45 66.9156 326.85 66.9017C327.269 66.887 327.709 66.8716 328.169 66.8556C328.628 66.8395 329.078 66.8138 329.517 66.7785C329.957 66.7631 330.296 66.7413 330.535 66.7129ZM316.695 73.5301C316.737 74.7294 316.963 75.7821 317.375 76.6883C317.807 77.5937 318.374 78.3444 319.075 78.9403C319.777 79.5562 320.583 80.0083 321.494 80.2967C322.425 80.6044 323.41 80.7401 324.45 80.7038C325.529 80.6661 326.513 80.4617 327.4 80.0905C328.308 79.7186 329.08 79.1913 329.716 78.5087C330.354 77.846 330.836 77.0387 331.163 76.0867C331.51 75.134 331.662 74.0581 331.62 72.8588L331.528 70.2204C330.947 70.2007 330.456 70.1878 330.056 70.1817C329.676 70.195 329.286 70.1986 328.886 70.1926C328.485 70.1866 328.045 70.1919 327.565 70.2087C327.106 70.2247 326.516 70.2453 325.796 70.2705L322.079 70.4003C320.879 70.4422 319.94 70.475 319.26 70.4987C318.602 70.5417 318.103 70.5892 317.764 70.641C317.247 70.7191 316.922 70.8605 316.789 71.0653C316.676 71.2694 316.628 71.6312 316.646 72.1509L316.695 73.5301ZM329.285 92.8103C329.326 93.9896 329.153 95.0463 328.766 95.9804C328.398 96.9138 327.875 97.7025 327.197 98.3466C326.54 99.0099 325.767 99.5172 324.879 99.8684C323.991 100.24 323.068 100.442 322.108 100.475C321.189 100.508 320.294 100.389 319.424 100.119C318.554 99.8491 317.779 99.4159 317.097 98.8193C316.416 98.2227 315.86 97.4717 315.428 96.5662C314.996 95.6607 314.759 94.5984 314.716 93.3791C314.672 92.1199 314.844 91.0132 315.231 90.0591C315.618 89.1051 316.14 88.3063 316.798 87.663C317.457 87.0396 318.21 86.563 319.059 86.2332C319.928 85.9027 320.823 85.7213 321.742 85.6892C322.721 85.655 323.657 85.7925 324.548 86.1016C325.44 86.4106 326.226 86.8635 326.907 87.4601C327.609 88.0759 328.165 88.827 328.577 89.7132C329.009 90.6186 329.245 91.651 329.285 92.8103ZM316.784 93.2769C316.805 93.8965 316.964 94.4313 317.26 94.8813C317.577 95.3505 317.97 95.737 318.441 96.0407C318.932 96.3438 319.48 96.5548 320.084 96.6738C320.71 96.812 321.342 96.87 321.982 96.8477C322.601 96.826 323.218 96.7144 323.831 96.5129C324.465 96.3307 325.026 96.0609 325.514 95.7037C326.002 95.3664 326.398 94.9524 326.701 94.4615C327.004 93.9706 327.145 93.4154 327.123 92.7958C327.101 92.1561 326.932 91.6017 326.615 91.1325C326.299 90.6832 325.896 90.3171 325.406 90.034C324.916 89.7509 324.368 89.5399 323.763 89.401C323.158 89.282 322.546 89.2333 321.927 89.255C321.287 89.2773 320.66 89.3792 320.046 89.5608C319.433 89.7623 318.872 90.032 318.363 90.37C317.876 90.7272 317.48 91.1513 317.177 91.6422C316.894 92.1324 316.763 92.6773 316.784 93.2769ZM326.705 106.603C327.601 107.032 328.352 107.636 328.96 108.415C329.567 109.195 329.89 110.124 329.927 111.203C329.949 111.823 329.89 112.435 329.752 113.041C329.613 113.646 329.382 114.194 329.059 114.686C328.736 115.197 328.311 115.623 327.782 115.961C327.274 116.319 326.662 116.561 325.946 116.686C325.429 116.764 324.88 116.813 324.301 116.833C323.722 116.873 323.142 116.904 322.563 116.924C321.884 116.968 321.254 117 320.675 117.02C320.115 117.039 319.496 117.061 318.816 117.085C318.356 117.101 318.008 117.163 317.772 117.271C317.556 117.399 317.411 117.544 317.337 117.707C317.225 117.931 317.153 118.163 317.121 118.405C317.09 118.666 317.08 118.956 317.091 119.276L316.975 119.37L315.957 119.466L315.835 119.41C315.861 118.989 315.874 118.518 315.876 117.998C315.879 117.498 315.871 117.007 315.855 116.528C315.838 116.048 315.821 115.568 315.804 115.089C315.768 114.61 315.722 114.161 315.667 113.743L316.26 113.512C316.522 113.563 316.913 113.599 317.434 113.621C317.956 113.663 318.377 113.688 318.698 113.697C319.459 113.71 320.169 113.715 320.83 113.712C321.49 113.709 322.08 113.699 322.599 113.681C323.059 113.665 323.559 113.637 324.098 113.598C324.636 113.559 325.104 113.473 325.499 113.339C326.133 113.157 326.592 112.811 326.874 112.301C327.177 111.81 327.317 111.245 327.295 110.605C327.274 110.005 327.145 109.459 326.908 108.967C326.67 108.475 326.385 108.055 326.053 107.706C325.741 107.377 325.412 107.118 325.065 106.93C324.719 106.742 324.415 106.653 324.155 106.662L321.067 106.77C320.668 106.784 320.338 106.795 320.078 106.804C319.838 106.813 319.628 106.82 319.448 106.826C319.269 106.853 319.1 106.869 318.94 106.874C318.8 106.899 318.641 106.925 318.462 106.951C318.044 107.006 317.727 107.097 317.511 107.224C317.316 107.371 317.151 107.527 317.017 107.692C316.863 107.857 316.769 108.051 316.737 108.272C316.725 108.493 316.724 108.753 316.734 109.053L316.59 109.208L315.602 109.302L315.48 109.246C315.476 109.106 315.478 108.896 315.488 108.616C315.499 108.335 315.508 108.035 315.517 107.714C315.506 107.394 315.505 107.094 315.516 106.814C315.506 106.534 315.498 106.324 315.494 106.184L315.436 104.535C315.431 104.395 315.423 104.175 315.413 103.875C315.383 103.596 315.363 103.297 315.352 102.977C315.321 102.678 315.291 102.379 315.26 102.08C315.23 101.801 315.213 101.591 315.208 101.451L315.327 101.417L316.349 101.441L316.472 101.527C316.483 101.847 316.503 102.126 316.531 102.366C316.58 102.624 316.687 102.83 316.853 102.985C316.998 103.12 317.182 103.243 317.406 103.356C317.63 103.468 317.943 103.537 318.344 103.563C318.484 103.578 318.625 103.583 318.765 103.578C318.905 103.593 319.055 103.598 319.215 103.593C319.376 103.607 319.566 103.61 319.786 103.603C320.006 103.595 320.276 103.586 320.596 103.574L323.684 103.467C324.063 103.453 324.383 103.442 324.643 103.433C324.903 103.424 325.132 103.406 325.332 103.379C325.532 103.372 325.711 103.356 325.87 103.33C326.03 103.325 326.2 103.309 326.379 103.282C326.577 103.235 326.765 103.169 326.942 103.083C327.119 102.996 327.237 102.922 327.295 102.86C327.548 102.651 327.689 102.396 327.718 102.095C327.748 101.794 327.757 101.483 327.746 101.163L327.862 101.039L328.881 101.004L328.975 101.121L329.028 102.65C329.044 103.109 329.062 103.599 329.08 104.119C329.119 104.658 329.175 105.126 329.249 105.524L329.435 106.568L328.872 106.768C328.647 106.615 328.333 106.526 327.932 106.5C327.552 106.493 327.162 106.497 326.762 106.511L326.705 106.603ZM336.458 134.897C336.512 136.436 336.29 137.815 335.792 139.033C335.295 140.251 334.6 141.286 333.709 142.137C332.819 142.989 331.771 143.646 330.566 144.108C329.362 144.591 328.091 144.855 326.752 144.902C325.472 144.947 324.227 144.8 323.014 144.462C321.821 144.124 320.742 143.591 319.776 142.864C318.831 142.157 318.039 141.264 317.401 140.185C316.763 139.107 316.379 137.85 316.249 136.413C316.265 137.433 316.176 138.337 315.983 139.124C315.771 139.912 315.546 140.65 315.31 141.339C315.055 142.048 314.829 142.747 314.633 143.434C314.437 144.121 314.352 144.855 314.38 145.634C314.389 145.914 314.441 146.242 314.534 146.619C314.608 147.017 314.783 147.431 315.058 147.862L315.001 147.954L314.176 148.403L314.055 148.377C313.459 147.938 312.95 147.395 312.527 146.75C312.105 146.104 311.879 145.371 311.85 144.552C311.827 143.872 311.962 143.167 312.257 142.436C312.532 141.726 312.846 140.975 313.199 140.182C313.531 139.39 313.843 138.569 314.133 137.718C314.404 136.868 314.523 135.983 314.491 135.064C314.464 134.284 314.307 133.529 314.021 132.799C313.737 132.088 313.438 131.568 313.126 131.239L313.153 131.148L314.311 130.778L314.402 130.804C314.717 131.234 315.068 131.812 315.453 132.539C315.839 133.266 316.077 134.058 316.167 134.915C316.135 133.435 316.369 132.127 316.87 130.988C317.371 129.85 318.057 128.886 318.93 128.095C319.824 127.323 320.864 126.726 322.05 126.305C323.236 125.883 324.498 125.649 325.838 125.602C327.257 125.553 328.594 125.726 329.848 126.122C331.123 126.518 332.234 127.11 333.182 127.897C334.15 128.684 334.925 129.667 335.506 130.848C336.088 132.028 336.405 133.378 336.458 134.897ZM318.678 135.488C318.712 136.467 318.943 137.33 319.369 138.075C319.816 138.84 320.388 139.471 321.086 139.967C321.804 140.462 322.627 140.833 323.556 141.081C324.506 141.328 325.51 141.433 326.569 141.396C327.649 141.359 328.643 141.174 329.552 140.842C330.481 140.529 331.276 140.081 331.936 139.498C332.597 138.934 333.104 138.256 333.456 137.463C333.829 136.67 333.998 135.784 333.964 134.804C333.93 133.845 333.711 133.002 333.305 132.276C332.899 131.549 332.348 130.948 331.651 130.472C330.954 129.996 330.131 129.645 329.183 129.418C328.254 129.19 327.25 129.095 326.171 129.133C324.992 129.174 323.928 129.361 322.979 129.694C322.05 130.027 321.255 130.475 320.594 131.038C319.953 131.601 319.466 132.259 319.132 133.011C318.798 133.763 318.647 134.589 318.678 135.488ZM319.886 158.029C319.007 157.519 318.284 156.874 317.717 156.093C317.149 155.313 316.844 154.313 316.801 153.093C316.782 152.534 316.833 151.982 316.954 151.437C317.075 150.912 317.279 150.425 317.563 149.975C317.848 149.545 318.225 149.161 318.694 148.825C319.182 148.487 319.774 148.237 320.468 148.072C320.647 148.026 320.845 147.979 321.064 147.931C321.283 147.904 321.562 147.874 321.901 147.842C322.261 147.83 322.69 147.805 323.189 147.767C323.709 147.749 324.349 147.727 325.108 147.7L327.807 147.606C328.026 147.598 328.245 147.541 328.461 147.433C328.677 147.325 328.814 147.241 328.872 147.178C329.105 146.97 329.236 146.715 329.266 146.414C329.295 146.113 329.305 145.803 329.293 145.483L329.41 145.389L330.43 145.353L330.523 145.44L330.574 146.909C330.59 147.369 330.607 147.858 330.625 148.378C330.663 148.897 330.719 149.355 330.793 149.753L330.98 150.797L330.417 150.997C330.335 150.96 330.184 150.935 329.964 150.923C329.763 150.91 329.543 150.897 329.302 150.886C329.061 150.874 328.831 150.872 328.611 150.88C328.392 150.888 328.222 150.893 328.102 150.898C327.842 150.907 327.522 150.908 327.141 150.901C326.781 150.914 326.401 150.917 326.001 150.911C325.621 150.924 325.251 150.927 324.891 150.92C324.531 150.932 324.231 150.943 323.991 150.951C323.471 150.969 322.942 151.008 322.404 151.067C321.886 151.125 321.409 151.221 320.973 151.357C320.281 151.581 319.772 151.899 319.446 152.311C319.141 152.741 319.001 153.327 319.027 154.066C319.048 154.666 319.166 155.192 319.382 155.645C319.599 156.118 319.853 156.519 320.145 156.849C320.436 157.179 320.746 157.448 321.073 157.657C321.421 157.865 321.725 157.994 321.987 158.045L324.986 157.941C325.905 157.909 326.614 157.864 327.112 157.806C327.611 157.769 328 157.725 328.278 157.676C328.537 157.627 328.745 157.559 328.902 157.474C329.059 157.408 329.167 157.344 329.225 157.282C329.457 157.054 329.588 156.769 329.616 156.428C329.644 156.087 329.654 155.816 329.647 155.617L329.763 155.492L330.782 155.457L330.877 155.574L330.895 156.113C330.902 156.313 330.911 156.573 330.923 156.893C330.935 157.233 330.947 157.582 330.959 157.942C330.992 158.301 331.014 158.651 331.026 158.991C331.058 159.33 331.098 159.618 331.146 159.857L331.333 160.901L330.769 161.101C330.186 161.021 329.424 160.978 328.483 160.97C327.983 160.968 327.573 160.962 327.252 160.953C326.952 160.964 326.702 160.973 326.503 160.98C326.303 160.987 326.143 160.992 326.023 160.996C325.923 161 325.823 161.003 325.723 161.007L323.265 161.093C322.165 161.131 321.197 161.195 320.359 161.284C319.981 161.337 319.673 161.398 319.435 161.467C319.217 161.534 319.041 161.65 318.907 161.815C318.753 162.001 318.661 162.214 318.629 162.455C318.618 162.696 318.618 162.986 318.63 163.326L318.514 163.45L317.497 163.545L317.405 163.489C317.431 163.107 317.448 162.737 317.456 162.376C317.443 162.016 317.429 161.597 317.412 161.117C317.395 160.637 317.377 160.128 317.358 159.588C317.32 159.049 317.271 158.53 317.214 158.032L317.807 157.831C318.029 157.883 318.321 157.933 318.683 157.981C319.066 158.047 319.448 158.094 319.829 158.121L319.886 158.029ZM317.658 171.615C317.653 171.475 317.656 171.265 317.666 170.984C317.677 170.704 317.686 170.403 317.695 170.083C317.684 169.763 317.683 169.463 317.693 169.182C317.684 168.902 317.676 168.692 317.671 168.552L317.615 166.933C317.61 166.793 317.602 166.574 317.592 166.274C317.562 165.995 317.542 165.695 317.531 165.375C317.5 165.076 317.47 164.777 317.439 164.478C317.409 164.199 317.392 163.989 317.387 163.849L317.506 163.815L318.528 163.84L318.651 163.925C318.661 164.225 318.682 164.535 318.713 164.854C318.764 165.172 318.872 165.409 319.038 165.563C319.183 165.698 319.366 165.792 319.588 165.844C319.81 165.896 320.122 165.935 320.523 165.961C320.663 165.976 320.804 165.982 320.944 165.977C321.084 165.992 321.234 165.996 321.394 165.991C321.555 166.005 321.745 166.009 321.965 166.001C322.185 165.993 322.455 165.984 322.775 165.973L326.162 165.854C326.542 165.841 326.842 165.831 327.062 165.823C327.302 165.815 327.501 165.798 327.661 165.772C327.82 165.767 327.96 165.752 328.079 165.727C328.219 165.723 328.379 165.707 328.558 165.681C328.756 165.634 328.944 165.567 329.121 165.481C329.298 165.395 329.416 165.321 329.474 165.259C329.727 165.05 329.868 164.794 329.897 164.493C329.927 164.192 329.936 163.882 329.925 163.562L330.041 163.438L331.06 163.402L331.154 163.519L331.207 165.048C331.223 165.508 331.241 165.997 331.259 166.517C331.297 167.036 331.353 167.494 331.427 167.892L331.613 168.936L331.05 169.136C330.969 169.099 330.837 169.063 330.656 169.03C330.495 169.015 330.315 169.001 330.114 168.988C329.934 168.995 329.744 168.991 329.544 168.978C329.364 168.985 329.214 168.99 329.094 168.994C328.934 169 328.784 168.995 328.643 168.98C328.523 168.984 328.373 168.989 328.193 168.995C328.033 169.001 327.823 168.998 327.563 168.987C327.303 168.997 326.983 169.008 326.603 169.021L323.245 169.138C322.846 169.152 322.516 169.164 322.256 169.173C322.017 169.201 321.807 169.218 321.627 169.225C321.448 169.251 321.279 169.267 321.119 169.273C320.979 169.297 320.82 169.323 320.641 169.349C320.223 169.404 319.904 169.455 319.686 169.503C319.488 169.57 319.322 169.685 319.188 169.85C319.033 170.016 318.941 170.239 318.911 170.52C318.901 170.821 318.902 171.121 318.912 171.421L318.768 171.576L317.78 171.671L317.658 171.615ZM335.945 164.882C336.184 164.874 336.426 164.916 336.669 165.007C336.913 165.099 337.127 165.231 337.314 165.405C337.52 165.578 337.677 165.773 337.784 165.989C337.913 166.225 337.981 166.472 337.99 166.732C338.008 167.232 337.814 167.689 337.408 168.103C337.023 168.537 336.58 168.763 336.081 168.78C335.821 168.789 335.569 168.738 335.325 168.626C335.101 168.534 334.896 168.391 334.709 168.198C334.523 168.024 334.376 167.819 334.268 167.583C334.159 167.346 334.101 167.108 334.093 166.868C334.075 166.349 334.249 165.892 334.615 165.499C334.982 165.106 335.425 164.901 335.945 164.882ZM323.433 178.817L321.037 177.25C320.812 177.118 320.598 176.985 320.393 176.852C320.189 176.739 319.987 176.686 319.787 176.693C319.607 176.7 319.45 176.785 319.316 176.95C319.181 177.115 319.081 177.399 319.015 177.801L318.899 177.925L317.94 177.959L317.846 177.842C317.891 177.42 317.919 177.079 317.93 176.818C317.941 176.558 317.941 176.258 317.929 175.918L317.845 173.519C317.833 173.179 317.801 172.84 317.749 172.502C317.698 172.184 317.646 171.825 317.592 171.427L317.707 171.303L318.727 171.267L318.912 171.411C318.938 172.15 319.15 172.773 319.548 173.28C319.966 173.805 320.503 174.287 321.159 174.724L325.034 177.381L329.255 173.601C329.545 173.331 329.776 173.043 329.945 172.737C330.134 172.43 330.241 172.046 330.265 171.585L330.409 171.4L331.428 171.364L331.552 171.48C331.524 171.821 331.497 172.192 331.471 172.593C331.446 173.014 331.439 173.395 331.451 173.735L331.532 176.073C331.544 176.393 331.576 176.752 331.63 177.15C331.685 177.569 331.739 177.977 331.793 178.375L331.677 178.5L330.718 178.533L330.594 178.417C330.476 177.921 330.353 177.555 330.225 177.32C330.097 177.104 329.924 177 329.704 177.008C329.424 177.017 328.893 177.296 328.112 177.844L326.511 179.28C327.635 179.942 328.422 180.404 328.871 180.669C329.321 180.933 329.595 181.064 329.695 181.06C330.075 181.047 330.312 180.959 330.407 180.795C330.501 180.632 330.58 180.319 330.644 179.856L330.76 179.732L331.719 179.699L331.813 179.816C331.768 180.237 331.74 180.579 331.729 180.839C331.718 181.1 331.718 181.4 331.73 181.74L331.814 184.138C331.826 184.478 331.857 184.807 331.909 185.126C331.96 185.464 332.013 185.832 332.067 186.231L331.951 186.355L330.932 186.39L330.866 186.213C330.84 185.473 330.598 184.841 330.139 184.317C329.701 183.812 329.155 183.351 328.5 182.933L324.94 180.716L320.752 184.555C320.48 184.804 320.213 185.164 319.949 185.633C319.706 186.122 319.546 186.688 319.468 187.331L319.324 187.516L318.305 187.552L318.181 187.436C318.209 187.095 318.236 186.714 318.261 186.293C318.287 185.891 318.294 185.521 318.282 185.181L318.201 182.843C318.189 182.523 318.156 182.154 318.102 181.735C318.047 181.317 317.993 180.909 317.939 180.51L318.055 180.386L319.014 180.353L319.138 180.468C319.222 181.146 319.514 181.476 320.013 181.458C320.373 181.446 320.766 181.242 321.193 180.847L323.433 178.817ZM332.813 193.831C332.854 195.01 332.681 196.067 332.293 197.001C331.926 197.935 331.403 198.723 330.725 199.367C330.068 200.031 329.295 200.538 328.407 200.889C327.519 201.26 326.595 201.463 325.636 201.496C324.717 201.528 323.822 201.41 322.952 201.14C322.082 200.87 321.306 200.437 320.625 199.84C319.944 199.244 319.387 198.493 318.956 197.587C318.524 196.682 318.286 195.619 318.244 194.4C318.2 193.141 318.371 192.034 318.758 191.08C319.145 190.126 319.668 189.327 320.326 188.684C320.984 188.06 321.738 187.584 322.587 187.254C323.456 186.924 324.35 186.742 325.27 186.71C326.249 186.676 327.185 186.813 328.076 187.122C328.967 187.431 329.754 187.884 330.435 188.481C331.137 189.097 331.693 189.848 332.104 190.734C332.536 191.639 332.772 192.672 332.813 193.831ZM320.312 194.298C320.333 194.917 320.492 195.452 320.788 195.902C321.104 196.371 321.498 196.758 321.969 197.062C322.46 197.365 323.008 197.576 323.612 197.695C324.237 197.833 324.87 197.891 325.509 197.869C326.129 197.847 326.745 197.735 327.359 197.534C327.993 197.352 328.554 197.082 329.042 196.725C329.53 196.387 329.926 195.973 330.229 195.482C330.532 194.991 330.673 194.436 330.651 193.817C330.629 193.177 330.459 192.623 330.143 192.153C329.827 191.704 329.424 191.338 328.934 191.055C328.443 190.772 327.896 190.561 327.291 190.422C326.686 190.303 326.074 190.254 325.454 190.276C324.815 190.298 324.188 190.4 323.574 190.582C322.961 190.783 322.4 191.053 321.891 191.391C321.403 191.748 321.008 192.172 320.705 192.663C320.422 193.153 320.291 193.698 320.312 194.298ZM331.141 210.414L331.025 207.116C329.866 207.156 328.786 207.184 327.786 207.199C326.807 207.233 325.948 207.263 325.208 207.289C324.488 207.314 323.898 207.325 323.438 207.321C322.978 207.337 322.698 207.347 322.599 207.35C321.819 207.377 321.305 207.545 321.055 207.854C320.806 208.163 320.688 208.518 320.702 208.917C320.713 209.217 320.754 209.556 320.828 209.934C320.901 210.311 320.992 210.628 321.101 210.885L320.777 211.076L319.778 210.811C319.459 210.282 319.209 209.73 319.029 209.156C318.83 208.602 318.722 208.086 318.705 207.606C318.662 206.387 318.912 205.508 319.453 204.968C319.995 204.429 320.705 204.144 321.585 204.114C321.765 204.107 322.115 204.105 322.635 204.107C323.176 204.108 323.846 204.105 324.646 204.097C325.466 204.088 326.407 204.075 327.467 204.058C328.527 204.041 329.676 204.011 330.916 203.968L330.861 202.409L331.007 202.284L332.326 202.238L332.45 202.353L332.924 203.898C333.564 203.875 334.213 203.833 334.871 203.77C335.55 203.726 336.208 203.673 336.847 203.611L337.034 203.814L337.079 204.233C337.083 204.373 337.1 204.562 337.128 204.802C337.157 205.061 337.187 205.33 337.217 205.609C337.266 205.887 337.315 206.146 337.364 206.384C337.413 206.643 337.459 206.831 337.504 206.95L337.393 207.224C336.89 207.141 336.218 207.085 335.376 207.054C334.554 207.023 333.774 207.02 333.034 207.046L333.329 210.337L333.215 210.492L331.296 210.559L331.141 210.414ZM327.273 224.295L326.708 223.594C326.67 222.515 326.623 221.446 326.566 220.387C326.51 219.348 326.462 218.279 326.424 217.18L326.338 214.722C326.197 214.706 326.057 214.701 325.917 214.706C325.797 214.71 325.677 214.715 325.557 214.719C325.038 214.737 324.521 214.845 324.008 215.043C323.494 215.241 323.034 215.537 322.628 215.932C322.242 216.346 321.93 216.857 321.691 217.465C321.472 218.073 321.378 218.807 321.408 219.667C321.429 220.286 321.532 220.933 321.716 221.607C321.92 222.3 322.172 222.942 322.473 223.532L322.281 224.049L321.202 224.087L320.861 223.798C320.465 223.332 320.08 222.635 319.708 221.707C319.336 220.8 319.131 219.806 319.093 218.727C319.056 217.668 319.192 216.692 319.502 215.801C319.831 214.929 320.305 214.162 320.922 213.5C321.54 212.858 322.283 212.342 323.149 211.951C324.017 211.581 324.99 211.377 326.07 211.339C327.169 211.3 328.175 211.445 329.087 211.774C329.999 212.102 330.785 212.565 331.447 213.162C332.109 213.78 332.634 214.502 333.023 215.329C333.413 216.176 333.625 217.089 333.659 218.068C333.677 218.588 333.628 219.17 333.51 219.814C333.393 220.479 333.145 221.118 332.767 221.731C332.408 222.344 331.877 222.903 331.174 223.408C330.491 223.912 329.573 224.274 328.42 224.495L327.273 224.295ZM331.412 218.177C331.378 217.197 331.05 216.418 330.43 215.839C329.83 215.28 329.137 214.934 328.352 214.801L328.404 216.3C328.429 217 328.463 217.689 328.507 218.368C328.57 219.046 328.614 219.735 328.639 220.435C328.648 220.695 328.724 220.882 328.869 220.997C329.033 221.111 329.195 221.166 329.355 221.16C329.954 221.139 330.454 220.832 330.853 220.237C331.253 219.643 331.439 218.956 331.412 218.177Z" fill="white"/>
<path d="M400.257 25.0852L396.794 24.8431C396.046 24.7908 395.575 24.8401 395.383 24.9911C395.11 25.1952 394.958 25.5223 394.927 25.9724L394.895 26.4283L394.57 26.4056L394.926 21.3116L395.251 21.3343L395.22 21.7815C395.184 22.2841 395.323 22.655 395.635 22.8942C395.808 23.0238 396.234 23.1123 396.912 23.1597L404.592 23.6968C405.34 23.7491 405.811 23.7027 406.003 23.5575C406.276 23.3475 406.428 23.0175 406.46 22.5674L406.491 22.1203L406.815 22.143L406.511 26.5005C406.436 27.5643 406.267 28.3953 406.002 28.9935C405.742 29.5921 405.338 30.0837 404.788 30.4681C404.239 30.8526 403.607 31.0199 402.894 30.97C401.924 30.9022 401.157 30.5255 400.594 29.8401C400.031 29.1604 399.79 28.2361 399.872 27.0671C399.892 26.7807 399.934 26.4723 399.998 26.142C400.063 25.8117 400.149 25.4595 400.257 25.0852ZM400.757 25.1202C400.677 25.4259 400.614 25.6975 400.568 25.9352C400.522 26.1728 400.493 26.3763 400.481 26.5458C400.439 27.1537 400.636 27.6932 401.073 28.1643C401.515 28.6416 402.11 28.9064 402.859 28.9588C403.373 28.9947 403.857 28.9228 404.31 28.7431C404.769 28.5637 405.12 28.2887 405.363 27.918C405.612 27.5478 405.754 27.1172 405.788 26.6262C405.809 26.3281 405.78 25.9414 405.702 25.466L400.757 25.1202ZM402.363 33.7794L400.557 33.6531C401.714 34.4095 402.268 35.1413 402.218 35.8486C402.196 36.1701 402.078 36.4291 401.864 36.6256C401.657 36.8225 401.424 36.912 401.167 36.894C400.939 36.8781 400.752 36.7886 400.604 36.6256C400.457 36.4626 400.391 36.2759 400.406 36.0654C400.42 35.8609 400.536 35.6369 400.752 35.3936C400.974 35.1566 401.09 34.9767 401.098 34.854C401.106 34.7488 401.055 34.6307 400.947 34.4998C400.726 34.22 400.35 33.9206 399.82 33.6016L395.971 33.3325C395.527 33.3014 395.187 33.3334 394.951 33.4285C394.788 33.4935 394.647 33.6187 394.529 33.8043C394.41 33.9898 394.338 34.2638 394.313 34.6262L393.997 34.6041L394.284 30.4921L394.6 30.5141C394.572 30.9233 394.615 31.2317 394.729 31.4394C394.813 31.5921 394.954 31.7048 395.155 31.7776C395.252 31.8138 395.535 31.8482 396.002 31.8809L399.115 32.0985C400.05 32.1639 400.607 32.1823 400.785 32.1537C400.969 32.1313 401.105 32.0703 401.194 31.9708C401.283 31.8772 401.333 31.7544 401.343 31.6024C401.356 31.4212 401.327 31.2136 401.255 30.9795L401.577 30.9139L402.389 33.4112L402.363 33.7794ZM406.216 39.0275C406.199 39.273 406.097 39.4744 405.91 39.6316C405.728 39.7951 405.514 39.8683 405.269 39.8511C405.023 39.8339 404.819 39.7316 404.656 39.5439C404.492 39.3622 404.419 39.1485 404.436 38.903C404.454 38.6575 404.556 38.4533 404.744 38.2902C404.931 38.1271 405.148 38.0541 405.393 38.0713C405.639 38.0884 405.84 38.1877 405.998 38.3691C406.161 38.5567 406.234 38.7762 406.216 39.0275ZM401.966 39.4615L395.513 39.0103C395.01 38.9752 394.671 38.9867 394.497 39.045C394.328 39.1096 394.198 39.2091 394.106 39.3437C394.014 39.4841 393.955 39.7442 393.928 40.1242L393.612 40.1021L393.885 36.2005L394.201 36.2226C394.174 36.6142 394.193 36.8799 394.26 37.0196C394.326 37.1594 394.445 37.2734 394.615 37.3616C394.784 37.4557 395.118 37.5201 395.614 37.5549L398.709 37.7713C399.58 37.8322 400.146 37.8453 400.407 37.8107C400.597 37.7829 400.73 37.7276 400.806 37.6448C400.888 37.5624 400.935 37.4453 400.945 37.2933C400.957 37.1296 400.927 36.9278 400.856 36.6879L401.18 36.5872L401.993 39.0758L401.966 39.4615ZM394.099 46.128C393.717 45.7077 393.448 45.3042 393.293 44.9175C393.144 44.5311 393.085 44.1217 393.115 43.6891C393.176 42.8124 393.595 42.0722 394.372 41.4687C395.154 40.8655 396.121 40.6042 397.272 40.6847C398.424 40.7652 399.45 41.2012 400.352 41.9926C401.26 42.7844 401.675 43.7502 401.595 44.89C401.545 45.5973 401.279 46.1661 400.797 46.5964L402.279 46.7C403.196 46.7641 403.762 46.7802 403.976 46.7482C404.189 46.722 404.337 46.6648 404.42 46.5765C404.502 46.4883 404.548 46.3741 404.558 46.2338C404.569 46.0818 404.536 45.8769 404.46 45.619L404.775 45.5265L405.59 47.9887L405.562 48.3833L396.277 47.734C395.336 47.6682 394.759 47.6484 394.546 47.6746C394.338 47.7071 394.19 47.7672 394.101 47.855C394.012 47.9486 393.964 48.0598 393.955 48.1884C393.943 48.3462 393.978 48.5601 394.059 48.83L393.746 48.905L392.922 46.451L392.95 46.0476L394.099 46.128ZM394.712 46.1709L398.851 46.4603C399.251 46.453 399.62 46.3731 399.96 46.2206C400.3 46.0682 400.561 45.8515 400.745 45.5707C400.935 45.2962 401.039 45.0215 401.059 44.7468C401.095 44.2324 400.896 43.7575 400.462 43.3219C399.891 42.7474 399.022 42.4194 397.853 42.3376C396.672 42.2551 395.748 42.4489 395.081 42.9191C394.419 43.3897 394.067 43.9407 394.022 44.572C393.985 45.1039 394.215 45.6368 394.712 46.1709ZM397.927 50.3523C396.735 50.263 395.779 50.487 395.06 51.0241C394.341 51.5612 393.954 52.2243 393.899 53.0133C393.862 53.5394 393.974 54.0053 394.233 54.4111C394.498 54.8232 394.972 55.1853 395.655 55.4973L395.461 55.7569C394.668 55.5781 393.963 55.1705 393.343 54.534C392.73 53.8978 392.454 53.1355 392.517 52.2471C392.584 51.2826 393.016 50.4817 393.812 49.8443C394.614 49.2131 395.649 48.9419 396.918 49.0306C398.291 49.1267 399.336 49.5522 400.053 50.3071C400.775 51.0683 401.099 51.9808 401.025 53.0447C400.962 53.9448 400.612 54.6634 399.975 55.2003C399.344 55.7377 398.532 55.9717 397.538 55.9022L397.927 50.3523ZM398.435 50.3878L398.175 54.1053C398.692 54.112 399.058 54.076 399.275 53.9972C399.613 53.874 399.885 53.6728 400.093 53.3936C400.3 53.1203 400.414 52.8258 400.436 52.5101C400.47 52.025 400.311 51.5762 399.958 51.1639C399.61 50.7578 399.103 50.4991 398.435 50.3878ZM393.082 64.3144C392.503 63.4457 392.171 62.9027 392.086 62.6853C391.962 62.3594 391.913 62.0182 391.937 61.6617C391.976 61.1064 392.198 60.6608 392.604 60.325C393.009 59.995 393.521 59.8517 394.14 59.895C394.532 59.9224 394.865 60.0338 395.139 60.2292C395.52 60.4966 395.865 60.9378 396.174 61.5527C396.483 62.1734 396.841 63.191 397.247 64.6056L397.563 64.6277C398.363 64.6837 398.922 64.5935 399.238 64.3572C399.554 64.1267 399.728 63.7689 399.762 63.2837C399.788 62.9155 399.709 62.6163 399.526 62.3861C399.342 62.1501 399.122 62.0231 398.865 62.0051L398.355 61.9871C398.086 61.9683 397.884 61.8837 397.747 61.7332C397.611 61.5885 397.55 61.4051 397.566 61.183C397.581 60.9667 397.669 60.7938 397.831 60.6641C397.992 60.5403 398.205 60.4876 398.468 60.506C398.97 60.5411 399.414 60.8306 399.799 61.3744C400.184 61.9182 400.344 62.6548 400.279 63.5842C400.229 64.2973 400.068 64.8734 399.797 65.3126C399.591 65.6447 399.29 65.8792 398.893 66.0159C398.634 66.1035 398.116 66.1201 397.339 66.0658L394.612 65.8751C393.846 65.8216 393.375 65.8033 393.197 65.8202C393.026 65.8376 392.909 65.8764 392.846 65.9366C392.782 66.0027 392.747 66.0795 392.741 66.1672C392.735 66.2607 392.75 66.344 392.786 66.417C392.853 66.5451 393.05 66.7967 393.376 67.1719L392.885 67.1376C392.054 66.4216 391.659 65.7656 391.701 65.1694C391.721 64.8829 391.836 64.6619 392.047 64.5063C392.258 64.3507 392.603 64.2867 393.082 64.3144ZM393.652 64.3543L396.712 64.5682C396.423 63.6611 396.215 63.0738 396.086 62.8064C395.862 62.3267 395.616 61.9776 395.349 61.7593C395.082 61.5409 394.783 61.4201 394.449 61.3968C394.029 61.3674 393.669 61.4685 393.371 61.7002C393.079 61.9324 392.921 62.2121 392.898 62.5394C392.867 62.9837 393.118 63.5886 393.652 64.3543ZM398.139 69.7436C399.207 70.7639 399.711 71.7008 399.652 72.5542C399.621 72.9926 399.483 73.3618 399.239 73.6619C399.001 73.9624 398.624 74.1886 398.108 74.3405C397.748 74.4446 397.206 74.4713 396.481 74.4206L393.053 74.1809C392.545 74.1453 392.197 74.1621 392.01 74.2313C391.859 74.2853 391.738 74.3797 391.647 74.5142C391.555 74.6546 391.495 74.9177 391.468 75.3035L391.153 75.2814L391.43 71.3097L391.746 71.3318L391.734 71.4983C391.708 71.8724 391.745 72.1364 391.846 72.2903C391.953 72.4505 392.115 72.5675 392.333 72.6415C392.419 72.671 392.693 72.7019 393.154 72.7342L396.442 72.9641C397.173 73.0152 397.709 72.9558 398.049 72.7858C398.396 72.622 398.585 72.3151 398.616 71.865C398.665 71.1695 398.333 70.4502 397.622 69.7074L393.387 69.4113C392.843 69.3733 392.505 69.3819 392.372 69.4372C392.197 69.5072 392.063 69.6095 391.971 69.744C391.885 69.8848 391.827 70.1744 391.796 70.6128L391.481 70.5907L391.758 66.619L392.074 66.6411L392.062 66.8164C392.033 67.2256 392.116 67.5074 392.311 67.662C392.511 67.8229 392.903 67.9237 393.488 67.9646L396.469 68.1731C397.433 68.2405 398.022 68.2582 398.236 68.2261C398.449 68.1999 398.597 68.1427 398.68 68.0545C398.762 67.9722 398.808 67.855 398.819 67.703C398.83 67.5394 398.8 67.3405 398.729 67.1064L399.053 66.997L399.866 69.4855L399.84 69.8625L398.139 69.7436ZM391.664 80.939C391.283 80.5188 391.014 80.1153 390.859 79.7286C390.71 79.3422 390.65 78.9328 390.681 78.5002C390.742 77.6235 391.161 76.8833 391.937 76.2797C392.72 75.6766 393.686 75.4153 394.838 75.4958C395.989 75.5763 397.016 76.0123 397.918 76.8037C398.826 77.5955 399.24 78.5613 399.161 79.7011C399.111 80.4084 398.845 80.9772 398.363 81.4074L399.845 81.5111C400.762 81.5752 401.328 81.5913 401.542 81.5592C401.755 81.533 401.903 81.4758 401.985 81.3876C402.068 81.2994 402.114 81.1852 402.124 81.0449C402.134 80.8929 402.102 80.688 402.026 80.4301L402.341 80.3376L403.155 82.7998L403.128 83.1944L393.843 82.5451C392.902 82.4793 392.325 82.4595 392.111 82.4857C391.903 82.5182 391.755 82.5783 391.667 82.6661C391.578 82.7597 391.529 82.8708 391.52 82.9994C391.509 83.1573 391.544 83.3712 391.625 83.6411L391.312 83.7161L390.488 81.262L390.516 80.8587L391.664 80.939ZM392.278 80.982L396.416 81.2713C396.816 81.2641 397.186 81.1842 397.526 81.0317C397.865 80.8793 398.127 80.6626 398.311 80.3818C398.501 80.1073 398.605 79.8326 398.624 79.5579C398.66 79.0435 398.462 78.5685 398.028 78.1329C397.457 77.5585 396.587 77.2305 395.418 77.1487C394.238 77.0661 393.314 77.26 392.646 77.7302C391.985 78.2008 391.632 78.7518 391.588 79.3831C391.551 79.915 391.781 80.4479 392.278 80.982ZM395.666 90.7444L392.203 90.5023C391.455 90.45 390.984 90.4993 390.791 90.6503C390.519 90.8544 390.367 91.1815 390.335 91.6316L390.303 92.0875L389.979 92.0648L390.335 86.9708L390.66 86.9935L390.628 87.4407C390.593 87.9433 390.732 88.3143 391.044 88.5534C391.217 88.683 391.642 88.7715 392.32 88.8189L400.001 89.356C400.749 89.4083 401.219 89.3619 401.411 89.2167C401.685 89.0067 401.837 88.6767 401.868 88.2266L401.9 87.7795L402.224 87.8022L401.919 92.1597C401.845 93.2235 401.675 94.0545 401.41 94.6527C401.151 95.2513 400.747 95.7429 400.197 96.1273C399.647 96.5118 399.016 96.6791 398.303 96.6293C397.333 96.5614 396.566 96.1847 396.003 95.4993C395.44 94.8196 395.199 93.8953 395.281 92.7263C395.301 92.4399 395.343 92.1315 395.407 91.8012C395.471 91.4709 395.558 91.1187 395.666 90.7444ZM396.166 90.7794C396.086 91.0851 396.022 91.3568 395.977 91.5944C395.931 91.832 395.902 92.0355 395.89 92.205C395.847 92.8129 396.044 93.3524 396.481 93.8235C396.924 94.3008 397.519 94.5656 398.267 94.618C398.782 94.6539 399.265 94.582 399.718 94.4023C400.177 94.2229 400.529 93.9479 400.772 93.5772C401.021 93.207 401.163 92.7764 401.197 92.2854C401.218 91.9873 401.189 91.6006 401.111 91.1252L396.166 90.7794ZM397.772 99.4386L395.965 99.3123C397.123 100.069 397.676 100.801 397.627 101.508C397.604 101.829 397.486 102.088 397.273 102.285C397.065 102.482 396.833 102.571 396.576 102.553C396.348 102.537 396.16 102.448 396.013 102.285C395.866 102.122 395.8 101.935 395.814 101.725C395.829 101.52 395.944 101.296 396.161 101.053C396.383 100.816 396.498 100.636 396.507 100.513C396.514 100.408 396.464 100.29 396.356 100.159C396.134 99.8792 395.759 99.5798 395.229 99.2608L391.38 98.9917C390.936 98.9606 390.596 98.9926 390.36 99.0877C390.197 99.1527 390.056 99.2779 389.937 99.4635C389.819 99.649 389.747 99.923 389.721 100.285L389.406 100.263L389.693 96.1513L390.009 96.1733C389.98 96.5825 390.023 96.8909 390.138 97.0986C390.221 97.2513 390.363 97.364 390.564 97.4368C390.661 97.473 390.943 97.5074 391.411 97.5401L394.524 97.7577C395.459 97.8231 396.015 97.8415 396.194 97.8129C396.377 97.7905 396.514 97.7295 396.603 97.63C396.692 97.5364 396.741 97.4136 396.752 97.2616C396.765 97.0804 396.735 96.8728 396.663 96.6387L396.985 96.5731L397.797 99.0704L397.772 99.4386ZM394.212 103.472C393.02 103.383 392.065 103.607 391.346 104.144C390.627 104.681 390.24 105.344 390.185 106.133C390.148 106.659 390.259 107.125 390.519 107.531C390.783 107.943 391.257 108.305 391.94 108.617L391.746 108.877C390.954 108.698 390.248 108.291 389.629 107.654C389.016 107.018 388.74 106.256 388.802 105.367C388.869 104.403 389.301 103.602 390.098 102.964C390.9 102.333 391.935 102.062 393.203 102.151C394.577 102.247 395.622 102.672 396.339 103.427C397.061 104.188 397.384 105.101 397.31 106.165C397.247 107.065 396.897 107.783 396.261 108.32C395.63 108.858 394.818 109.092 393.824 109.022L394.212 103.472ZM394.721 103.508L394.461 107.225C394.977 107.232 395.344 107.196 395.561 107.117C395.898 106.994 396.171 106.793 396.378 106.514C396.585 106.24 396.7 105.946 396.722 105.63C396.756 105.145 396.596 104.696 396.243 104.284C395.896 103.878 395.388 103.619 394.721 103.508ZM401.127 111.939C401.109 112.19 401.006 112.397 400.819 112.561C400.631 112.724 400.412 112.796 400.16 112.779C399.915 112.762 399.711 112.659 399.547 112.472C399.384 112.284 399.312 112.065 399.329 111.813C399.346 111.568 399.449 111.363 399.636 111.2C399.824 111.037 400.041 110.964 400.286 110.981C400.537 110.999 400.745 111.102 400.908 111.289C401.071 111.477 401.144 111.693 401.127 111.939ZM396.865 112.399L388.782 111.833C387.408 111.737 386.408 111.374 385.783 110.743C385.157 110.111 384.877 109.328 384.943 108.393C384.98 107.861 385.104 107.473 385.315 107.23C385.526 106.986 385.734 106.871 385.938 106.886C386.143 106.9 386.313 106.985 386.449 107.142C386.585 107.292 386.647 107.464 386.633 107.657C386.622 107.809 386.574 107.961 386.487 108.113C386.439 108.21 386.279 108.39 386.008 108.653C385.731 108.921 385.586 109.152 385.572 109.345C385.563 109.485 385.608 109.626 385.71 109.768C385.806 109.91 385.98 110.022 386.233 110.104C386.48 110.186 387.027 110.257 387.874 110.316L393.591 110.716C394.474 110.778 395.042 110.791 395.297 110.756C395.493 110.728 395.629 110.673 395.705 110.591C395.788 110.508 395.834 110.391 395.845 110.239C395.856 110.075 395.826 109.874 395.755 109.634L396.079 109.533L396.892 112.022L396.865 112.399ZM396.032 120.914L391.166 120.573C390.237 120.508 389.665 120.489 389.452 120.515C389.244 120.548 389.096 120.608 389.008 120.696C388.919 120.789 388.87 120.9 388.861 121.029C388.848 121.21 388.884 121.418 388.967 121.653L388.652 121.754L387.829 119.283L387.857 118.888L389.557 119.007C388.858 118.265 388.424 117.706 388.256 117.33C388.089 116.954 388.019 116.565 388.047 116.162C388.079 115.711 388.235 115.329 388.515 115.014C388.801 114.705 389.153 114.5 389.571 114.4C389.989 114.3 390.573 114.276 391.321 114.329L394.907 114.58C395.287 114.606 395.553 114.584 395.704 114.512C395.856 114.44 395.976 114.325 396.063 114.167C396.156 114.015 396.214 113.728 396.238 113.307L396.562 113.33L396.366 116.144L390.991 115.768C390.243 115.716 389.743 115.81 389.491 116.051C389.239 116.298 389.1 116.605 389.074 116.973C389.057 117.225 389.116 117.514 389.251 117.84C389.387 118.173 389.661 118.574 390.075 119.043L394.625 119.362C395.081 119.393 395.394 119.33 395.564 119.172C395.739 119.019 395.85 118.681 395.899 118.155L396.223 118.178L396.032 120.914ZM388.422 127.307C388.04 126.887 387.772 126.484 387.617 126.097C387.468 125.71 387.408 125.301 387.438 124.868C387.5 123.992 387.919 123.252 388.695 122.648C389.477 122.045 390.444 121.784 391.596 121.864C392.747 121.945 393.774 122.381 394.676 123.172C395.584 123.964 395.998 124.93 395.918 126.069C395.869 126.777 395.603 127.345 395.12 127.776L396.602 127.879C397.52 127.943 398.086 127.96 398.299 127.928C398.513 127.901 398.66 127.844 398.743 127.756C398.826 127.668 398.872 127.553 398.881 127.413C398.892 127.261 398.859 127.056 398.784 126.798L399.098 126.706L399.913 129.168L399.885 129.563L390.6 128.913C389.659 128.848 389.082 128.828 388.869 128.854C388.661 128.886 388.513 128.947 388.425 129.034C388.336 129.128 388.287 129.239 388.278 129.368C388.267 129.526 388.302 129.739 388.383 130.009L388.069 130.084L387.245 127.63L387.273 127.227L388.422 127.307ZM389.036 127.35L393.174 127.64C393.574 127.632 393.944 127.552 394.283 127.4C394.623 127.248 394.885 127.031 395.069 126.75C395.258 126.476 395.363 126.201 395.382 125.926C395.418 125.412 395.219 124.937 394.786 124.501C394.215 123.927 393.345 123.599 392.176 123.517C390.995 123.434 390.071 123.628 389.404 124.098C388.743 124.569 388.39 125.12 388.346 125.751C388.309 126.283 388.539 126.816 389.036 127.35ZM399.663 132.746C399.646 132.991 399.543 133.193 399.356 133.35C399.174 133.514 398.961 133.587 398.715 133.57C398.47 133.552 398.266 133.45 398.102 133.262C397.939 133.081 397.866 132.867 397.883 132.622C397.9 132.376 398.002 132.172 398.19 132.009C398.378 131.846 398.594 131.773 398.84 131.79C399.085 131.807 399.287 131.906 399.444 132.088C399.608 132.275 399.68 132.495 399.663 132.746ZM395.412 133.18L388.959 132.729C388.456 132.694 388.118 132.705 387.944 132.764C387.775 132.828 387.644 132.928 387.553 133.062C387.461 133.203 387.401 133.463 387.375 133.843L387.059 133.821L387.332 129.919L387.648 129.941C387.62 130.333 387.64 130.598 387.706 130.738C387.773 130.878 387.891 130.992 388.061 131.08C388.231 131.174 388.564 131.239 389.061 131.273L392.156 131.49C393.027 131.551 393.593 131.564 393.854 131.529C394.044 131.501 394.177 131.446 394.253 131.363C394.335 131.281 394.381 131.164 394.392 131.012C394.403 130.848 394.373 130.646 394.302 130.406L394.626 130.306L395.439 132.794L395.412 133.18ZM389.613 141.145C388.57 140.855 387.784 140.374 387.256 139.703C386.733 139.032 386.498 138.314 386.552 137.548C386.615 136.636 387.054 135.868 387.867 135.243C388.68 134.619 389.738 134.352 391.042 134.443C392.304 134.532 393.304 134.978 394.041 135.781C394.777 136.59 395.109 137.521 395.035 138.573C394.98 139.362 394.724 139.996 394.268 140.475C393.817 140.955 393.367 141.179 392.917 141.147C392.695 141.132 392.519 141.046 392.388 140.89C392.264 140.74 392.211 140.537 392.228 140.28C392.253 139.935 392.382 139.682 392.616 139.523C392.746 139.432 392.984 139.381 393.332 139.37C393.679 139.365 393.95 139.266 394.145 139.075C394.335 138.882 394.443 138.605 394.468 138.242C394.509 137.658 394.325 137.172 393.918 136.785C393.378 136.272 392.638 135.982 391.697 135.917C390.738 135.849 389.874 136.024 389.105 136.44C388.341 136.862 387.931 137.474 387.875 138.275C387.835 138.848 387.995 139.376 388.355 139.859C388.601 140.199 389.067 140.546 389.753 140.9L389.613 141.145ZM391.443 143.071C390.251 142.982 389.296 143.206 388.577 143.743C387.858 144.28 387.471 144.943 387.416 145.732C387.379 146.258 387.49 146.724 387.749 147.13C388.014 147.542 388.488 147.904 389.171 148.216L388.977 148.476C388.185 148.297 387.479 147.889 386.86 147.253C386.246 146.617 385.971 145.855 386.033 144.966C386.1 144.002 386.532 143.201 387.329 142.563C388.131 141.932 389.166 141.661 390.434 141.75C391.808 141.846 392.853 142.271 393.569 143.026C394.292 143.787 394.615 144.7 394.541 145.764C394.478 146.664 394.128 147.382 393.492 147.919C392.861 148.457 392.049 148.691 391.055 148.621L391.443 143.071ZM391.952 143.107L391.692 146.824C392.208 146.831 392.575 146.795 392.792 146.716C393.129 146.593 393.402 146.392 393.609 146.113C393.816 145.839 393.931 145.545 393.953 145.229C393.987 144.744 393.827 144.295 393.474 143.883C393.127 143.477 392.619 143.218 391.952 143.107Z" fill="white"/>
<path d="M396.64 165.285L396.929 165.305L396.612 169.833L396.324 169.813L396.35 169.431C396.381 169 396.275 168.677 396.035 168.462C395.877 168.325 395.481 168.235 394.847 168.191L389.68 167.829C388.885 167.774 388.247 167.64 387.766 167.429C387.285 167.223 386.874 166.894 386.535 166.442C386.201 165.991 386.055 165.464 386.097 164.861C386.132 164.373 386.278 163.997 386.537 163.733C386.8 163.469 387.088 163.349 387.4 163.37C387.654 163.388 387.842 163.467 387.963 163.605C388.112 163.788 388.179 163.994 388.163 164.222C388.151 164.389 388.086 164.533 387.968 164.655C387.849 164.783 387.547 164.931 387.06 165.101C386.771 165.201 386.62 165.344 386.607 165.531C386.597 165.671 386.673 165.807 386.837 165.939C386.999 166.076 387.299 166.159 387.735 166.19L394.952 166.694C395.487 166.732 395.843 166.723 396.019 166.667C396.153 166.624 396.272 166.523 396.377 166.363C396.517 166.149 396.596 165.916 396.614 165.667L396.64 165.285ZM386.793 173.173C386.278 172.401 385.982 171.918 385.907 171.725C385.797 171.435 385.753 171.132 385.775 170.815C385.81 170.321 386.007 169.925 386.367 169.627C386.727 169.333 387.182 169.206 387.733 169.244C388.081 169.269 388.377 169.368 388.621 169.541C388.959 169.779 389.266 170.171 389.541 170.718C389.816 171.27 390.134 172.174 390.495 173.432L390.775 173.451C391.487 173.501 391.983 173.421 392.264 173.211C392.545 173.006 392.7 172.688 392.731 172.257C392.753 171.929 392.683 171.663 392.52 171.459C392.357 171.249 392.161 171.136 391.933 171.12L391.48 171.104C391.241 171.087 391.061 171.012 390.939 170.878C390.818 170.75 390.764 170.587 390.778 170.389C390.791 170.197 390.87 170.043 391.014 169.928C391.157 169.818 391.346 169.771 391.58 169.788C392.026 169.819 392.421 170.076 392.763 170.559C393.105 171.043 393.247 171.698 393.19 172.524C393.145 173.158 393.002 173.67 392.761 174.06C392.579 174.355 392.311 174.564 391.958 174.685C391.728 174.763 391.267 174.778 390.576 174.73L388.152 174.56C387.472 174.512 387.053 174.496 386.895 174.511C386.742 174.527 386.638 174.561 386.582 174.615C386.526 174.673 386.495 174.742 386.49 174.82C386.484 174.903 386.497 174.977 386.529 175.042C386.589 175.156 386.764 175.379 387.054 175.713L386.617 175.682C385.879 175.046 385.528 174.463 385.565 173.933C385.583 173.678 385.685 173.482 385.872 173.343C386.06 173.205 386.366 173.148 386.793 173.173ZM387.299 173.208L390.019 173.398C389.762 172.592 389.577 172.07 389.463 171.832C389.263 171.406 389.045 171.096 388.808 170.902C388.571 170.707 388.304 170.6 388.008 170.579C387.634 170.553 387.314 170.643 387.049 170.849C386.789 171.055 386.649 171.304 386.629 171.595C386.601 171.99 386.825 172.528 387.299 173.208ZM391.287 177.999C392.237 178.906 392.685 179.738 392.632 180.497C392.605 180.887 392.483 181.215 392.266 181.482C392.054 181.749 391.719 181.95 391.26 182.085C390.94 182.177 390.458 182.201 389.814 182.156L386.767 181.943C386.315 181.911 386.006 181.926 385.84 181.988C385.706 182.036 385.598 182.12 385.517 182.239C385.435 182.364 385.382 182.598 385.358 182.941L385.077 182.921L385.324 179.391L385.605 179.41L385.594 179.559C385.571 179.891 385.604 180.126 385.694 180.262C385.788 180.405 385.933 180.509 386.126 180.575C386.203 180.601 386.446 180.628 386.857 180.657L389.779 180.861C390.429 180.907 390.905 180.854 391.208 180.703C391.516 180.557 391.684 180.285 391.712 179.884C391.755 179.266 391.46 178.627 390.828 177.967L387.063 177.703C386.58 177.67 386.279 177.677 386.161 177.726C386.005 177.789 385.887 177.879 385.805 177.999C385.729 178.124 385.677 178.382 385.649 178.771L385.369 178.752L385.616 175.221L385.896 175.241L385.885 175.397C385.86 175.76 385.934 176.011 386.107 176.148C386.285 176.291 386.634 176.381 387.153 176.417L389.803 176.603C390.66 176.663 391.184 176.678 391.374 176.65C391.563 176.627 391.695 176.576 391.768 176.497C391.841 176.424 391.883 176.32 391.892 176.185C391.902 176.039 391.875 175.863 391.812 175.655L392.1 175.557L392.823 177.769L392.799 178.104L391.287 177.999ZM389.448 184.363C388.389 184.284 387.539 184.483 386.9 184.96C386.261 185.438 385.917 186.027 385.868 186.729C385.836 187.196 385.935 187.61 386.165 187.971C386.401 188.337 386.822 188.659 387.429 188.937L387.256 189.167C386.552 189.008 385.925 188.646 385.374 188.08C384.829 187.515 384.584 186.837 384.639 186.047C384.699 185.19 385.083 184.478 385.791 183.912C386.504 183.351 387.424 183.109 388.552 183.188C389.773 183.274 390.702 183.652 391.339 184.323C391.98 185 392.268 185.811 392.202 186.756C392.146 187.556 391.835 188.195 391.269 188.673C390.709 189.15 389.987 189.358 389.103 189.296L389.448 184.363ZM389.9 184.395L389.669 187.699C390.128 187.705 390.454 187.673 390.647 187.603C390.947 187.494 391.189 187.315 391.374 187.067C391.558 186.824 391.66 186.562 391.679 186.281C391.709 185.85 391.568 185.451 391.254 185.085C390.945 184.724 390.494 184.494 389.9 184.395ZM387.521 198.82L387.807 194.728L386.19 193.895C385.791 193.689 385.491 193.58 385.288 193.565C385.127 193.554 384.979 193.619 384.844 193.761C384.714 193.909 384.612 194.236 384.54 194.743L384.252 194.722L384.485 191.395L384.773 191.415C384.82 191.862 384.902 192.155 385.017 192.293C385.248 192.576 385.734 192.905 386.475 193.28L394.913 197.606L394.894 197.879L385.846 200.942C385.118 201.189 384.64 201.425 384.41 201.649C384.185 201.878 384.045 202.208 383.988 202.637L383.7 202.617L383.992 198.448L384.28 198.468C384.271 198.89 384.322 199.178 384.431 199.332C384.54 199.491 384.68 199.577 384.852 199.589C385.08 199.605 385.449 199.526 385.957 199.353L387.521 198.82ZM388.113 198.642L392.509 197.148L388.367 195.01L388.113 198.642ZM390.398 209.422L386.073 209.119C385.246 209.062 384.739 209.044 384.549 209.068C384.364 209.097 384.233 209.15 384.154 209.228C384.075 209.311 384.032 209.41 384.024 209.524C384.012 209.685 384.044 209.87 384.118 210.079L383.838 210.169L383.106 207.972L383.131 207.622L384.643 207.727C384.021 207.068 383.635 206.571 383.486 206.237C383.337 205.903 383.275 205.556 383.3 205.198C383.328 204.798 383.467 204.458 383.716 204.177C383.97 203.903 384.283 203.721 384.655 203.632C385.027 203.543 385.545 203.522 386.21 203.569L389.398 203.792C389.735 203.815 389.972 203.795 390.107 203.732C390.242 203.668 390.348 203.566 390.426 203.425C390.508 203.29 390.56 203.035 390.581 202.66L390.869 202.681L390.694 205.182L385.917 204.848C385.252 204.802 384.808 204.886 384.584 205.1C384.36 205.319 384.236 205.592 384.213 205.919C384.198 206.143 384.25 206.4 384.371 206.69C384.491 206.986 384.735 207.342 385.103 207.759L389.147 208.042C389.553 208.071 389.831 208.014 389.982 207.874C390.137 207.738 390.237 207.437 390.28 206.97L390.568 206.99L390.398 209.422ZM390.21 215.134L387.778 214.964L387.796 214.707C388.574 214.563 389.111 214.345 389.408 214.052C389.705 213.765 389.87 213.382 389.904 212.904C389.929 212.541 389.854 212.24 389.677 212.004C389.5 211.767 389.295 211.64 389.061 211.624C388.77 211.603 388.515 211.669 388.296 211.821C388.072 211.967 387.823 212.279 387.549 212.755L386.916 213.855C386.328 214.873 385.613 215.353 384.771 215.294C384.122 215.249 383.615 214.965 383.249 214.444C382.888 213.928 382.729 213.366 382.772 212.758C382.802 212.322 382.915 211.828 383.11 211.278C383.174 211.11 383.21 210.972 383.217 210.863C383.226 210.743 383.165 210.645 383.034 210.568L383.052 210.311L385.601 210.489L385.583 210.746C384.845 210.841 384.278 211.08 383.88 211.465C383.483 211.85 383.266 212.297 383.23 212.806C383.205 213.164 383.289 213.463 383.481 213.701C383.678 213.944 383.925 214.076 384.221 214.097C384.579 214.122 384.89 214.016 385.152 213.778C385.413 213.546 385.757 213.066 386.184 212.339C386.611 211.612 386.983 211.142 387.301 210.929C387.613 210.716 387.996 210.625 388.448 210.657C389.035 210.698 389.512 210.932 389.879 211.36C390.245 211.793 390.406 212.329 390.361 212.968C390.342 213.248 390.258 213.584 390.111 213.976C390.014 214.236 389.963 214.41 389.957 214.498C389.951 214.581 389.965 214.647 389.998 214.697C390.031 214.746 390.108 214.806 390.228 214.877L390.21 215.134ZM392.133 218.324L389.787 218.16L389.67 219.827L389.125 219.789L389.241 218.122L384.612 217.798C384.15 217.765 383.833 217.809 383.663 217.927C383.493 218.051 383.4 218.217 383.386 218.425C383.374 218.596 383.414 218.766 383.507 218.934C383.605 219.103 383.754 219.239 383.956 219.342L383.935 219.646C383.438 219.428 383.072 219.144 382.835 218.793C382.604 218.443 382.501 218.091 382.525 217.738C382.542 217.499 382.623 217.27 382.769 217.05C382.92 216.831 383.122 216.675 383.373 216.583C383.63 216.492 384.016 216.464 384.531 216.5L389.331 216.836L389.41 215.706L389.668 215.724C389.762 216.017 389.934 216.322 390.183 216.637C390.437 216.957 390.744 217.248 391.101 217.508C391.29 217.641 391.64 217.832 392.15 218.082L392.133 218.324ZM386.893 220.903C385.834 220.823 384.984 221.022 384.345 221.5C383.706 221.977 383.362 222.567 383.313 223.268C383.281 223.736 383.38 224.15 383.61 224.511C383.846 224.877 384.267 225.199 384.874 225.476L384.701 225.707C383.997 225.548 383.37 225.186 382.819 224.62C382.274 224.054 382.029 223.377 382.084 222.587C382.144 221.73 382.528 221.018 383.236 220.451C383.949 219.89 384.869 219.649 385.996 219.728C387.217 219.813 388.146 220.191 388.783 220.863C389.425 221.539 389.713 222.35 389.647 223.296C389.591 224.096 389.28 224.735 388.714 225.212C388.154 225.69 387.432 225.898 386.548 225.836L386.893 220.903ZM387.345 220.934L387.114 224.239C387.573 224.245 387.899 224.213 388.092 224.143C388.392 224.033 388.634 223.854 388.819 223.606C389.003 223.363 389.105 223.101 389.124 222.821C389.154 222.39 389.013 221.991 388.699 221.624C388.39 221.263 387.939 221.033 387.345 220.934ZM387.768 228.334C388.717 229.241 389.165 230.074 389.112 230.832C389.085 231.222 388.963 231.55 388.746 231.817C388.534 232.084 388.199 232.285 387.74 232.42C387.421 232.513 386.939 232.536 386.294 232.491L383.247 232.278C382.795 232.247 382.486 232.262 382.32 232.323C382.186 232.371 382.078 232.455 381.997 232.575C381.915 232.699 381.862 232.933 381.838 233.276L381.558 233.256L381.804 229.726L382.085 229.746L382.075 229.894C382.051 230.226 382.085 230.461 382.174 230.598C382.269 230.74 382.413 230.844 382.607 230.91C382.683 230.936 382.927 230.964 383.337 230.992L386.26 231.197C386.909 231.242 387.385 231.189 387.688 231.038C387.996 230.893 388.164 230.62 388.192 230.22C388.235 229.601 387.94 228.962 387.308 228.302L383.544 228.039C383.06 228.005 382.76 228.012 382.641 228.062C382.486 228.124 382.367 228.215 382.285 228.334C382.209 228.459 382.157 228.717 382.13 229.107L381.849 229.087L382.096 225.557L382.377 225.576L382.366 225.732C382.34 226.096 382.414 226.346 382.587 226.484C382.765 226.627 383.114 226.716 383.633 226.753L386.283 226.938C387.141 226.998 387.664 227.014 387.854 226.985C388.044 226.962 388.175 226.911 388.249 226.833C388.322 226.759 388.363 226.655 388.372 226.52C388.382 226.375 388.356 226.198 388.292 225.99L388.581 225.892L389.303 228.105L389.28 228.44L387.768 228.334Z" fill="#420000"/>
<path d="M199.658 24.9346L195.364 25.1597L195.342 24.7384C196.319 24.4368 197.015 24.1226 197.428 23.7958C197.849 23.4687 198.174 23.0331 198.404 22.4891C198.529 22.1852 198.572 21.6627 198.533 20.9216L198.471 19.7396L186.23 20.3811C185.418 20.4237 184.914 20.4931 184.715 20.5896C184.517 20.6938 184.347 20.8788 184.205 21.1444C184.07 21.4175 184.015 21.7802 184.039 22.2327L184.066 22.7593L183.633 22.782L183.198 14.4731L183.631 14.4504L183.658 14.9771C183.683 15.4374 183.784 15.8037 183.962 16.0759C184.082 16.2731 184.278 16.4232 184.549 16.5263C184.741 16.6023 185.235 16.6195 186.031 16.5778L198.272 15.9362L198.211 14.7894C198.155 13.7205 197.889 12.9561 197.411 12.4961C196.743 11.8505 195.82 11.4686 194.64 11.3505L194.617 10.9058L198.911 10.6807L199.658 24.9346ZM191.758 31.8272L186.843 32.0848C186.032 32.1273 185.527 32.1968 185.329 32.2932C185.131 32.3975 184.96 32.5824 184.818 32.848C184.684 33.1211 184.628 33.4799 184.651 33.9246L184.679 34.4513L184.246 34.474L183.811 26.1768L184.244 26.1541L184.272 26.6807C184.296 27.141 184.397 27.5073 184.576 27.7796C184.696 27.9767 184.891 28.1229 185.162 28.2182C185.354 28.2942 185.848 28.3114 186.643 28.2697L197.082 27.7226C197.893 27.6801 198.398 27.6106 198.597 27.5141C198.795 27.4177 198.961 27.233 199.096 26.9599C199.238 26.6943 199.298 26.3391 199.275 25.8944L199.247 25.3678L199.68 25.3451L200.115 33.6423L199.682 33.665L199.654 33.1384C199.63 32.6781 199.529 32.3118 199.35 32.0395C199.23 31.8424 199.035 31.6923 198.763 31.5891C198.572 31.5131 198.078 31.496 197.282 31.5377L192.788 31.7732L193.082 37.3788L197.576 37.1433C198.387 37.1007 198.892 37.0313 199.09 36.9348C199.289 36.8384 199.455 36.6536 199.589 36.3806C199.732 36.1072 199.791 35.7481 199.768 35.3034L199.741 34.7885L200.174 34.7658L200.608 43.0513L200.175 43.074L200.148 42.559C200.123 42.0909 200.022 41.7246 199.844 41.4602C199.724 41.263 199.528 41.1129 199.257 41.0098C199.065 40.9338 198.572 40.9166 197.776 40.9583L187.337 41.5054C186.526 41.5479 186.021 41.6174 185.822 41.7139C185.624 41.8103 185.454 41.9953 185.312 42.2687C185.177 42.5417 185.122 42.9006 185.145 43.3453L185.172 43.8602L184.739 43.8829L184.305 35.5974L184.738 35.5747L184.765 36.0896C184.789 36.5578 184.891 36.924 185.069 37.1885C185.189 37.3856 185.384 37.5358 185.656 37.6389C185.847 37.7149 186.341 37.732 187.137 37.6903L192.052 37.4328L191.758 31.8272ZM200.01 49.1152L193.551 49.4538L193.567 49.7698C193.62 50.7762 193.974 51.4891 194.63 51.9085C195.285 52.3279 196.233 52.5677 197.472 52.6279L197.495 53.0726L189.186 53.508L189.163 53.0633C190.063 52.9223 190.794 52.6845 191.355 52.35C191.917 52.0233 192.285 51.6558 192.459 51.2477C192.641 50.8392 192.712 50.2566 192.673 49.4998L188.202 49.7341C187.329 49.7799 186.796 49.843 186.605 49.9234C186.414 50.0117 186.261 50.1605 186.147 50.3699C186.033 50.5792 185.987 50.9102 186.011 51.3627L186.061 52.3106C186.139 53.793 186.544 54.9608 187.277 55.8143C188.011 56.6755 189.09 57.2643 190.515 57.5808L190.537 58.0138L185.456 57.5643L184.737 43.8488L185.17 43.8261L185.198 44.3527C185.222 44.813 185.323 45.1793 185.502 45.4516C185.622 45.6487 185.817 45.7949 186.088 45.8902C186.28 45.9662 186.774 45.9834 187.569 45.9417L198.008 45.3946C198.726 45.357 199.166 45.3144 199.328 45.2668C199.597 45.1745 199.8 45.0191 199.937 44.8007C200.14 44.4928 200.228 44.0813 200.201 43.5664L200.173 43.0398L200.606 43.0171L201.302 56.2997L196.609 56.5456L196.586 56.1009C197.721 55.8145 198.527 55.4515 199.005 55.0119C199.483 54.58 199.82 53.9835 200.014 53.2222C200.132 52.778 200.159 51.9551 200.096 50.7536L200.01 49.1152ZM202.34 71.8427C202.566 74.3656 201.936 76.4561 200.451 78.1143C198.965 79.7802 197.045 80.6749 194.689 80.7984C192.676 80.9039 190.874 80.4077 189.283 79.3098C187.173 77.8557 186.043 75.7049 185.894 72.8572C185.744 70.0017 186.596 67.7431 188.449 66.0814C189.913 64.7686 191.695 64.0571 193.794 63.9472C196.15 63.8237 198.154 64.5205 199.806 66.0377C201.466 67.5623 202.311 69.4973 202.34 71.8427ZM201.598 72.0224C201.522 70.5713 200.723 69.5062 199.201 68.8271C197.952 68.2745 196.188 68.058 193.91 68.1774C191.203 68.3192 189.226 68.9 187.981 69.9197C187.111 70.6303 186.707 71.5824 186.77 72.7761C186.812 73.5797 187.042 74.2404 187.46 74.7583C187.996 75.4187 188.819 75.9114 189.932 76.2364C191.052 76.5611 192.493 76.6772 194.257 76.5848C196.355 76.4748 197.913 76.1976 198.93 75.7531C199.955 75.3082 200.666 74.7703 201.064 74.1392C201.461 73.516 201.639 72.8104 201.598 72.0224ZM186.707 81.4406L187.14 81.4179L187.168 81.9445C187.192 82.4048 187.281 82.7522 187.434 82.9867C187.595 83.2286 187.804 83.4015 188.06 83.5055C188.227 83.5671 188.72 83.5765 189.54 83.5335L199.978 82.9865C200.79 82.9439 201.295 82.8744 201.493 82.778C201.691 82.6815 201.858 82.4968 201.992 82.2238C202.135 81.9581 202.194 81.603 202.171 81.1583L202.143 80.6316L202.576 80.6089L202.949 87.7125C203.048 89.6083 202.87 91.1471 202.416 92.3287C201.858 93.774 200.958 94.8929 199.717 95.6855C198.476 96.4859 197.048 96.9285 195.433 97.0131C194.317 97.0716 193.278 96.9461 192.315 96.6367C191.36 96.3269 190.559 95.9034 189.913 95.3661C189.275 94.8285 188.749 94.195 188.335 93.4656C187.93 92.7437 187.597 91.8497 187.338 90.7837C187.219 90.3127 187.133 89.5662 187.08 88.5441L186.707 81.4406ZM201.992 86.7065L189.611 87.3553C188.955 87.3897 188.555 87.442 188.41 87.5121C188.265 87.5823 188.158 87.6936 188.087 87.8459C187.981 88.0627 187.939 88.37 187.96 88.7679C188.028 90.0708 188.525 91.0422 189.45 91.6822C190.701 92.5554 192.59 92.9258 195.118 92.7933C197.154 92.6866 198.764 92.2815 199.947 91.578C200.873 91.021 201.486 90.3356 201.788 89.5218C202 88.9474 202.068 88.009 201.992 86.7065ZM204.31 113.693L203.877 113.716C203.78 113.197 203.606 112.803 203.358 112.535C203.009 112.162 202.084 111.592 200.581 110.826L194.654 107.687L190.816 107.888C189.997 107.931 189.488 108 189.29 108.097C189.099 108.193 188.932 108.37 188.789 108.628C188.655 108.893 188.598 109.236 188.62 109.657L188.667 110.547L188.234 110.57L187.767 101.664L188.2 101.641L188.244 102.472C188.268 102.94 188.37 103.306 188.548 103.571C188.668 103.768 188.863 103.918 189.135 104.021C189.326 104.097 189.82 104.114 190.616 104.073L193.799 103.906L200.403 99.8164C201.706 99.0049 202.466 98.4409 202.684 98.1243C202.91 97.8074 203.014 97.3951 202.995 96.8876L203.428 96.8649L203.827 104.472L203.394 104.494L203.376 104.155C203.352 103.695 203.269 103.374 203.126 103.194C202.984 103.022 202.839 102.939 202.691 102.947C202.41 102.962 201.72 103.311 200.622 103.994L195.517 107.137L200.453 109.741C201.661 110.39 202.456 110.704 202.838 110.684C203.049 110.673 203.219 110.563 203.349 110.352C203.53 110.077 203.621 109.583 203.623 108.871L204.056 108.848L204.31 113.693ZM205.227 124.255L199.945 124.66L199.919 124.181C201.234 123.885 202.27 123.271 203.027 122.34C203.792 121.416 204.147 120.439 204.093 119.409C204.052 118.613 203.804 117.992 203.35 117.547C202.905 117.108 202.405 116.904 201.851 116.933C201.5 116.951 201.192 117.05 200.928 117.228C200.573 117.473 200.229 117.855 199.897 118.373C199.658 118.753 199.246 119.624 198.661 120.984C197.845 122.889 197.049 124.186 196.271 124.876C195.493 125.559 194.582 125.927 193.536 125.982C192.21 126.052 191.04 125.593 190.026 124.605C189.02 123.625 188.475 122.34 188.392 120.748C188.366 120.249 188.392 119.774 188.47 119.324C188.548 118.874 188.71 118.306 188.956 117.62C189.092 117.238 189.154 116.926 189.141 116.684C189.131 116.481 189.041 116.27 188.873 116.052C188.705 115.834 188.458 115.663 188.131 115.54L188.108 115.107L194.1 114.793L194.122 115.226C192.455 115.657 191.203 116.384 190.364 117.406C189.534 118.435 189.149 119.515 189.208 120.647C189.254 121.52 189.528 122.202 190.031 122.692C190.534 123.19 191.102 123.422 191.734 123.389C192.108 123.37 192.466 123.249 192.806 123.028C193.147 122.814 193.463 122.497 193.754 122.075C194.052 121.652 194.428 120.913 194.881 119.856C195.516 118.376 196.066 117.307 196.532 116.648C196.998 115.99 197.531 115.473 198.129 115.098C198.728 114.73 199.398 114.527 200.139 114.488C201.403 114.422 202.504 114.829 203.442 115.711C204.38 116.593 204.886 117.74 204.96 119.152C204.987 119.667 204.951 120.17 204.851 120.66C204.777 121.032 204.625 121.485 204.395 122.022C204.173 122.565 204.067 122.942 204.078 123.153C204.089 123.356 204.16 123.513 204.291 123.623C204.422 123.734 204.728 123.827 205.209 123.903L205.227 124.255ZM205.876 136.637L200.593 137.043L200.568 136.563C201.883 136.267 202.918 135.654 203.675 134.722C204.441 133.798 204.796 132.821 204.742 131.791C204.701 130.995 204.453 130.375 203.999 129.929C203.554 129.491 203.054 129.286 202.5 129.315C202.149 129.334 201.841 129.432 201.577 129.61C201.222 129.856 200.878 130.237 200.546 130.756C200.307 131.136 199.895 132.006 199.309 133.367C198.494 135.271 197.697 136.569 196.92 137.259C196.142 137.941 195.231 138.31 194.185 138.364C192.859 138.434 191.689 137.975 190.675 136.988C189.669 136.008 189.124 134.722 189.041 133.13C189.015 132.631 189.041 132.156 189.119 131.706C189.197 131.256 189.359 130.689 189.604 130.003C189.741 129.62 189.803 129.308 189.79 129.066C189.779 128.863 189.69 128.653 189.522 128.435C189.354 128.217 189.107 128.046 188.78 127.922L188.757 127.489L194.749 127.175L194.771 127.608C193.104 128.04 191.851 128.766 191.013 129.788C190.183 130.817 189.798 131.898 189.857 133.029C189.903 133.903 190.177 134.585 190.68 135.075C191.183 135.572 191.751 135.805 192.383 135.772C192.757 135.752 193.115 135.632 193.455 135.41C193.796 135.197 194.112 134.879 194.403 134.457C194.701 134.035 195.077 133.295 195.53 132.239C196.165 130.758 196.715 129.689 197.181 129.031C197.647 128.373 198.18 127.856 198.778 127.48C199.377 127.112 200.047 126.909 200.788 126.87C202.052 126.804 203.153 127.212 204.091 128.094C205.029 128.975 205.535 130.122 205.609 131.535C205.636 132.049 205.6 132.552 205.5 133.042C205.426 133.414 205.274 133.868 205.043 134.404C204.822 134.948 204.716 135.325 204.727 135.535C204.738 135.738 204.809 135.895 204.94 136.005C205.071 136.116 205.377 136.209 205.858 136.286L205.876 136.637ZM205.002 144.358L198.542 144.697L198.559 145.013C198.611 146.019 198.966 146.732 199.621 147.152C200.277 147.571 201.224 147.811 202.463 147.871L202.487 148.316L194.178 148.751L194.155 148.306C195.055 148.165 195.785 147.928 196.347 147.593C196.909 147.266 197.277 146.899 197.451 146.491C197.633 146.082 197.704 145.5 197.664 144.743L193.194 144.977C192.32 145.023 191.787 145.086 191.596 145.166C191.405 145.255 191.253 145.404 191.138 145.613C191.024 145.822 190.979 146.153 191.003 146.606L191.052 147.554C191.13 149.036 191.535 150.204 192.269 151.057C193.002 151.919 194.081 152.507 195.506 152.824L195.529 153.257L190.448 152.807L189.729 139.092L190.162 139.069L190.189 139.596C190.213 140.056 190.315 140.422 190.493 140.695C190.613 140.892 190.809 141.038 191.08 141.133C191.271 141.209 191.765 141.226 192.561 141.185L203 140.638C203.717 140.6 204.157 140.557 204.319 140.51C204.588 140.418 204.791 140.262 204.928 140.044C205.131 139.736 205.219 139.324 205.192 138.809L205.165 138.283L205.598 138.26L206.294 151.543L201.601 151.789L201.578 151.344C202.713 151.058 203.519 150.695 203.997 150.255C204.475 149.823 204.811 149.226 205.006 148.465C205.123 148.021 205.151 147.198 205.088 145.997L205.002 144.358ZM207.253 169.847L206.82 169.869C206.722 169.35 206.549 168.956 206.3 168.688C205.952 168.315 205.027 167.745 203.524 166.979L197.597 163.84L193.759 164.041C192.94 164.084 192.431 164.154 192.232 164.25C192.042 164.346 191.875 164.523 191.732 164.781C191.597 165.046 191.541 165.389 191.563 165.811L191.61 166.7L191.177 166.723L190.71 157.817L191.143 157.794L191.187 158.625C191.211 159.093 191.313 159.46 191.491 159.724C191.611 159.921 191.806 160.071 192.078 160.174C192.269 160.25 192.763 160.268 193.559 160.226L196.742 160.059L203.346 155.97C204.649 155.158 205.409 154.594 205.627 154.278C205.853 153.961 205.957 153.548 205.938 153.041L206.371 153.018L206.77 160.625L206.337 160.648L206.319 160.308C206.295 159.848 206.212 159.528 206.069 159.347C205.927 159.175 205.782 159.092 205.634 159.1C205.353 159.115 204.663 159.464 203.565 160.147L198.46 163.29L203.396 165.895C204.604 166.543 205.399 166.858 205.781 166.838C205.992 166.826 206.162 166.716 206.292 166.506C206.473 166.23 206.564 165.736 206.566 165.024L206.999 165.002L207.253 169.847Z" fill="white"/>
<path d="M198.663 184.812L195.796 184.962C195.323 184.987 195.028 185.028 194.913 185.084C194.797 185.145 194.698 185.253 194.615 185.408C194.536 185.567 194.504 185.776 194.518 186.036L194.534 186.343L194.281 186.356L194.027 181.516L194.28 181.503L194.296 181.81C194.31 182.078 194.369 182.292 194.473 182.451C194.543 182.566 194.657 182.651 194.815 182.707C194.927 182.751 195.215 182.761 195.68 182.737L201.769 182.418C202.242 182.393 202.537 182.352 202.652 182.296C202.768 182.24 202.865 182.132 202.943 181.973C203.027 181.818 203.061 181.611 203.048 181.351L203.032 181.044L203.284 181.031L203.538 185.871L203.285 185.884L203.269 185.577C203.255 185.308 203.196 185.095 203.092 184.936C203.022 184.821 202.908 184.733 202.75 184.673C202.638 184.629 202.35 184.619 201.885 184.643L199.264 184.781L199.435 188.051L202.057 187.913C202.53 187.888 202.825 187.848 202.94 187.792C203.056 187.735 203.153 187.628 203.231 187.468C203.314 187.309 203.349 187.099 203.335 186.84L203.32 186.54L203.572 186.526L203.826 191.359L203.573 191.373L203.557 191.072C203.543 190.799 203.484 190.586 203.38 190.431C203.31 190.316 203.196 190.229 203.038 190.169C202.926 190.124 202.638 190.114 202.173 190.139L196.084 190.458C195.611 190.483 195.316 190.523 195.201 190.579C195.085 190.636 194.986 190.743 194.903 190.903C194.824 191.062 194.792 191.272 194.806 191.531L194.821 191.831L194.569 191.845L194.315 187.011L194.568 186.998L194.584 187.299C194.598 187.572 194.657 187.785 194.761 187.94C194.831 188.055 194.945 188.142 195.103 188.202C195.215 188.247 195.503 188.257 195.968 188.232L198.835 188.082L198.663 184.812ZM204.223 196.453C204.354 197.924 203.987 199.144 203.121 200.111C202.254 201.083 201.134 201.605 199.759 201.677C198.585 201.738 197.534 201.449 196.606 200.808C195.375 199.96 194.716 198.706 194.629 197.044C194.542 195.379 195.039 194.061 196.12 193.092C196.974 192.326 198.013 191.911 199.237 191.847C200.612 191.775 201.781 192.181 202.744 193.066C203.713 193.956 204.206 195.085 204.223 196.453ZM203.79 196.557C203.746 195.711 203.28 195.09 202.392 194.694C201.663 194.371 200.634 194.245 199.305 194.315C197.726 194.397 196.573 194.736 195.847 195.331C195.339 195.745 195.103 196.301 195.14 196.997C195.165 197.466 195.299 197.851 195.543 198.153C195.855 198.539 196.336 198.826 196.984 199.016C197.638 199.205 198.479 199.273 199.507 199.219C200.732 199.155 201.64 198.993 202.234 198.734C202.832 198.474 203.246 198.16 203.478 197.792C203.71 197.429 203.814 197.017 203.79 196.557ZM198.597 208.365L204.832 210.557L205.029 214.325L204.777 214.338L204.761 214.038C204.747 213.765 204.687 213.549 204.583 213.39C204.513 213.28 204.402 213.194 204.248 213.134C204.136 213.09 203.85 213.079 203.391 213.104L197.288 213.423C196.814 213.448 196.52 213.489 196.404 213.545C196.289 213.601 196.189 213.709 196.106 213.869C196.028 214.028 195.996 214.237 196.009 214.497L196.025 214.797L195.772 214.81L195.519 209.977L195.772 209.964L195.787 210.264C195.802 210.537 195.861 210.753 195.965 210.912C196.035 211.022 196.149 211.108 196.307 211.168C196.419 211.212 196.707 211.222 197.171 211.198L204.032 210.838L195.401 207.731L195.393 207.567L203.587 203.524L197.068 203.865C196.612 203.889 196.333 203.915 196.23 203.943C196.005 204.014 195.825 204.152 195.69 204.355C195.559 204.563 195.505 204.878 195.527 205.301L195.275 205.315L195.109 202.147L195.361 202.134L195.366 202.229C195.372 202.434 195.414 202.624 195.492 202.798C195.574 202.971 195.677 203.101 195.8 203.185C195.923 203.27 196.093 203.332 196.309 203.371C196.36 203.377 196.592 203.37 197.006 203.348L202.863 203.041C203.332 203.017 203.622 202.976 203.733 202.92C203.849 202.864 203.946 202.756 204.024 202.597C204.107 202.438 204.142 202.228 204.128 201.969L204.113 201.675L204.366 201.662L204.564 205.444L198.597 208.365ZM204.681 217.862L200.912 218.06L200.922 218.244C200.953 218.831 201.159 219.247 201.542 219.492C201.924 219.737 202.477 219.876 203.2 219.912L203.213 220.171L198.367 220.425L198.353 220.166C198.878 220.083 199.304 219.945 199.632 219.749C199.96 219.559 200.174 219.344 200.276 219.106C200.382 218.868 200.423 218.528 200.4 218.087L197.793 218.223C197.283 218.25 196.972 218.287 196.861 218.334C196.749 218.385 196.66 218.472 196.594 218.594C196.527 218.716 196.501 218.91 196.514 219.173L196.543 219.726C196.589 220.591 196.825 221.272 197.253 221.77C197.681 222.273 198.31 222.616 199.141 222.801L199.155 223.053L196.191 222.791L195.771 214.79L196.024 214.777L196.04 215.084C196.054 215.353 196.113 215.566 196.217 215.725C196.287 215.84 196.401 215.926 196.559 215.981C196.671 216.026 196.959 216.036 197.423 216.011L203.513 215.692C203.931 215.67 204.188 215.645 204.282 215.618C204.439 215.564 204.558 215.473 204.638 215.346C204.756 215.166 204.807 214.926 204.792 214.626L204.776 214.318L205.028 214.305L205.434 222.053L202.697 222.197L202.683 221.937C203.345 221.77 203.816 221.559 204.094 221.302C204.373 221.05 204.569 220.702 204.683 220.258C204.752 219.999 204.767 219.519 204.731 218.818L204.681 217.862ZM200.629 226.769L198.035 226.905C197.535 226.931 197.22 226.977 197.091 227.043C196.967 227.114 196.87 227.228 196.801 227.387C196.732 227.546 196.708 227.837 196.73 228.26L196.478 228.273L196.23 223.536L196.482 223.522C196.505 223.95 196.558 224.237 196.644 224.383C196.734 224.534 196.844 224.635 196.975 224.688C197.105 224.745 197.421 224.76 197.922 224.734L203.929 224.419C204.43 224.393 204.742 224.345 204.866 224.274C204.995 224.208 205.094 224.096 205.163 223.937C205.233 223.778 205.256 223.487 205.234 223.064L205.486 223.051L205.712 227.351C205.771 228.471 205.736 229.294 205.609 229.821C205.481 230.348 205.216 230.786 204.815 231.136C204.418 231.485 203.94 231.675 203.38 231.704C202.697 231.74 202.12 231.524 201.648 231.055C201.35 230.756 201.115 230.328 200.944 229.771L197.927 232.161C197.538 232.473 197.296 232.694 197.202 232.822C197.071 233.016 197.005 233.236 197.004 233.482L196.752 233.496L196.599 230.581L200.661 227.376L200.629 226.769ZM205.169 226.531L201.114 226.743L201.135 227.133C201.168 227.765 201.249 228.236 201.38 228.544C201.514 228.851 201.737 229.086 202.046 229.248C202.361 229.414 202.761 229.484 203.248 229.459C203.954 229.422 204.466 229.228 204.786 228.878C205.105 228.533 205.246 227.994 205.207 227.261L205.169 226.531Z" fill="white"/>
<path d="M268.875 28.5646L264.783 28.2785C264.108 28.2313 263.683 28.2375 263.509 28.2971C263.335 28.3632 263.176 28.4989 263.031 28.7042C262.892 28.9163 262.809 29.2075 262.784 29.5777L262.753 30.0161L262.392 29.9909L262.875 23.0839L263.236 23.1091L263.205 23.5475C263.178 23.9307 263.225 24.244 263.345 24.4873C263.424 24.6625 263.571 24.8033 263.785 24.9097C263.936 24.992 264.343 25.0564 265.005 25.1027L273.695 25.7103C274.371 25.7575 274.795 25.7513 274.969 25.6917C275.143 25.6321 275.299 25.4962 275.438 25.284C275.583 25.0788 275.668 24.791 275.694 24.4208L275.725 23.9825L276.085 24.0077L275.602 30.9146L275.242 30.8894L275.273 30.451C275.299 30.0679 275.253 29.7546 275.133 29.5113C275.054 29.336 274.907 29.192 274.693 29.0792C274.542 28.9968 274.136 28.9325 273.473 28.8862L269.732 28.6246L269.406 33.2909L273.147 33.5525C273.822 33.5997 274.247 33.5935 274.421 33.5339C274.595 33.4743 274.751 33.3384 274.89 33.1262C275.035 32.9144 275.121 32.6235 275.147 32.2533L275.177 31.8246L275.537 31.8498L275.055 38.7471L274.694 38.7219L274.724 38.2932C274.751 37.9035 274.705 37.5903 274.584 37.3534C274.505 37.1782 274.359 37.0342 274.145 36.9213C273.994 36.839 273.587 36.7747 272.925 36.7283L264.235 36.1207C263.56 36.0735 263.135 36.0797 262.961 36.1393C262.787 36.1989 262.628 36.3346 262.482 36.5463C262.343 36.7585 262.261 37.0497 262.235 37.4199L262.205 37.8485L261.845 37.8233L262.327 30.9261L262.688 30.9513L262.658 31.38C262.63 31.7696 262.677 32.0829 262.797 32.3197C262.877 32.495 263.023 32.639 263.237 32.7519C263.388 32.8342 263.795 32.8985 264.457 32.9449L268.549 33.231L268.875 28.5646ZM265.055 45.9585L265.381 41.2921L264.134 40.6469C263.718 40.4351 263.37 40.3194 263.091 40.2999C262.721 40.274 262.438 40.4043 262.241 40.6908C262.125 40.8589 262.017 41.2853 261.917 41.9701L261.557 41.9449L261.864 37.5513L262.224 37.5766C262.263 38.0557 262.43 38.4589 262.727 38.7864C263.03 39.1144 263.67 39.5376 264.645 40.0561L274.855 45.518L274.842 45.7031L263.676 49.7094C262.618 50.0922 261.946 50.4205 261.659 50.6941C261.443 50.9008 261.304 51.2044 261.243 51.6048L260.883 51.5796L261.33 45.1889L261.69 45.2142L261.672 45.4772C261.636 45.9903 261.682 46.3557 261.81 46.5735C261.904 46.7237 262.049 46.8055 262.244 46.8192C262.361 46.8273 262.482 46.8163 262.608 46.7859C262.668 46.777 262.918 46.6966 263.359 46.5448L265.055 45.9585ZM265.799 45.6777L270.486 44.0279L266.078 41.6835L265.799 45.6777ZM264.758 60.8381L273.217 65.0321L272.841 70.4096L272.48 70.3844L272.51 69.9557C272.537 69.5661 272.491 69.2496 272.371 69.0062C272.291 68.8375 272.148 68.6969 271.94 68.5845C271.79 68.5022 271.386 68.4381 270.73 68.3922L262.021 67.7832C261.346 67.736 260.921 67.7422 260.747 67.8018C260.573 67.8615 260.414 67.9971 260.268 68.2089C260.129 68.4211 260.047 68.7122 260.021 69.0824L259.991 69.5111L259.631 69.4859L260.113 62.5886L260.473 62.6139L260.443 63.0425C260.416 63.4322 260.463 63.7487 260.583 63.992C260.662 64.1607 260.809 64.3015 261.023 64.4144C261.174 64.4967 261.581 64.5611 262.243 64.6074L272.034 65.292L260.337 59.3836L260.353 59.1498L272.676 54.8426L263.373 54.1921C262.723 54.1466 262.323 54.135 262.171 54.157C261.84 54.2187 261.561 54.3819 261.334 54.6467C261.113 54.9183 260.981 55.3562 260.939 55.9602L260.578 55.935L260.894 51.4148L261.255 51.44L261.245 51.5764C261.218 51.8682 261.245 52.1441 261.324 52.4042C261.411 52.6648 261.534 52.8659 261.693 53.0076C261.853 53.1493 262.083 53.2665 262.383 53.3593C262.454 53.3773 262.785 53.4069 263.376 53.4483L271.734 54.0328C272.403 54.0795 272.821 54.0729 272.989 54.0128C273.163 53.9532 273.319 53.8173 273.458 53.6051C273.603 53.3933 273.689 53.1024 273.715 52.7322L273.744 52.3133L274.104 52.3385L273.727 57.7355L264.758 60.8381ZM263.417 81.9785L258.815 81.1574L259.635 69.4282L259.995 69.4534L259.965 69.8918C259.938 70.275 259.984 70.5882 260.104 70.8316C260.184 71.0068 260.33 71.1476 260.545 71.2539C260.696 71.3363 261.102 71.4006 261.765 71.4469L270.454 72.0546C271.13 72.1018 271.555 72.0956 271.728 72.036C271.902 71.9763 272.059 71.8404 272.197 71.6282C272.342 71.423 272.428 71.1353 272.454 70.7651L272.484 70.3267L272.845 70.3519L272.352 77.3953L271.992 77.3701L272.032 76.7953C272.059 76.4121 272.012 76.0989 271.892 75.8555C271.813 75.6803 271.666 75.5363 271.452 75.4234C271.301 75.3411 270.895 75.2767 270.232 75.2304L261.815 74.6418C261.14 74.5946 260.705 74.6034 260.512 74.6681C260.324 74.7334 260.177 74.8764 260.07 75.0974C260.001 75.2557 259.944 75.6465 259.9 76.27L259.823 77.3709C259.774 78.0723 259.857 78.6654 260.071 79.1503C260.285 79.6351 260.647 80.065 261.155 80.44C261.664 80.8215 262.427 81.2011 263.445 81.579L263.417 81.9785ZM270.856 87.8738L265.478 87.4978L265.46 87.7608C265.401 88.5986 265.622 89.2243 266.122 89.6377C266.621 90.0512 267.381 90.3458 268.4 90.5214L268.374 90.8916L261.457 90.408L261.483 90.0378C262.242 90.0125 262.87 89.8901 263.369 89.6704C263.866 89.4572 264.208 89.1907 264.394 88.8708C264.586 88.5514 264.704 88.0767 264.748 87.4467L261.026 87.1865C260.299 87.1356 259.852 87.1337 259.686 87.1808C259.519 87.2344 259.377 87.342 259.262 87.5036C259.146 87.6652 259.075 87.9344 259.049 88.311L258.993 89.1001C258.907 90.3341 259.124 91.3412 259.644 92.1216C260.163 92.9084 260.996 93.5051 262.142 93.9116L262.117 94.272L257.96 93.3842L258.758 81.9667L259.118 81.9919L259.088 82.4303C259.061 82.8135 259.108 83.1267 259.228 83.3701C259.307 83.5453 259.454 83.6861 259.668 83.7925C259.819 83.8748 260.226 83.9391 260.888 83.9855L269.578 84.5931C270.175 84.6349 270.543 84.6443 270.682 84.6214C270.914 84.5723 271.098 84.4644 271.233 84.2977C271.432 84.0636 271.547 83.7323 271.577 83.3036L271.607 82.8652L271.968 82.8904L271.195 93.9474L267.288 93.6743L267.314 93.3041C268.282 93.1825 268.986 92.9641 269.426 92.649C269.865 92.3403 270.204 91.8811 270.442 91.2712C270.584 90.9157 270.691 90.2379 270.76 89.2377L270.856 87.8738ZM270.241 107.587L266.666 107.337L266.69 106.986C267.53 106.836 268.137 106.647 268.512 106.418C268.893 106.191 269.206 105.863 269.452 105.437C269.586 105.198 269.674 104.77 269.717 104.153L269.786 103.169L259.596 102.457C258.921 102.41 258.496 102.416 258.322 102.475C258.148 102.541 257.988 102.677 257.844 102.882C257.705 103.095 257.622 103.389 257.596 103.766L257.565 104.204L257.205 104.179L257.688 97.2622L258.049 97.2874L258.018 97.7258C257.991 98.1089 258.038 98.4222 258.158 98.6655C258.237 98.8408 258.384 98.9848 258.598 99.0977C258.749 99.18 259.155 99.2443 259.818 99.2907L270.008 100.003L270.074 99.0485C270.137 98.1588 269.994 97.4994 269.645 97.0704C269.158 96.4686 268.433 96.0589 267.47 95.8414L267.495 95.4712L271.071 95.7212L270.241 107.587Z" fill="#0E0E0E"/>
<path d="M262.39 197.094L262.138 197.076C262.137 196.902 262.099 196.754 262.025 196.63C261.952 196.506 261.834 196.392 261.672 196.29C261.62 196.259 261.277 196.091 260.645 195.786L253.217 192.354L253.236 192.088L259.356 190.214L253.572 187.274L253.59 187.022L261.352 184.508C262.133 184.252 262.607 184.068 262.775 183.957C262.942 183.845 263.05 183.645 263.098 183.356L263.35 183.373L263.069 187.383L262.817 187.365C262.831 187.042 262.796 186.823 262.712 186.707C262.633 186.596 262.528 186.537 262.396 186.527C262.223 186.515 261.85 186.601 261.275 186.785L256.661 188.285L260.064 189.983L261.073 189.669C261.624 189.498 261.992 189.361 262.178 189.26C262.367 189.159 262.506 189.036 262.594 188.892C262.681 188.752 262.735 188.538 262.755 188.252L263.007 188.27L262.694 192.75L262.442 192.732C262.459 192.418 262.45 192.191 262.414 192.052C262.389 191.954 262.34 191.875 262.266 191.815C262.197 191.756 262.115 191.723 262.02 191.716C261.915 191.709 261.587 191.788 261.037 191.956L256.541 193.334L260.397 195.118C260.795 195.306 261.068 195.423 261.216 195.47C261.363 195.517 261.501 195.544 261.628 195.553C261.814 195.566 261.964 195.513 262.078 195.393C262.196 195.273 262.272 195.034 262.306 194.676L262.558 194.693L262.39 197.094ZM262.517 198.419C262.496 198.714 262.374 198.957 262.151 199.147C261.932 199.337 261.677 199.422 261.386 199.402C261.095 199.382 260.855 199.26 260.665 199.036C260.474 198.817 260.39 198.562 260.41 198.271C260.43 197.981 260.55 197.74 260.769 197.55C260.988 197.359 261.243 197.274 261.533 197.295C261.824 197.315 262.065 197.435 262.255 197.654C262.45 197.873 262.537 198.128 262.517 198.419ZM259.361 199.158L254.308 198.804C253.858 198.773 253.566 198.805 253.431 198.9C253.301 198.996 253.216 199.196 253.177 199.499L252.931 199.482L253.172 196.039L253.418 196.056C253.407 196.338 253.474 196.553 253.619 196.7C253.717 196.798 253.991 196.863 254.442 196.895L258.165 197.155C258.615 197.187 258.905 197.154 259.035 197.058C259.17 196.963 259.257 196.765 259.296 196.467L259.548 196.484L259.361 199.158ZM261.999 202.693L254.075 202.139C253.625 202.108 253.332 202.14 253.198 202.236C253.068 202.332 252.983 202.531 252.943 202.835L252.698 202.817L252.939 199.374L253.184 199.391C253.174 199.673 253.241 199.888 253.386 200.035C253.484 200.134 253.758 200.198 254.208 200.23L260.809 200.692C261.255 200.723 261.543 200.69 261.673 200.594C261.807 200.499 261.894 200.301 261.933 200.003L262.186 200.02L261.999 202.693ZM261.766 206.022L253.842 205.468C253.392 205.436 253.1 205.468 252.965 205.564C252.835 205.66 252.75 205.86 252.711 206.163L252.465 206.146L252.706 202.702L252.952 202.719C252.941 203.002 253.008 203.217 253.153 203.364C253.251 203.462 253.526 203.527 253.976 203.558L260.577 204.02C261.022 204.051 261.31 204.019 261.44 203.923C261.575 203.827 261.662 203.63 261.701 203.331L261.953 203.349L261.766 206.022ZM261.819 208.404C261.798 208.699 261.676 208.942 261.453 209.132C261.234 209.322 260.979 209.407 260.688 209.387C260.397 209.367 260.156 209.245 259.967 209.021C259.776 208.802 259.691 208.548 259.712 208.257C259.732 207.966 259.852 207.725 260.07 207.535C260.289 207.344 260.544 207.259 260.835 207.28C261.126 207.3 261.367 207.42 261.557 207.639C261.752 207.858 261.839 208.113 261.819 208.404ZM258.663 209.143L253.61 208.789C253.16 208.758 252.867 208.79 252.733 208.886C252.603 208.982 252.518 209.181 252.478 209.484L252.233 209.467L252.474 206.024L252.719 206.041C252.709 206.323 252.776 206.538 252.921 206.685C253.019 206.784 253.293 206.848 253.743 206.88L257.467 207.14C257.917 207.172 258.207 207.139 258.337 207.043C258.471 206.948 258.558 206.751 258.598 206.452L258.85 206.469L258.663 209.143ZM252.923 213.121C252.291 212.295 251.997 211.573 252.04 210.955C252.065 210.591 252.205 210.297 252.458 210.073C252.716 209.849 253.024 209.749 253.383 209.774C253.87 209.808 254.292 210.048 254.649 210.493C255.01 210.939 255.465 211.887 256.012 213.337L256.653 213.381C257.135 213.415 257.439 213.409 257.566 213.363C257.697 213.322 257.813 213.232 257.914 213.093C258.019 212.954 258.079 212.794 258.091 212.612C258.112 212.316 258.063 212.068 257.945 211.868C257.871 211.744 257.78 211.679 257.671 211.671C257.575 211.664 257.453 211.72 257.303 211.837C257.095 211.996 256.9 212.069 256.719 212.057C256.496 212.041 256.311 211.944 256.163 211.764C256.02 211.59 255.958 211.368 255.977 211.1C255.997 210.814 256.1 210.579 256.287 210.395C256.473 210.217 256.682 210.135 256.913 210.151C257.241 210.174 257.543 210.326 257.821 210.606C258.102 210.886 258.307 211.263 258.433 211.738C258.56 212.213 258.606 212.7 258.571 213.2C258.529 213.805 258.366 214.273 258.082 214.605C257.803 214.942 257.509 215.152 257.202 215.236C257.007 215.286 256.566 215.287 255.879 215.239L253.404 215.066C253.113 215.046 252.928 215.044 252.849 215.062C252.775 215.079 252.718 215.11 252.678 215.152C252.639 215.195 252.617 215.246 252.613 215.305C252.605 215.424 252.68 215.55 252.84 215.685L252.662 215.878C252.341 215.627 252.112 215.373 251.975 215.117C251.842 214.866 251.786 214.585 251.808 214.276C251.833 213.912 251.937 213.634 252.12 213.441C252.307 213.249 252.575 213.142 252.923 213.121ZM253.421 213.155L255.555 213.305C255.271 212.732 254.954 212.299 254.605 212.005C254.372 211.81 254.13 211.704 253.88 211.687C253.671 211.672 253.482 211.734 253.312 211.873C253.181 211.978 253.109 212.133 253.094 212.338C253.079 212.565 253.187 212.838 253.421 213.155ZM257.97 219.052L257.131 218.993C257.489 219.37 257.732 219.712 257.861 220.018C257.995 220.328 258.049 220.661 258.025 221.016C257.996 221.425 257.876 221.761 257.666 222.025C257.456 222.289 257.15 222.483 256.748 222.605C257.132 222.998 257.403 223.366 257.562 223.711C257.72 224.06 257.787 224.416 257.761 224.78C257.73 225.221 257.604 225.564 257.381 225.809C257.163 226.058 256.893 226.222 256.572 226.3C256.256 226.383 255.757 226.401 255.075 226.353L252.463 226.171C251.972 226.136 251.664 226.158 251.54 226.236C251.416 226.319 251.325 226.5 251.269 226.779L251.024 226.762L251.254 223.468L251.499 223.486C251.504 223.746 251.591 223.944 251.759 224.079C251.876 224.17 252.155 224.23 252.596 224.261L255.338 224.453C255.906 224.493 256.269 224.495 256.427 224.461C256.585 224.426 256.703 224.361 256.783 224.266C256.867 224.176 256.914 224.065 256.923 223.933C256.936 223.738 256.878 223.535 256.746 223.325C256.619 223.115 256.42 222.898 256.148 222.673L252.724 222.434C252.265 222.402 251.974 222.42 251.85 222.489C251.675 222.582 251.567 222.775 251.529 223.07L251.283 223.052L251.514 219.752L251.759 219.769C251.756 219.947 251.79 220.089 251.86 220.194C251.934 220.304 252.025 220.379 252.132 220.419C252.243 220.463 252.485 220.498 252.858 220.524L255.599 220.716C256.176 220.756 256.539 220.759 256.688 220.724C256.837 220.688 256.956 220.619 257.045 220.516C257.134 220.417 257.183 220.306 257.192 220.183C257.205 220.001 257.168 219.832 257.084 219.675C256.958 219.452 256.732 219.208 256.408 218.943L252.985 218.704C252.535 218.672 252.234 218.694 252.083 218.771C251.935 218.852 251.838 219.032 251.791 219.312L251.546 219.295L251.776 216.008L252.021 216.025C252.03 216.295 252.103 216.492 252.24 216.616C252.335 216.7 252.628 216.76 253.119 216.794L256.719 217.046C257.201 217.08 257.504 217.055 257.629 216.972C257.753 216.894 257.843 216.716 257.899 216.436L258.152 216.454L257.97 219.052Z" fill="#0E0E0E"/>
<circle cx="89" cy="130" r="15" fill="#FFAE79"/>
<circle cx="129" cy="113" r="15" fill="#FFE8CC"/>
</svg>
