<svg width="75" height="160" viewBox="0 0 75 160" fill="none" xmlns="http://www.w3.org/2000/svg">
<path fill-rule="evenodd" clip-rule="evenodd" d="M36.4247 3.67175C37.3026 -0.728039 43.7605 -1.35992 45.7948 2.79186C47.1292 11.072 48.7008 19.0097 51.4764 26.9296C59.6017 50.1401 76.173 71.1301 74.9334 96.9452C74.4115 107.877 70.6754 118.467 65.5096 127.987C65.4147 128.17 65.3194 128.347 65.2186 128.53C65.2423 128.542 65.2662 128.559 65.2899 128.571C64.6968 130.083 63.8958 131.572 62.8876 132.995C61.2685 135.281 59.3055 137.117 57.1942 138.464C57.1527 138.446 57.1048 138.423 57.0633 138.405C56.8202 138.588 56.5769 138.778 56.3397 138.973C52.396 142.179 49.057 146.691 46.9813 151.327C46.1095 153.282 45.7176 156.431 44.0985 157.795C41.1508 160.269 36.0738 160.559 32.6043 159.177C27.8421 157.281 28.2218 153.654 26.4129 149.544C23.922 143.868 19.7466 138.689 15.9627 133.816C15.9573 133.805 15.9419 133.79 15.9393 133.787H15.9334C14.943 132.86 14.0177 131.796 13.1815 130.621C12.3334 129.422 11.6335 128.176 11.076 126.912C11.0876 126.912 11.0936 126.906 11.1053 126.906C11.0401 126.782 10.9811 126.658 10.9159 126.534C1.28413 107.552 -4.56409 86.0723 4.55161 65.6376C12.5524 47.7011 31.0925 34.1404 35.1493 14.6034C35.9024 10.9654 35.7545 7.0203 36.4247 3.67175ZM41.2108 28.1874C32.6347 47.0334 11.7694 61.6155 10.0672 83.3378C9.17764 94.748 12.6591 106.95 17.7655 117.521C18.9516 119.984 20.2271 122.352 21.5555 124.602L27.7001 132.299H27.6883L37.4208 148.811C39.0696 143.496 42.6101 138.659 46.4295 134.631C46.4291 134.619 46.412 134.59 46.412 134.59L54.745 125.778L55.0829 125.666C58.6117 120.469 61.3699 114.132 62.995 108.037C69.8511 82.2101 56.0848 63.358 46.37 40.9921C44.5373 36.7634 42.9782 32.4397 41.2108 28.1874ZM34.0877 72.0731C55.3144 69.2087 63.9203 95.8689 46.5428 105.655C31.4072 114.183 14.065 98.6261 20.8915 82.621C22.9436 77.8195 28.8093 72.7878 34.0936 72.0731H34.0877Z" fill="#0E0E0E"/>
</svg>
