<svg width="14" height="30" viewBox="0 0 14 30" fill="none" xmlns="http://www.w3.org/2000/svg">
<path d="M6.8009 0.688507C6.96479 -0.136477 8.17008 -0.254988 8.54993 0.523468C8.79907 2.07591 9.09325 3.56396 9.61145 5.04886C11.1285 9.40077 14.2217 13.3366 13.9904 18.1768C13.8929 20.2264 13.196 22.2121 12.2316 23.9971C12.2139 24.0314 12.1957 24.0653 12.1769 24.0996C12.1813 24.1019 12.1861 24.1052 12.1906 24.1075C12.0798 24.3908 11.9295 24.6698 11.7413 24.9366C11.4391 25.365 11.0729 25.7095 10.6788 25.9619C10.6712 25.9587 10.6621 25.9545 10.6544 25.9512C10.6092 25.9854 10.5638 26.0203 10.5197 26.0567C9.78325 26.658 9.15919 27.5048 8.77161 28.3741C8.60895 28.7406 8.53565 29.3302 8.23352 29.586C7.68331 30.0498 6.73581 30.1046 6.08801 29.8457C5.19879 29.4903 5.26951 28.8098 4.93176 28.0391C4.46674 26.9751 3.68699 26.0043 2.98059 25.0909C2.97955 25.0888 2.97605 25.0853 2.97571 25.085H2.97473C2.78982 24.9111 2.61719 24.7116 2.46106 24.4912C2.30271 24.2664 2.1716 24.0329 2.0675 23.7959C2.06972 23.7959 2.07115 23.795 2.07336 23.795C2.06118 23.7717 2.05039 23.7479 2.03821 23.7246C0.239873 20.1656 -0.85228 16.1381 0.849731 12.3067C2.34359 8.94375 5.80509 6.4013 6.56262 2.73831C6.70325 2.05623 6.67581 1.31635 6.8009 0.688507ZM7.69446 5.28519C6.09317 8.81876 2.19684 11.5531 1.87903 15.626C1.71303 17.7653 2.36316 20.0531 3.31653 22.0352C3.538 22.497 3.77648 22.9414 4.02454 23.3633L5.172 24.8057H5.16907L6.98645 27.9024C7.2943 26.9057 7.95592 25.9984 8.66907 25.2432C8.66907 25.241 8.66516 25.2354 8.66516 25.2354L10.2218 23.583L10.2843 23.5625C10.9432 22.5881 11.4584 21.3996 11.7618 20.2569C13.042 15.4143 10.4712 11.8792 8.65735 7.68558C8.31526 6.89287 8.02438 6.08232 7.69446 5.28519ZM6.36438 13.5137C10.3277 12.9766 11.9342 17.9757 8.68958 19.8106C5.86364 21.4092 2.62598 18.4921 3.90051 15.4912C4.28379 14.5911 5.37888 13.6478 6.36536 13.5137H6.36438Z" fill="white"/>
</svg>
