<svg width="300" height="180" viewBox="0 0 300 180" fill="none" xmlns="http://www.w3.org/2000/svg">
<path d="M265.762 28.8587L265.262 138.249C271.316 142.438 296.586 138.593 296.586 138.593C300.267 132.938 299.507 30.4281 299.507 30.4281C281.514 19.6881 265.762 28.8587 265.762 28.8587Z" fill="#FFAE79"/>
<path d="M297.545 117.912C296.495 118.982 273.055 123.013 263.951 117.281L264.405 124.594C264.405 124.594 286.611 128.41 296.996 124.6C296.996 124.6 298.594 116.841 297.545 117.912Z" fill="#0E0E0E"/>
<path d="M298.838 52.3661C292.21 52.1932 269.432 50.6435 265.392 52.3779L265.79 43.2642C265.79 43.2642 290.65 40.4534 299.131 44.3523C299.131 44.3523 299.439 52.3818 298.838 52.3661Z" fill="#0E0E0E"/>
<path d="M264.819 43.9314L264.57 52.23C264.57 52.23 239.089 49.3014 231.845 51.8627L232.221 43.2007C232.221 43.2007 259.2 42.2246 264.819 43.9314Z" fill="#0E0E0E"/>
<path d="M264.695 117.628L264.194 124.948C264.194 124.948 242.087 129.342 231.969 125.07L264.695 117.628Z" fill="#0E0E0E"/>
<path d="M295.1 73.3625C295.095 73.3625 295.091 73.3625 295.086 73.3623C294.753 73.3549 294.489 73.0848 294.497 72.7595C294.553 70.4015 294.622 67.8475 294.694 65.1914C295.087 50.6279 295.576 32.5032 294.459 27.6724C294.386 27.3549 294.59 27.0393 294.915 26.9676C295.24 26.8963 295.563 27.0951 295.636 27.4127C296.786 32.3871 296.295 50.5936 295.9 65.2225C295.828 67.8776 295.759 70.4304 295.703 72.7872C295.695 73.1078 295.427 73.3625 295.1 73.3625Z" fill="#0E0E0E"/>
<path d="M293.478 138.675C293.457 138.675 293.435 138.673 293.413 138.671C293.082 138.636 292.842 138.346 292.878 138.022C293.299 134.198 294.413 86.4644 294.188 81.8954C294.172 81.5703 294.428 81.2939 294.761 81.2784C295.099 81.2586 295.377 81.5137 295.393 81.8386C295.619 86.4212 294.5 134.311 294.077 138.148C294.044 138.451 293.782 138.675 293.478 138.675Z" fill="#0E0E0E"/>
<path d="M261.968 79.4835C261.963 79.4835 261.958 79.4835 261.952 79.4833C261.619 79.4749 261.356 79.2042 261.365 78.8789C261.851 60.6753 261.233 32.563 261.032 27.0219C261.02 26.6968 261.28 26.4236 261.613 26.4122C261.944 26.4065 262.226 26.6548 262.237 26.9803C262.439 32.5288 263.058 60.6792 262.571 78.9098C262.563 79.2298 262.294 79.4835 261.968 79.4835Z" fill="#0E0E0E"/>
<path d="M261.635 139.07C261.609 139.07 261.583 139.069 261.557 139.065C261.226 139.023 260.993 138.727 261.036 138.405C261.528 134.721 261.367 86.0987 261.365 85.6078C261.364 85.2826 261.633 85.0178 261.966 85.0166C262.3 85.0166 262.57 85.2792 262.571 85.6039C262.578 87.6107 262.735 134.796 262.233 138.557C262.193 138.854 261.934 139.07 261.635 139.07Z" fill="#0E0E0E"/>
<path d="M223.882 139.982C223.736 139.982 223.589 139.93 223.473 139.825C223.228 139.604 223.214 139.231 223.44 138.992C224.293 138.092 225.25 137.232 226.176 136.401C227.649 135.079 229.172 133.711 230.277 132.17C230.469 131.904 230.845 131.839 231.117 132.026C231.39 132.213 231.456 132.58 231.265 132.847C230.085 134.492 228.513 135.904 226.992 137.269C226.084 138.084 225.146 138.927 224.325 139.793C224.206 139.918 224.045 139.982 223.882 139.982Z" fill="#0E0E0E"/>
<path d="M224.713 128.416C224.548 128.416 224.384 128.351 224.265 128.222C224.042 127.98 224.061 127.608 224.309 127.39C225.333 126.487 226.324 125.497 227.255 124.448C227.565 124.098 227.918 123.787 228.259 123.487C228.861 122.957 229.429 122.456 229.682 121.825C229.804 121.522 230.153 121.373 230.464 121.492C230.774 121.611 230.927 121.953 230.805 122.256C230.448 123.145 229.746 123.764 229.067 124.362C228.738 124.652 228.428 124.925 228.166 125.22C227.203 126.305 226.177 127.329 225.117 128.264C225.002 128.366 224.857 128.416 224.713 128.416Z" fill="#0E0E0E"/>
<path d="M220.744 129.029C220.588 129.029 220.432 128.97 220.314 128.854C220.08 128.622 220.083 128.249 220.32 128.02C220.655 127.697 220.99 127.375 221.325 127.052C222.881 125.556 224.49 124.009 226.015 122.441C226.997 121.432 228.005 120.383 229.096 119.235C229.172 119.156 229.24 119.084 229.256 119.062C229.256 119.058 229.264 119.033 229.277 118.999C229.295 118.951 229.317 118.891 229.348 118.813C229.469 118.51 229.819 118.36 230.13 118.478C230.44 118.596 230.593 118.938 230.472 119.241C230.445 119.309 230.426 119.361 230.41 119.403C230.302 119.692 230.243 119.76 229.984 120.033C228.886 121.188 227.874 122.24 226.889 123.253C225.35 124.835 223.734 126.389 222.171 127.892C221.836 128.214 221.502 128.536 221.167 128.859C221.05 128.972 220.897 129.029 220.744 129.029Z" fill="#0E0E0E"/>
<path d="M217.484 129.788C217.411 129.788 217.337 129.775 217.264 129.747C216.954 129.628 216.801 129.286 216.923 128.983C217.107 128.524 217.436 128.194 217.726 127.903C217.838 127.791 217.943 127.684 218.035 127.577C219.425 125.948 220.976 124.462 222.475 123.025C223.012 122.511 223.568 121.978 224.108 121.447C224.269 121.289 224.45 121.132 224.643 120.967C225.094 120.579 225.605 120.14 225.779 119.703C225.901 119.4 226.251 119.25 226.561 119.369C226.871 119.488 227.024 119.83 226.903 120.133C226.622 120.835 225.994 121.375 225.44 121.851C225.263 122.004 225.096 122.147 224.964 122.277C224.418 122.814 223.86 123.349 223.32 123.867C221.842 125.283 220.313 126.748 218.961 128.332C218.84 128.474 218.713 128.602 218.59 128.725C218.349 128.967 218.142 129.176 218.046 129.414C217.953 129.646 217.725 129.788 217.484 129.788Z" fill="#0E0E0E"/>
<path d="M214.066 129.986C213.93 129.986 213.793 129.941 213.68 129.85C213.424 129.641 213.39 129.27 213.603 129.02C215.152 127.205 216.975 125.622 218.738 124.091C220.084 122.922 221.475 121.714 222.713 120.426C222.94 120.189 223.322 120.177 223.565 120.4C223.808 120.623 223.82 120.996 223.592 121.233C222.317 122.559 220.905 123.786 219.54 124.971C217.81 126.474 216.021 128.027 214.53 129.774C214.41 129.914 214.239 129.986 214.066 129.986Z" fill="#0E0E0E"/>
<path d="M191.184 128.129C190.876 128.129 190.613 127.899 190.585 127.593C190.554 127.269 190.798 126.982 191.13 126.953C191.667 126.905 192.858 125.296 193.366 124.609C193.614 124.274 193.828 123.985 194.006 123.777C194.399 123.316 194.806 122.854 195.2 122.407C195.59 121.963 195.994 121.505 196.382 121.05C196.567 120.833 196.567 120.833 196.619 120.701L196.658 120.602C196.78 120.299 197.13 120.15 197.44 120.27C197.75 120.389 197.903 120.731 197.781 121.034L197.744 121.124C197.629 121.417 197.578 121.489 197.309 121.804C196.914 122.266 196.508 122.728 196.114 123.175C195.724 123.619 195.32 124.077 194.932 124.532C194.781 124.709 194.579 124.983 194.344 125.299C193.199 126.846 192.244 128.037 191.24 128.126C191.221 128.128 191.203 128.129 191.184 128.129Z" fill="#0E0E0E"/>
<path d="M189.045 127.06C188.94 127.06 188.834 127.033 188.737 126.977C188.451 126.81 188.357 126.449 188.528 126.169C189.063 125.292 189.769 124.547 190.453 123.826C190.72 123.545 190.996 123.254 191.252 122.964C191.549 122.629 191.836 122.276 192.141 121.903C192.757 121.149 193.393 120.37 194.123 119.726C194.369 119.508 194.751 119.527 194.974 119.769C195.198 120.01 195.178 120.383 194.931 120.601C194.275 121.18 193.67 121.921 193.084 122.638C192.785 123.004 192.476 123.382 192.164 123.735C191.895 124.04 191.611 124.338 191.337 124.627C190.667 125.334 190.034 126.002 189.564 126.772C189.451 126.957 189.251 127.06 189.045 127.06Z" fill="#0E0E0E"/>
<path d="M187.57 125.617C187.497 125.617 187.423 125.604 187.35 125.577C187.04 125.458 186.887 125.117 187.008 124.813C187.19 124.359 187.52 124.026 187.811 123.732C187.922 123.62 188.027 123.513 188.118 123.407C188.683 122.746 189.229 122.063 189.756 121.403C190.284 120.742 190.83 120.058 191.397 119.394C191.611 119.145 191.991 119.111 192.247 119.319C192.503 119.528 192.537 119.899 192.324 120.149C191.769 120.798 191.23 121.474 190.707 122.128C190.174 122.796 189.622 123.486 189.044 124.162C188.925 124.302 188.799 124.429 188.678 124.551C188.445 124.786 188.225 125.008 188.132 125.242C188.039 125.475 187.811 125.617 187.57 125.617Z" fill="#0E0E0E"/>
<path d="M187.657 122.515C187.466 122.515 187.279 122.427 187.161 122.263C186.971 121.996 187.038 121.628 187.312 121.442C188.148 120.873 188.702 120.09 189.242 119.271C189.423 118.997 189.796 118.919 190.076 119.095C190.356 119.271 190.437 119.636 190.257 119.909C189.649 120.832 189.019 121.717 188.001 122.409C187.896 122.481 187.776 122.515 187.657 122.515Z" fill="#0E0E0E"/>
<path d="M227.956 41.3525C227.844 41.3525 227.732 41.3226 227.632 41.2597C227.351 41.0845 227.268 40.7204 227.448 40.446L227.485 40.3882C227.524 40.3254 227.564 40.2629 227.609 40.204L228.179 39.4576C228.881 38.5374 229.607 37.5858 230.338 36.6597C230.46 36.5043 230.556 36.4004 230.636 36.325C230.639 36.2918 230.643 36.2541 230.648 36.2113C230.687 35.888 230.986 35.6556 231.317 35.6935C231.648 35.7308 231.885 36.0235 231.847 36.3466C231.836 36.4344 231.831 36.4976 231.826 36.5434C231.811 36.7113 231.789 36.9415 231.519 37.1356C231.5 37.1494 231.441 37.191 231.293 37.3792C230.568 38.2976 229.845 39.2453 229.146 40.162L228.578 40.9058C228.556 40.9355 228.534 40.9712 228.512 41.0066L228.465 41.0802C228.349 41.2562 228.155 41.3525 227.956 41.3525Z" fill="#0E0E0E"/>
<path d="M225.435 41.1849C225.258 41.1849 225.082 41.1087 224.963 40.9626C224.755 40.7078 224.798 40.3372 225.059 40.1345C227.35 38.353 229.187 35.8084 230.53 33.7906C230.712 33.5178 231.086 33.4402 231.365 33.618C231.644 33.7953 231.723 34.1605 231.542 34.4333C230.148 36.5257 228.238 39.1693 225.81 41.0568C225.699 41.1431 225.567 41.1849 225.435 41.1849Z" fill="#0E0E0E"/>
<path d="M222.979 40.4613C222.866 40.4613 222.753 40.4307 222.651 40.3662C222.372 40.1891 222.292 39.8239 222.474 39.5513C222.992 38.7715 223.763 37.9442 224.444 37.2144C224.714 36.9244 224.969 36.6508 225.191 36.4C226.001 35.481 226.801 34.5217 227.575 33.5942C228.191 32.8569 228.827 32.0944 229.467 31.3529C229.682 31.104 230.062 31.0726 230.317 31.2826C230.572 31.4923 230.604 31.8642 230.389 32.113C229.756 32.8468 229.122 33.6056 228.51 34.339C227.731 35.2728 226.925 36.2384 226.105 37.1694C225.872 37.4328 225.612 37.7123 225.336 38.0083C224.686 38.705 223.95 39.4945 223.485 40.1936C223.37 40.3668 223.176 40.4613 222.979 40.4613Z" fill="#0E0E0E"/>
<path d="M219.33 41.0731C219.206 41.0731 219.082 41.0361 218.974 40.9595C218.705 40.7674 218.647 40.3988 218.844 40.1362C220.374 38.0919 221.909 36.0568 223.076 34.5126C223.416 34.0626 223.819 33.6069 224.209 33.1661C224.711 32.5973 225.231 32.0088 225.609 31.442C225.791 31.1692 226.164 31.0916 226.443 31.2693C226.723 31.4467 226.802 31.8118 226.62 32.0845C226.198 32.7187 225.651 33.3376 225.122 33.9363C224.73 34.38 224.359 34.7991 224.046 35.2126C222.88 36.7556 221.346 38.7893 219.817 40.8317C219.699 40.9894 219.516 41.0731 219.33 41.0731Z" fill="#0E0E0E"/>
<path d="M216.657 40.2135C216.545 40.2135 216.431 40.1828 216.329 40.1182C216.05 39.9408 215.971 39.5757 216.152 39.3031C216.974 38.07 217.982 36.7318 219.326 35.0921C220.008 34.2626 220.718 33.4393 221.406 32.6428C221.74 32.2547 222.075 31.8668 222.408 31.4769C222.469 31.4048 222.52 31.3502 222.559 31.3085C222.561 31.2926 222.563 31.2754 222.565 31.2567C222.603 30.9334 222.903 30.7008 223.233 30.7383C223.564 30.7753 223.802 31.0677 223.764 31.3908C223.758 31.4372 223.755 31.4731 223.752 31.5018C223.73 31.7326 223.688 31.8677 223.495 32.0584C223.462 32.0909 223.412 32.1404 223.334 32.2319C223 32.6228 222.664 33.0125 222.328 33.402C221.645 34.1931 220.94 35.0112 220.267 35.8291C218.949 37.4373 217.962 38.7457 217.163 39.9454C217.048 40.119 216.855 40.2135 216.657 40.2135Z" fill="#0E0E0E"/>
<path d="M192.029 41.5442C191.922 41.5442 191.815 41.5166 191.717 41.4585C191.432 41.2898 191.341 40.9274 191.514 40.6491C192.224 39.5063 193.019 38.3913 193.788 37.313C195.181 35.3582 196.623 33.3369 197.55 31.1409C197.677 30.84 198.03 30.6971 198.338 30.821C198.646 30.9451 198.793 31.2896 198.666 31.5906C197.688 33.9051 196.208 35.9801 194.778 37.9866C194.019 39.0499 193.235 40.1496 192.545 41.2607C192.432 41.4432 192.233 41.5442 192.029 41.5442Z" fill="#0E0E0E"/>
<path d="M189.51 41.3771C189.372 41.3771 189.235 41.3317 189.121 41.2384C188.866 41.0289 188.834 40.6568 189.049 40.408C189.843 39.4874 190.415 38.4395 191.02 37.33C191.407 36.6205 191.807 35.8869 192.272 35.1888C192.5 34.8467 192.762 34.5013 193.041 34.1358C193.684 33.2908 194.349 32.417 194.6 31.5559C194.691 31.2428 195.026 31.0617 195.345 31.1505C195.666 31.2397 195.851 31.5655 195.76 31.8786C195.449 32.9471 194.684 33.9524 194.009 34.839C193.742 35.1894 193.49 35.5204 193.283 35.8315C192.848 36.4863 192.46 37.197 192.085 37.8844C191.477 38.9991 190.848 40.1515 189.971 41.1677C189.852 41.3058 189.682 41.3771 189.51 41.3771Z" fill="#0E0E0E"/>
<path d="M188.257 40.2227C188.144 40.2227 188.03 40.1918 187.928 40.127C187.649 39.9492 187.57 39.5839 187.752 39.3115C188.273 38.5313 188.737 37.6816 189.184 36.86C189.462 36.3505 189.749 35.8239 190.051 35.3114C190.227 35.0125 190.424 34.7104 190.632 34.3907C191.056 33.7397 191.495 33.0664 191.738 32.4324C191.855 32.1273 192.204 31.9735 192.515 32.0873C192.827 32.2016 192.985 32.5412 192.868 32.8458C192.58 33.595 192.107 34.3213 191.65 35.0233C191.449 35.3313 191.259 35.6226 191.097 35.8983C190.805 36.3945 190.523 36.9124 190.25 37.4135C189.789 38.2581 189.313 39.1313 188.763 39.9553C188.647 40.1286 188.454 40.2227 188.257 40.2227Z" fill="#0E0E0E"/>
<path d="M187.847 36.7946C187.725 36.7946 187.603 36.7589 187.497 36.6847C187.226 36.4955 187.163 36.1274 187.357 35.8627C188.261 34.6256 189.072 33.4685 189.833 32.3248C190.014 32.052 190.388 31.9744 190.667 32.1522C190.947 32.3295 191.026 32.6947 190.844 32.9673C190.073 34.1254 189.253 35.2966 188.338 36.5478C188.22 36.709 188.035 36.7946 187.847 36.7946Z" fill="#0E0E0E"/>
<path d="M238.6 126.569C238.271 126.569 238.002 126.311 237.997 125.988C237.991 125.574 237.983 125.173 237.976 124.78C237.946 123.256 237.917 121.817 238.008 120.258C238.027 119.933 238.307 119.684 238.645 119.703C238.977 119.722 239.232 120 239.213 120.325C239.125 121.839 239.152 123.257 239.182 124.758C239.19 125.152 239.197 125.555 239.204 125.971C239.208 126.296 238.942 126.564 238.609 126.569C238.606 126.569 238.603 126.569 238.6 126.569Z" fill="#0E0E0E"/>
<path d="M235.914 125.472C235.851 125.472 235.786 125.462 235.722 125.441C235.407 125.338 235.236 125.004 235.342 124.695C235.499 124.24 235.54 123.722 235.569 123.23C235.612 122.519 235.646 121.794 235.679 121.093C235.696 120.73 235.714 120.367 235.732 120.004C235.736 119.926 235.738 119.869 235.739 119.829C235.756 119.282 236.159 119.196 236.282 119.183C236.37 119.174 236.814 119.153 236.954 119.69L236.977 119.777C237.018 119.926 236.997 120.076 236.93 120.203C236.914 120.516 236.899 120.831 236.884 121.147C236.851 121.852 236.817 122.581 236.774 123.298C236.741 123.844 236.69 124.477 236.486 125.07C236.401 125.317 236.166 125.472 235.914 125.472Z" fill="#0E0E0E"/>
<path d="M233.782 125.089C233.758 125.089 233.735 125.088 233.711 125.085C233.38 125.047 233.143 124.755 233.182 124.431C233.261 123.765 233.296 123.08 233.332 122.354C233.387 121.27 233.444 120.149 233.664 119.089C233.73 118.77 234.048 118.565 234.375 118.629C234.702 118.694 234.913 119.005 234.846 119.323C234.644 120.296 234.59 121.372 234.537 122.413C234.501 123.126 234.464 123.863 234.38 124.568C234.344 124.868 234.083 125.089 233.782 125.089Z" fill="#0E0E0E"/>
<path d="M239.926 50.5529C239.913 50.5529 239.899 50.5525 239.886 50.5515C239.553 50.5303 239.302 50.2496 239.324 49.9249C239.359 49.3973 239.374 48.8478 239.389 48.3161C239.41 47.5367 239.432 46.731 239.519 45.9451C239.55 45.659 239.609 45.3812 239.666 45.1125C239.779 44.5818 239.885 44.0806 239.739 43.6526C239.634 43.3438 239.805 43.0101 240.121 42.9072C240.437 42.8046 240.778 42.9716 240.884 43.2799C241.132 44.009 240.981 44.7224 240.847 45.352C240.793 45.6038 240.743 45.8416 240.718 46.0704C240.637 46.8098 240.615 47.5913 240.595 48.3475C240.58 48.8906 240.564 49.4521 240.527 50.0025C240.506 50.3138 240.241 50.5529 239.926 50.5529Z" fill="#0E0E0E"/>
<path d="M237.515 50.2703C237.472 50.2703 237.428 50.2656 237.384 50.2561C237.059 50.1856 236.854 49.8708 236.926 49.5532C237.306 47.8813 237.491 45.8904 237.491 43.4662C237.491 43.1407 237.761 42.877 238.094 42.877C238.427 42.877 238.697 43.1407 238.697 43.4662C238.697 45.9772 238.503 48.0519 238.104 49.8087C238.041 50.0833 237.792 50.2703 237.515 50.2703Z" fill="#0E0E0E"/>
<path d="M235.49 49.0458C235.157 49.0458 234.887 48.782 234.887 48.4565C234.887 47.6603 234.911 46.8565 234.935 46.0793C234.959 45.3131 234.983 44.5204 234.983 43.7465C234.983 43.421 235.253 43.1572 235.586 43.1572C235.92 43.1572 236.19 43.421 236.19 43.7465C236.19 44.5382 236.165 45.3396 236.141 46.1149C236.118 46.8832 236.093 47.6779 236.093 48.4565C236.093 48.782 235.823 49.0458 235.49 49.0458Z" fill="#0E0E0E"/>
<path d="M174.207 60.9787C174.142 60.9787 174.076 60.9683 174.011 60.9467C173.696 60.841 173.529 60.5059 173.637 60.1979C175.313 55.4225 181.251 35.7186 183.057 29.4778C183.147 29.1646 183.48 28.9827 183.801 29.0712C184.122 29.1596 184.308 29.4853 184.218 29.7986C182.409 36.0479 176.46 55.7878 174.778 60.5806C174.692 60.8249 174.458 60.9787 174.207 60.9787Z" fill="#0E0E0E"/>
<path d="M177.535 40.6619C177.47 40.6619 177.403 40.6515 177.338 40.6295C177.023 40.5234 176.856 40.188 176.965 39.8804C176.992 39.802 179.745 31.9998 180.698 28.6691C180.787 28.3556 181.12 28.1726 181.441 28.2602C181.762 28.3478 181.949 28.6731 181.86 28.9863C180.897 32.3506 178.133 40.186 178.105 40.2648C178.019 40.5087 177.785 40.6619 177.535 40.6619Z" fill="#0E0E0E"/>
<path d="M279.137 140.856C273.391 140.857 267.603 140.254 263.948 138.298C263.623 138.124 263.422 137.789 263.426 137.426C263.474 133.117 264.598 31.8655 264.739 28.5282C264.796 27.2054 266.442 26.3015 270.078 25.5979C272.851 25.0615 276.615 24.7009 280.407 24.6084C285.211 24.4915 289.665 24.7975 292.946 25.4706C297.291 26.362 299.596 27.8958 299.796 30.0293C300.571 38.2738 298.934 132.002 298.277 138.438C298.232 138.877 297.893 139.234 297.447 139.308C296.85 139.408 288.044 140.856 279.137 140.856ZM265.443 136.84C273.568 140.64 292.296 138.1 296.333 137.493C296.983 126.789 298.493 37.6427 297.794 30.2084C297.705 29.2554 296.32 28.3697 293.895 27.7137C290.137 26.697 283.86 26.3075 277.515 26.6976C270.429 27.1331 267.275 28.2224 266.744 28.7335C266.592 33.7136 265.538 128.3 265.443 136.84Z" fill="#0E0E0E"/>
<path d="M243.217 140.72C238.222 140.72 233.442 140.155 230.292 138.47C229.967 138.296 229.766 137.96 229.77 137.598C229.818 133.289 230.942 32.0374 231.083 28.7001C231.123 27.7791 231.817 26.5957 236.873 25.6075C239.935 25.0087 243.985 24.6099 247.985 24.5129C253.266 24.385 265.598 24.6339 266.074 29.6962C266.125 30.2361 265.718 30.7144 265.165 30.7641C264.614 30.8108 264.123 30.416 264.072 29.8761C263.984 28.9435 262.64 28.091 260.288 27.4761C256.555 26.4999 250.274 26.1962 243.896 26.6849C237.42 27.1803 233.69 28.2771 233.088 28.8999C232.937 33.8119 231.882 128.457 231.787 137.011C240.876 141.21 263.686 136.526 263.92 136.478C264.463 136.364 264.997 136.703 265.113 137.233C265.229 137.763 264.883 138.285 264.34 138.398C263.674 138.537 253.035 140.72 243.217 140.72Z" fill="#0E0E0E"/>
<path d="M298.798 44.7472C298.715 44.7472 298.63 44.7346 298.547 44.7081C295.44 43.7152 276.098 42.3395 266.078 44.497C265.644 44.5891 265.215 44.3225 265.12 43.8989C265.024 43.4752 265.298 43.0559 265.732 42.9624C276.201 40.7081 295.747 42.1598 299.047 43.2145C299.47 43.3495 299.7 43.793 299.562 44.2055C299.451 44.5368 299.136 44.7472 298.798 44.7472Z" fill="#0E0E0E"/>
<path d="M298.323 52.7499C298.243 52.7499 298.16 52.7379 298.079 52.7129C293.1 51.1667 271.953 50.9587 265.755 52.3945C265.321 52.4963 264.889 52.2335 264.787 51.8114C264.684 51.3893 264.951 50.9656 265.384 50.8658C271.904 49.3556 293.302 49.5811 298.567 51.2153C298.99 51.3469 299.224 51.7886 299.09 52.2021C298.981 52.5364 298.664 52.7499 298.323 52.7499Z" fill="#0E0E0E"/>
<path d="M265.235 44.7472C265.153 44.7472 265.068 44.7346 264.985 44.7081C261.878 43.715 242.535 42.3395 232.516 44.497C232.082 44.5891 231.653 44.3225 231.558 43.8989C231.462 43.4752 231.736 43.0559 232.17 42.9624C242.639 40.7081 262.184 42.1598 265.485 43.2145C265.907 43.3495 266.138 43.793 266 44.2055C265.889 44.537 265.574 44.7472 265.235 44.7472Z" fill="#0E0E0E"/>
<path d="M264.761 52.7499C264.681 52.7499 264.598 52.7379 264.517 52.7129C259.538 51.1667 238.391 50.9587 232.193 52.3945C231.76 52.4963 231.327 52.2335 231.225 51.8114C231.122 51.3893 231.39 50.9656 231.822 50.8658C238.342 49.3556 259.74 49.5811 265.005 51.2153C265.428 51.3469 265.662 51.7886 265.528 52.2021C265.419 52.5364 265.102 52.7499 264.761 52.7499Z" fill="#0E0E0E"/>
<path d="M207.223 142.238C201.679 142.238 196.565 141.847 192.897 141.102C188.213 140.151 185.956 138.666 185.998 136.563C186.13 129.798 186.249 40.561 186.249 30.6919C186.249 26.6545 186.976 24.0606 188.539 22.5292C189.985 21.1113 191.886 20.881 193.563 20.6781C193.705 20.6609 193.848 20.6436 193.99 20.6255C197.411 20.1962 218.604 19.9767 226.446 20.9474C229.538 21.33 231.625 22.3799 232.649 24.0677C233.867 26.0757 233.045 28.1738 233.01 28.262C232.806 28.7668 232.222 29.0149 231.706 28.8165C231.191 28.6187 230.937 28.0524 231.136 27.5494C231.15 27.5127 231.625 26.2118 230.908 25.0506C230.22 23.9377 228.59 23.1925 226.193 22.8957C218.465 21.9397 197.609 22.1517 194.247 22.5734C194.102 22.5918 193.956 22.6095 193.81 22.627C190.709 23.0023 188.26 23.2989 188.26 30.6914C188.26 40.5627 188.14 129.825 188.008 136.6C187.995 137.268 189.211 138.259 192.664 139.041C197.722 140.186 206.485 140.571 214.99 140.021C225.236 139.358 229.201 137.78 229.516 137.12C229.727 136.618 230.314 136.38 230.828 136.586C231.342 136.792 231.586 137.367 231.375 137.868C231.07 138.591 230.168 139.663 225.87 140.617C223.218 141.205 219.691 141.664 215.672 141.943C212.833 142.141 209.975 142.238 207.223 142.238Z" fill="#0E0E0E"/>
<path d="M172.416 79.3448C172.327 79.3448 172.236 79.3331 172.145 79.3083C171.611 79.1624 171.298 78.6206 171.447 78.0982C176.457 60.581 180.969 44.6088 183.394 36.0282C184.481 32.177 185.2 29.6324 185.418 28.8794C185.59 28.286 183.596 26.1352 176.554 23.6103C167.191 20.2526 158.655 19.6513 157.753 21.3792L156.827 23.8757C156.638 24.3857 156.062 24.6482 155.54 24.4643C155.018 24.2795 154.748 23.7162 154.937 23.2063L155.88 20.6649C155.889 20.6401 155.899 20.6155 155.91 20.5916C158.037 16.0416 172.034 19.8973 177.247 21.7666C182.338 23.592 188.224 26.4008 187.353 29.4136C187.137 30.1614 186.419 32.7032 185.332 36.551C182.907 45.1328 178.395 61.107 173.384 78.6273C173.26 79.0608 172.856 79.3448 172.416 79.3448Z" fill="#0E0E0E"/>
<path d="M187.766 43.1362C187.409 43.1362 187.082 42.9014 186.988 42.5473C186.877 42.1272 187.135 41.6986 187.565 41.5898C194.728 39.7776 226.858 39.3118 231.642 40.951C232.061 41.0944 232.282 41.543 232.135 41.9526C231.988 42.3619 231.529 42.5772 231.11 42.4338C227.046 41.0416 195.387 41.2343 187.968 43.1108C187.901 43.1279 187.833 43.1362 187.766 43.1362Z" fill="#0E0E0E"/>
<path d="M187.936 32.981C187.589 32.981 187.269 32.7604 187.165 32.4193C187.038 32.0035 187.281 31.5658 187.707 31.4421C192.37 30.0864 204.814 30.0049 211.817 30.0768C221.073 30.1721 230.31 30.623 231.584 31.042C232.005 31.1803 232.232 31.6259 232.09 32.037C231.948 32.4483 231.492 32.6699 231.072 32.5312C230.205 32.2466 221.731 31.7501 211.8 31.6481C200.037 31.5271 191.423 32.0009 188.165 32.9482C188.089 32.9704 188.012 32.981 187.936 32.981Z" fill="#0E0E0E"/>
<path d="M208.589 131.019C200.439 131.019 192.012 129.992 186.514 127.149C186.024 126.895 185.836 126.301 186.096 125.821C186.356 125.342 186.965 125.16 187.455 125.413C198.763 131.26 224.167 128.925 230.201 126.208C230.706 125.981 231.303 126.196 231.535 126.689C231.767 127.181 231.547 127.765 231.043 127.992C227.535 129.571 218.259 131.019 208.589 131.019Z" fill="#0E0E0E"/>
<path d="M211.21 121.995C201.611 121.995 191.684 120.943 187.156 119.216C186.639 119.018 186.383 118.449 186.585 117.943C186.787 117.438 187.37 117.189 187.887 117.386C195.516 120.295 220.004 121.161 229.515 118.095C230.042 117.924 230.61 118.205 230.784 118.72C230.958 119.235 230.672 119.79 230.145 119.96C225.759 121.374 218.581 121.995 211.21 121.995Z" fill="#0E0E0E"/>
<path d="M280.262 127.369C274.75 127.369 268.329 126.911 264.662 125.603C264.245 125.454 264.03 125.003 264.183 124.595C264.335 124.187 264.797 123.977 265.214 124.127C272.75 126.816 293.53 126.048 296.897 123.575C297.252 123.314 297.756 123.384 298.023 123.73C298.29 124.077 298.219 124.57 297.863 124.831C295.644 126.461 288.535 127.196 282.622 127.34C281.863 127.359 281.072 127.369 280.262 127.369Z" fill="#0E0E0E"/>
<path d="M279.007 121.292C274.251 121.292 268.468 120.837 264.846 118.959C264.454 118.755 264.305 118.279 264.513 117.896C264.721 117.513 265.208 117.367 265.601 117.571C268.943 119.304 275.46 120.042 283.477 119.593C290.827 119.182 295.991 117.988 296.583 117.489C296.913 117.198 297.421 117.223 297.719 117.544C298.017 117.866 297.992 118.363 297.663 118.654C296.371 119.798 289.509 120.826 283.622 121.159C282.32 121.232 280.731 121.292 279.007 121.292Z" fill="#0E0E0E"/>
<path d="M246.649 127.265C241.136 127.265 234.713 126.808 231.046 125.499C230.629 125.35 230.414 124.899 230.566 124.491C230.719 124.084 231.18 123.874 231.598 124.023C239.132 126.712 259.913 125.945 263.283 123.473C263.638 123.212 264.142 123.282 264.409 123.629C264.676 123.976 264.604 124.469 264.249 124.729C262.028 126.359 254.919 127.093 249.006 127.237C248.248 127.255 247.458 127.265 246.649 127.265Z" fill="#0E0E0E"/>
<path d="M245.398 121.386C240.616 121.386 234.794 120.927 231.138 119.03C230.647 118.776 230.461 118.181 230.721 117.702C230.982 117.223 231.591 117.042 232.081 117.295C235.372 119.003 241.805 119.733 249.732 119.301C257.075 118.901 262.168 117.742 262.839 117.234C263.25 116.869 263.881 116.902 264.255 117.304C264.628 117.706 264.593 118.331 264.182 118.695C262.859 119.87 255.942 120.918 250.018 121.253C248.714 121.327 247.124 121.386 245.398 121.386Z" fill="#0E0E0E"/>
<path d="M214.71 114.428H202.907C199.541 114.428 196.803 111.173 196.803 107.173V62.3386C196.803 58.3378 199.541 55.083 202.907 55.083H214.71C218.076 55.083 220.814 58.3378 220.814 62.3386V107.173C220.814 111.173 218.076 114.428 214.71 114.428ZM202.907 57.0472C200.65 57.0472 198.814 59.4209 198.814 62.3386V107.173C198.814 110.09 200.65 112.464 202.907 112.464H214.71C216.967 112.464 218.803 110.09 218.803 107.173V62.3386C218.803 59.4209 216.967 57.0472 214.71 57.0472H202.907Z" fill="#0E0E0E"/>
<path d="M165.557 73.7752C165.461 73.7752 165.363 73.7616 165.266 73.7328C164.734 73.5754 164.434 73.0271 164.595 72.5081L171.679 49.6708C172.603 46.6864 171.886 44.2037 170.664 43.8421L162.459 41.4144C161.878 41.2431 161.123 41.5317 160.385 42.207C159.504 43.0146 158.746 44.2925 158.305 45.7128C158.145 46.2317 157.584 46.5256 157.052 46.368C156.521 46.2109 156.22 45.6627 156.381 45.1436C156.929 43.3778 157.862 41.8261 159.01 40.7745C160.304 39.5889 161.736 39.1488 163.042 39.5347L171.247 41.9624C173.775 42.7102 174.81 46.346 173.603 50.24L166.519 73.0775C166.388 73.5018 165.989 73.7752 165.557 73.7752Z" fill="#0E0E0E"/>
<path d="M26.1727 162.062C26.1069 162.062 26.04 162.051 25.9744 162.029C23.6109 161.225 6.42163 155.045 4.03075 153.951C3.72916 153.813 3.59927 153.462 3.74062 153.167C3.88217 152.873 4.24127 152.746 4.54287 152.884C6.8314 153.932 24.0498 160.127 26.3711 160.916C26.6856 161.023 26.8521 161.359 26.7425 161.666C26.6556 161.909 26.4222 162.062 26.1727 162.062Z" fill="#0E0E0E"/>
<path d="M64.6546 175.069C64.584 175.069 64.5126 175.057 64.4429 175.031C64.2416 174.958 44.2668 167.652 40.1103 166.588C39.788 166.505 39.5952 166.183 39.6796 165.869C39.7643 165.554 40.0942 165.366 40.4162 165.448C44.6319 166.527 64.0417 173.626 64.8661 173.928C65.1782 174.042 65.3362 174.382 65.2194 174.686C65.1287 174.923 64.8987 175.069 64.6546 175.069Z" fill="#0E0E0E"/>
<path d="M65.6844 169.409C65.4994 169.409 65.3167 169.326 65.1984 169.169C65.0008 168.907 65.0581 168.538 65.3263 168.345L79.4733 158.161C79.7409 157.968 80.1189 158.023 80.3165 158.286C80.5142 158.548 80.4569 158.917 80.1887 159.109L66.0417 169.294C65.9341 169.371 65.8087 169.409 65.6844 169.409Z" fill="#0E0E0E"/>
<path d="M20.2467 122.461C20.1431 122.461 20.0386 122.435 19.9427 122.381C19.5737 122.17 19.2088 121.956 18.8438 121.742C18.4713 121.523 18.0991 121.305 17.7233 121.09C17.4356 120.926 17.3387 120.565 17.5066 120.284C17.6742 120.003 18.0436 119.909 18.3317 120.073C18.7119 120.289 19.0885 120.51 19.4653 120.731C19.826 120.943 20.1872 121.155 20.5519 121.363C20.8394 121.528 20.9361 121.889 20.768 122.169C20.6556 122.357 20.4542 122.461 20.2467 122.461Z" fill="#0E0E0E"/>
<path d="M22.4828 122.057C22.4032 122.057 22.3226 122.042 22.245 122.009C21.3611 121.638 20.4879 120.994 19.7172 120.425C19.4289 120.213 19.1566 120.012 18.895 119.832C18.6226 119.645 18.5566 119.278 18.7483 119.011C18.9399 118.745 19.3162 118.681 19.5887 118.868C19.8672 119.059 20.1474 119.266 20.4444 119.485C21.1952 120.039 21.9717 120.612 22.7211 120.926C23.0271 121.055 23.1689 121.401 23.0374 121.7C22.9392 121.923 22.7167 122.057 22.4828 122.057Z" fill="#0E0E0E"/>
<path d="M24.4631 121.817C24.3318 121.817 24.1995 121.776 24.0887 121.69L24.0361 121.649C23.0597 120.892 22.0497 120.11 21.0038 119.511C20.7163 119.346 20.62 118.985 20.7883 118.705C20.9565 118.424 21.3261 118.329 21.6136 118.494C22.7328 119.135 23.7767 119.944 24.7858 120.726L24.8383 120.766C25.0993 120.969 25.1431 121.339 24.936 121.594C24.817 121.741 24.6409 121.817 24.4631 121.817Z" fill="#0E0E0E"/>
<path d="M26.5282 121.47C26.4116 121.47 26.2939 121.437 26.19 121.369C25.8267 121.128 25.4692 120.867 25.1233 120.615C24.5804 120.219 24.0677 119.845 23.5269 119.535C23.2395 119.37 23.1436 119.009 23.3123 118.728C23.481 118.448 23.8506 118.354 24.1379 118.519C24.7361 118.862 25.2999 119.273 25.8449 119.671C26.1954 119.926 26.5266 120.167 26.8674 120.394C27.143 120.576 27.215 120.943 27.0278 121.212C26.9112 121.38 26.7212 121.47 26.5282 121.47Z" fill="#0E0E0E"/>
<path d="M33.3963 120.261C33.2646 120.261 33.1321 120.219 33.0211 120.132C32.6399 119.836 32.2044 119.583 31.7436 119.315C31.1462 118.968 30.5285 118.608 29.9993 118.13C29.7548 117.909 29.7401 117.536 29.9665 117.297C30.1927 117.059 30.5744 117.044 30.8189 117.265C31.2548 117.659 31.7918 117.972 32.3604 118.302C32.8358 118.578 33.3274 118.864 33.7723 119.21C34.0331 119.413 34.0761 119.784 33.8686 120.038C33.7496 120.184 33.5739 120.261 33.3963 120.261Z" fill="#0E0E0E"/>
<path d="M35.7532 119.88C35.6063 119.88 35.4585 119.828 35.3425 119.722C34.9812 119.394 34.5555 119.127 34.1049 118.845C33.752 118.624 33.3873 118.396 33.0421 118.128C32.7811 117.926 32.7375 117.555 32.9448 117.3C33.1516 117.045 33.5313 117.002 33.7922 117.205C34.0896 117.436 34.4133 117.638 34.756 117.853C35.2319 118.151 35.7237 118.459 36.1646 118.86C36.4085 119.082 36.422 119.455 36.195 119.693C36.0762 119.817 35.9149 119.88 35.7532 119.88Z" fill="#0E0E0E"/>
<path d="M38.0832 119.775C37.9794 119.775 37.8745 119.749 37.7784 119.695C37.2367 119.384 36.7479 119.017 36.2752 118.663C35.8093 118.313 35.369 117.983 34.8896 117.709C34.6021 117.545 34.5054 117.184 34.6735 116.903C34.8416 116.622 35.2108 116.528 35.4987 116.692C36.0436 117.003 36.5348 117.372 37.0099 117.728C37.4737 118.076 37.9117 118.405 38.3888 118.678C38.6761 118.843 38.7722 119.204 38.6037 119.485C38.4917 119.671 38.2903 119.775 38.0832 119.775Z" fill="#0E0E0E"/>
<path d="M39.9834 119.178C39.8586 119.178 39.7329 119.141 39.6249 119.063L39.5393 119C39.4737 118.952 39.4084 118.904 39.3412 118.859C39.0851 118.683 38.8339 118.513 38.583 118.344C38.2243 118.102 37.8662 117.86 37.5129 117.612C37.4677 117.58 37.4255 117.547 37.3833 117.512C37.365 117.497 37.3475 117.482 37.3288 117.468C37.0308 117.38 36.8468 117.082 36.9134 116.78C36.9836 116.462 37.3038 116.26 37.6298 116.328C37.8767 116.379 38.0446 116.516 38.1558 116.607C38.1767 116.624 38.197 116.641 38.2185 116.656C38.5641 116.898 38.9164 117.136 39.2689 117.374C39.523 117.546 39.7772 117.717 40.0299 117.891C40.1049 117.941 40.1841 117.999 40.2631 118.057L40.343 118.115C40.6106 118.309 40.6671 118.678 40.4688 118.939C40.3506 119.096 40.168 119.178 39.9834 119.178Z" fill="#0E0E0E"/>
<path d="M42.3724 119.02C42.219 119.02 42.0656 118.963 41.948 118.849C41.8181 118.723 41.6508 118.571 41.4682 118.405C41.0407 118.016 40.5562 117.574 40.1979 117.167C39.9807 116.92 40.0095 116.548 40.2622 116.336C40.515 116.124 40.8956 116.152 41.1127 116.399C41.4276 116.757 41.9063 117.193 42.2908 117.543C42.4836 117.719 42.6595 117.879 42.7969 118.012C43.0335 118.241 43.0355 118.614 42.8011 118.845C42.6831 118.961 42.5278 119.02 42.3724 119.02Z" fill="#0E0E0E"/>
<path d="M44.9441 119.048C44.7889 119.048 44.6334 118.99 44.5154 118.873C44.4362 118.795 44.3011 118.68 44.1579 118.558C43.3951 117.906 42.809 117.359 42.7794 116.755C42.7633 116.43 43.0201 116.153 43.3529 116.138C43.6888 116.119 43.9577 116.363 43.9832 116.679C44.0584 116.907 44.6837 117.441 44.9523 117.67C45.1192 117.813 45.2634 117.936 45.373 118.044C45.6074 118.275 45.6054 118.648 45.3687 118.877C45.2509 118.991 45.0975 119.048 44.9441 119.048Z" fill="#0E0E0E"/>
<path d="M46.2935 118.555C46.1238 118.555 45.955 118.486 45.8359 118.35C45.6992 118.194 45.5267 118.051 45.3441 117.9C45.0353 117.643 44.6856 117.353 44.4453 116.938C44.2815 116.655 44.3836 116.295 44.6738 116.135C44.9635 115.975 45.3319 116.075 45.4955 116.358C45.6302 116.591 45.8596 116.781 46.1252 117.002C46.3354 117.176 46.5527 117.356 46.751 117.582C46.9681 117.829 46.9394 118.201 46.6866 118.413C46.5726 118.508 46.4329 118.555 46.2935 118.555Z" fill="#0E0E0E"/>
<path d="M94.451 131.712C94.0034 131.712 93.0252 131.475 90.3056 130.705C85.6793 129.396 77.2532 126.825 69.3385 124.308C65.4467 123.07 62.1204 121.986 59.7197 121.172C55.358 119.694 55.3154 119.581 55.1744 119.21C54.9601 118.642 55.395 118.174 56.4512 117.341C57.0906 116.837 57.9781 116.196 59.089 115.438C60.8704 114.222 63.093 112.804 63.5759 112.575C63.9011 112.421 64.0832 112.337 70.2946 114.065C73.5231 114.963 77.9003 116.225 83.3049 117.815C92.5433 120.532 102.169 123.444 102.614 123.611C102.886 123.714 103.072 123.942 103.113 124.221C103.184 124.713 103.274 125.324 94.9508 131.515L94.8933 131.558C94.7753 131.646 94.687 131.711 94.451 131.712ZM56.9311 118.731C61.9292 120.682 91.2172 129.796 94.2445 130.312C98.0838 127.452 100.4 125.546 101.317 124.644C98.8873 123.894 91.3067 121.606 83.3978 119.278C67.821 114.692 64.6776 113.977 64.0519 113.885C63.0116 114.461 58.4442 117.452 56.9311 118.731Z" fill="#0E0E0E"/>
<path d="M65.8188 173.165C65.6491 173.165 65.4802 173.095 65.3612 172.959C65.1441 172.713 65.1728 172.341 65.4256 172.129C68.3993 169.633 107.381 141.44 111.683 139.396C111.983 139.253 112.344 139.375 112.49 139.668C112.636 139.96 112.511 140.313 112.211 140.455C108.321 142.304 70.1021 169.758 66.2117 173.023C66.0977 173.118 65.958 173.165 65.8188 173.165Z" fill="#0E0E0E"/>
<path d="M82.5563 156.936C82.4119 156.936 82.2637 156.876 82.1276 156.705C81.913 156.437 81.9504 156.161 82.2388 155.886C82.2361 155.875 82.2904 155.834 82.3747 155.769C82.3823 155.764 82.8971 155.371 82.8971 155.371C82.8985 155.37 83.4146 154.977 83.4146 154.977C83.5065 154.907 83.5606 154.866 83.5642 154.863C83.5871 154.86 83.6038 154.851 83.6203 154.842C88.2603 151.506 109.826 136.597 111.897 135.612C112.196 135.47 112.557 135.592 112.703 135.884C112.849 136.177 112.724 136.53 112.425 136.672C110.535 137.571 86.5315 154.107 83.6675 156.279L83.1826 156.649C83.1755 156.654 83.1683 156.66 83.1607 156.666L82.9751 156.807L82.9686 156.799C82.847 156.873 82.7036 156.936 82.5563 156.936Z" fill="#0E0E0E"/>
<path d="M64.8335 169.775C64.7648 169.775 64.6952 169.763 64.6269 169.739C64.1634 169.574 6.67575 151.158 4.58467 150.785C4.25693 150.727 4.03976 150.42 4.09948 150.1C4.15919 149.78 4.47286 149.567 4.801 149.626C7.12532 150.04 64.576 168.466 65.0405 168.632C65.3535 168.743 65.5144 169.082 65.4003 169.387C65.3109 169.626 65.0799 169.775 64.8335 169.775Z" fill="#0E0E0E"/>
<path d="M64.2971 165.042C64.2457 165.042 64.1932 165.036 64.1413 165.022C60.0171 163.946 38.5955 157.295 38.3796 157.228C38.0621 157.129 37.8866 156.798 37.9875 156.488C38.0886 156.178 38.428 156.007 38.7453 156.105C38.9609 156.172 60.3557 162.815 64.4524 163.883C64.7745 163.967 64.9657 164.29 64.8796 164.604C64.8074 164.868 64.5636 165.042 64.2971 165.042Z" fill="#0E0E0E"/>
<path d="M29.8158 154.143C29.7521 154.143 29.6868 154.133 29.623 154.112L5.40449 146.127C5.08882 146.023 4.91931 145.689 5.02587 145.381C5.13244 145.072 5.47465 144.906 5.79032 145.011L30.0087 152.995C30.3243 153.099 30.4938 153.433 30.3875 153.742C30.3024 153.988 30.0676 154.143 29.8158 154.143Z" fill="#0E0E0E"/>
<path d="M4.45327 155.027C4.31092 155.027 4.16777 154.978 4.05296 154.879C3.80203 154.661 3.4767 154.408 3.13248 154.141C2.18245 153.402 1.10554 152.566 0.651534 151.758C0.491285 151.472 0.598058 151.114 0.890005 150.957C1.18215 150.801 1.54869 150.905 1.70914 151.191C2.04653 151.791 3.06512 152.582 3.88346 153.218C4.24095 153.496 4.57874 153.758 4.8542 153.997C5.10332 154.214 5.12584 154.586 4.90467 154.829C4.78523 154.96 4.61976 155.027 4.45327 155.027Z" fill="#0E0E0E"/>
<path d="M3.20073 152.461C3.04249 152.461 2.88445 152.4 2.76602 152.28C2.60376 152.116 2.44151 151.949 2.27865 151.781C1.81922 151.308 1.3443 150.818 0.858723 150.379C0.614228 150.158 0.599341 149.785 0.82554 149.547C1.05174 149.307 1.43356 149.293 1.67786 149.514C2.19239 149.979 2.68119 150.483 3.15389 150.97C3.31455 151.135 3.47478 151.3 3.63503 151.463C3.86606 151.697 3.85883 152.07 3.61896 152.296C3.50214 152.406 3.35132 152.461 3.20073 152.461Z" fill="#0E0E0E"/>
<path d="M4.00493 150.181C3.85332 150.181 3.70173 150.126 3.58451 150.014C3.42104 149.859 3.19584 149.666 2.95778 149.461C2.22529 148.831 1.31386 148.047 0.886398 147.284C0.72635 146.999 0.833526 146.641 1.12588 146.485C1.41782 146.328 1.78457 146.433 1.94462 146.718C2.27014 147.299 3.09349 148.007 3.75499 148.576C4.00472 148.791 4.24078 148.994 4.42576 149.17C4.66463 149.396 4.66985 149.77 4.43762 150.003C4.31919 150.122 4.16216 150.181 4.00493 150.181Z" fill="#0E0E0E"/>
<path d="M4.74911 148.302C4.5947 148.302 4.44046 148.244 4.32263 148.129C3.95991 147.775 3.60383 147.408 3.25941 147.054C2.96263 146.748 2.65581 146.432 2.34938 146.129C2.27559 146.056 2.18452 145.982 2.08821 145.903C1.85095 145.708 1.58192 145.487 1.39854 145.159C1.2391 144.873 1.34687 144.515 1.63922 144.359C1.93137 144.203 2.29811 144.309 2.45755 144.594C2.53215 144.728 2.69341 144.86 2.86432 145C2.97692 145.093 3.09334 145.188 3.20654 145.3C3.52241 145.612 3.83366 145.933 4.13465 146.243C4.47365 146.591 4.82411 146.952 5.17557 147.296C5.41122 147.526 5.41122 147.899 5.17557 148.129C5.05794 148.244 4.90353 148.302 4.74911 148.302Z" fill="#0E0E0E"/>
<path d="M4.81191 146.05C4.63337 146.05 4.45643 145.973 4.3374 145.825C4.06898 145.491 3.7352 145.189 3.38192 144.869C2.84548 144.383 2.29055 143.881 1.91838 143.218C1.75813 142.933 1.86488 142.575 2.15702 142.418C2.44937 142.262 2.81571 142.366 2.97596 142.651C3.25424 143.147 3.71468 143.564 4.20226 144.005C4.57423 144.342 4.95868 144.69 5.28581 145.096C5.4917 145.352 5.44648 145.723 5.18469 145.924C5.0739 146.009 4.9424 146.05 4.81191 146.05Z" fill="#0E0E0E"/>
<path d="M5.02406 143.902C4.90543 143.902 4.78561 143.868 4.68086 143.797C4.03403 143.359 3.24825 142.384 2.86261 141.694C2.70276 141.408 2.81035 141.051 3.1027 140.894C3.39505 140.739 3.76137 140.843 3.92122 141.129C4.22764 141.677 4.8974 142.51 5.36829 142.829C5.64214 143.014 5.7101 143.381 5.52029 143.649C5.40307 143.814 5.21507 143.902 5.02406 143.902Z" fill="#0E0E0E"/>
<path d="M5.98373 142.74C5.81826 142.74 5.65359 142.674 5.53436 142.544C5.37853 142.374 5.21668 142.186 5.05039 141.992C4.73854 141.629 4.41623 141.254 4.09874 140.965C3.85485 140.743 3.84096 140.371 4.06797 140.132C4.29477 139.894 4.67659 139.881 4.92048 140.102C5.29245 140.441 5.6393 140.844 5.97468 141.235C6.13191 141.418 6.28494 141.596 6.43272 141.757C6.6551 141.999 6.63417 142.372 6.38626 142.589C6.27085 142.69 6.12709 142.74 5.98373 142.74Z" fill="#0E0E0E"/>
<path d="M67.0054 161.739C65.7992 161.739 63.1363 161.271 56.6879 159.354C49.8113 157.31 41.4304 154.456 35.611 152.423C21.4493 147.475 5.31182 141.389 3.93452 140.186C3.51349 139.818 3.54848 139.371 3.70611 139.099C3.7799 138.972 3.88828 138.868 4.01937 138.798C6.38209 137.534 61.9087 107.83 63.9335 107.007C64.3137 106.852 64.7852 106.659 73.8118 108.968C78.7952 110.243 85.5567 112.077 92.8507 114.133C99.7762 116.086 106.677 118.097 111.782 119.652C120.618 122.342 120.954 122.688 121.176 122.916C121.353 123.098 121.439 123.348 121.412 123.603C121.345 124.235 121.261 125.022 102.579 137.981C92.5172 144.96 80.8318 152.844 73.8502 157.554C70.7898 159.618 68.5789 161.11 68.0797 161.465C67.9072 161.587 67.6928 161.739 67.0054 161.739ZM5.97956 139.54C9.48032 141.192 21.416 145.782 35.6017 150.751C55.4759 157.711 65.7525 160.482 67.1891 160.154C67.7863 159.735 69.8553 158.339 72.9358 156.261C83.6122 149.058 114.979 127.897 119.395 123.765C116.672 122.731 106.766 119.693 92.4993 115.67C74.9499 110.721 65.7398 108.498 64.4695 108.493C62.025 109.612 25.9781 128.843 5.97956 139.54Z" fill="#0E0E0E"/>
<path d="M65.6781 180C65.4926 180 65.3683 179.962 65.2571 179.928C64.9145 179.823 64.0071 179.564 62.6336 179.173C56.4195 177.404 41.8667 173.261 28.365 168.741C5.2336 160.997 1.72379 157.704 1.09606 155.901C-1.42571 148.658 0.736554 140.572 4.20835 138.706C4.59782 138.497 5.08663 138.636 5.30076 139.016C5.5147 139.396 5.37294 139.873 4.98368 140.083C2.12613 141.618 0.4398 149.136 2.61895 155.395C2.80333 155.925 3.98034 157.487 10.9075 160.539C15.2774 162.464 21.3265 164.724 28.8866 167.255C42.3529 171.763 56.8803 175.899 63.0836 177.665C64.4058 178.041 65.2993 178.295 65.6892 178.414C66.4237 178.377 70.0179 176.804 87.3892 163.596C97.9719 155.55 109.517 146.346 115.065 141.923C116.895 140.464 118.103 139.501 118.442 139.245C118.449 139.24 118.455 139.235 118.461 139.23C118.116 138.918 116.982 138.412 113.782 137.649C112.641 137.377 112.169 137.265 112.18 136.598C112.186 136.224 112.459 135.907 112.843 135.829C113.069 135.782 113.292 135.833 113.467 135.952C113.635 135.997 113.911 136.063 114.163 136.123C117.811 136.992 119.84 137.704 120.117 138.973C120.186 139.291 120.189 139.91 119.427 140.487C119.104 140.731 117.902 141.689 116.082 143.14C110.41 147.662 98.6087 157.07 87.8744 165.218C70.367 178.508 66.8353 180 65.6781 180Z" fill="#0E0E0E"/>
<path d="M64.9741 176.911C64.8591 176.911 64.7435 176.887 64.6353 176.838C64.3693 176.717 64.1916 176.465 64.1714 176.179C64.1427 175.765 63.4844 165.993 65.0982 160.882C65.2291 160.467 65.6794 160.234 66.1037 160.363C66.5281 160.491 66.7662 160.931 66.6353 161.345C65.4619 165.061 65.5809 171.707 65.7017 174.628L111.107 142.051C111.131 141.777 111.157 141.463 111.186 141.117C111.423 138.254 111.866 132.925 112.765 129.689C112.882 129.271 113.324 129.024 113.752 129.137C114.181 129.25 114.434 129.682 114.318 130.101C113.457 133.196 113.022 138.431 112.789 141.244C112.746 141.755 112.709 142.197 112.677 142.544C112.657 142.768 112.538 142.973 112.353 143.106L65.4498 176.758C65.3097 176.859 65.1424 176.911 64.9741 176.911Z" fill="#0E0E0E"/>
<path d="M64.9926 177.191C64.9146 177.191 64.8354 177.179 64.7567 177.156C62.4976 176.48 9.34046 160.533 1.71947 155.309C1.35595 155.059 1.26787 154.569 1.52302 154.214C1.77837 153.859 2.27984 153.773 2.64336 154.022C10.0573 159.105 64.6771 175.489 65.2278 175.654C65.6525 175.781 65.8914 176.22 65.7611 176.635C65.6553 176.973 65.3368 177.191 64.9926 177.191Z" fill="#0E0E0E"/>
<path d="M55.4205 147.517C54.7618 147.517 54.0931 147.455 53.4163 147.33C49.4927 146.606 46.7439 144.714 45.2464 141.709C42.686 136.571 44.6985 129.55 46.0744 126.955C46.8533 125.488 49.0302 125.011 52.7304 125.495C55.5876 125.869 59.2729 126.814 62.5883 128.022C68.3253 130.113 68.5889 131.309 68.7013 131.82C69.1193 133.719 67.106 140.19 63.253 144.049C60.9673 146.339 58.2901 147.517 55.4205 147.517ZM48.2161 128.04C47.0696 130.205 45.2779 136.387 47.4159 140.677C48.5615 142.976 50.731 144.435 53.8644 145.014C56.6126 145.522 59.1219 144.709 61.3252 142.6C64.8289 139.247 66.3922 133.712 66.3528 132.437C65.8305 131.934 63.5132 130.746 59.743 129.55C55.8437 128.312 52.1751 127.612 49.9268 127.671C48.5235 127.709 48.2264 128.029 48.2161 128.04Z" fill="#0E0E0E"/>
<path d="M80.4445 141.274C80.4006 141.274 80.3562 141.272 80.3105 141.267C79.9398 141.23 79.6141 141.04 79.3945 140.734C78.7895 139.891 79.0481 138.305 80.0797 134.259C80.1891 133.83 80.313 133.344 80.4057 132.95C78.3369 133.123 72.579 134.556 67.6672 136.002C67.3591 136.092 67.0253 136.034 66.7688 135.844C66.5126 135.654 66.3649 135.356 66.3717 135.041L66.4521 131.333C66.4626 130.855 66.8229 130.455 67.3058 130.383C67.8447 130.303 80.4585 128.431 83.0175 128.431C83.0324 128.431 83.0469 128.431 83.0611 128.431C83.6854 128.437 84.2171 128.763 84.5197 129.328C85.0436 130.305 84.9174 132.183 84.1439 134.909C83.525 137.09 82.623 139.255 81.8996 140.295C81.7088 140.57 81.2186 141.274 80.4445 141.274ZM80.8014 130.977C81.6527 130.977 82.1966 131.187 82.4569 131.752C82.665 132.205 82.5701 132.618 82.0307 134.733C81.9543 135.033 81.8604 135.401 81.7616 135.802C81.858 135.521 81.9533 135.229 82.0462 134.926C82.8255 132.386 82.892 130.912 82.7901 130.399C80.5633 130.478 72.4069 131.621 68.4443 132.201L68.4109 133.741C69.7331 133.366 71.8718 132.774 74.0176 132.239C76.0636 131.729 77.7214 131.37 78.9451 131.171C79.6766 131.052 80.2937 130.977 80.8014 130.977Z" fill="#0E0E0E"/>
<path d="M26.368 139.333C25.7087 139.333 25.0396 139.271 24.362 139.146C20.4372 138.421 17.6878 136.53 16.1899 133.524C13.6293 128.383 15.6438 121.364 17.0207 118.77C17.799 117.303 19.9759 116.826 23.6767 117.311C26.5337 117.685 30.2184 118.63 33.5332 119.838C39.2692 121.928 39.5326 123.124 39.645 123.635C40.0644 125.532 38.0549 132 34.2027 135.862C31.9164 138.154 29.2388 139.333 26.368 139.333ZM19.162 119.856C18.0149 122.018 16.2212 128.199 18.3596 132.492C19.5052 134.792 21.6755 136.251 24.8101 136.829C27.5581 137.337 30.069 136.525 32.2727 134.415C35.7765 131.06 37.3373 125.526 37.2969 124.253C36.7752 123.75 34.4579 122.562 30.6869 121.365C26.7884 120.128 23.1196 119.425 20.8719 119.486C19.4687 119.524 19.1721 119.844 19.162 119.856Z" fill="#0E0E0E"/>
<path d="M43.9524 128.083C43.9094 128.083 43.8654 128.081 43.8207 128.076C43.4473 128.038 43.1218 127.848 42.9028 127.542C42.2984 126.698 42.5572 125.112 43.5885 121.066C43.6963 120.643 43.8183 120.164 43.9108 119.774C40.619 119.851 28.3017 121.833 17.2968 123.857C16.9308 123.924 16.558 123.789 16.3258 123.506C16.0938 123.222 16.0405 122.837 16.1875 122.503L18.1843 117.98C18.3306 117.648 18.6507 117.422 19.0187 117.39C20.0381 117.302 43.8967 115.237 46.5309 115.237C46.5446 115.237 46.5576 115.237 46.5701 115.237C47.1942 115.243 47.7254 115.57 48.028 116.134C48.5522 117.11 48.4263 118.987 47.654 121.712C47.0358 123.892 46.1344 126.057 45.4111 127.099C45.2195 127.375 44.7283 128.083 43.9524 128.083ZM44.0954 117.818C45.3617 117.818 45.7395 118.068 45.9657 118.559C46.1738 119.012 46.0789 119.424 45.5396 121.54C45.4632 121.84 45.3693 122.208 45.2704 122.609C45.3667 122.329 45.4618 122.037 45.5547 121.734C46.3347 119.192 46.401 117.718 46.2988 117.205C43.5742 117.282 28.2772 118.562 19.7932 119.295L18.7798 121.591C21.2951 121.139 26.0149 120.303 30.7227 119.54C34.7549 118.887 37.992 118.413 40.3447 118.131C42.0948 117.922 43.2797 117.818 44.0954 117.818Z" fill="#0E0E0E"/>
<path d="M47.1669 127.915C46.9913 127.915 46.8136 127.87 46.6519 127.776L46.5983 127.745C45.2037 126.93 41.5 124.765 39.1108 125.207C38.5667 125.308 38.0395 124.958 37.9361 124.425C37.833 123.892 38.1917 123.378 38.7372 123.277C41.8766 122.697 45.9082 125.053 47.6301 126.059L47.6834 126.09C48.1599 126.368 48.3156 126.971 48.0306 127.437C47.8425 127.744 47.5089 127.915 47.1669 127.915Z" fill="#0E0E0E"/>
<path d="M4.44033 156.819C4.15984 156.819 3.8874 156.676 3.73961 156.42C1.90308 153.249 3.70462 143.804 6.11922 141.116C6.41217 140.79 6.92027 140.758 7.25424 141.044C7.58801 141.33 7.62119 141.826 7.32824 142.153C5.16799 144.557 3.75671 153.259 5.13964 155.647C5.3584 156.024 5.22226 156.504 4.83561 156.717C4.71055 156.786 4.57444 156.819 4.44033 156.819Z" fill="#0E0E0E"/>
<path d="M153.957 145.299C152.873 145.299 151.785 145.274 150.693 145.225C137.918 144.644 124.959 140.704 113.217 133.83C112.693 133.523 112.522 132.86 112.836 132.348C113.151 131.837 113.829 131.67 114.353 131.977C138.014 145.828 165.57 146.804 186.266 134.524C186.788 134.214 187.468 134.376 187.785 134.886C188.102 135.396 187.936 136.061 187.414 136.371C177.526 142.238 166.02 145.299 153.957 145.299Z" fill="#0E0E0E"/>
<path d="M82.0772 112.358C81.6457 112.359 81.236 112.11 81.058 111.698C73.8927 95.1002 71.7648 64.2801 72.9839 48.413C73.8237 37.4746 76.361 28.0708 80.5254 20.4626C84.4701 13.2563 89.7612 7.83299 96.2514 4.34365C102.299 1.09218 109.125 -0.345378 116.541 0.0698464C123.888 0.481535 131.462 2.69415 139.052 6.64644C159.877 17.4914 159.217 29.364 158.518 41.9336C158.092 49.5825 157.652 57.492 162.056 65.8186C166.714 74.6224 172.353 80.2552 178.365 82.1078C182.835 83.4855 186.003 82.2915 186.035 82.2793C186.601 82.0595 187.244 82.327 187.471 82.8784C187.699 83.4297 187.43 84.0559 186.867 84.2812C186.714 84.3423 183.059 85.7608 177.878 84.2225C171.127 82.217 165.142 76.3589 160.092 66.8107C155.411 57.962 155.868 49.7541 156.309 41.8168C156.998 29.4394 157.593 18.75 138.012 8.55344C123.269 0.877096 108.817 0.0541279 97.3178 6.23673C84.6201 13.0636 76.7615 28.0996 75.1893 48.5749C73.9872 64.2239 76.0662 94.5748 83.0958 110.859C83.3333 111.409 83.0693 112.042 82.5065 112.274C82.3662 112.331 82.2206 112.358 82.0772 112.358Z" fill="#0E0E0E"/>
<path d="M117.702 59.4787C108.467 59.4787 100.955 52.6898 100.955 44.3448C100.955 35.9999 108.467 29.2109 117.702 29.2109C126.936 29.2109 134.448 35.9999 134.448 44.3448C134.448 52.6898 126.936 59.4787 117.702 59.4787ZM117.702 31.1751C109.576 31.1751 102.965 37.0829 102.965 44.3448C102.965 51.6067 109.576 57.5145 117.702 57.5145C125.827 57.5145 132.438 51.6067 132.438 44.3448C132.438 37.0829 125.827 31.1751 117.702 31.1751Z" fill="#0E0E0E"/>
<path d="M119.712 43.6762C119.712 41.5254 117.774 39.7812 115.383 39.7812C112.991 39.7812 111.052 41.5254 111.052 43.6762C111.052 45.825 112.991 47.5691 115.383 47.5691C117.774 47.5691 119.712 45.825 119.712 43.6762Z" fill="#0E0E0E"/>
<path d="M115.383 48.5509C112.441 48.5509 110.047 46.3638 110.047 43.6758C110.047 40.9867 112.441 38.7988 115.383 38.7988C118.325 38.7988 120.717 40.9867 120.717 43.6758C120.718 46.3638 118.325 48.5509 115.383 48.5509ZM115.383 40.763C113.55 40.763 112.058 42.0695 112.058 43.6758C112.058 45.281 113.55 46.5867 115.383 46.5867C117.216 46.5867 118.707 45.281 118.707 43.6758C118.707 42.0695 117.216 40.763 115.383 40.763Z" fill="#0E0E0E"/>
<path d="M103.682 39.011C103.365 39.011 103.053 38.8651 102.858 38.5921C101.985 37.3739 99.5581 36.9151 97.4485 37.5686C96.9185 37.7338 96.3541 37.4462 96.1864 36.9294C96.0185 36.4123 96.3114 35.8603 96.8406 35.6965C99.8257 34.7718 103.12 35.5325 104.505 37.4658C104.823 37.9103 104.713 38.5228 104.258 38.8337C104.082 38.9535 103.881 39.011 103.682 39.011Z" fill="#0E0E0E"/>
<path d="M133.477 47.8281C133.066 47.8281 132.681 47.5802 132.532 47.1811C132.343 46.6712 132.612 46.1079 133.134 45.9228L158.682 36.8582C159.203 36.6728 159.78 36.936 159.97 37.4459C160.159 37.9558 159.89 38.5191 159.368 38.7041L133.82 47.7688C133.707 47.8092 133.591 47.8281 133.477 47.8281Z" fill="#0E0E0E"/>
<path d="M96.6189 62.5337C95.7574 62.5337 94.8482 62.3577 93.9108 61.9378C89.6727 60.0425 89.7087 56.2843 90.3198 54.5619C90.4999 54.054 91.0657 53.7824 91.5867 53.9517L102.537 57.5048C102.839 57.6031 103.076 57.8354 103.175 58.131C103.274 58.4268 103.224 58.7509 103.04 59.0049C102.008 60.4263 99.5985 62.5337 96.6189 62.5337ZM92.0407 56.1684C91.9699 57.276 92.2962 59.0551 94.7484 60.1519C97.197 61.2479 99.2871 59.9351 100.441 58.8943L92.0407 56.1684Z" fill="#0E0E0E"/>
<path d="M82.5415 50.6747C74.1044 50.6747 67.2402 44.3562 67.2402 36.5897C67.2402 28.8244 74.1044 22.5068 82.5415 22.5068C90.9787 22.5068 97.8426 28.8244 97.8426 36.5897C97.8424 44.3562 90.9785 50.6747 82.5415 50.6747ZM82.5415 24.4708C75.2131 24.4708 69.2509 29.9072 69.2509 36.5895C69.2509 43.273 75.2129 48.7104 82.5415 48.7104C89.8698 48.7104 95.832 43.273 95.832 36.5895C95.8318 29.9072 89.8698 24.4708 82.5415 24.4708Z" fill="#0E0E0E"/>
<path d="M87.3348 35.64C87.3348 33.4912 85.3966 31.7471 83.0039 31.7471C80.6132 31.7471 78.6749 33.4912 78.6749 35.64C78.6749 37.7908 80.6132 39.533 83.0039 39.533C85.3966 39.533 87.3348 37.7908 87.3348 35.64Z" fill="#0E0E0E"/>
<path d="M83.0038 40.5155C80.0624 40.5155 77.6696 38.3284 77.6696 35.6405C77.6696 32.9523 80.0624 30.7656 83.0038 30.7656C85.9462 30.7656 88.3401 32.9525 88.3401 35.6405C88.3401 38.3284 85.9462 40.5155 83.0038 40.5155ZM83.0038 32.7296C81.1711 32.7296 79.6802 34.0352 79.6802 35.6403C79.6802 37.2454 81.1711 38.5512 83.0038 38.5512C84.8375 38.5512 86.3295 37.2454 86.3295 35.6403C86.3295 34.0352 84.8375 32.7296 83.0038 32.7296Z" fill="#0E0E0E"/>
<path d="M93.7296 93.1402C84.6675 93.1402 78.26 92.1206 76.8777 91.7196C76.5051 91.6113 76.293 91.2287 76.4036 90.8645C76.5144 90.5008 76.9056 90.2932 77.2788 90.4014C78.6738 90.8066 85.5353 91.8777 95.2969 91.74C103.738 91.6227 116.508 90.5377 129.41 86.0349C153.527 77.6178 161.007 68.5191 161.08 68.4281C161.319 68.1292 161.762 68.0761 162.068 68.3097C162.374 68.5434 162.428 68.9755 162.189 69.2747C161.882 69.6587 154.383 78.7795 129.884 87.3295C116.735 91.9185 103.644 93.1402 93.7296 93.1402Z" fill="#0E0E0E"/>
<path d="M140.967 142.931C140.783 142.931 140.599 142.861 140.461 142.722C140.191 142.45 140.198 142.015 140.477 141.75C146.997 135.581 156.291 121.297 162.815 109.987C170.387 96.86 175.616 85.4875 175.25 82.9456C175.195 82.5697 175.463 82.2219 175.848 82.169C176.232 82.1156 176.589 82.378 176.643 82.7539C177.16 86.3321 170.177 100.024 164.041 110.662C157.468 122.056 148.084 136.466 141.457 142.738C141.32 142.867 141.143 142.931 140.967 142.931Z" fill="#0E0E0E"/>
<path d="M119.16 122.729C118.942 122.729 118.728 122.631 118.59 122.446C118.362 122.139 118.431 121.709 118.745 121.485C119.635 120.854 120.887 120.034 122.472 118.997C131.924 112.812 154.059 98.3274 167.415 77.3587C167.62 77.036 168.054 76.9374 168.384 77.1382C168.714 77.3387 168.815 77.7628 168.61 78.0849C155.093 99.3049 132.783 113.905 123.256 120.139C121.683 121.168 120.44 121.981 119.573 122.597C119.448 122.686 119.303 122.729 119.16 122.729Z" fill="#0E0E0E"/>
<path d="M171.939 142.304C171.86 142.304 171.779 142.29 171.7 142.262C171.334 142.133 171.145 141.739 171.277 141.382C179.655 118.801 183.036 91.7658 182.635 85.1988C182.612 84.8197 182.908 84.4943 183.296 84.4717C183.682 84.4517 184.017 84.738 184.04 85.1171C184.446 91.7686 181.044 119.094 172.601 141.85C172.497 142.13 172.227 142.304 171.939 142.304Z" fill="#0E0E0E"/>
</svg>
