<svg width="100" height="80" viewBox="0 0 100 80" fill="none" xmlns="http://www.w3.org/2000/svg">
<path d="M17.7159 17.5689C17.5952 27.2283 17.8012 36.8957 17.9986 46.5519C18.1719 55.0543 18.4177 63.5567 18.5484 72.0607C18.564 73.1014 18.581 74.1437 18.5739 75.1844C18.5725 75.4617 18.564 75.739 18.5569 76.0163C18.5512 76.2314 18.5058 76.1278 18.5597 76.0609C18.8296 75.7182 18.7004 75.8617 18.4489 75.9987C15.5268 77.602 11.7552 77.5319 8.5888 77.1892C7.10999 77.0299 5.44935 76.7876 4.13249 75.9605C3.77734 75.7374 3.39237 75.425 3.2844 75.0202C3.06848 74.2011 3.13524 72.9404 3.07842 72.0113C2.74601 66.5784 2.49883 61.1407 2.28006 55.7014C1.80986 44.0594 1.46467 32.4094 1.29136 20.7563C1.27431 19.5881 1.25868 18.4199 1.2459 17.2517C1.23595 16.3529 -0.00988474 16.3497 5.92117e-05 17.2517C0.123648 29.0164 0.464584 40.7811 0.910642 52.5363C1.12941 58.3246 1.37943 64.1113 1.70758 69.8933C1.77861 71.1364 1.85247 72.3795 1.93345 73.6209C1.98459 74.4035 1.93345 75.2832 2.3099 75.9764C2.99461 77.2339 4.52456 77.7518 5.71925 78.0753C9.23515 79.0284 13.2625 79.0347 16.7883 78.1359C17.6136 77.9255 19.4632 77.5096 19.7587 76.4322C19.905 75.8999 19.8198 75.1987 19.8198 74.6553C19.807 66.937 19.5172 59.2123 19.3482 51.4972C19.1237 41.2162 18.895 30.9305 18.9348 20.6447C18.939 19.6184 18.9461 18.5921 18.9589 17.5673C18.9703 16.6669 17.7244 16.6669 17.7131 17.5673L17.7159 17.5689Z" fill="#0E0E0E"/>
<path d="M0.971837 17.4175C1.77304 17.4175 1.77446 16.0198 0.971837 16.0198C0.169218 16.0198 0.169218 17.4175 0.971837 17.4175Z" fill="#0E0E0E"/>
<path d="M1.20344 17.1865C8.24234 11.7233 15.5838 6.76525 23.181 2.34114C23.8927 1.92678 23.2634 0.72034 22.5517 1.1347C14.9545 5.55881 7.61445 10.5184 0.574129 15.98C-0.0807515 16.4884 0.541455 17.7012 1.20344 17.1865Z" fill="#0E0E0E"/>
<path d="M18.6536 17.4877C24.2237 13.0477 30.0437 8.96939 35.2742 4.01457C35.8879 3.43287 35.0029 2.44796 34.3935 3.02647C29.2468 7.90479 23.5091 11.9114 18.0257 16.2813C17.378 16.7976 17.9987 18.0105 18.655 17.4877H18.6536Z" fill="#0E0E0E"/>
<path d="M30.8038 76.0609C30.7044 76.614 29.916 76.8642 29.4727 77.0092C28.5025 77.3279 27.4825 77.4443 26.4753 77.4793C25.4398 77.516 24.3885 77.4698 23.3686 77.261C22.6711 77.1176 21.8017 76.9407 21.2704 76.3669C21.3315 76.5311 21.3926 76.6968 21.4522 76.861C21.09 63.3974 21.3244 49.9211 21.5843 36.4575C21.6568 32.7442 21.7335 29.0309 21.8045 25.3175C21.8216 24.4171 20.5757 24.4171 20.5587 25.3175C20.3499 36.0479 20.1041 46.7767 20.043 57.5087C20.0132 62.7695 20.0246 68.0303 20.124 73.2895C20.1354 73.8887 20.1482 74.4864 20.1609 75.0856C20.1737 75.6721 20.097 76.3813 20.2163 76.9518C20.3328 77.5064 20.8954 77.8236 21.3272 78.0419C22.4509 78.6093 23.7337 78.7798 24.9539 78.8547C26.4739 78.9487 28.0593 78.8611 29.5395 78.4372C30.4757 78.1694 31.7854 77.6499 32.0056 76.4307C32.1633 75.5526 30.9629 75.1764 30.8038 76.0593V76.0609Z" fill="#0E0E0E"/>
<path d="M21.4082 25.5135C22.9495 26.1765 24.6215 26.5319 26.258 26.7247C27.8618 26.9143 29.8335 27.002 31.2385 25.9518C31.9019 25.4545 31.2797 24.2433 30.6092 24.7453C29.3619 25.6776 27.545 25.4896 26.1344 25.3127C24.6513 25.1262 23.1356 24.766 21.7392 24.1652C20.9905 23.8433 20.6652 25.1932 21.4082 25.5135Z" fill="#0E0E0E"/>
<path d="M32.9927 19.5293C34.8905 21.0353 37.6749 21.1724 39.9108 21.0879C41.0757 21.0433 42.2661 20.911 43.3926 20.57C44.1498 20.3405 44.9865 20.0106 45.4482 19.2552C45.9028 18.5109 44.8231 17.8113 44.3728 18.5491C44.4296 18.4567 44.2222 18.6958 44.235 18.6862C44.1029 18.7914 43.9509 18.8774 43.8032 18.9492C43.4679 19.1117 43.1057 19.2169 42.7505 19.3093C41.7306 19.5755 40.6808 19.6759 39.6352 19.6982C37.6805 19.7412 35.2784 19.6376 33.622 18.3212C32.9657 17.8001 32.3435 19.0129 32.9927 19.5277V19.5293Z" fill="#0E0E0E"/>
<path d="M32.4132 18.589C32.0467 28.9129 31.4586 39.2242 31.1276 49.5482C30.9585 54.8042 30.852 60.065 30.8776 65.3242C30.8903 67.9331 30.9358 70.5404 31.0267 73.1461C31.0622 74.182 31.0509 75.2482 31.1603 76.2777C31.2071 76.7223 31.3549 77.1096 31.6262 77.4427C32.872 78.9727 35.3921 79.1049 37.0925 79.2053C39.3953 79.3424 41.8344 79.2165 44.0718 78.536C44.7863 78.3176 45.6102 78.0276 46.1429 77.4156C46.3418 77.1861 46.4768 76.92 46.5379 76.6092C46.6345 76.1168 46.5734 75.5558 46.5776 75.0553C46.5847 74.2872 46.5918 73.5174 46.5961 72.7493C46.6302 67.2908 46.5933 61.8324 46.5379 56.3756C46.4143 44.1503 46.1841 31.9235 46.4157 19.6982C46.4327 18.7977 45.1869 18.7977 45.1699 19.6982C44.9724 30.1258 45.1116 40.5549 45.2324 50.9825C45.292 56.1349 45.3489 61.2874 45.3602 66.4398C45.3659 69.0375 45.3602 71.6353 45.3389 74.233C45.3332 74.8354 45.3133 75.4394 45.3204 76.0402C45.3204 76.1502 45.3176 76.2586 45.3162 76.3686C45.3318 76.2761 45.3332 76.2682 45.3162 76.3478C45.2721 76.512 45.3829 76.2427 45.292 76.3925C45.2523 76.4578 44.9582 76.6857 44.7394 76.802C43.0106 77.728 40.786 77.8077 38.9094 77.8427C37.0485 77.8778 34.6193 77.9352 32.9502 76.8419C32.7357 76.7016 32.5425 76.5423 32.4444 76.3431C32.3791 76.2108 32.4018 76.1725 32.3862 75.9C32.3507 75.2896 32.3308 74.6776 32.3066 74.0672C32.21 71.5763 32.1546 69.0822 32.1319 66.588C32.0865 61.6635 32.1646 56.7389 32.3038 51.8176C32.6178 40.7334 33.2641 29.6668 33.6576 18.5874C33.6889 17.6885 32.443 17.6901 32.4118 18.5874L32.4132 18.589Z" fill="#0E0E0E"/>
<path d="M80.6528 14.4612C86.585 14.8931 92.658 14.9314 98.532 13.7887C99.3204 13.6357 98.9866 12.2874 98.201 12.4404C92.4434 13.5592 86.4657 13.4859 80.6528 13.062C79.8516 13.003 79.8558 14.4023 80.6528 14.4596V14.4612Z" fill="#0E0E0E"/>
<path d="M79.6071 14.16C79.7264 18.8438 79.7434 23.5309 79.7761 28.2164C79.8244 34.9561 79.8557 41.6943 79.8912 48.4341C79.9238 54.6622 79.9551 60.8888 80.0176 67.117C80.0503 70.3411 79.9111 73.6639 80.2207 76.8752C80.2932 77.6275 80.7776 77.9781 81.3458 78.3654C82.613 79.2307 84.1202 79.5957 85.5748 79.8013C88.8322 80.2603 92.3879 79.9304 95.506 78.7494C96.1197 78.5167 96.722 78.2394 97.2917 77.8952C97.9977 77.4681 97.3698 76.2601 96.6624 76.6888C94.0002 78.3 90.5781 78.6554 87.6077 78.5725C86.055 78.5295 84.4668 78.3303 83.0036 77.7151C82.7153 77.594 82.4354 77.4506 82.1669 77.2832C81.9339 77.1382 81.6129 76.7334 81.3771 76.6649C81.441 76.684 81.4723 76.9486 81.4709 76.8896C81.4083 73.8026 81.3032 70.7172 81.272 67.6286C81.2109 61.657 81.1796 55.6838 81.147 49.7106C81.1114 43.1366 81.0802 36.5626 81.0362 29.9902C81.0035 25.1007 80.9793 20.208 80.8799 15.3186C80.8728 14.9329 80.8628 14.5472 80.8543 14.1616C80.8316 13.2643 79.5857 13.2595 79.6085 14.1616L79.6071 14.16Z" fill="#0E0E0E"/>
<path d="M98.4553 13.0826C98.7252 23.0783 98.8019 33.0819 98.7238 43.0808C98.6556 51.8366 98.5519 60.6338 97.8828 69.3625C97.6995 71.7467 97.6385 74.4687 96.8259 76.719C96.5247 77.5525 97.7294 77.9159 98.0277 77.0904C98.728 75.1477 98.8289 72.8384 99.0121 70.7793C99.3431 67.0596 99.5079 63.3208 99.64 59.5868C99.9923 49.6373 100.042 39.6719 99.9739 29.716C99.9355 24.17 99.8517 18.6239 99.7011 13.0794C99.677 12.1821 98.4311 12.1774 98.4553 13.0794V13.0826Z" fill="#0E0E0E"/>
<path d="M84.4343 2.54331C86.3748 4.18482 88.4303 5.64304 90.4731 7.11562C93.1892 9.07587 95.8769 11.0823 98.4936 13.2083C99.1442 13.7374 99.7664 12.5246 99.1229 12.0019C96.5062 9.87592 93.8185 7.86945 91.1024 5.9092C89.0596 4.43503 87.0041 2.97837 85.0636 1.33686C84.4229 0.795005 83.8021 2.00782 84.4343 2.54331Z" fill="#0E0E0E"/>
<path d="M73.5926 1.49001C76.0232 5.54279 78.1398 9.78362 79.7138 14.3448C80.0007 15.1751 81.2054 14.8149 80.9156 13.9735C79.3018 9.29436 77.1639 4.94196 74.6694 0.783996C74.2233 0.0413316 73.1437 0.740974 73.594 1.49001H73.5926Z" fill="#0E0E0E"/>
<path d="M65.0563 14.9218C67.6858 15.5163 70.463 15.4685 73.1237 15.231C75.3568 15.0318 78.1269 14.831 80.0575 13.403C80.7237 12.9106 80.1001 11.6994 79.4282 12.1966C78.6611 12.764 77.732 13.0253 76.8456 13.2453C75.5571 13.5656 74.2445 13.7409 72.9291 13.8509C70.4474 14.058 67.8392 14.1298 65.3873 13.5752C64.6046 13.3983 64.2693 14.7449 65.0563 14.9234V14.9218Z" fill="#0E0E0E"/>
<path d="M64.4271 14.8261C64.0095 27.8036 64.7155 40.8161 65.0039 53.7889C65.1459 60.2274 65.1601 66.65 64.9243 73.087C64.8689 74.5962 64.366 76.6186 65.5195 77.747C66.6858 78.8881 68.4786 79.143 69.956 79.3072C72.1791 79.5542 74.4535 79.4331 76.6568 79.0363C78.0148 78.7908 79.9809 78.4753 80.8517 77.1143C81.3191 76.3812 80.2394 75.6831 79.7763 76.4083C79.6385 76.6234 79.0206 76.9358 78.6399 77.0808C77.9125 77.3581 77.1554 77.535 76.3996 77.6752C74.5373 78.0179 72.6181 78.1087 70.7358 77.9796C69.3749 77.8856 67.5467 77.7661 66.4216 76.7764C66.2653 76.6393 66.1503 76.4879 66.0537 76.2951C65.9997 76.1867 66.0736 76.5421 66.0594 76.2999C66.0508 76.1437 66.0665 75.9795 66.0707 75.825C66.1062 74.6456 66.1588 73.4679 66.2 72.2901C66.6375 59.8051 66.0522 47.3185 65.7568 34.8366C65.5991 28.1717 65.4599 21.4925 65.6744 14.8277C65.7028 13.9272 64.457 13.9288 64.4285 14.8277L64.4271 14.8261Z" fill="#0E0E0E"/>
<path d="M65.535 0.922717C65.0989 5.09821 64.7168 9.28487 64.427 13.4763C64.3645 14.3736 65.6117 14.3688 65.6728 13.4763C65.9626 9.28487 66.3447 5.09821 66.7808 0.922717C66.8746 0.0302448 65.6273 0.0382133 65.535 0.922717Z" fill="#0E0E0E"/>
<path d="M54.064 21.7985C55.4945 22.9858 57.6097 23.1595 59.3215 23.1866C61.2038 23.2168 63.2607 23.0113 64.9697 22.055C65.6871 21.6534 65.0563 20.447 64.3404 20.8486C62.8374 21.6885 60.9708 21.8144 59.3215 21.7889C57.81 21.765 55.9548 21.6391 54.6919 20.592C54.0469 20.0566 53.4247 21.2694 54.0626 21.7985H54.064Z" fill="#0E0E0E"/>
<path d="M53.1932 21.3396C53.473 35.6033 53.6364 49.8717 54.2117 64.1257C54.3794 68.2789 54.5825 72.4321 54.824 76.5805C54.8766 77.4729 56.1224 77.4809 56.0698 76.5805C55.2331 62.2244 54.9163 47.8429 54.6606 33.4613C54.5882 29.4197 54.5186 25.3797 54.439 21.3381C54.422 20.4392 53.1747 20.436 53.1932 21.3381V21.3396Z" fill="#0E0E0E"/>
<path d="M46.4043 31.9377C47.6004 32.2054 48.8391 32.2851 50.0565 32.2963C51.2612 32.309 52.5184 32.2724 53.6918 31.9377C54.4688 31.7162 54.1392 30.3679 53.3608 30.5894C52.2925 30.8938 51.1532 30.9098 50.0565 30.8986C48.9485 30.8874 47.8192 30.8317 46.7367 30.5894C45.954 30.4141 45.6187 31.7608 46.4057 31.9377H46.4043Z" fill="#0E0E0E"/>
<path d="M54.2714 21.3285C55.3908 18.871 57.3327 17.0095 58.4507 14.552C58.8144 13.752 57.7404 13.0444 57.3754 13.846C56.2559 16.3035 54.314 18.165 53.1961 20.6224C52.8324 21.4225 53.9063 22.1301 54.2714 21.3285Z" fill="#0E0E0E"/>
<path d="M50.9004 22.809C49.0423 25.1437 47.312 27.6092 45.6926 30.1575C45.4966 30.4651 45.6443 30.9353 45.9156 31.1138C46.2281 31.3193 46.5719 31.1711 46.768 30.8635C48.3263 28.4108 49.9926 26.0442 51.7797 23.7987C52.3124 23.1293 51.4345 22.138 50.899 22.8106L50.9004 22.809Z" fill="#0E0E0E"/>
<path d="M33.5539 18.4676C37.0271 14.7718 40.9863 11.6147 44.9226 8.57869C45.5789 8.0719 44.9567 6.86067 44.2933 7.37225C40.2717 10.4752 36.2203 13.7056 32.6731 17.4795C32.0907 18.0995 32.9729 19.0875 33.5539 18.4676Z" fill="#0E0E0E"/>
<path d="M22.5458 2.5196C26.8942 2.37776 31.2795 2.60088 35.6122 3.00409C35.4048 2.77141 35.1974 2.53873 34.9886 2.30445C34.9843 6.03052 34.5198 9.73109 34.5155 13.4572C34.5155 14.356 35.7599 14.3576 35.7614 13.4572C35.7656 9.73109 36.2301 6.03052 36.2344 2.30445C36.2344 1.90284 35.9475 1.63669 35.6108 1.60482C31.2766 1.20161 26.8914 0.978487 22.5444 1.12033C21.7446 1.14583 21.7404 2.5451 22.5444 2.518L22.5458 2.5196Z" fill="#0E0E0E"/>
<path d="M75.7647 2.86861L84.619 2.43672C85.4174 2.39847 85.4217 0.9992 84.619 1.03904C81.6671 1.18248 78.7166 1.32752 75.7647 1.47095C74.9663 1.5092 74.9621 2.90845 75.7647 2.86861Z" fill="#0E0E0E"/>
<path d="M58.2974 14.7942H65.2539C66.0551 14.7942 66.0565 13.3965 65.2539 13.3965H58.2974C57.4962 13.3965 57.4947 14.7942 58.2974 14.7942Z" fill="#0E0E0E"/>
<path d="M51.0496 24.6559C51.9588 24.5332 52.8708 24.6352 53.7799 24.5125C53.9504 24.4886 54.0939 24.4503 54.2203 24.3085C54.3283 24.1874 54.4092 23.9882 54.4021 23.8145C54.3879 23.4734 54.1251 23.0686 53.7785 23.1148C52.8693 23.2375 51.9573 23.1356 51.0482 23.2583C50.8777 23.2822 50.7342 23.3204 50.6078 23.4623C50.4998 23.5834 50.4189 23.7826 50.426 23.9563C50.4402 24.2974 50.703 24.7022 51.0496 24.6559Z" fill="#0E0E0E"/>
<path d="M0.781463 18.2446C3.45639 18.8661 6.23501 18.957 8.95823 18.8837C12.048 18.8024 15.1476 18.4645 18.1763 17.7585C18.9604 17.5752 18.6294 16.2286 17.8453 16.4102C14.9246 17.0908 11.9386 17.4063 8.95823 17.4844C6.34866 17.5529 3.678 17.4908 1.11388 16.8947C0.331148 16.713 -0.00268736 18.0597 0.782885 18.243L0.781463 18.2446Z" fill="#0E0E0E"/>
<path d="M21.6466 25.2602C26.8033 21.5739 31.4187 17.0143 36.5753 13.3281C37.2501 12.8452 36.6251 11.6356 35.946 12.1217C30.7894 15.8079 26.174 20.3675 21.0173 24.0537C20.3425 24.5366 20.9676 25.7462 21.6466 25.2602Z" fill="#0E0E0E"/>
<path d="M45.2181 8.67284C47.383 8.68399 49.511 9.28801 51.6759 9.29917C52.4786 9.30395 52.4786 7.90468 51.6759 7.90149C49.511 7.89034 47.383 7.28631 45.2181 7.27516C44.4154 7.27038 44.4154 8.66965 45.2181 8.67284Z" fill="#0E0E0E"/>
<path d="M50.9785 8.66008C50.9785 13.548 50.6816 18.4263 50.8478 23.3141C50.879 24.2114 52.1249 24.2146 52.0936 23.3141C51.9274 18.4263 52.2243 13.548 52.2243 8.66008C52.2243 7.76124 50.9785 7.75964 50.9785 8.66008Z" fill="#0E0E0E"/>
<path d="M46.0563 19.2884C48.2085 16.1026 50.4387 12.8945 52.2144 9.42025C52.6136 8.63774 51.5383 7.93332 51.1391 8.71423C49.3634 12.1885 47.1331 15.3966 44.9809 18.5824C44.7764 18.8852 44.9397 19.3618 45.204 19.5387C45.5222 19.7522 45.8546 19.5865 46.0563 19.2884Z" fill="#0E0E0E"/>
<path d="M66.6119 1.62232C69.078 1.39761 71.5455 1.34023 74.0173 1.45338C74.8185 1.49004 74.8171 0.0923783 74.0173 0.0557232C71.5455 -0.0558358 69.0766 -6.63804e-05 66.6119 0.224645C65.8178 0.296362 65.8107 1.69563 66.6119 1.62232Z" fill="#0E0E0E"/>
<path d="M36.861 13.1717C36.8965 13.1653 36.932 13.1605 36.9675 13.1541C36.9121 13.1621 36.8567 13.1701 36.8013 13.1796C37.1479 13.1318 37.496 13.1318 37.8412 13.1828C37.7858 13.1749 37.7304 13.1669 37.675 13.1573C37.9491 13.2004 38.2162 13.2721 38.4776 13.3741C38.7858 13.4952 39.1722 13.237 39.2447 12.8864C39.3242 12.4959 39.1396 12.1565 38.81 12.0258C38.0741 11.7373 37.2957 11.6927 36.53 11.8234C36.3865 11.8489 36.2274 12.0099 36.1578 12.1453C36.0797 12.2951 36.047 12.5167 36.0953 12.684C36.1436 12.8529 36.2373 13.0171 36.3822 13.1015C36.5399 13.1956 36.6877 13.2019 36.8624 13.1717H36.861Z" fill="#0E0E0E"/>
<path d="M31.6389 25.684C32.0793 25.3047 32.5196 24.927 32.96 24.5477C33.0325 24.503 33.0907 24.4441 33.1347 24.3676C33.1901 24.3006 33.2271 24.221 33.2456 24.1301C33.2868 23.9628 33.2683 23.7397 33.1831 23.5915C33.0978 23.4416 32.97 23.311 32.8109 23.2695C32.6589 23.2313 32.46 23.2281 32.3307 23.3397C31.8903 23.719 31.45 24.0967 31.0096 24.476C30.9371 24.5206 30.8789 24.5796 30.8349 24.6561C30.7795 24.723 30.7425 24.8027 30.7241 24.8935C30.6829 25.0609 30.7013 25.284 30.7866 25.4322C30.8718 25.582 30.9996 25.7127 31.1587 25.7541C31.3107 25.7924 31.5096 25.7955 31.6389 25.684Z" fill="#0E0E0E"/>
<path d="M46.0506 76.9901C48.7766 78.3989 51.8806 78.6715 54.7572 77.6834C55.5215 77.4204 55.1962 76.0706 54.4262 76.3351C51.8848 77.2085 49.1005 77.0331 46.6799 75.7821C46.3716 75.6227 46.0122 75.6865 45.8276 76.0323C45.667 76.3319 45.7466 76.8307 46.0506 76.9885V76.9901Z" fill="#0E0E0E"/>
<path d="M54.8993 76.9533C55.219 77.739 55.9974 78.1773 56.6779 78.4721C57.6282 78.8833 58.6638 79.057 59.6753 79.1367C61.5504 79.2833 63.9242 79.1463 65.4072 77.6753C66.0096 77.0776 65.1246 76.0927 64.5265 76.6872C63.9909 77.2179 63.2096 77.4474 62.5136 77.5956C61.62 77.7852 60.6938 77.8092 59.7875 77.747C58.9323 77.688 58.0757 77.5366 57.2632 77.2275C56.952 77.1095 56.6495 76.9613 56.3753 76.7541C56.1793 76.6059 56.0727 76.4864 55.9775 76.2489C55.6451 75.4313 54.5712 76.1405 54.9022 76.9549L54.8993 76.9533Z" fill="#0E0E0E"/>
<path d="M3.91943 18.0294C5.78747 16.5696 7.65552 15.1097 9.52356 13.6499C9.85029 13.3949 9.53918 12.7877 9.20961 13.0459C7.34157 14.5057 5.47353 15.9656 3.60548 17.4254C3.27875 17.6804 3.58986 18.2876 3.91943 18.0294Z" fill="#0E0E0E"/>
<path d="M21.0358 5.88708C22.6154 4.69499 24.1937 3.50289 25.7733 2.30921C26.1043 2.059 25.7932 1.4534 25.4594 1.70521C23.8797 2.8973 22.3015 4.08938 20.7218 5.28146C20.3908 5.53167 20.7019 6.13729 21.0358 5.88548V5.88708Z" fill="#0E0E0E"/>
<path d="M25.6385 4.10214C26.0221 3.77861 26.4071 3.45669 26.7906 3.13317C26.8574 3.0758 26.9099 3.01844 26.9341 2.92441C26.954 2.84154 26.9454 2.72997 26.9028 2.65506C26.8204 2.51163 26.6159 2.41281 26.4767 2.52915C26.0931 2.85268 25.7081 3.17462 25.3246 3.49814C25.2578 3.55551 25.2053 3.61287 25.1811 3.7069C25.1612 3.78977 25.1697 3.90134 25.2124 3.97625C25.2948 4.11968 25.4993 4.21848 25.6385 4.10214Z" fill="#0E0E0E"/>
<path d="M10.2949 17.9387C13.9671 14.6971 17.6861 11.4842 21.6168 8.64261C21.9521 8.40037 21.641 7.79476 21.3029 8.03859C17.3281 10.912 13.5679 14.1648 9.85455 17.443C9.53919 17.7203 9.98383 18.2128 10.2949 17.9371V17.9387Z" fill="#0E0E0E"/>
<path d="M14.2826 16.8914C16.0952 15.3678 17.9093 13.8443 19.7219 12.3207C20.0387 12.0546 19.729 11.4474 19.408 11.7167C17.5954 13.2403 15.7813 14.7638 13.9687 16.2874C13.6519 16.5536 13.9616 17.1608 14.2826 16.8914Z" fill="#0E0E0E"/>
<path d="M7.84156 18.0915C9.61442 16.5249 11.3859 14.9583 13.1587 13.3917C13.4741 13.1128 13.0295 12.6219 12.7184 12.8976C10.9455 14.4642 9.17405 16.0309 7.40118 17.5975C7.08582 17.8764 7.53045 18.3672 7.84156 18.0915Z" fill="#0E0E0E"/>
<path d="M25.407 25.5231C26.9014 23.9963 28.4697 22.5636 30.109 21.236C30.4315 20.9747 30.1204 20.3691 29.7951 20.632C28.1131 21.9946 26.5008 23.4608 24.9666 25.029C24.6697 25.3318 25.1115 25.8259 25.407 25.5231Z" fill="#0E0E0E"/>
<path d="M28.5521 25.4945C29.1842 24.8586 29.8178 24.2243 30.4499 23.5884C30.5721 23.4657 30.5693 23.217 30.4499 23.0943C30.3192 22.9605 30.1388 22.9636 30.0096 23.0943C29.3774 23.7302 28.7438 24.3645 28.1117 25.0004C27.9895 25.1231 27.9924 25.3717 28.1117 25.4945C28.2424 25.6283 28.4228 25.6251 28.5521 25.4945Z" fill="#0E0E0E"/>
<path d="M46.2537 8.25553C44.4098 10.0325 42.5659 11.8095 40.722 13.5849C40.418 13.8781 40.8598 14.3706 41.1624 14.0789C43.0063 12.3019 44.8502 10.525 46.6941 8.74958C46.9981 8.45633 46.5563 7.96388 46.2537 8.25553Z" fill="#0E0E0E"/>
<path d="M44.971 12.7033C46.3404 11.159 47.788 9.70716 49.308 8.35252C49.4401 8.23459 49.4159 7.98279 49.308 7.85848C49.1787 7.71026 48.9983 7.74214 48.8676 7.85848C47.3476 9.21312 45.9 10.6666 44.5306 12.2093C44.2479 12.528 44.6883 13.0237 44.971 12.7033Z" fill="#0E0E0E"/>
<path d="M60.9138 13.9656C59.9024 15.8653 59.0259 17.8478 58.2815 19.8973C58.131 20.3133 58.7333 20.495 58.8824 20.0838C59.6055 18.0917 60.4678 16.1665 61.4508 14.3194C61.6568 13.9321 61.1184 13.5799 60.9124 13.9672L60.9138 13.9656Z" fill="#0E0E0E"/>
<path d="M62.1457 14.1806C61.6527 15.4364 61.1584 16.6907 60.6655 17.9465C60.5973 18.1186 60.62 18.3226 60.7777 18.4246C60.9098 18.5123 61.1357 18.4724 61.2039 18.2987C61.6968 17.0429 62.1911 15.7887 62.6841 14.5328C62.7523 14.3607 62.7295 14.1567 62.5719 14.0547C62.4397 13.9671 62.2139 14.0069 62.1457 14.1806Z" fill="#0E0E0E"/>
<path d="M50.1632 28.0809L48.2724 31.3799C48.055 31.7592 48.5934 32.1098 48.8108 31.7321C49.4415 30.6324 50.0708 29.5328 50.7016 28.4331C50.9189 28.0538 50.3805 27.7032 50.1632 28.0809Z" fill="#0E0E0E"/>
<path d="M51.0041 28.5526C50.6546 29.1805 50.3038 29.81 49.9543 30.4379C49.8676 30.5925 49.9202 30.8299 50.0665 30.916C50.2199 31.0068 50.4003 30.9559 50.4927 30.7901C50.8421 30.1622 51.193 29.5327 51.5425 28.9048C51.6291 28.7502 51.5766 28.5127 51.4303 28.4266C51.2768 28.3358 51.0964 28.3868 51.0041 28.5526Z" fill="#0E0E0E"/>
<path d="M67.9472 6.34285C68.1404 8.93739 68.3321 11.5303 68.5253 14.1249C68.558 14.5695 69.1816 14.5743 69.149 14.1249C68.9558 11.5303 68.764 8.93739 68.5708 6.34285C68.5381 5.8982 67.9145 5.89342 67.9472 6.34285Z" fill="#0E0E0E"/>
<path d="M69.8636 8.93253C69.9275 10.7892 70.1377 12.6363 70.4886 14.4515C70.5739 14.8914 71.1748 14.7049 71.0895 14.265C70.75 12.5088 70.5497 10.727 70.4872 8.93253C70.4716 8.4847 69.8479 8.48151 69.8636 8.93253Z" fill="#0E0E0E"/>
<path d="M72.9135 2.95145C74.1607 6.25678 75.408 9.56371 76.6552 12.869C76.8115 13.2818 77.3485 12.9264 77.1936 12.5168C75.9464 9.21151 74.6991 5.90458 73.4519 2.59925C73.2956 2.18648 72.7586 2.54187 72.9135 2.95145Z" fill="#0E0E0E"/>
<path d="M74.0712 10.2076C74.3496 11.0729 74.6266 11.9383 74.9051 12.8021C74.9619 12.979 75.1167 13.0985 75.2886 13.0459C75.4421 12.9981 75.5642 12.7941 75.506 12.6156C75.2275 11.7503 74.9505 10.8849 74.6721 10.0211C74.6153 9.84419 74.4604 9.72468 74.2885 9.77727C74.1351 9.82508 74.013 10.0291 74.0712 10.2076Z" fill="#0E0E0E"/>
<path d="M85.3107 6.80027C87.4827 8.8418 89.6534 10.8833 91.8254 12.9249C92.1308 13.2117 92.574 12.7193 92.2658 12.4308C90.0937 10.3893 87.9231 8.34775 85.7511 6.30622C85.4456 6.01936 85.0024 6.51181 85.3107 6.80027Z" fill="#0E0E0E"/>
<path d="M86.5411 10.3734C87.3806 11.3185 88.2188 12.2619 89.0583 13.207C89.3424 13.5257 89.7828 13.0317 89.4987 12.7129C88.6591 11.7679 87.821 10.8244 86.9815 9.87934C86.6988 9.5606 86.257 10.0547 86.5411 10.3734Z" fill="#0E0E0E"/>
<path d="M77.3201 3.04376C78.1596 4.2231 78.9992 5.40083 79.8401 6.58017C79.9453 6.72839 80.1711 6.70289 80.2805 6.58017C80.4098 6.43515 80.3857 6.23434 80.2805 6.08613C79.441 4.90679 78.6014 3.72904 77.7604 2.5497C77.6553 2.40148 77.4294 2.42698 77.3201 2.5497C77.1908 2.69473 77.2149 2.89555 77.3201 3.04376Z" fill="#0E0E0E"/>
<path d="M79.5745 3.92353C79.7847 4.31558 79.995 4.70923 80.2052 5.10128C80.289 5.25746 80.4893 5.32919 80.6314 5.22719C80.772 5.12519 80.8331 4.91642 80.7436 4.74908C80.5333 4.35703 80.3231 3.96338 80.1129 3.57133C80.029 3.41515 79.8287 3.34343 79.6867 3.44542C79.546 3.54742 79.485 3.7562 79.5745 3.92353Z" fill="#0E0E0E"/>
<path d="M83.1457 11.2291L84.616 13.5862C84.7126 13.7408 84.8887 13.8125 85.0421 13.7121C85.1785 13.6229 85.251 13.3886 85.1544 13.234C84.6643 12.4483 84.1742 11.6626 83.6841 10.8769C83.5875 10.7223 83.4113 10.6506 83.2579 10.751C83.1215 10.8403 83.0491 11.0746 83.1457 11.2291Z" fill="#0E0E0E"/>
<path d="M80.5148 33.6446C86.6857 34.2662 92.9306 33.9458 99.0219 32.6645C99.8089 32.4987 99.4751 31.1521 98.691 31.3162C92.7104 32.5736 86.5735 32.8557 80.5162 32.2454C79.7179 32.1657 79.7221 33.5633 80.5162 33.643L80.5148 33.6446Z" fill="#0E0E0E"/>
<path d="M81.3019 55.3856C84.5735 56.3642 88.0425 56.4614 91.3965 56.0885C94.0842 55.7905 96.8955 55.2725 99.3531 53.9545C100.076 53.5656 99.444 52.3608 98.7238 52.7481C96.4125 53.9896 93.6864 54.4549 91.1607 54.7163C87.9885 55.0446 84.7241 54.9633 81.6329 54.039C80.8573 53.8063 80.5263 55.1546 81.3019 55.3872V55.3856Z" fill="#0E0E0E"/>
<path d="M65.0564 26.2944C69.8551 27.7877 75.2106 27.0977 80.0079 25.947C80.792 25.759 80.4596 24.4107 79.6769 24.5987C75.1012 25.6952 69.9659 26.3709 65.3874 24.9462C64.6132 24.7055 64.2836 26.0538 65.0564 26.2944Z" fill="#0E0E0E"/>
<path d="M65.5067 66.7298C67.845 68.4893 71.0569 68.663 73.7758 68.451C76.1567 68.2661 79.1171 67.8326 80.9923 66.0015C81.5974 65.4102 80.7138 64.4237 80.1115 65.0134C79.3927 65.7162 78.4012 66.0748 77.4991 66.3585C76.2249 66.7585 74.908 66.9784 73.5869 67.0677C71.1293 67.235 68.2498 67.1139 66.136 65.5234C65.4683 65.0214 64.8433 66.231 65.5067 66.7298Z" fill="#0E0E0E"/>
<path d="M46.0506 39.8966C48.6019 40.8193 51.3664 40.8687 53.9433 40.0464C54.7132 39.801 54.3865 38.4511 53.6123 38.6981C51.2371 39.4551 48.7326 39.3993 46.3816 38.5483C45.6173 38.271 45.2892 39.6209 46.0506 39.8966Z" fill="#0E0E0E"/>
<path d="M46.0662 69.8916C47.5933 70.545 49.2227 70.8924 50.8578 70.9131C51.6774 70.9227 52.4971 70.843 53.3054 70.6932C53.9944 70.5641 54.6734 70.3442 55.1678 69.7577C55.7189 69.1043 54.8396 68.1146 54.287 68.7696C53.885 69.2461 53.223 69.3146 52.6732 69.3975C51.9729 69.5043 51.2598 69.5346 50.5538 69.5091C49.1275 69.4549 47.7311 69.1154 46.3986 68.5449C45.6485 68.2246 45.3247 69.5744 46.0676 69.8931L46.0662 69.8916Z" fill="#0E0E0E"/>
<path d="M46.6202 66.2229C48.9854 67.3385 51.7456 67.3464 54.1179 66.2484C54.429 66.105 54.6506 65.7846 54.5526 65.3878C54.4716 65.0579 54.0994 64.7551 53.7855 64.9001C51.5836 65.9185 49.1459 65.9089 46.9497 64.8746C46.64 64.728 46.265 65.0324 46.1826 65.3623C46.0832 65.7655 46.3062 66.0747 46.6173 66.2229H46.6202Z" fill="#0E0E0E"/>
<path d="M46.2367 43.916C48.7553 44.6539 51.3962 44.6794 53.9262 44.002C54.7061 43.7933 54.3751 42.445 53.5952 42.6538C51.2811 43.2737 48.8704 43.2418 46.5677 42.5677C45.7906 42.3398 45.4596 43.6881 46.2367 43.916Z" fill="#0E0E0E"/>
<path d="M32.4061 37.0119C36.8752 37.7832 41.3855 37.788 45.856 37.0294C46.6459 36.8956 46.3106 35.5489 45.525 35.6811C41.2932 36.3983 36.9661 36.3919 32.7371 35.6636C31.953 35.5281 31.6149 36.8748 32.4061 37.0119Z" fill="#0E0E0E"/>
<path d="M31.683 59.8242C36.2288 60.9876 40.9067 61.1295 45.5037 60.2625C46.2921 60.1143 45.9582 58.766 45.1727 58.9142C40.8058 59.7382 36.3296 59.582 32.014 58.476C31.2327 58.2768 30.9003 59.6234 31.683 59.8242Z" fill="#0E0E0E"/>
<path d="M20.5259 40.1437C21.4279 41.7772 23.3003 42.2697 24.8984 42.3685C27.194 42.5103 29.5095 41.8298 31.558 40.6999C32.2782 40.3031 31.6475 39.0966 30.9287 39.4935C29.1558 40.472 27.1685 41.0393 25.1853 40.9836C23.9878 40.9501 22.2988 40.7015 21.6013 39.4393C21.1793 38.6759 20.1011 39.3771 20.5259 40.1453V40.1437Z" fill="#0E0E0E"/>
<path d="M20.452 68.2723C21.8186 69.5488 23.8685 69.8405 25.5845 69.858C27.6174 69.8788 29.8064 69.4134 31.3904 67.8946C32.0012 67.3097 31.1162 66.3248 30.5096 66.9065C29.1928 68.1703 27.2594 68.4779 25.5859 68.4604C24.2407 68.446 22.3982 68.2787 21.3342 67.2842C20.7219 66.7121 19.8355 67.697 20.4535 68.2723H20.452Z" fill="#0E0E0E"/>
<path d="M19.8213 77.1C20.2488 76.6809 20.6764 76.2601 21.104 75.841C21.2191 75.7278 21.2859 75.5143 21.2859 75.3469C21.2859 75.1796 21.2177 74.9708 21.104 74.8529C20.9847 74.7302 20.8299 74.6393 20.6636 74.6489C20.4918 74.6569 20.3525 74.727 20.2233 74.8529C19.7957 75.272 19.3681 75.6928 18.9405 76.1119C18.8254 76.2251 18.7587 76.4386 18.7587 76.606C18.7587 76.7733 18.8269 76.9821 18.9405 77.1C19.0598 77.2227 19.2147 77.3136 19.3809 77.304C19.5528 77.296 19.692 77.2259 19.8213 77.1Z" fill="#0E0E0E"/>
<path d="M7.84307 32.8589C10.2083 32.3058 12.5096 34.8079 12.6574 37.3722C12.7497 38.9787 12.2227 40.574 11.0294 41.5286C9.96255 42.3812 8.58887 42.6585 7.35724 42.2473C5.93952 41.774 5.02751 40.37 4.78317 38.754C4.4195 36.3538 5.62415 33.4661 7.84307 32.8589C8.62154 32.6453 8.29197 31.297 7.51208 31.5106C2.91655 32.768 1.92925 41.0855 6.36426 43.3135C7.96097 44.1152 9.85743 43.959 11.3575 42.9565C13.0026 41.8569 13.9316 39.8552 13.916 37.7212C13.889 34.0844 10.8263 30.7376 7.5135 31.5106C6.72935 31.6939 7.06034 33.0421 7.84449 32.8589H7.84307Z" fill="#0E0E0E"/>
<path d="M0.811353 44.504C2.48336 46.2475 4.85996 46.9726 7.06752 47.3089C9.58334 47.693 12.2057 47.5974 14.6761 46.9232C15.8594 46.5997 17.0427 46.1296 18.0655 45.3726C18.3994 45.1255 18.0868 44.5199 17.7516 44.7686C15.9262 46.1184 13.6092 46.5981 11.4627 46.7671C9.05915 46.9551 6.56748 46.7463 4.27185 45.8873C3.17801 45.4778 2.10406 44.8976 1.25315 44.0099C0.959089 43.704 0.518713 44.1964 0.81277 44.504H0.811353Z" fill="#0E0E0E"/>
<path d="M2.20066 68.3442C6.28195 70.4319 10.94 71.2001 15.3196 69.9076C16.4702 69.5681 17.5825 69.0836 18.6409 68.4732C18.9974 68.2677 18.6821 67.6637 18.3269 67.8692C13.3862 70.7204 7.47949 70.2805 2.51603 67.7401C2.15379 67.5553 1.837 68.1577 2.20208 68.3442H2.20066Z" fill="#0E0E0E"/>
<path d="M57.7105 31.6508C58.7859 30.2739 61.0843 30.3774 61.7932 32.1273C62.1796 33.0835 62.3003 34.188 62.3813 35.2255C62.4623 36.2725 62.4694 37.3228 62.4765 38.373C62.5191 44.4673 62.5617 50.56 62.6043 56.6544C62.6143 58.1636 62.6257 59.6728 62.6356 61.1805C62.6413 61.9311 62.6271 62.6849 62.664 63.4356C62.6953 64.073 62.7649 64.7073 62.7677 65.3448C62.7748 66.5417 62.4396 67.5712 61.4849 68.1832C60.7761 68.6374 59.7334 68.9195 58.989 68.4063C58.1452 67.8246 57.594 66.5178 57.469 65.45C57.2943 63.9551 57.2701 62.414 57.1977 60.908C57.0499 57.8815 56.9633 54.8519 56.9121 51.8207C56.8624 48.791 56.8482 45.7614 56.8482 42.7318C56.8482 39.7325 56.7886 36.7204 56.8624 33.7226C56.8781 33.0979 56.9377 32.4301 57.3014 31.9265C57.5514 31.5807 57.1139 31.0819 56.861 31.4325C56.0868 32.505 56.236 33.9728 56.2345 35.2669C56.2331 36.9164 56.2289 38.5675 56.226 40.217C56.2217 43.5366 56.2232 46.8563 56.2644 50.176C56.3056 53.4654 56.3851 56.7548 56.5329 60.0394C56.6067 61.6873 56.6991 63.3352 56.8113 64.9799C56.8979 66.2564 57.2815 67.4581 58.06 68.4175C58.7092 69.2159 59.5558 69.4805 60.4962 69.3067C61.3812 69.1442 62.2805 68.6151 62.8132 67.7896C63.5178 66.6979 63.4098 65.289 63.3217 64.022C63.2123 62.4427 63.255 60.8458 63.2436 59.2617C63.1967 52.6159 63.1498 45.9718 63.1044 39.3261C63.0888 37.0056 63.218 34.4637 62.5035 32.2437C62.2165 31.3528 61.7662 30.6611 60.9679 30.2946C60.1425 29.9153 59.1652 29.9105 58.3412 30.2946C57.9278 30.4874 57.567 30.7759 57.2716 31.1536C57.0087 31.4898 57.4477 31.9871 57.7119 31.6476L57.7105 31.6508Z" fill="#0E0E0E"/>
<path d="M39.675 20.7101C40.2361 20.0264 40.7987 19.3427 41.3598 18.659C41.4706 18.5252 41.4876 18.2957 41.3598 18.165C41.239 18.0407 41.0373 18.0216 40.9194 18.165C40.3583 18.8487 39.7958 19.5324 39.2346 20.2161C39.1238 20.3499 39.1068 20.5794 39.2346 20.7101C39.3554 20.8344 39.5571 20.8536 39.675 20.7101Z" fill="#0E0E0E"/>
<path d="M39.3626 17.2071C38.9876 17.6804 38.6125 18.1537 38.2389 18.6255C38.131 18.7625 38.1097 18.9872 38.2389 19.1195C38.3568 19.2406 38.5642 19.2661 38.6793 19.1195C39.0543 18.6462 39.4294 18.1729 39.803 17.7011C39.9109 17.5641 39.9322 17.3394 39.803 17.2071C39.6851 17.086 39.4777 17.0605 39.3626 17.2071Z" fill="#0E0E0E"/>
</svg>
