<svg width="100" height="80" viewBox="0 0 100 80" fill="none" xmlns="http://www.w3.org/2000/svg">
<path d="M73.4195 53.9048C58.1085 52.4694 42.8463 50.6947 27.6018 48.7985C23.7618 48.3206 19.9237 47.8358 16.0838 47.3493C13.3999 47.0084 10.6514 46.5219 7.93624 46.8577C2.01487 47.5908 0.224946 53.0706 0.0234585 57.6066C-0.14673 61.4796 0.526213 66.4438 4.80635 68.5319C6.61386 69.4141 8.70502 69.7344 10.7238 70.0085C14.1823 70.4778 17.6467 70.9044 21.1092 71.3531C36.7352 73.3779 52.3592 75.4026 67.9853 77.4273C70.8295 77.7956 73.7521 78.0166 76.5455 78.623C78.5936 79.0667 80.6379 79.572 82.7251 79.858C84.3507 80.0824 85.9704 80.2469 86.6903 78.6658C87.3554 77.2064 87.3104 74.4639 85.1018 74.1196C72.414 72.1445 59.5365 71.2761 46.8115 69.5151C43.7286 69.0886 40.671 68.5867 37.5666 68.2972C34.2939 67.9923 31.0642 67.6394 27.8228 67.1324C22.4746 66.2965 16.9249 66.0858 11.7312 64.6023C9.34274 63.9206 7.28092 62.7677 6.83882 60.4415C6.42803 58.2763 7.52936 55.8713 9.38187 54.4256C11.6647 52.6441 15.1917 53.4355 17.8658 53.8997C21.2813 54.4941 24.7536 54.7853 28.2043 55.1913C42.3084 56.8494 56.3284 58.9787 70.3875 60.904C73.7853 61.37 77.1872 61.8205 80.5929 62.2487C83.2924 62.5879 86.5377 63.2525 88.044 60.6728C88.9086 59.1911 89.1316 56.7124 87.33 55.6538C85.7494 54.7253 83.3159 54.7442 81.4966 54.6003C79.1492 54.4153 76.7372 54.3553 74.4465 53.8397C73.3765 53.5999 72.9207 55.0474 73.9907 55.2889C76.2051 55.7857 78.533 55.8799 80.8022 56.0495C81.9759 56.1368 83.1574 56.2173 84.3213 56.3869C84.961 56.4811 85.9567 56.5514 86.4673 56.9556C87.2028 57.5398 87.0385 58.756 86.7607 59.484C86.2658 60.7875 85.1645 61.2329 83.621 61.1113C80.2779 60.8475 76.927 60.2737 73.6093 59.8283C60.3229 58.0417 47.0775 56.0186 33.7677 54.3605C30.1683 53.9117 26.5669 53.4869 22.9597 53.0912C20.0059 52.7674 17.0873 52.0617 14.1197 51.8698C11.5043 51.7002 9.08844 52.2912 7.37482 54.1053C5.86855 55.7017 4.93348 57.7796 5.05672 59.8694C5.17213 61.8359 6.2187 63.6396 8.07512 64.7753C9.9824 65.9419 12.5 66.4232 14.7359 66.836C17.4805 67.3431 20.2641 67.6685 23.0419 68.006C25.7101 68.3297 28.3471 68.7905 31.0094 69.1331C34.0924 69.5288 37.2047 69.7036 40.2915 70.0821C43.1965 70.4384 46.0779 70.9369 48.9809 71.3103C55.2446 72.1171 61.5318 72.7629 67.8131 73.4515C70.9626 73.7976 74.1101 74.1504 77.2517 74.5427C78.7364 74.7277 80.2192 74.9213 81.6981 75.1285C82.3769 75.2245 83.0576 75.3221 83.7345 75.4249C84.3018 75.5105 84.9082 75.4437 85.1703 75.9182C85.5048 76.5263 85.4481 77.8282 84.961 78.3643C84.7263 78.623 83.9164 78.4962 83.3902 78.4329C81.389 78.193 79.4211 77.7031 77.4649 77.2715C74.9845 76.725 72.4297 76.4921 69.9023 76.1649C66.1562 75.6801 62.4101 75.1936 58.664 74.7089C51.1738 73.7376 43.6855 72.7681 36.1953 71.7968C28.6601 70.8204 21.1248 69.8372 13.5877 68.8676C9.76919 68.376 4.98827 68.1979 3.0399 64.7668C1.92879 62.8089 1.70775 60.433 1.72731 58.2798C1.74883 55.9159 2.14594 53.4029 3.44093 51.296C4.82591 49.0451 7.13225 48.2212 9.9648 48.2452C13.0282 48.2709 16.1209 48.8584 19.1452 49.2404C33.5857 51.0647 48.0341 52.8325 62.5236 54.3314C66.1543 54.7065 69.7869 55.0645 73.4215 55.4054C74.5189 55.5082 74.5091 54.0042 73.4215 53.9031L73.4195 53.9048Z" fill="#0E0E0E"/>
<path d="M84.1629 62.4799C85.2485 63.8143 85.3111 65.7157 84.1022 67.021C83.8635 67.2779 83.754 67.6274 83.9672 67.9306C85.096 69.5305 84.9922 71.6974 83.5955 73.1568C82.8913 73.8934 84.0983 74.9623 84.8084 74.2189C86.6941 72.2473 87.0032 69.3797 85.448 67.1717C85.403 67.4749 85.3581 67.7781 85.3131 68.0813C86.9817 66.2793 87.2047 63.6413 85.6417 61.7193C85.0059 60.9382 83.5173 61.6885 84.1609 62.4782L84.1629 62.4799Z" fill="#0E0E0E"/>
<path d="M74.5286 68.1499C77.7054 68.448 80.8803 68.7443 84.0572 69.0424C84.6049 69.0937 84.601 68.3418 84.0572 68.2904C80.8803 67.9923 77.7054 67.696 74.5286 67.3979C73.9809 67.3465 73.9848 68.0985 74.5286 68.1499Z" fill="#0E0E0E"/>
<path d="M77.9795 66.6905C80.2174 67.0896 82.5061 67.2198 84.7851 67.0588C85.3308 67.0211 85.3367 66.2691 84.7851 66.3068C82.5844 66.4609 80.3719 66.3513 78.2084 65.9642C77.6685 65.8683 77.4396 66.5911 77.9795 66.6888V66.6905Z" fill="#0E0E0E"/>
<path d="M6.45537 61.5413C11.1033 62.1117 15.7512 62.6821 20.3991 63.2526C20.939 63.3194 21.1718 62.5948 20.6279 62.528C15.98 61.9576 11.3321 61.3871 6.68621 60.8167C6.1463 60.7499 5.91351 61.4745 6.45732 61.5413H6.45537Z" fill="#0E0E0E"/>
<path d="M77.6918 7.15962C62.3807 5.72415 47.1186 3.94951 31.874 2.05325C28.1025 1.5839 24.3329 1.10769 20.5633 0.631483C17.8521 0.287176 15.0684 -0.216438 12.3239 0.100462C9.67717 0.40537 7.6897 1.62329 6.32428 3.61377C4.95691 5.60595 4.13138 7.91675 3.61886 10.1864C2.77183 13.943 2.41972 19.2121 6.53358 21.6702C8.22373 22.6791 10.3403 22.9412 12.3298 23.1279C15.2093 23.3969 18.0633 23.6607 20.9331 24.0324C36.5865 26.0605 52.2399 28.0887 67.8932 30.1185C73.4743 30.8414 79.0455 31.8264 84.7028 31.8606C85.7806 31.8675 86.8624 31.8606 87.9363 31.7818C88.6406 31.7305 89.466 31.6996 90.1018 31.3981C91.031 30.9562 91.5592 30.0072 91.3694 29.0993C91.1151 27.8729 90.0275 27.4754 88.7696 27.2836C76.1151 25.3599 63.2845 24.4863 50.6045 22.7065C47.5118 22.2732 44.4445 21.7918 41.3282 21.5075C38.1025 21.2128 34.9315 20.8137 31.7371 20.3341C26.3869 19.5324 20.7942 19.3183 15.6318 17.7509C13.2824 17.0366 11.3947 15.7621 11.0758 13.4719C10.7765 11.3136 11.9464 8.78522 13.9475 7.47137C16.336 5.90229 19.8141 6.75706 22.4648 7.21614C25.9331 7.81739 29.4738 8.09661 32.9753 8.51115C46.9132 10.1607 60.7688 12.2626 74.6636 14.1657C78.1241 14.6402 81.5885 15.0992 85.0568 15.5343C87.725 15.8684 90.8373 16.4559 92.3201 13.9344C93.1906 12.4544 93.4038 9.9706 91.6061 8.91541C90.0255 7.98698 87.594 8.00582 85.7728 7.86193C83.4254 7.67693 81.0134 7.61697 78.7227 7.10137C77.6527 6.86155 77.1969 8.30902 78.2669 8.55055C80.4813 9.04731 82.8092 9.14152 85.0783 9.31111C86.252 9.39847 87.4336 9.47898 88.5975 9.64856C89.243 9.74277 90.227 9.80786 90.7415 10.2121C91.479 10.7894 91.3088 12.0313 91.0369 12.7473C90.5693 13.9789 89.5404 14.4706 88.0733 14.3849C84.7399 14.1896 81.3694 13.5593 78.0693 13.1156C64.7868 11.3324 51.5454 9.30768 38.2414 7.64781C34.7163 7.20757 31.1874 6.78961 27.6545 6.40077C24.6615 6.07016 21.7077 5.40211 18.7069 5.15715C16.115 4.94474 13.6091 5.40725 11.8368 7.18017C10.2934 8.72356 9.32702 10.7329 9.32506 12.797C9.32506 14.7446 10.2562 16.6238 12.0285 17.8263C13.8634 19.0716 16.3478 19.5855 18.572 20.0155C21.3106 20.5448 24.0942 20.8771 26.8701 21.2145C29.4992 21.5331 32.097 21.9648 34.7183 22.3211C37.7719 22.7374 40.8529 22.9258 43.9163 23.2684C46.876 23.6007 49.8083 24.1232 52.7582 24.5086C58.9457 25.3154 65.1605 25.9578 71.3674 26.6361C74.5306 26.9821 77.6918 27.3333 80.849 27.7221C82.3455 27.9071 83.842 28.099 85.3346 28.3045C85.9704 28.3919 86.6042 28.4809 87.238 28.5752C87.8072 28.6591 88.9946 28.6471 89.4485 28.9828C90.4422 29.7194 89.0142 30.1751 88.4117 30.2436C87.4727 30.3481 86.5142 30.3566 85.5674 30.3635C83.7383 30.3772 81.878 30.3601 80.0568 30.1888C76.7685 29.877 73.0439 29.2843 69.603 28.8372C65.8979 28.3576 62.1929 27.8763 58.4899 27.3966C50.9996 26.4254 43.5113 25.4559 36.0211 24.4846C32.277 23.9998 28.5309 23.5133 24.7868 23.0286C21.5884 22.614 18.39 22.1207 15.1682 21.8586C13.0692 21.6873 10.8685 21.6479 8.8634 21.0244C6.84267 20.394 5.69047 18.9928 5.17013 17.2096C4.55588 15.1027 4.79061 12.8381 5.25227 10.726C5.73936 8.49744 6.51598 6.22776 7.8814 4.28354C9.36418 2.17316 11.6431 1.46742 14.3916 1.51195C17.4745 1.56163 20.5849 2.14746 23.6287 2.53117C37.9988 4.3452 52.3807 6.10442 66.8017 7.59471C70.4324 7.96985 74.065 8.32786 77.6996 8.66874C78.797 8.77152 78.7872 7.26753 77.6996 7.16646L77.6918 7.15962Z" fill="#0E0E0E"/>
<path d="M88.4353 15.7347C89.5209 17.0691 89.5836 18.9705 88.3747 20.2758C88.136 20.5327 88.0264 20.8821 88.2396 21.1853C89.3684 22.7853 89.2647 24.9522 87.868 26.4116C87.1638 27.1482 88.3707 28.2171 89.0808 27.4736C90.9666 25.502 91.2757 22.6345 89.7205 20.4265C89.6755 20.7297 89.6305 21.0329 89.5855 21.3361C91.2542 19.534 91.4771 16.8961 89.9142 14.9741C89.2784 14.193 87.7897 14.9433 88.4333 15.733L88.4353 15.7347Z" fill="#0E0E0E"/>
<path d="M78.801 21.4047C81.9778 21.7027 85.1527 21.9991 88.3295 22.2971C88.8773 22.3485 88.8734 21.5965 88.3295 21.5451C85.1527 21.2471 81.9778 20.9507 78.801 20.6527C78.2533 20.6013 78.2572 21.3533 78.801 21.4047Z" fill="#0E0E0E"/>
<path d="M82.2519 19.9451C84.4898 20.3443 86.7785 20.4744 89.0575 20.3134C89.6033 20.2757 89.6091 19.5237 89.0575 19.5614C86.8568 19.7156 84.6443 19.606 82.4808 19.2188C81.9409 19.1229 81.712 19.8458 82.2519 19.9434V19.9451Z" fill="#0E0E0E"/>
<path d="M10.7297 14.796C15.3776 15.3664 20.0255 15.9368 24.6714 16.5072C25.2113 16.574 25.4441 15.8494 24.9003 15.7826C20.2524 15.2122 15.6045 14.6418 10.9585 14.0714C10.4186 14.0046 10.1858 14.7291 10.7297 14.796Z" fill="#0E0E0E"/>
<path d="M82.3123 30.2316C65.7786 29.2826 49.3486 27.4668 32.9597 25.365C28.838 24.8357 24.7183 24.2961 20.5986 23.7565C17.367 23.3334 14.0434 22.7065 10.759 22.8401C7.83251 22.9583 5.07429 23.8216 3.30198 25.9543C1.51012 28.1109 0.803939 30.8482 0.543766 33.4622C0.103625 37.8646 0.600503 43.9644 5.09973 46.7789C6.94245 47.9317 9.22727 48.3736 11.428 48.6648C14.8748 49.1222 18.3568 49.422 21.8173 49.7885C39.2801 51.6437 56.743 53.5006 74.2078 55.3557C76.3655 55.5852 78.5212 55.8148 80.6789 56.0426C82.4355 56.2293 84.4954 56.3766 86.0584 56.625C88.2141 56.9676 90.3307 57.4798 92.4864 57.8224C94.0005 58.0639 96.6375 58.744 97.8522 57.5637C99.1433 56.3081 99.1766 53.3995 97.7857 52.1884C97.328 51.791 96.7979 51.7533 96.1856 51.6745C95.3561 51.5666 94.5267 51.4638 93.6973 51.3662C92.0404 51.1692 90.3815 50.9859 88.7207 50.8146C85.1057 50.4412 81.4848 50.1157 77.8639 49.8005C70.5341 49.1633 63.1945 48.5878 55.8823 47.8118C52.4101 47.4435 48.9574 46.9142 45.4793 46.6007C41.7606 46.265 38.0223 46.1451 34.3193 45.6774C28.216 44.9049 21.9679 44.5743 15.9428 43.4077C13.3939 42.9144 10.3619 42.296 8.86539 40.2319C7.38651 38.1883 7.6721 35.5075 8.92601 33.4365C9.62633 32.2786 10.6142 31.1634 11.9835 30.5793C13.3822 29.9832 15.0019 29.9592 16.5239 30.0603C18.2062 30.1716 19.865 30.4714 21.5278 30.7095C23.3627 30.9716 25.2093 31.1086 27.0579 31.2713C43.0556 32.6794 58.9691 34.6562 74.9042 36.5113C78.7305 36.9567 82.5588 37.3918 86.389 37.8063C88.3295 38.0153 90.272 38.2191 92.2145 38.4161C93.9477 38.5926 95.8295 38.9266 97.4571 38.1866C99.6598 37.1845 100.513 34.3495 99.695 32.3882C98.5643 29.6766 95.0823 30.211 92.4864 30.4268C91.033 30.5468 89.5462 30.4697 88.0869 30.4577C86.1581 30.4423 84.2333 30.3789 82.3123 30.2299C81.2129 30.1442 81.2188 31.6482 82.3123 31.7321C85.5791 31.9839 89.0612 32.1861 92.3378 31.9411C93.758 31.8349 95.4422 31.4255 96.837 31.84C98.1868 32.2409 98.4215 33.5427 98.2063 34.6373C97.9501 35.9358 97.1049 36.9961 95.5224 37.1348C93.7247 37.2924 91.7391 36.8676 89.9531 36.6809C86.2873 36.2989 82.6253 35.8946 78.9653 35.4767C63.8635 33.7534 48.7931 31.8349 33.6542 30.3755C29.7222 29.9969 25.7316 29.8033 21.829 29.238C18.883 28.8115 15.7472 28.1332 12.7738 28.7516C7.56061 29.8376 4.81803 35.8758 6.82312 40.0263C8.99448 44.5212 15.937 45.0693 20.7355 45.6449C23.6991 46.0012 26.6784 46.253 29.6459 46.575C32.9186 46.9296 36.1522 47.4264 39.4445 47.6628C42.8893 47.9111 46.3087 48.1578 49.732 48.5963C52.9617 49.0109 56.2031 49.3569 59.4464 49.6738C66.5943 50.371 73.7579 50.9277 80.9117 51.57C84.3506 51.8784 87.7876 52.2038 91.2168 52.5824C92.8268 52.7605 94.4289 52.9935 96.0389 53.1631C96.614 53.2231 96.747 53.3567 96.9113 53.8568C97.0776 54.3587 97.0932 54.9275 97.0169 55.4448C96.9152 56.1385 96.7744 56.6524 96.0349 56.6833C95.049 56.7244 94.0299 56.5445 93.0635 56.3938C90.9293 56.0597 88.8342 55.5715 86.7059 55.2101C83.2278 54.6174 79.6069 54.4273 76.0897 54.0538C71.8995 53.6085 67.7074 53.1631 63.5173 52.7177C55.1213 51.8253 46.7254 50.9328 38.3314 50.0404C30.2093 49.177 22.0872 48.3103 13.9651 47.4538C11.6979 47.2139 9.25662 47.0067 7.17915 46.1125C5.1369 45.2338 3.8771 43.6664 3.17874 41.801C2.24955 39.3172 2.03048 36.6055 2.21827 34.0087C2.40411 31.4289 3.05552 28.5152 5.00388 26.4767C6.98745 24.4006 10.2406 24.2002 13.1142 24.3749C16.6217 24.5908 20.1174 25.1989 23.5896 25.6528C39.1374 27.6878 54.6988 29.6663 70.3581 30.9133C74.3408 31.2302 78.3275 31.5026 82.3181 31.7321C83.4214 31.7955 83.4156 30.2932 82.3181 30.2299L82.3123 30.2316Z" fill="#0E0E0E"/>
<path d="M95.2154 38.5C96.6004 40.1119 96.5827 42.2788 95.1802 43.8787C95.0061 44.0774 95.0295 44.4354 95.1802 44.6376C96.526 46.4396 96.5045 48.9303 94.9513 50.6432C94.2725 51.3935 95.4775 52.4624 96.1641 51.7053C98.1849 49.475 98.4607 46.2906 96.661 43.8787V44.6376C98.3903 42.6659 98.402 39.7282 96.6962 37.7429C96.0409 36.9789 94.5503 37.7275 95.2154 38.5017V38.5Z" fill="#0E0E0E"/>
<path d="M84.4779 45.1448C88.0597 45.3967 91.6434 45.6502 95.2252 45.902C95.7749 45.9414 95.7729 45.1894 95.2252 45.15C91.6434 44.8982 88.0597 44.6447 84.4779 44.3929C83.9283 44.3535 83.9302 45.1055 84.4779 45.1448Z" fill="#0E0E0E"/>
<path d="M86.6298 42.0683C89.8438 42.5736 93.0656 43.0601 96.3227 43.2999C96.8723 43.341 96.8704 42.589 96.3227 42.5479C93.1419 42.3149 89.9964 41.8387 86.8567 41.3437C86.3168 41.258 86.0859 41.9826 86.6278 42.0683H86.6298Z" fill="#0E0E0E"/>
<path d="M7.81693 39.4782C13.0634 40.0007 18.3099 40.5232 23.5564 41.0439C24.1041 41.0987 24.1002 40.3467 23.5564 40.2919C18.3099 39.7694 13.0634 39.247 7.81693 38.7262C7.26919 38.6714 7.27311 39.4234 7.81693 39.4782Z" fill="#0E0E0E"/>
<path d="M8.19644 35.5743C12.4609 35.9957 16.7254 36.4188 20.9879 36.8402C21.5357 36.895 21.5318 36.143 20.9879 36.0882C16.7235 35.6668 12.459 35.2437 8.19644 34.8223C7.64871 34.7675 7.65262 35.5195 8.19644 35.5743Z" fill="#0E0E0E"/>
<path d="M12.5391 11.2313C14.2801 11.4522 16.0192 11.6732 17.7602 11.8942C17.9891 11.9233 18.2218 11.8445 18.2883 11.6321C18.3431 11.4557 18.2199 11.1987 17.9891 11.1696C16.2481 10.9486 14.509 10.7277 12.768 10.5067C12.5391 10.4776 12.3063 10.5564 12.2398 10.7688C12.1851 10.9452 12.3083 11.2022 12.5391 11.2313Z" fill="#0E0E0E"/>
<path d="M6.7763 58.8656C9.75166 59.3572 12.727 59.8488 15.7024 60.3404C16.2423 60.4295 16.4731 59.7049 15.9313 59.6159C12.9559 59.1242 9.98054 58.6326 7.00518 58.141C6.46528 58.0519 6.23444 58.7765 6.7763 58.8656Z" fill="#0E0E0E"/>
</svg>
