<svg width="100" height="80" viewBox="0 0 100 80" fill="none" xmlns="http://www.w3.org/2000/svg">
<path d="M74.9979 64.4137C79.5132 56.1298 85.6932 48.7449 93.1267 42.7628C95.2314 41.0693 97.4364 39.4986 99.7242 38.0472C99.9598 37.8976 100.095 37.5654 99.921 37.3172C94.1496 29.0832 87.9345 21.1435 82.4515 12.7197C81.0313 10.5383 79.6624 8.32407 78.4164 6.04413C78.0842 5.43704 77.1352 5.976 77.4674 6.58309C79.7877 10.8303 82.5079 14.8695 85.282 18.8478C88.2567 23.1145 91.3442 27.3057 94.4104 31.5103C95.946 33.6151 97.4765 35.7235 98.972 37.8562C99.0372 37.6129 99.1036 37.3695 99.1688 37.1262C90.9706 42.3309 83.873 49.0965 78.3487 56.9485C76.7805 59.1774 75.3477 61.4914 74.0477 63.8772C73.7168 64.4842 74.6657 65.0232 74.9967 64.4161L74.9979 64.4137Z" fill="#0E0E0E"/>
<path d="M61.9536 71.4067C62.0401 69.3202 62.5277 66.2665 64.5848 65.1082C65.7982 64.4245 67.5808 64.5839 68.8807 64.9124C70.3925 65.2944 71.7551 66.056 73.1052 66.7957C73.7219 67.1339 74.2772 66.2117 73.6605 65.8747C72.1262 65.034 70.5542 64.1666 68.8143 63.8004C67.3113 63.4841 65.4071 63.4111 64.0307 64.1873C61.6039 65.5547 60.9583 68.9223 60.8555 71.4079C60.8267 72.0941 61.9273 72.0928 61.9549 71.4079L61.9536 71.4067Z" fill="#0E0E0E"/>
<path d="M0.0622254 40.6032C2.46527 45.331 4.43961 50.2741 6.46535 55.1612C8.85586 60.9268 11.19 66.7142 13.6657 72.4457C14.7262 74.8996 15.798 77.3547 17.0114 79.743C17.1468 80.0094 17.5154 80.0605 17.7636 79.934C27.4648 75.0018 38.5085 73.009 49.3442 72.2729C52.4041 72.0649 55.4703 71.9627 58.5377 71.9384C59.2447 71.9323 59.2472 70.8653 58.5377 70.8714C47.4601 70.9614 36.1631 72.0077 25.6308 75.5152C22.7401 76.4788 19.9172 77.6358 17.2082 79.013C17.459 79.0763 17.7097 79.1407 17.9604 79.204C15.5573 74.4762 13.583 69.5331 11.5573 64.646C9.16674 58.8804 6.83263 53.093 4.35688 47.3615C3.29638 44.9076 2.22459 42.4525 1.01116 40.0643C0.697775 39.4486 -0.249908 39.9888 0.0622254 40.6032Z" fill="#0E0E0E"/>
<path d="M46.4773 30.6051C50.0662 39.2614 54.248 47.7035 58.8749 55.8815C60.141 58.1189 61.4459 60.3344 62.801 62.523C63.1645 63.1107 64.116 62.5754 63.7499 61.9841C58.8435 54.0591 54.5012 45.7873 50.6152 37.3476C49.5447 35.0239 48.5156 32.6831 47.5365 30.3217C47.2758 29.6927 46.2115 29.9676 46.476 30.6051H46.4773Z" fill="#0E0E0E"/>
<path d="M59.6735 71.0903C59.5557 68.1364 60.6011 64.8613 63.3389 63.2517C66.8112 61.2102 70.9605 62.9974 73.9414 65.0413C74.5205 65.438 75.0708 64.5133 74.4967 64.1204C71.7389 62.2297 68.2478 60.6798 64.808 61.5131C62.2207 62.1409 60.3116 64.0912 59.3426 66.4465C58.7384 67.915 58.5115 69.516 58.5742 71.0916C58.6017 71.7765 59.7011 71.7789 59.6735 71.0916V71.0903Z" fill="#0E0E0E"/>
<path d="M3.37292 34.0761C7.9045 44.4624 11.7692 55.109 16.0137 65.6059C17.167 68.4577 18.3503 71.2997 19.5813 74.121C19.6703 74.3254 19.9937 74.4337 20.2018 74.3668C29.8165 71.2729 39.88 69.7522 49.9635 69.0794C52.8279 68.8884 55.696 68.7667 58.5666 68.6925C59.2723 68.6743 59.2761 67.6073 58.5666 67.6255C48.4053 67.8871 38.209 68.7716 28.2972 71.0394C25.4679 71.6866 22.6688 72.4506 19.9097 73.3388C20.1165 73.4203 20.3234 73.5018 20.5302 73.5845C15.9986 63.1983 12.134 52.5517 7.88945 42.0547C6.73619 39.203 5.55284 36.3609 4.32186 33.5396C4.04733 32.9094 3.09965 33.452 3.37292 34.0786V34.0761Z" fill="#0E0E0E"/>
<path d="M6.17577 31.5467C11.986 40.7626 16.228 50.9165 19.4709 61.2297C20.3709 64.0924 21.1857 66.9807 21.9115 69.8908C21.9805 70.167 22.3089 70.3434 22.5885 70.2631C32.0151 67.5513 41.7753 65.9891 51.6018 65.6473C54.3972 65.5499 57.1951 65.5536 59.9906 65.6497C60.6988 65.674 60.6976 64.607 59.9906 64.5827C50.1139 64.2445 40.1995 65.1119 30.546 67.1692C27.7719 67.7605 25.0203 68.4528 22.2976 69.2363C22.5233 69.3604 22.7489 69.4845 22.9746 69.6085C20.3371 59.0216 16.5802 48.6183 11.5836 38.8586C10.2134 36.182 8.73551 33.559 7.12847 31.009C6.75992 30.4238 5.80848 30.9591 6.17953 31.548L6.17577 31.5467Z" fill="#0E0E0E"/>
<path d="M63.1847 61.8002C53.3055 60.0447 42.6428 58.9193 32.8137 61.5253C30.1023 62.2443 27.4761 63.2906 25.0969 64.7493L25.9042 65.0681C22.4619 52.543 16.9727 40.5484 9.66574 29.695C9.60557 29.6049 9.49024 29.375 9.39497 29.2947C9.34984 29.2278 9.30471 29.1621 9.25959 29.0952C9.07155 29.6183 9.05401 29.8057 9.20568 29.6548C9.22574 29.6658 9.06153 29.6743 9.24705 29.6463C9.29594 29.639 9.49275 29.549 9.66574 29.493C10.2524 29.302 10.8541 29.1536 11.4545 29.0064C13.1819 28.5842 14.9244 28.2216 16.6681 27.8725C18.3904 27.527 20.1153 27.1973 21.8465 26.8968C23.3457 26.6364 24.4513 26.5415 26.0295 26.4758C33.1221 26.1826 40.3501 26.8286 46.2731 30.9834C46.8472 31.3861 47.3963 30.4614 46.8284 30.0624C41.467 26.3018 34.9398 25.2774 28.4589 25.3431C26.4783 25.3638 24.4751 25.3857 22.5171 25.7045C20.8787 25.9709 19.2479 26.2799 17.6195 26.5975C15.7429 26.9637 13.8689 27.3445 12.0061 27.7764C11.2816 27.9443 10.557 28.117 9.84374 28.3214C9.4426 28.437 8.95372 28.5428 8.60147 28.7728C7.78918 29.302 8.61652 30.0831 8.98506 30.6354C9.92272 32.0406 10.8303 33.4653 11.7078 34.9069C13.4828 37.8256 15.1312 40.8161 16.648 43.8673C20.0739 50.7582 22.8117 57.9606 24.8437 65.3527C24.9327 65.6764 25.3514 65.8552 25.651 65.6715C29.8967 63.0667 34.8796 61.8538 39.8374 61.3781C44.8816 60.8939 49.9848 61.1141 55.0128 61.6725C57.6528 61.9657 60.279 62.3647 62.8926 62.8295C63.5846 62.9524 63.8816 61.9243 63.1847 61.8002Z" fill="#0E0E0E"/>
<path d="M69.5151 4.64116C70.4853 4.32606 71.4681 4.06449 72.4672 3.85158C72.2603 3.77007 72.0535 3.68855 71.8467 3.60582C76.3845 12.5297 81.6231 21.1141 87.5198 29.2545C89.1945 31.5661 90.9231 33.8399 92.6994 36.0797C92.7646 35.8364 92.831 35.5931 92.8962 35.3497C85.024 40.3646 78.6559 47.5268 74.6885 55.8169C73.5816 58.1297 72.6615 60.5215 71.9382 62.973C71.7426 63.6348 72.8031 63.9171 72.9987 63.2565C75.5221 54.7061 80.5287 46.9173 87.2891 40.9158C89.2121 39.2089 91.2729 37.6589 93.4515 36.2707C93.6759 36.1284 93.8376 35.7792 93.6484 35.5408C87.3906 27.6571 81.7585 19.3099 76.8258 10.5855C75.4255 8.10851 74.083 5.60107 72.7943 3.06808C72.684 2.8503 72.3995 2.77487 72.1738 2.82232C71.1748 3.03644 70.1907 3.2968 69.2217 3.61191C68.5536 3.82846 68.8407 4.86015 69.5138 4.64116H69.5151Z" fill="#0E0E0E"/>
<path d="M62.3911 0.223826C59.7323 3.12424 57.3819 6.31907 55.2233 9.58325C52.4655 13.7514 49.9973 18.164 48.2912 22.8431C47.3874 25.319 46.7218 27.8884 46.5225 30.5139C46.4698 31.1989 47.5704 31.1952 47.6218 30.5139C47.9778 25.8384 49.8544 21.3175 52.0042 17.1701C54.1553 13.0202 56.7313 9.06862 59.5719 5.33239C60.7101 3.83596 61.8947 2.36993 63.1683 0.979343C63.6371 0.468365 62.8624 -0.289584 62.3911 0.225044V0.223826Z" fill="#0E0E0E"/>
<path d="M69.8934 61.529C72.4369 53.4227 76.9559 45.9369 82.9918 39.8137C84.6828 38.0982 86.4904 36.496 88.3958 35.0093C88.6139 34.8389 88.6051 34.4253 88.3958 34.255C87.0909 33.1892 85.8411 32.048 84.6301 30.8837C84.1262 30.3995 83.349 31.1538 83.8529 31.638C85.0651 32.8023 86.3137 33.9435 87.6186 35.0093V34.255C80.7091 39.6458 75.1345 46.6267 71.4717 54.4617C70.4412 56.665 69.56 58.9316 68.8342 61.2456C68.6274 61.9038 69.6891 62.186 69.8947 61.529H69.8934Z" fill="#0E0E0E"/>
<path d="M63.8865 3.12413C65.3181 2.32238 66.801 1.62526 68.3466 1.05467C68.121 0.930574 67.8953 0.80648 67.6697 0.682385C70.1104 8.68285 73.5952 16.3828 78.0378 23.528C79.2989 25.5573 80.6402 27.5404 82.0491 29.476C82.078 29.2607 82.1068 29.0453 82.1356 28.83C78.4828 32.2098 75.186 35.8596 72.3993 39.9523C69.5901 44.0791 67.3037 48.538 65.5976 53.1988C64.6336 55.8328 63.8652 58.53 63.2898 61.2686C63.1494 61.939 64.2087 62.2261 64.3503 61.5521C66.3497 52.0357 70.7635 43.023 77.1265 35.5226C78.919 33.4106 80.8746 31.4701 82.9128 29.5843C83.0758 29.4334 83.136 29.1256 82.9993 28.9383C78.0691 22.1654 74.0202 14.7939 71.0167 7.02947C70.173 4.84686 69.4121 2.63505 68.7302 0.398915C68.6512 0.14221 68.3366 -0.0779976 68.0533 0.0266313C66.4199 0.630073 64.8455 1.35639 63.3312 2.20437C62.7182 2.54746 63.271 3.46965 63.8865 3.12535V3.12413Z" fill="#0E0E0E"/>
<path d="M1.27935 40.383C2.68959 39.754 4.19134 39.3294 5.72443 39.097C6.01776 39.052 6.18072 38.6955 6.10801 38.44C6.02152 38.1359 5.72568 38.0227 5.4311 38.0677C3.79898 38.3159 2.22327 38.7928 0.724024 39.462C0.454512 39.5824 0.386823 39.9608 0.52722 40.192C0.688928 40.4608 1.00858 40.5046 1.27935 40.383Z" fill="#0E0E0E"/>
<path d="M4.13235 34.2793C4.19001 34.2453 4.24893 34.2136 4.31035 34.1844C4.33542 34.1723 4.36174 34.1613 4.38682 34.1504C4.31787 34.1808 4.34169 34.1674 4.3981 34.1479C4.53097 34.1017 4.66385 34.0603 4.80049 34.0275C4.95467 33.9898 5.11137 33.9594 5.26806 33.9338C5.31068 33.9265 5.3533 33.9204 5.39592 33.9143C5.40595 33.9131 5.50999 33.8997 5.45233 33.9058C5.38464 33.9143 5.52378 33.8973 5.53632 33.8961C5.58019 33.8912 5.62407 33.8864 5.66794 33.8827C6.2734 33.8231 6.88388 33.8146 7.49185 33.8182C7.77892 33.8194 8.05469 33.5713 8.04216 33.2841C8.02837 32.9934 7.80023 32.7525 7.49185 32.75C6.84753 32.7464 6.20321 32.7561 5.56264 32.8255C4.88573 32.8985 4.1687 33.0068 3.57577 33.3571C3.32255 33.5068 3.22729 33.8353 3.37897 34.0871C3.52689 34.3329 3.87662 34.429 4.13109 34.2781L4.13235 34.2793Z" fill="#0E0E0E"/>
<path d="M6.35619 31.498C7.34022 31.4603 8.31799 31.2802 9.24311 30.9493C9.51262 30.8532 9.72447 30.5831 9.62669 30.2923C9.54145 30.0368 9.23934 29.8166 8.95103 29.92C8.51981 30.0745 8.07856 30.1974 7.62728 30.2862C7.51948 30.3069 7.41042 30.3264 7.30136 30.3434C7.24244 30.3531 7.18352 30.3604 7.12461 30.3702C7.24495 30.3519 7.07948 30.375 7.0682 30.3763C6.83128 30.403 6.59436 30.4213 6.35619 30.4298C6.06912 30.4407 5.79334 30.667 5.80588 30.9639C5.81841 31.2437 6.04781 31.5089 6.35619 31.498Z" fill="#0E0E0E"/>
<path d="M73.4461 5.25077C73.9074 4.95757 74.3687 4.66436 74.83 4.37116C75.067 4.2203 75.3039 4.07066 75.5408 3.9198C75.6536 3.84802 75.7652 3.77745 75.878 3.70567C75.9281 3.67282 76.0121 3.64241 76.051 3.59618C76.1124 3.5244 76.1601 3.60712 76.0359 3.54508C75.9871 3.55116 75.9495 3.53656 75.9231 3.50006C75.8868 3.45991 75.8818 3.45992 75.9081 3.49763C75.9206 3.54386 75.962 3.59496 75.9833 3.64119C76.0397 3.75798 76.0936 3.87721 76.1488 3.99523C76.2653 4.24463 76.3807 4.49282 76.4973 4.74222C76.7292 5.23982 76.9623 5.73742 77.1942 6.23501C77.3171 6.4978 77.7094 6.56107 77.9464 6.42602C78.2246 6.26786 78.2673 5.96006 78.1432 5.69605C77.8736 5.11938 77.6054 4.54392 77.3359 3.96724C77.208 3.69229 77.0802 3.41612 76.951 3.14238C76.8157 2.85526 76.6151 2.60585 76.2867 2.52312C75.9469 2.43674 75.6373 2.58517 75.359 2.76036C75.0845 2.93434 74.81 3.10953 74.5367 3.2835C73.9877 3.63267 73.4399 3.98063 72.8908 4.32979C72.6426 4.48795 72.5385 4.80184 72.694 5.05976C72.8381 5.29944 73.1967 5.41015 73.4461 5.25077Z" fill="#0E0E0E"/>
<path d="M66.8487 61.423C70.0001 52.4322 73.4637 43.1652 79.7439 35.7293C81.4901 33.6622 83.4457 31.7728 85.603 30.1121C85.8362 29.9321 85.7936 29.544 85.603 29.3578C82.6998 26.5195 80.0686 23.4463 77.8335 20.0824C75.606 16.7294 73.7708 13.1537 72.0747 9.52458C71.7827 8.90045 70.835 9.44185 71.1258 10.0635C72.8507 13.7535 74.7197 17.3888 76.9974 20.7904C79.2563 24.1629 81.9076 27.2592 84.8258 30.1134V29.3591C76.9159 35.4446 72.2227 44.377 68.6638 53.3483C67.6422 55.9226 66.7046 58.5286 65.7882 61.1395C65.5601 61.7916 66.6218 62.0714 66.8487 61.423Z" fill="#0E0E0E"/>
<path d="M62.3497 1.10469C65.397 9.57841 70.5654 17.1725 76.4107 24.0647C78.0779 26.0307 79.8103 27.942 81.5891 29.8132C82.0692 30.3193 82.8464 29.5625 82.3663 29.0589C76.2152 22.584 70.5253 15.5593 66.4212 7.66954C65.2667 5.45043 64.2538 3.16807 63.4102 0.821215C63.1783 0.176409 62.1153 0.453796 62.3497 1.10469Z" fill="#0E0E0E"/>
<path d="M54.4361 22.0181C56.1196 18.704 58.045 15.4898 60.4167 12.5918C60.6349 12.3253 60.2475 11.9458 60.0281 12.2146C57.6251 15.1503 55.667 18.3914 53.961 21.7492C53.8055 22.0558 54.2794 22.3271 54.4361 22.0181Z" fill="#0E0E0E"/>
<path d="M50.7782 31.245C51.4238 28.8629 52.3126 26.5513 53.338 24.2993C53.4796 23.9879 53.0058 23.7166 52.8629 24.0305C51.8187 26.325 50.9061 28.6755 50.248 31.1039C50.1577 31.436 50.688 31.5783 50.7782 31.2462V31.245Z" fill="#0E0E0E"/>
<path d="M61.7518 19.4219C62.3184 18.6153 62.905 17.822 63.513 17.0446C63.6032 16.9303 63.5318 16.7466 63.414 16.6796C63.2723 16.5993 63.1281 16.6602 63.0379 16.7757C62.4299 17.5532 61.842 18.3464 61.2767 19.153C61.1927 19.2722 61.2528 19.4487 61.3757 19.518C61.5111 19.5946 61.6678 19.5411 61.7518 19.4219Z" fill="#0E0E0E"/>
<path d="M53.8708 35.4047C55.4415 30.9908 57.2704 26.6524 59.6872 22.6059C59.8652 22.3079 59.3901 22.039 59.2121 22.3371C56.7727 26.4225 54.9263 30.8071 53.3405 35.2636C53.2252 35.5884 53.7555 35.7283 53.8708 35.4059V35.4047Z" fill="#0E0E0E"/>
<path d="M62.5979 26.9991C63.6233 25.3117 64.7389 23.6741 65.9925 22.1376C66.2093 21.8711 65.8232 21.4915 65.6039 21.7604C64.3202 23.3335 63.1732 25.0027 62.124 26.7303C61.9435 27.0271 62.4186 27.296 62.5991 26.9991H62.5979Z" fill="#0E0E0E"/>
<path d="M56.2099 40.2417C57.649 36.7026 59.1845 33.1975 60.9909 29.819C61.1539 29.5148 60.68 29.2447 60.5158 29.5501C58.6869 32.9688 57.1363 36.5189 55.6796 40.0994C55.5493 40.4194 56.0808 40.5581 56.2099 40.2417Z" fill="#0E0E0E"/>
<path d="M60.7265 40.03C62.6833 36.149 64.8531 32.3556 67.4768 28.8579C68.239 27.842 69.0412 26.8541 69.8824 25.8978C70.1105 25.6387 69.7244 25.2591 69.4938 25.5207C66.5542 28.8591 64.1211 32.5819 61.9926 36.4495C61.3908 37.5421 60.813 38.648 60.2526 39.7612C60.0972 40.069 60.5723 40.3391 60.7277 40.03H60.7265Z" fill="#0E0E0E"/>
<path d="M58.3936 44.9404C58.6519 44.3662 58.9139 43.7919 59.1809 43.2213C59.2398 43.0948 59.2222 42.9281 59.0818 42.8564C58.9615 42.7943 58.7684 42.8162 58.7058 42.9525C58.44 43.5243 58.1768 44.0973 57.9185 44.6715C57.8609 44.7993 57.8759 44.9635 58.0176 45.0365C58.1367 45.0974 58.3322 45.0779 58.3936 44.9404Z" fill="#0E0E0E"/>
<path d="M67.1384 39.0909C68.3644 37.0604 69.6367 35.0542 71.0344 33.1295C71.2388 32.8485 70.7624 32.5808 70.5594 32.8606C69.1629 34.7853 67.8893 36.7915 66.6633 38.822C66.4841 39.1189 66.9592 39.3878 67.1384 39.0909Z" fill="#0E0E0E"/>
<path d="M60.9959 50.9687C62.3321 47.5305 64.1159 44.2809 65.9637 41.08C66.1367 40.7795 65.6616 40.5106 65.4886 40.8111C63.617 44.0522 61.8194 47.3456 60.4656 50.8275C60.3403 51.1487 60.8718 51.2886 60.9959 50.9699V50.9687Z" fill="#0E0E0E"/>
<path d="M28.6832 30.6599C33.651 30.1939 38.6915 30.6027 43.4562 32.076C43.7947 32.1806 43.9388 31.666 43.6029 31.5614C38.7968 30.0747 33.6961 29.6562 28.6844 30.1258C28.3359 30.1586 28.3322 30.6927 28.6844 30.6599H28.6832Z" fill="#0E0E0E"/>
<path d="M18.5508 32.7815C20.7295 32.0905 22.9508 31.5321 25.2059 31.133C25.5531 31.071 25.4065 30.5576 25.0592 30.6184C22.8041 31.0187 20.5828 31.5759 18.4042 32.2669C18.0695 32.3728 18.2124 32.8886 18.5508 32.7815Z" fill="#0E0E0E"/>
<path d="M21.8964 36.7915C27.6514 35.7038 33.5681 34.615 39.4485 35.3109C41.0982 35.5068 42.7253 35.8596 44.2998 36.3754C44.6357 36.4849 44.7799 35.9703 44.4464 35.8608C38.7528 33.9969 32.6443 34.4447 26.8128 35.3754C25.1192 35.6455 23.4345 35.9593 21.7497 36.2769C21.4025 36.3426 21.5491 36.8572 21.8964 36.7915Z" fill="#0E0E0E"/>
<path d="M35.0576 40.0034C38.817 39.7905 42.5889 39.9 46.3307 40.3149C46.6817 40.3538 46.6792 39.8197 46.3307 39.7808C42.5889 39.3659 38.817 39.2564 35.0576 39.4694C34.7053 39.4888 34.7041 40.0229 35.0576 40.0034Z" fill="#0E0E0E"/>
<path d="M24.1428 41.5023C26.5508 40.9926 28.9814 40.5862 31.4309 40.31C31.7781 40.2711 31.7819 39.737 31.4309 39.776C28.9326 40.057 26.453 40.467 23.9973 40.9865C23.6514 41.0595 23.798 41.5741 24.144 41.5011L24.1428 41.5023Z" fill="#0E0E0E"/>
<path d="M47.0641 45.0961C47.8476 45.1399 48.631 45.1922 49.4133 45.2531C49.5612 45.264 49.6878 45.1229 49.6878 44.9866C49.6878 44.8333 49.5612 44.7311 49.4133 44.7202C48.631 44.6606 47.8476 44.6083 47.0641 44.5632C46.9162 44.5547 46.7896 44.6922 46.7896 44.8297C46.7896 44.9805 46.9162 45.0876 47.0641 45.0961Z" fill="#0E0E0E"/>
<path d="M27.0987 46.7957C31.2705 45.5742 35.6203 45.0693 39.9676 44.9659C41.1936 44.9367 42.4196 44.9391 43.6455 44.9635C43.999 44.9708 43.999 44.4367 43.6455 44.4294C39.2744 44.3406 34.877 44.5498 30.5836 45.3954C29.3601 45.6363 28.1479 45.9307 26.9521 46.2811C26.6136 46.3796 26.7578 46.8955 27.0987 46.7957Z" fill="#0E0E0E"/>
<path d="M36.0791 50.1221C40.9416 49.5466 45.8555 49.4383 50.7406 49.807C51.0929 49.8337 51.0916 49.2996 50.7406 49.2729C45.8555 48.9042 40.9429 49.0125 36.0791 49.588C35.7319 49.6293 35.7281 50.1634 36.0791 50.1221Z" fill="#0E0E0E"/>
<path d="M28.9201 51.3399C30.1135 51.0771 31.3144 50.8435 32.5203 50.6379C32.8675 50.5783 32.7208 50.0649 32.3736 50.1233C31.1677 50.3289 29.968 50.5625 28.7734 50.8253C28.4287 50.9007 28.5741 51.4153 28.9201 51.3399Z" fill="#0E0E0E"/>
<path d="M46.5449 54.7609C49.21 54.7134 51.8738 54.7767 54.5375 54.8558C54.891 54.8667 54.891 54.3326 54.5375 54.3217C51.8738 54.2426 49.21 54.1793 46.5449 54.2268C46.1914 54.2329 46.1902 54.767 46.5449 54.7609Z" fill="#0E0E0E"/>
<path d="M30.7629 57.4569C34.6777 55.8997 38.8721 55.1831 43.0778 54.9045C43.4288 54.8813 43.4313 54.3472 43.0778 54.3704C38.8245 54.6526 34.5775 55.368 30.6175 56.9423C30.2941 57.0712 30.4357 57.5871 30.7642 57.4569H30.7629Z" fill="#0E0E0E"/>
<path d="M58.5828 70.4152C58.4424 70.8897 58.3898 71.4128 58.5339 71.8934C58.658 72.307 58.915 72.6513 59.2785 72.8959C59.9241 73.3302 60.8442 73.2426 61.4058 72.7207C61.7756 72.3776 61.936 71.8836 61.9511 71.3982C61.9599 71.1184 61.6916 70.8519 61.4008 70.8641C61.0949 70.8775 60.8605 71.0989 60.8505 71.3982C60.8492 71.442 60.8455 71.487 60.8417 71.5308C60.8379 71.5819 60.8079 71.6415 60.8505 71.4736C60.8455 71.4931 60.8442 71.515 60.8404 71.5345C60.8254 71.6111 60.8054 71.6866 60.7778 71.7595C60.7715 71.7766 60.7627 71.7936 60.7577 71.8106C60.8166 71.6403 60.8053 71.7072 60.7828 71.7486C60.769 71.7741 60.7552 71.8009 60.7402 71.8265C60.7226 71.8557 60.7026 71.8836 60.6838 71.9128C60.6574 71.9518 60.6048 71.9895 60.7289 71.8581C60.7151 71.8727 60.7038 71.8873 60.6913 71.9019C60.6487 71.9481 60.601 71.9871 60.5546 72.0284C60.7026 71.897 60.6299 71.9737 60.581 72.0041C60.5521 72.0223 60.5221 72.0394 60.492 72.0552C60.4393 72.082 60.324 72.1111 60.5233 72.0467C60.4982 72.0552 60.4744 72.0649 60.4493 72.0722C60.4193 72.0819 60.3892 72.0892 60.3591 72.0965C60.2977 72.1099 60.1585 72.1136 60.3817 72.099C60.324 72.1026 60.2676 72.1087 60.2087 72.1075C60.1773 72.1075 60.146 72.1039 60.1146 72.1014C60.072 72.099 60.0119 72.0771 60.2137 72.1148C60.1936 72.1111 60.1723 72.1087 60.151 72.1038C60.0933 72.0929 60.0369 72.0783 59.983 72.0588C59.8539 72.0138 60.1096 72.1185 60.0106 72.071C59.9768 72.0552 59.9429 72.0381 59.9103 72.0199C59.8865 72.0065 59.8639 71.9919 59.8414 71.9773C59.7273 71.9019 59.9442 72.0649 59.8602 71.9931C59.8088 71.9493 59.7611 71.9031 59.716 71.8544C59.6408 71.7729 59.8088 71.9822 59.7273 71.8678C59.7085 71.8411 59.6909 71.8143 59.6747 71.7875C59.6571 71.7595 59.6421 71.7303 59.627 71.7011C59.6182 71.6853 59.612 71.6671 59.6032 71.6513C59.6922 71.8155 59.6408 71.7401 59.6233 71.6914C59.5932 71.6099 59.5731 71.5272 59.5568 71.442C59.5468 71.3921 59.5593 71.3289 59.5643 71.5004C59.5643 71.4724 59.5581 71.4432 59.5556 71.414C59.5518 71.369 59.5506 71.324 59.5506 71.279C59.5506 71.223 59.5531 71.1683 59.5568 71.1123C59.5593 71.088 59.5618 71.0624 59.5643 71.0381C59.5731 70.9456 59.5418 71.1768 59.5581 71.0782C59.5806 70.9493 59.6082 70.8227 59.6458 70.6974C59.7248 70.4298 59.5493 70.105 59.2622 70.0405C58.9689 69.976 58.6706 70.1256 58.5853 70.4128L58.5828 70.4152Z" fill="#0E0E0E"/>
<path d="M72.5912 66.5573C73.2468 66.9089 74.0516 67.1522 74.7686 66.8237C75.3615 66.5512 75.547 65.8383 75.3377 65.2713C75.1923 64.8771 74.9378 64.5389 74.6282 64.2506C74.4201 64.0571 74.0541 64.0352 73.851 64.2506C73.6529 64.4598 73.6291 64.7993 73.851 65.0049C73.9525 65.0998 74.0478 65.1995 74.1355 65.3078L74.0491 65.1995C74.1493 65.3248 74.2358 65.4599 74.301 65.6047C74.2822 65.5621 74.2647 65.5195 74.2459 65.4769C74.2872 65.573 74.3198 65.6728 74.3349 65.7774C74.3286 65.73 74.3223 65.6825 74.3148 65.6351C74.3248 65.7117 74.3273 65.7884 74.3173 65.865C74.3236 65.8176 74.3298 65.7701 74.3374 65.7227C74.3286 65.7799 74.3136 65.8358 74.291 65.8906C74.3098 65.848 74.3273 65.8054 74.3461 65.7628C74.3236 65.8151 74.2947 65.8626 74.2596 65.9076L74.3461 65.7993C74.3123 65.8407 74.2734 65.8772 74.2308 65.9088C74.2684 65.8808 74.3048 65.8529 74.3424 65.8249C74.2922 65.8614 74.2396 65.8906 74.1819 65.9137C74.2258 65.8954 74.2697 65.8784 74.3135 65.8602C74.2358 65.8906 74.1556 65.9112 74.0729 65.9222C74.1218 65.9161 74.1706 65.91 74.2195 65.9027C74.0929 65.9186 73.9651 65.9161 73.8385 65.9003C73.8873 65.9064 73.9362 65.9125 73.9851 65.9198C73.7745 65.8918 73.5715 65.8297 73.3746 65.7507C73.4185 65.7689 73.4624 65.7859 73.5063 65.8042C73.3834 65.7531 73.2643 65.6959 73.1478 65.6339C72.8958 65.4988 72.536 65.5669 72.3956 65.8249C72.259 66.0755 72.3242 66.4113 72.5924 66.5548L72.5912 66.5573Z" fill="#0E0E0E"/>
</svg>
