<svg width="190" height="200" viewBox="0 0 190 200" fill="none" xmlns="http://www.w3.org/2000/svg">
<path d="M115.279 102.387C108.429 102.387 101.266 100.433 93.863 96.5325C93.2884 96.2298 93.068 95.5188 93.3707 94.9443C93.6734 94.3699 94.3847 94.1493 94.9589 94.4522C106.311 100.434 117.011 101.611 126.76 97.9505C140.036 92.9662 147.894 80.3533 150.193 74.3803C156.234 58.6917 155.101 43.5723 146.917 30.6565C136.92 14.8802 117.346 4.09401 95.8336 2.50731C76.8779 1.10766 55.5755 9.57913 41.5659 24.0857C17.2074 49.3103 19.5752 75.4282 21.3042 94.4986C21.5019 96.6789 21.6885 98.7382 21.824 100.689C21.8689 101.337 21.3803 101.898 20.7326 101.943C20.0837 101.988 19.5234 101.499 19.4783 100.852C19.345 98.9256 19.1594 96.8785 18.9627 94.7109C18.1144 85.3542 17.0589 73.7094 19.3565 61.2704C22.0573 46.6508 28.7687 33.9532 39.8749 22.4522C46.6365 15.4507 55.1882 9.6439 64.6055 5.65996C74.8949 1.30688 85.7542 -0.594673 96.0065 0.162228C118.247 1.80257 138.516 13.0052 148.904 29.3979C157.502 42.9674 158.707 58.8142 152.388 75.2251C149.957 81.5389 141.645 94.8739 127.587 100.152C123.616 101.643 119.507 102.387 115.279 102.387Z" fill="#0E0E0E"/>
<path d="M157.185 167.044C156.569 167.044 156.051 166.565 156.013 165.942C155.972 165.294 156.464 164.736 157.113 164.695C166.905 164.083 175.091 161.222 183.219 149.246C187.526 142.896 187.212 134.883 185.825 132.181C185.499 131.546 185.228 131.41 185.173 131.409C185.041 131.409 184.525 131.675 183.829 132.872C180.782 138.109 172.603 141.477 169.227 142.682C162.691 145.016 156.281 145.825 152.897 144.742C152.278 144.544 151.937 143.883 152.135 143.264C152.333 142.646 152.994 142.304 153.613 142.502C156.492 143.423 162.45 142.605 168.437 140.468C174.959 138.139 179.954 134.857 181.797 131.689C182.832 129.91 183.984 129.031 185.236 129.058C185.989 129.078 187.067 129.45 187.917 131.108C189.756 134.692 189.834 143.683 185.164 150.565C181.254 156.328 177.095 160.392 172.451 162.992C168.197 165.373 163.369 166.66 157.259 167.042C157.234 167.044 157.209 167.044 157.185 167.044Z" fill="#0E0E0E"/>
<path d="M170.853 162.018C170.557 162.018 170.277 161.841 170.159 161.549L162.981 143.753C162.827 143.369 163.012 142.934 163.396 142.779C163.779 142.625 164.215 142.81 164.369 143.193L171.547 160.989C171.702 161.373 171.516 161.809 171.133 161.963C171.041 162 170.947 162.018 170.853 162.018Z" fill="#0E0E0E"/>
<path d="M183.99 150.211C183.795 150.211 183.6 150.135 183.454 149.984L174.386 140.639C174.098 140.342 174.105 139.869 174.402 139.581C174.698 139.294 175.172 139.301 175.46 139.597L184.527 148.942C184.815 149.239 184.808 149.712 184.511 150C184.366 150.141 184.178 150.211 183.99 150.211Z" fill="#0E0E0E"/>
<path d="M93.6561 172.665L81.9039 91.4248L93.4851 91.9359L102.854 171.813L93.6561 172.665Z" fill="#FFAE79"/>
<path d="M9.56782 113.982L0.816772 116.023L16.2369 198.337L60.5672 197.266L86.0829 195.084C86.0829 195.084 92.2155 199.743 98.5896 194.752L157.806 190.829L156.279 176.929L154.773 186.283C154.773 186.283 144.343 183.596 126.138 185.83C115.908 187.085 101.407 191.952 99.6264 190.073C99.0022 189.416 91.508 187.021 91.508 187.021C91.508 187.021 86.8674 190.156 84.2767 190.93C81.6882 191.703 70.6884 190.891 61.807 191.331C44.5314 192.187 23.5601 194.644 23.5601 194.644L8.64439 120.967L9.56782 113.982Z" fill="#FFE8CC"/>
<path d="M19.501 107.22L21.5423 121.703C21.5423 121.703 43.8838 123.574 47.5604 119.801C51.2369 116.029 46.0769 105.056 46.0769 105.056C46.0769 105.056 29.8295 102.137 19.501 107.22Z" fill="#FFE8CC"/>
<path d="M24.9957 187.795C24.6881 187.795 24.4164 187.573 24.3641 187.259L11.7013 111.426C11.6432 111.076 11.879 110.746 12.2282 110.688C12.5771 110.629 12.9079 110.865 12.9663 111.215L25.629 187.048C25.6872 187.398 25.4514 187.728 25.1022 187.786C25.0665 187.792 25.0308 187.795 24.9957 187.795Z" fill="#0E0E0E"/>
<path d="M87.0215 191.143C86.7663 191.143 86.5249 190.99 86.4251 190.738C86.2947 190.409 86.4559 190.036 86.785 189.906C86.9054 189.858 87.0112 189.776 87.1452 189.672C87.2993 189.552 87.474 189.416 87.7102 189.302C88.002 189.162 88.2888 189.03 88.5731 188.898C89.2062 188.606 89.8041 188.329 90.4184 187.99C90.555 187.915 90.688 187.836 90.8205 187.758C91.3842 187.424 92.0229 187.046 92.8255 187.014C93.178 187.001 93.4774 187.276 93.4915 187.63C93.5054 187.983 93.2299 188.281 92.876 188.296C92.3976 188.314 91.9696 188.568 91.4739 188.861C91.3294 188.947 91.1845 189.033 91.0366 189.114C90.3834 189.474 89.7368 189.773 89.1113 190.062C88.8322 190.191 88.5511 190.321 88.2651 190.459C88.1533 190.512 88.0511 190.592 87.9327 190.684C87.7615 190.817 87.5484 190.983 87.2577 191.098C87.1801 191.129 87.1002 191.143 87.0215 191.143Z" fill="#0E0E0E"/>
<path d="M88.968 192.245C88.6262 192.245 88.2852 192.241 87.9445 192.235C87.614 192.228 87.2522 192.178 86.8689 192.126C86.3191 192.05 85.6962 191.965 85.3459 192.053C85.0005 192.14 84.654 191.931 84.5676 191.587C84.4812 191.244 84.6897 190.896 85.0332 190.809C85.6244 190.661 86.3454 190.759 87.0427 190.855C87.3881 190.902 87.7145 190.947 87.9704 190.952C90.4429 191.002 92.9453 190.865 95.4098 190.546C97.0619 190.332 98.7452 189.886 99.0124 189.592C99.2506 189.33 99.6556 189.31 99.9183 189.548C100.181 189.786 100.2 190.191 99.9626 190.454C99.2038 191.29 96.4123 191.709 95.5749 191.818C93.3871 192.102 91.1692 192.245 88.968 192.245Z" fill="#0E0E0E"/>
<path d="M88.4154 191.262C88.1755 191.262 87.9455 191.127 87.8356 190.896C87.6836 190.576 87.8198 190.193 88.1398 190.041C89.2205 189.528 90.2609 188.915 91.2668 188.322C91.9707 187.908 92.6983 187.479 93.4458 187.08C93.7575 186.913 94.1463 187.031 94.3137 187.343C94.4804 187.656 94.3626 188.044 94.0501 188.211C93.3263 188.598 92.6105 189.02 91.9179 189.428C90.8878 190.034 89.8225 190.662 88.69 191.2C88.6013 191.242 88.5077 191.262 88.4154 191.262Z" fill="#0E0E0E"/>
<path d="M90.1208 191.535C89.94 191.535 89.7602 191.459 89.6337 191.311C89.4032 191.042 89.4344 190.637 89.7036 190.407C90.0347 190.124 90.5919 189.889 91.233 189.633C91.3811 189.574 91.5077 189.524 91.5885 189.486C92.7062 188.964 93.9857 188.332 95.0339 187.432C95.3022 187.202 95.707 187.232 95.9381 187.501C96.1687 187.77 96.1382 188.174 95.8693 188.405C94.6981 189.411 93.3261 190.09 92.1318 190.648C92.036 190.693 91.8853 190.754 91.7079 190.825C91.3676 190.96 90.7341 191.213 90.5376 191.381C90.4169 191.485 90.2683 191.535 90.1208 191.535Z" fill="#0E0E0E"/>
<path d="M92.6884 191.514C92.4411 191.514 92.2053 191.37 92.1001 191.129C91.9586 190.804 92.1069 190.426 92.4316 190.284C93.8281 189.676 95.2357 188.97 96.7343 188.127C97.0428 187.954 97.4339 188.063 97.6077 188.372C97.7813 188.681 97.6716 189.072 97.3627 189.245C95.8263 190.109 94.3809 190.834 92.9443 191.46C92.8607 191.496 92.7737 191.514 92.6884 191.514Z" fill="#0E0E0E"/>
<path d="M26.3431 185.657C26.1243 185.657 25.9086 185.59 25.7267 185.461C25.4881 185.293 25.3289 185.034 25.2857 184.745C21.2398 157.474 13.4852 105.426 13.0955 103.637C12.9902 103.153 13.1855 102.662 13.6184 102.324C15.6706 100.725 31.0222 99.3554 44.0729 99.0801C54.96 98.8501 74.5409 99.1186 83.3522 103.496C83.8808 103.758 84.0963 104.4 83.8338 104.928C83.5713 105.457 82.9298 105.673 82.4012 105.41C76.2964 102.377 62.4307 100.848 44.3598 101.212C29.6803 101.509 17.8321 102.918 15.3013 103.841C16.5312 111.234 25.828 173.838 27.2375 183.333C33.9021 182.109 69.2193 176.011 90.9697 179.952C91.5505 180.057 91.9361 180.613 91.8307 181.194C91.7255 181.775 91.17 182.161 90.5884 182.055C67.0089 177.783 26.9513 185.558 26.5492 185.637C26.4808 185.65 26.4117 185.657 26.3431 185.657Z" fill="#0E0E0E"/>
<path d="M100.609 191.651C99.5161 191.651 98.514 190.835 97.5447 190.046C96.9162 189.534 96.204 188.954 95.7292 188.844C94.657 188.597 93.904 188.482 93.2989 188.39C92.2917 188.236 91.6263 188.134 90.9985 187.564C88.1729 184.994 89.9842 181.41 90.5837 180.661C90.9362 180.22 91.5792 180.121 92.0411 180.445C92.4402 180.725 92.6743 181.334 92.3218 181.911C92.2934 181.957 92.2624 182 92.2284 182.041C91.9785 182.451 90.8418 184.532 92.4366 185.982C92.5749 186.108 92.8395 186.157 93.6216 186.276C94.2285 186.369 95.0595 186.496 96.2093 186.761C97.168 186.982 98.0457 187.697 98.8947 188.388C99.4122 188.81 100.276 189.514 100.605 189.514C102.32 189.473 106.07 188.539 110.041 187.55C114.575 186.421 119.714 185.141 123.538 184.738C136.128 183.413 147.171 183.179 154.13 184.078C154.484 182.074 155.402 177.745 157.056 175.433C157.399 174.952 158.067 174.842 158.547 175.185C159.027 175.529 159.138 176.196 158.795 176.676C157.26 178.822 156.313 183.722 156.077 185.429C156.038 185.713 155.886 185.97 155.656 186.141C155.426 186.312 155.138 186.383 154.854 186.34C148.162 185.297 136.829 185.489 123.762 186.864C120.086 187.251 115.024 188.512 110.558 189.624C106.291 190.687 102.607 191.604 100.661 191.651C100.643 191.651 100.626 191.651 100.609 191.651Z" fill="#0E0E0E"/>
<path d="M24.0237 195.534C23.7063 195.534 23.4036 195.392 23.1999 195.145C22.9815 194.881 22.9032 194.527 22.99 194.195C23.1858 193.444 23.4755 192.552 23.7826 191.608C24.5346 189.294 25.4704 186.414 25.3804 184.429C25.3537 183.839 25.8103 183.34 26.3998 183.313C26.9904 183.283 27.4891 183.743 27.516 184.332C27.6236 186.706 26.621 189.79 25.8156 192.269C25.7006 192.623 25.5882 192.969 25.4828 193.301C32.567 192.85 62.6925 190.965 83.0151 190.136C85.0022 190.055 86.0335 189.059 87.1256 188.005C88.2873 186.883 89.603 185.613 91.9268 185.821C92.5146 185.874 92.9483 186.393 92.8953 186.981C92.8425 187.569 92.3221 188.001 91.735 187.95C90.4456 187.833 89.7441 188.448 88.6103 189.543C87.4035 190.708 85.9017 192.158 83.1019 192.272C60.0796 193.21 24.4502 195.508 24.0928 195.531C24.0699 195.533 24.0468 195.534 24.0237 195.534Z" fill="#0E0E0E"/>
<path d="M23.2739 195.501C22.8416 195.501 22.4345 195.236 22.2733 194.808C21.4544 192.631 17.5436 172.965 14.4072 156.851C12.8427 148.813 11.1522 140.012 9.76961 132.706C7.68466 121.688 7.69919 121.56 7.72356 121.347C8.01726 118.73 11.2037 108.93 13.077 103.321C13.264 102.761 13.8702 102.46 14.4292 102.646C14.989 102.833 15.2912 103.439 15.1042 103.998C12.0281 113.209 10.1272 119.547 9.86235 121.469C10.1065 123.059 13.2375 139.664 16.6135 156.997C20.8982 178.997 23.6903 192.504 24.274 194.055C24.482 194.607 24.2026 195.224 23.6501 195.432C23.5261 195.479 23.3989 195.501 23.2739 195.501Z" fill="#0E0E0E"/>
<path d="M91.2271 181.246C90.7898 181.246 90.4168 180.912 90.3766 180.468L85.4988 126.588C85.4562 126.118 85.8029 125.702 86.2732 125.659C86.7398 125.619 87.1592 125.964 87.2018 126.434L92.0796 180.313C92.1221 180.784 91.7754 181.2 91.3051 181.242C91.279 181.245 91.253 181.246 91.2271 181.246Z" fill="#0E0E0E"/>
<path d="M93.1837 174.861C92.9567 174.861 92.7342 174.789 92.5493 174.652C92.3189 174.482 92.1663 174.227 92.1259 173.944L80.502 92.7853C80.4599 92.4912 80.5421 92.193 80.7288 91.9617C80.9156 91.7308 81.1901 91.5878 81.4865 91.5673L93.2323 90.7574C93.7957 90.7185 94.3011 91.1325 94.3673 91.6994L103.781 172.151C103.848 172.72 103.454 173.24 102.887 173.33L93.3518 174.847C93.2958 174.856 93.2397 174.861 93.1837 174.861ZM82.781 93.6209L94.0877 172.566L101.538 171.381L92.3623 92.9601L82.781 93.6209Z" fill="#0E0E0E"/>
<path d="M22.1067 200C17.526 200 17.175 199.701 16.8775 199.449C16.4036 199.048 15.8669 198.593 12.0488 179.413C9.87898 168.514 7.32549 154.966 5.07274 143.013C2.70179 130.433 0.46274 118.551 0.104704 117.525C-0.0885293 116.97 -0.0126519 116.392 0.318666 115.898C1.62342 113.949 7.68205 113.41 10.2266 113.268C10.8163 113.236 11.3201 113.687 11.3531 114.276C11.3858 114.865 10.9347 115.37 10.3454 115.403C6.61091 115.611 2.92197 116.34 2.17768 116.998C2.65499 118.685 4.33105 127.535 7.17354 142.617C11.0564 163.22 16.8689 194.062 18.3017 197.745C22.6625 198.447 61.0002 196.264 86.333 194.58C86.4606 194.572 86.5884 194.586 86.7109 194.623C86.7868 194.646 94.446 196.879 98.6526 193.763C98.8208 193.639 99.022 193.566 99.2311 193.555C120.773 192.391 152.815 190.591 157.37 190.156C157.525 188.543 156.875 183.277 156.103 178.827C156.002 178.246 156.392 177.692 156.973 177.591C157.556 177.491 158.108 177.88 158.209 178.462C158.214 178.492 158.744 181.553 159.124 184.621C159.35 186.44 159.48 187.913 159.512 188.998C159.553 190.407 159.504 191.811 158.431 192.155C157.278 192.525 117.199 194.725 99.6549 195.673C94.929 198.9 87.5992 197.087 86.2887 196.726C84.4025 196.85 68.547 197.891 52.6953 198.759C35.4933 199.701 26.6862 200 22.1067 200Z" fill="#0E0E0E"/>
<path d="M25.7597 189.95C25.4095 189.95 25.0812 189.733 24.9553 189.385C24.795 188.941 25.025 188.451 25.4692 188.29C29.9018 186.69 72.8717 179.633 90.2251 185.798C90.6701 185.956 90.9027 186.445 90.7447 186.89C90.5865 187.335 90.0972 187.568 89.6528 187.41C80.6053 184.195 64.6871 184.79 52.927 185.855C39.3351 187.086 27.7777 189.275 26.0501 189.899C25.9542 189.934 25.8561 189.95 25.7597 189.95Z" fill="#0E0E0E"/>
<path d="M92.2139 186.971C91.9508 186.971 91.6908 186.85 91.5235 186.621C91.2445 186.24 91.3272 185.705 91.7084 185.426C96.6644 181.799 117.804 177.763 126.354 177.655C126.358 177.655 126.361 177.655 126.365 177.655C126.832 177.655 127.214 178.031 127.22 178.5C127.225 178.972 126.848 179.359 126.375 179.365C117.294 179.48 97.0244 183.655 92.7183 186.807C92.5659 186.918 92.3892 186.971 92.2139 186.971Z" fill="#0E0E0E"/>
<path d="M155.801 181.186C155.712 181.186 155.621 181.172 155.532 181.142C153.152 180.354 139.565 178.454 133.261 179.269C132.791 179.328 132.364 178.999 132.303 178.53C132.243 178.062 132.574 177.633 133.042 177.573C139.382 176.754 153.16 178.555 156.07 179.519C156.518 179.668 156.761 180.151 156.612 180.6C156.493 180.958 156.159 181.186 155.801 181.186Z" fill="#0E0E0E"/>
<path d="M30.9613 123C29.788 123 28.656 122.979 27.6093 122.936C21.801 122.697 21.0565 121.922 20.776 121.63C19.3977 120.197 18.9881 116.572 18.5598 111.608C18.4262 110.059 18.2999 108.596 18.1267 107.529C17.8333 105.728 20.3252 104.857 22.225 104.36C26.3019 103.292 32.3954 102.852 36.7385 102.796C46.2637 102.674 46.7844 104.095 46.98 104.629C47.6174 106.37 50.4793 117.485 48.3828 120.43C48.0919 120.839 47.2057 122.084 38.4957 122.727C36.0767 122.907 33.4276 123 30.9613 123ZM19.8186 107.28C20.0001 108.407 20.1281 109.891 20.2636 111.461C20.5503 114.785 20.9431 119.337 22.0089 120.446C22.5892 120.912 27.0082 121.495 34.6071 121.226C42.3189 120.953 46.4933 120.013 46.9945 119.432C48.2715 117.639 46.5033 108.391 45.408 105.31C44.8728 104.936 42.0295 104.411 36.3372 104.513C31.2343 104.605 26.0858 105.156 22.9011 105.952C20.2953 106.603 19.8716 107.186 19.8186 107.28Z" fill="#0E0E0E"/>
<path d="M80.7053 112.166C80.6281 112.166 80.5495 112.156 80.4717 112.133C76.0145 110.869 55.4674 109.985 52.2434 110.669C51.7808 110.767 51.3275 110.472 51.2296 110.01C51.1317 109.548 51.4267 109.094 51.8886 108.997C55.8315 108.16 76.4646 109.22 80.9378 110.488C81.3923 110.617 81.6561 111.09 81.5274 111.544C81.4207 111.92 81.0781 112.166 80.7053 112.166Z" fill="#0E0E0E"/>
<path d="M82.284 118.675C82.1705 118.675 82.0553 118.653 81.9444 118.605C78.8139 117.247 57.7293 116.637 53.0203 117.768C52.5608 117.879 52.0995 117.595 51.9894 117.136C51.8791 116.677 52.1621 116.216 52.6213 116.105C55.3575 115.449 62.6647 115.395 68.0917 115.55C73.8374 115.713 80.6723 116.189 82.6245 117.036C83.0578 117.224 83.2568 117.727 83.0689 118.16C82.9289 118.483 82.6145 118.675 82.284 118.675Z" fill="#0E0E0E"/>
<path d="M121.245 144.943C117.364 144.943 116.981 144.669 116.774 144.521C115.832 143.847 115.262 140.99 114.121 131.232C113.922 129.533 113.75 128.066 113.647 127.535C113.318 125.835 115.586 125.016 116.331 124.747C120.204 123.348 127.845 122.68 133.212 122.533C136.431 122.444 139.419 122.514 141.624 122.73C145.23 123.083 146.045 123.731 146.367 124.318C147.788 126.913 149.719 139.355 148.513 142.362C148.302 142.89 147.98 143.226 147.556 143.361C146.306 143.759 137.402 144.328 132.083 144.593C126.884 144.852 123.483 144.943 121.245 144.943ZM117.783 143.101C120.431 143.66 144.39 142.326 146.915 141.763C147.197 141.196 147.392 138.692 146.785 133.896C146.299 130.042 145.486 126.316 144.886 125.175C144.39 124.736 141.31 124.128 134.72 124.212C129.014 124.285 123.113 124.85 119.321 125.686C115.944 126.431 115.4 127.126 115.332 127.24C115.447 127.852 115.612 129.259 115.819 131.033C116.201 134.296 117.08 141.813 117.783 143.101Z" fill="#0E0E0E"/>
<path d="M96.41 110.997C96.1205 110.997 95.8384 110.851 95.6776 110.585C95.4331 110.181 95.5624 109.655 95.9664 109.411C98.3923 107.942 107.942 107.113 113.419 106.75C113.89 106.721 114.297 107.075 114.328 107.546C114.36 108.017 114.003 108.425 113.532 108.456C104.743 109.039 98.3517 109.965 96.8518 110.873C96.7135 110.957 96.5606 110.997 96.41 110.997Z" fill="#0E0E0E"/>
<path d="M123.324 107.897C122.907 107.897 122.542 107.591 122.479 107.166C122.411 106.699 122.733 106.264 123.201 106.196C125.835 105.808 139.068 105.229 142.231 105.806C142.696 105.89 143.004 106.336 142.919 106.8C142.834 107.265 142.388 107.573 141.925 107.488C139.075 106.969 126.185 107.485 123.45 107.888C123.407 107.894 123.365 107.897 123.324 107.897Z" fill="#0E0E0E"/>
<path d="M98.0081 119.756C97.6498 119.756 97.3161 119.529 97.1968 119.171C97.0479 118.723 97.2905 118.239 97.7385 118.09C100.49 117.175 130.082 113.554 137.703 114.034C138.174 114.064 138.532 114.47 138.502 114.941C138.472 115.413 138.064 115.77 137.595 115.74C130.38 115.283 100.898 118.841 98.2778 119.712C98.1887 119.742 98.0976 119.756 98.0081 119.756Z" fill="#0E0E0E"/>
<path d="M98.2293 130.905C97.9401 130.905 97.6582 130.758 97.4972 130.493C97.2525 130.089 97.3814 129.564 97.7854 129.319C98.594 128.829 99.5991 128.635 100.486 128.465C100.612 128.44 100.735 128.417 100.853 128.393C102.976 127.965 105.128 127.853 107.209 127.744C108.105 127.697 109.032 127.648 109.935 127.575C110.404 127.536 110.818 127.888 110.857 128.358C110.895 128.829 110.544 129.242 110.073 129.28C109.145 129.355 108.207 129.404 107.299 129.452C105.279 129.557 103.19 129.667 101.191 130.069C101.068 130.094 100.94 130.119 100.809 130.144C100.064 130.287 99.2186 130.45 98.672 130.781C98.5333 130.865 98.3805 130.905 98.2293 130.905Z" fill="#0E0E0E"/>
<path d="M100.412 145.499C100.022 145.499 99.6689 145.229 99.5791 144.832C99.475 144.372 99.7636 143.914 100.224 143.809C102.797 143.227 105.555 142.901 107.992 142.892C108.466 142.892 108.848 143.272 108.85 143.743C108.852 144.215 108.471 144.6 107.998 144.602C105.684 144.611 103.057 144.922 100.602 145.477C100.538 145.492 100.475 145.499 100.412 145.499Z" fill="#0E0E0E"/>
<path d="M101.276 154.579C100.885 154.579 100.532 154.31 100.443 153.913C100.339 153.452 100.627 152.994 101.088 152.89C103.089 152.437 105.167 152.312 107.176 152.192C108.454 152.115 109.775 152.036 111.033 151.872C113.9 151.498 116.856 151.315 119.716 151.138L119.976 151.122C120.32 151.101 120.654 151.113 120.976 151.124C121.323 151.137 121.65 151.148 121.952 151.117C123.731 150.935 125.724 150.842 128.044 150.833C128.518 150.833 128.9 151.213 128.902 151.685C128.904 152.157 128.523 152.541 128.051 152.543C125.787 152.552 123.849 152.642 122.126 152.818C121.707 152.861 121.305 152.847 120.916 152.833C120.622 152.822 120.344 152.813 120.082 152.829L119.822 152.845C116.991 153.02 114.063 153.201 111.254 153.567C109.938 153.739 108.586 153.82 107.278 153.898C105.338 154.015 103.331 154.135 101.466 154.557C101.402 154.572 101.338 154.579 101.276 154.579Z" fill="#0E0E0E"/>
<path d="M138.055 151.992C137.584 151.992 137.202 151.611 137.2 151.14C137.198 150.668 137.579 150.284 138.052 150.282C138.88 150.279 139.702 150.205 140.572 150.127C141.438 150.05 142.334 149.969 143.233 149.966C143.767 149.963 144.307 149.99 144.829 150.016C145.645 150.055 146.416 150.093 147.167 150.032C147.635 149.995 148.05 150.345 148.088 150.816C148.126 151.286 147.775 151.699 147.305 151.737C146.444 151.806 145.581 151.764 144.747 151.724C144.223 151.698 143.727 151.673 143.24 151.676C142.414 151.679 141.593 151.753 140.725 151.831C139.857 151.908 138.96 151.989 138.058 151.992C138.057 151.992 138.056 151.992 138.055 151.992Z" fill="#0E0E0E"/>
<path d="M103.601 165.19C103.211 165.19 102.858 164.921 102.768 164.524C102.664 164.063 102.953 163.606 103.413 163.501C103.699 163.436 103.988 163.369 104.279 163.302C105.748 162.962 107.267 162.61 108.784 162.44C109.174 162.396 109.562 162.38 109.938 162.364C110.362 162.346 110.762 162.329 111.145 162.276C112.111 162.14 113.076 162 114.043 161.859C117.092 161.415 120.245 160.956 123.377 160.667C125.867 160.437 128.396 160.304 130.841 160.175C131.706 160.13 132.571 160.084 133.434 160.034C137.385 159.807 140.588 159.738 143.514 159.817C143.92 159.827 144.337 159.825 144.778 159.821C146.007 159.811 147.278 159.802 148.485 160.099C148.944 160.211 149.224 160.674 149.112 161.133C148.999 161.591 148.536 161.872 148.077 161.759C147.078 161.514 145.915 161.523 144.792 161.531C144.354 161.535 143.903 161.538 143.468 161.526C140.591 161.449 137.434 161.517 133.533 161.742C132.666 161.792 131.799 161.837 130.932 161.883C128.502 162.011 125.991 162.143 123.535 162.37C120.447 162.655 117.317 163.111 114.289 163.552C113.32 163.693 112.351 163.834 111.382 163.97C110.918 164.035 110.456 164.054 110.01 164.073C109.648 164.088 109.306 164.103 108.976 164.14C107.556 164.299 106.087 164.639 104.665 164.968C104.372 165.036 104.08 165.104 103.792 165.169C103.727 165.184 103.664 165.19 103.601 165.19Z" fill="#0E0E0E"/>
<path d="M24.2369 132.337C24.1223 132.337 24.0013 132.328 23.8737 132.306C23.4081 132.227 23.0952 131.785 23.1745 131.319C23.254 130.854 23.6971 130.541 24.1612 130.621C24.2899 130.642 24.3976 130.608 24.6744 130.505C24.8138 130.454 24.972 130.395 25.1537 130.346C26.0769 130.097 27.0454 129.983 27.9816 129.873C28.4376 129.82 28.8678 129.769 29.2887 129.704C32.5489 129.203 35.8578 128.831 39.0576 128.472L40.5255 128.307C43.4458 127.977 46.42 127.927 49.2962 127.879C50.7562 127.855 52.2661 127.83 53.7397 127.768C57.801 127.597 62.0874 127.625 67.229 127.855C67.7401 127.878 68.2574 127.842 68.805 127.804C69.3832 127.763 69.9805 127.721 70.6042 127.749C71.076 127.77 71.4413 128.17 71.4201 128.642C71.3992 129.113 70.9945 129.479 70.5277 129.458C70.0029 129.434 69.4788 129.471 68.9241 129.51C68.3521 129.549 67.7607 129.591 67.1523 129.563C62.0616 129.336 57.8224 129.308 53.8113 129.477C52.3159 129.539 50.7953 129.565 49.3246 129.589C46.4886 129.636 43.5563 129.685 40.7175 130.006L39.2481 130.172C36.0651 130.529 32.7739 130.898 29.5484 131.395C29.0974 131.464 28.6314 131.519 28.1808 131.572C27.3055 131.674 26.4005 131.781 25.5987 131.997C25.4935 132.025 25.3849 132.065 25.2699 132.108C24.9897 132.213 24.6543 132.337 24.2369 132.337Z" fill="#0E0E0E"/>
<path d="M83.9956 130.703C83.9477 130.703 83.8993 130.699 83.8504 130.69C82.2432 130.416 80.5159 130.274 78.8845 130.153C78.7113 130.141 78.5177 130.152 78.3125 130.164C77.9899 130.183 77.6238 130.204 77.2311 130.137C76.7656 130.058 76.4524 129.616 76.5317 129.151C76.6108 128.685 77.0539 128.372 77.5179 128.451C77.7184 128.486 77.9476 128.472 78.2124 128.457C78.4523 128.442 78.7244 128.427 79.011 128.448C80.6837 128.572 82.4572 128.718 84.1383 129.005C84.6039 129.084 84.9166 129.526 84.8373 129.992C84.7659 130.408 84.4045 130.703 83.9956 130.703Z" fill="#0E0E0E"/>
<path d="M86.4168 139.08C86.4074 139.08 86.398 139.08 86.3884 139.08C85.7679 139.06 85.1766 138.871 84.6553 138.706C84.4088 138.627 84.1759 138.553 83.9555 138.501C82.5783 138.169 81.1147 137.859 79.6054 137.577C75.954 136.896 72.3204 136.565 68.6095 136.261C62.0519 135.721 55.5776 136.096 48.4006 136.6C43.4428 136.949 39.3195 137.422 35.4247 138.088C34.956 138.169 34.4938 138.301 34.0043 138.441C33.5138 138.581 33.0065 138.726 32.4711 138.822C32.007 138.905 31.5618 138.597 31.4782 138.132C31.3944 137.667 31.7037 137.223 32.1684 137.139C32.619 137.058 33.0636 136.931 33.5343 136.797C34.0462 136.65 34.5755 136.499 35.1364 136.403C39.088 135.727 43.2647 135.247 48.2807 134.894C55.5286 134.384 62.0714 134.007 68.7495 134.556C72.5066 134.865 76.1881 135.2 79.9192 135.896C81.4571 136.183 82.9495 136.5 84.355 136.838C84.6352 136.905 84.9088 136.992 85.1735 137.076C85.6296 137.221 86.0603 137.358 86.4444 137.371C86.9164 137.386 87.2864 137.781 87.271 138.253C87.2558 138.716 86.876 139.08 86.4168 139.08Z" fill="#0E0E0E"/>
<path d="M29.6293 155.698C29.588 155.698 29.5461 155.698 29.5042 155.696C29.0325 155.681 28.6624 155.286 28.6778 154.814C28.6932 154.342 29.084 153.97 29.5607 153.987C29.9379 154 30.3372 153.907 30.7587 153.809C31.1593 153.715 31.5736 153.619 32.0338 153.59C33.4042 153.505 34.7252 153.309 36.1238 153.101L36.4912 153.046C38.6516 152.726 40.8834 152.58 43.0416 152.439C43.9413 152.381 44.8718 152.32 45.7739 152.248C46.1142 152.22 46.4604 152.186 46.8103 152.151C48.2113 152.012 49.6592 151.868 51.0781 152.118C51.5433 152.2 51.8536 152.644 51.7715 153.109C51.6892 153.574 51.2446 153.884 50.7808 153.802C49.594 153.593 48.2649 153.725 46.9796 153.853C46.6188 153.889 46.2616 153.924 45.9104 153.952C44.9958 154.025 44.0591 154.087 43.1532 154.146C41.0294 154.284 38.8333 154.428 36.7419 154.737L36.3756 154.792C35.003 154.996 33.5837 155.207 32.1405 155.297C31.8224 155.317 31.4945 155.393 31.1471 155.474C30.6933 155.58 30.1842 155.698 29.6293 155.698Z" fill="#0E0E0E"/>
<path d="M88.2366 152.128C88.1825 152.128 88.1276 152.123 88.0727 152.112C87.1176 151.927 86.0298 151.912 84.9777 151.897C84.3734 151.889 83.7486 151.88 83.148 151.84C82.5473 151.799 81.9563 151.704 81.3843 151.612C80.9055 151.535 80.453 151.462 80.0039 151.42C78.9657 151.324 77.8809 151.291 76.8322 151.259C76.0652 151.236 75.2722 151.211 74.4931 151.163C73.2613 151.086 71.9956 151.12 70.7721 151.152C69.8032 151.178 68.8006 151.204 67.8033 151.178C67.3971 151.167 66.9854 151.153 66.5699 151.139C64.1989 151.06 61.7474 150.979 59.5261 151.403C59.0616 151.493 58.6145 151.188 58.5258 150.724C58.437 150.26 58.7412 149.812 59.2051 149.723C61.6143 149.263 64.1622 149.348 66.6268 149.43C67.0385 149.444 67.4463 149.457 67.8488 149.468C68.8011 149.494 69.7802 149.468 70.727 149.443C71.9879 149.409 73.2916 149.375 74.5994 149.456C75.3518 149.503 76.1309 149.527 76.8844 149.55C77.9591 149.583 79.0706 149.617 80.1612 149.718C80.6678 149.764 81.1703 149.845 81.6564 149.924C82.2143 150.013 82.7414 150.098 83.2632 150.134C83.8181 150.171 84.3929 150.179 85.0012 150.188C86.1281 150.203 87.2937 150.219 88.3982 150.434C88.8618 150.524 89.1647 150.973 89.0747 151.436C88.9956 151.844 88.6376 152.128 88.2366 152.128Z" fill="#0E0E0E"/>
<path d="M45.5778 163.559C45.1548 163.559 44.7873 163.245 44.7309 162.814C44.67 162.346 44.9998 161.917 45.4681 161.856C48.1881 161.501 51.0913 161.137 54.051 160.933C54.8053 160.881 55.5583 160.882 56.2874 160.883C57.017 160.884 57.7074 160.884 58.4009 160.836C59.1221 160.787 59.8689 160.71 60.5914 160.636C61.8529 160.507 63.1575 160.373 64.4484 160.366C66.5023 160.355 68.5663 160.467 70.5666 160.576C72.003 160.654 73.4884 160.734 74.9424 160.767C76.7028 160.808 78.4614 160.951 80.162 161.089C80.8935 161.149 81.6256 161.208 82.3598 161.26C83.1763 161.318 84.0463 161.314 84.8864 161.309C85.3038 161.307 85.7196 161.304 86.1293 161.309C86.285 161.311 86.4423 161.305 86.6017 161.298C87.1641 161.276 87.8005 161.25 88.4268 161.507C88.8637 161.686 89.0727 162.186 88.8938 162.623C88.7149 163.059 88.2152 163.269 87.7785 163.09C87.4965 162.974 87.0945 162.99 86.6697 163.007C86.4874 163.014 86.2987 163.021 86.1086 163.019C85.7087 163.015 85.3028 163.017 84.8951 163.019C84.0222 163.024 83.1199 163.028 82.2388 162.966C81.4984 162.913 80.7603 162.853 80.0228 162.793C78.3468 162.657 76.6137 162.516 74.9032 162.477C73.4221 162.443 71.9233 162.362 70.4736 162.283C68.4981 162.176 66.454 162.066 64.4576 162.076C63.2494 162.082 61.9866 162.212 60.7656 162.337C60.0292 162.413 59.2676 162.491 58.5178 162.542C57.7649 162.594 57.0121 162.593 56.2853 162.593C55.5538 162.592 54.8635 162.591 54.1683 162.639C51.2566 162.839 48.3831 163.2 45.6892 163.552C45.6522 163.556 45.6148 163.559 45.5778 163.559Z" fill="#0E0E0E"/>
<path d="M28.4102 167.256C28.0607 167.256 27.7326 167.04 27.6065 166.692C27.4453 166.248 27.6745 165.758 28.1187 165.597C29.3522 165.149 30.6647 164.774 32.0194 164.48C32.261 164.428 32.5139 164.332 32.7813 164.23C33.1664 164.083 33.6027 163.917 34.0946 163.853C34.567 163.792 34.9919 164.122 35.0531 164.59C35.114 165.058 34.784 165.487 34.3158 165.549C34.0236 165.587 33.7158 165.704 33.3903 165.828C33.075 165.948 32.749 166.072 32.3811 166.152C31.1014 166.429 29.8635 166.783 28.7018 167.205C28.6056 167.239 28.5071 167.256 28.4102 167.256Z" fill="#0E0E0E"/>
<path d="M38.9739 175.586C38.6245 175.586 38.2963 175.37 38.1702 175.023C38.0091 174.579 38.2382 174.088 38.6822 173.927C40.0305 173.438 41.4152 173.24 42.7543 173.049C43.2041 172.985 43.669 172.919 44.1205 172.843C46.1111 172.508 48.1273 172.27 50.0767 172.04C51.0486 171.925 52.0535 171.806 53.0415 171.677C58.959 170.904 64.912 171.03 70.1637 171.141C74.3383 171.229 78.3073 171.611 82.5088 172.016L83.7238 172.133C84.342 172.192 84.9757 172.239 85.5892 172.283C87.0391 172.389 88.5384 172.499 90.0214 172.787C90.485 172.877 90.7877 173.326 90.6977 173.79C90.6078 174.253 90.1597 174.556 89.6954 174.466C88.3122 174.197 86.929 174.096 85.4644 173.989C84.8419 173.943 84.1981 173.896 83.5611 173.835L82.3451 173.719C78.1763 173.317 74.2385 172.937 70.1283 172.85C64.9366 172.741 59.0526 172.617 53.2637 173.373C52.2651 173.503 51.2549 173.623 50.2778 173.738C48.3489 173.965 46.3542 174.201 44.4048 174.529C43.9324 174.609 43.4563 174.677 42.9961 174.742C41.6856 174.929 40.4478 175.106 39.2663 175.535C39.1693 175.569 39.0708 175.586 38.9739 175.586Z" fill="#0E0E0E"/>
<path d="M91.0426 182.008C90.7117 182.008 90.3855 181.855 90.1765 181.566C89.83 181.088 89.9366 180.42 90.4143 180.074C96.7068 175.512 110.103 173.153 130.23 173.062C142.369 173.009 153.416 173.833 157.148 174.147C156.541 169.6 154.421 154.015 151.83 138.323C150.033 127.438 148.364 118.635 146.871 112.159C144.285 100.945 142.876 99.6529 142.619 99.5078C142.09 99.2466 141.874 98.6064 142.135 98.0771C142.396 97.5479 143.038 97.3307 143.568 97.5923C144.753 98.177 146.314 100.284 148.908 111.482C150.416 117.988 152.099 126.846 153.912 137.811C156.995 156.459 159.418 175.005 159.442 175.191C159.484 175.513 159.377 175.838 159.151 176.072C158.925 176.306 158.605 176.424 158.28 176.392C157.758 176.342 105.902 171.487 91.6689 181.804C91.4795 181.942 91.2602 182.008 91.0426 182.008Z" fill="#0E0E0E"/>
<path d="M94.6856 102.481C94.3446 102.481 94.0097 102.318 93.8025 102.016C93.4691 101.529 93.5937 100.863 94.0809 100.53C95.1892 99.7715 96.8366 99.6116 100.446 99.2612C101.649 99.1445 103.147 98.999 104.908 98.8036C105.498 98.738 106.023 99.1614 106.088 99.7477C106.153 100.334 105.73 100.863 105.144 100.928C103.368 101.125 101.862 101.271 100.652 101.389C97.6155 101.683 95.9426 101.846 95.2879 102.294C95.1037 102.42 94.8936 102.481 94.6856 102.481Z" fill="#0E0E0E"/>
<path d="M143.074 99.7207C142.79 99.7207 142.507 99.6085 142.297 99.386C140.979 97.9913 133.636 98.034 131.753 98.5568C131.185 98.7146 130.595 98.382 130.437 97.8132C130.279 97.2444 130.612 96.6553 131.181 96.4973C132.146 96.2291 134.685 96.0127 137.262 96.1145C140.629 96.2477 142.845 96.8545 143.851 97.9182C144.256 98.3472 144.237 99.0235 143.808 99.429C143.601 99.6239 143.338 99.7207 143.074 99.7207Z" fill="#0E0E0E"/>
<path d="M84.9462 92.7165C84.8331 92.7165 84.7183 92.7 84.6044 92.6656C82.1112 91.9091 77.6952 88.9563 73.4494 84.0648C70.0441 80.1416 65.6592 73.7031 64.1071 65.3105C63.9889 64.672 64.4109 64.0588 65.0494 63.9408C65.6889 63.8224 66.3009 64.2448 66.4191 64.883C69.1066 79.4155 81.1593 89.1633 85.2869 90.4156C85.9083 90.6042 86.2592 91.2608 86.0705 91.882C85.9168 92.3894 85.4504 92.7165 84.9462 92.7165Z" fill="#0E0E0E"/>
<path d="M45.2965 94.2344C41.9254 94.2344 38.9211 94.0232 36.3358 93.7167C26.0692 92.4996 20.1551 89.6355 19.9082 89.5141C19.5375 89.3318 19.3847 88.8835 19.5671 88.5127C19.7494 88.1418 20.1974 87.989 20.5687 88.1715C20.6269 88.2 26.5514 91.0608 36.587 92.2397C45.8455 93.3275 60.6006 93.165 78.3133 86.214C78.6981 86.0631 79.1322 86.2527 79.2829 86.6372C79.4338 87.0217 79.2444 87.4559 78.8598 87.607C65.7606 92.7476 54.2399 94.2344 45.2965 94.2344Z" fill="#0E0E0E"/>
<path d="M93.118 76.6304C92.1632 76.6304 91.1959 76.5479 90.2229 76.3805C85.7242 75.6074 81.654 73.1148 78.7619 69.3617C75.8685 65.6086 74.4939 61.0375 74.8917 56.4906C75.2922 51.9103 77.4394 47.9028 80.9372 45.2067C88.1292 39.6626 98.8564 41.4778 104.85 49.2527C110.843 57.0284 109.866 67.8642 102.673 73.4074C99.9267 75.5246 96.6099 76.6304 93.118 76.6304ZM90.5113 44.1301C87.5664 44.1301 84.6694 45.0287 82.2422 46.8997C79.2231 49.2266 77.3688 52.6988 77.0208 56.6767C76.6701 60.688 77.8895 64.7295 80.4546 68.0567C83.0188 71.384 86.6162 73.5919 90.5848 74.274C94.5208 74.9505 98.3496 74.0414 101.368 71.7145C107.627 66.8905 108.43 57.3994 103.157 50.5576C99.9288 46.3693 95.1602 44.1301 90.5113 44.1301Z" fill="#0E0E0E"/>
<path d="M87.0576 59.7406C88.9109 58.3121 91.6725 58.7866 93.2244 60.8004C94.7762 62.8142 94.5326 65.6047 92.6794 67.0332C90.8261 68.4617 88.0644 67.9872 86.5126 65.9734C84.9607 63.9597 85.2044 61.1693 87.0576 59.7406Z" fill="#0E0E0E"/>
<path d="M90.2326 68.9275C89.9255 68.9275 89.6145 68.901 89.302 68.8473C87.8722 68.6017 86.5809 67.8125 85.666 66.6256C83.757 64.1484 84.0887 60.68 86.4052 58.8939C87.5408 58.0184 88.9711 57.6744 90.4353 57.926C91.8651 58.1718 93.1564 58.9608 94.0712 60.1478C95.9805 62.6254 95.6489 66.0938 93.3321 67.8795C92.4388 68.568 91.3628 68.9275 90.2326 68.9275ZM87.7103 60.5868C86.3269 61.6532 86.1696 63.7769 87.3593 65.3208C87.9457 66.0818 88.7641 66.586 89.664 66.7406C90.5312 66.8896 91.3698 66.6929 92.0269 66.1865C93.4105 65.1201 93.5678 62.9967 92.3781 61.4525C91.7917 60.6916 90.9733 60.1873 90.0732 60.0328C89.2077 59.884 88.3672 60.0805 87.7103 60.5868Z" fill="#0E0E0E"/>
<path d="M111.795 72.5613C111.359 72.5613 110.949 72.2922 110.791 71.8585C109.985 69.6468 108.013 67.9092 106.398 67.9825C105.804 68.014 105.308 67.5537 105.281 66.964C105.254 66.3745 105.71 65.8743 106.3 65.8471C108.859 65.7296 111.658 67.9981 112.799 71.1258C113.002 71.6803 112.716 72.2937 112.162 72.4962C112.041 72.5402 111.917 72.5613 111.795 72.5613Z" fill="#0E0E0E"/>
<path d="M95.5508 91.9542C94.5064 91.9542 93.3434 91.6904 92.0829 91.0269C87.757 88.7507 87.9694 83.7285 88.6861 81.3911C88.7855 81.0673 89.0322 80.8097 89.3516 80.6969C89.6709 80.584 90.0249 80.6291 90.3056 80.8185L100.474 87.678C100.959 88.0051 101.09 88.6611 100.77 89.1502C99.995 90.3318 98.1394 91.9542 95.5508 91.9542ZM90.4605 83.5013C90.304 85.1628 90.5219 87.7903 93.0786 89.1354C95.6132 90.4694 97.3575 89.5646 98.2679 88.7682L90.4605 83.5013Z" fill="#0E0E0E"/>
<path d="M122.233 99.6755C117.385 99.6759 112.474 97.4001 109.17 93.1156C103.695 86.0113 104.686 76.0339 111.38 70.8746C114.632 68.3675 118.725 67.3594 122.905 68.0368C127.06 68.7099 130.804 70.9703 133.448 74.4017C136.094 77.8327 137.327 82.0295 136.92 86.2186C136.511 90.4332 134.494 94.1352 131.241 96.6425C128.585 98.6894 125.422 99.6752 122.233 99.6755ZM120.38 69.9693C117.57 69.9693 114.897 70.8617 112.685 72.5675C106.925 77.0076 106.107 85.6398 110.863 91.8106C115.62 97.9804 124.176 99.3888 129.936 94.9494C132.717 92.8065 134.441 89.6325 134.793 86.0119C135.147 82.3657 134.068 78.7058 131.756 75.7069C129.444 72.7073 126.18 70.7328 122.563 70.1469C121.831 70.0281 121.101 69.9693 120.38 69.9693Z" fill="#0E0E0E"/>
<path d="M115.874 83.8061C117.727 82.3776 120.489 82.8519 122.041 84.8657C123.592 86.8794 123.349 89.67 121.495 91.0985C119.642 92.527 116.883 92.0527 115.329 90.0389C113.777 88.0252 114.021 85.2346 115.874 83.8061Z" fill="#0E0E0E"/>
<path d="M119.044 92.9882C117.356 92.9882 115.639 92.1907 114.482 90.6917C112.572 88.2136 112.904 84.7453 115.221 82.9594C116.357 82.0836 117.788 81.7399 119.251 81.9915C120.681 82.2371 121.972 83.0261 122.887 84.213C124.796 86.6904 124.465 90.1588 122.148 91.9447C121.234 92.6492 120.145 92.988 119.044 92.9882ZM118.328 84.0497C117.665 84.0497 117.04 84.2564 116.526 84.6523C115.143 85.7187 114.985 87.8423 116.175 89.3863C117.365 90.9292 119.46 91.3175 120.843 90.2518C122.226 89.1853 122.384 87.0617 121.194 85.5178C120.608 84.7568 119.789 84.2528 118.889 84.098C118.7 84.0655 118.513 84.0497 118.328 84.0497Z" fill="#0E0E0E"/>
<path d="M82.1282 45.7265C81.5491 45.7265 81.0733 45.264 81.06 44.6823L80.6643 27.4496C80.6509 26.8594 81.1184 26.3701 81.7085 26.3566C82.304 26.3457 82.788 26.8106 82.8015 27.4006L83.1971 44.6334C83.2106 45.2236 82.7431 45.7128 82.1529 45.7263C82.1448 45.7263 82.1363 45.7265 82.1282 45.7265Z" fill="#0E0E0E"/>
<path d="M62.793 58.9828C62.3475 58.9828 61.9215 58.7283 61.7236 58.2967C59.2315 52.8592 59.2819 45.5993 61.8658 37.8538C64.3175 30.5036 68.7922 23.6563 74.1424 19.0676C74.6358 18.6446 75.3775 18.7017 75.8003 19.1946C76.2231 19.6875 76.1663 20.4297 75.6734 20.8523C70.6369 25.172 66.4172 31.6397 64.0962 38.5978C61.7018 45.7757 61.6182 52.4236 63.8611 57.3171C64.1318 57.9072 63.8725 58.6051 63.2823 58.8758C63.1235 58.9484 62.957 58.9828 62.793 58.9828Z" fill="#0E0E0E"/>
<path d="M20.3827 69.2817C20.3547 69.2817 20.3286 69.2815 20.3036 69.281C19.8904 69.2744 19.5609 68.9343 19.5675 68.5211C19.5741 68.1082 19.9199 67.7788 20.3276 67.785C20.3511 67.7854 20.3767 67.7854 20.4032 67.7854C24.2955 67.7854 57.902 63.7205 63.3897 60.4113C63.743 60.198 64.2032 60.3115 64.4167 60.6657C64.6301 61.0195 64.5164 61.4793 64.1626 61.6926C58.3167 65.2178 24.3735 69.2817 20.3827 69.2817Z" fill="#0E0E0E"/>
</svg>
