<svg width="242" height="200" viewBox="0 0 242 200" fill="none" xmlns="http://www.w3.org/2000/svg">
<path d="M196.588 182.641L228.638 152.136L240.463 149.869L238.696 162.738C238.696 162.738 211.159 191.117 207.703 192.073C204.246 193.029 196.565 184.005 196.588 182.641Z" fill="#FFD3AC"/>
<path d="M113.296 113.087C113.296 113.087 98.9111 127.704 100.807 127.943C98.9111 127.704 102.703 128.179 100.807 127.943C102.703 128.179 190.089 131.563 190.089 131.563L208.555 113.16L206.58 112.135L192.399 122.419L113.296 113.087Z" fill="#FFAE79"/>
<path d="M103.845 141.138C101.466 143.837 99.2041 145.027 106.767 145.785C114.33 146.542 191.604 148.397 191.604 148.397C191.604 148.397 215.975 123.564 217.107 122.009C218.24 120.452 214.71 113.021 214.71 113.021L215.227 120.034L189.555 145.877L104.994 143.058L103.845 141.138Z" fill="#FFAE79"/>
<path d="M123.378 94.2952L186.546 93.5675C186.546 93.5675 183.684 82.1808 185.399 79.1843C185.929 78.2548 188.611 76.677 190.218 75.1991C193.797 71.903 197.33 68.3643 197.33 68.3643L137.202 70.0643L122.163 79.7286C122.163 79.7286 119.009 89.35 123.378 94.2952Z" fill="#FFE8CC"/>
<path d="M185.982 92.6154L196.818 80.2544C196.818 80.2544 198.973 77.3965 200.449 79.1658C201.924 80.9352 187.219 94.3848 187.219 94.3848L185.982 92.6154Z" fill="#FFE8CC"/>
<path d="M185.457 89.8976C185.329 89.8976 185.201 89.8578 185.091 89.7751C184.82 89.5722 184.766 89.1888 184.969 88.9189C185.998 87.5474 187.138 86.2934 188.24 85.0805C188.626 84.6553 189.013 84.2285 189.399 83.7941C189.785 83.3603 190.17 82.9251 190.554 82.4895C192.115 80.7221 193.728 78.8945 195.423 77.1981C195.662 76.959 196.049 76.9586 196.288 77.1977C196.527 77.4364 196.527 77.8235 196.288 78.0624C194.62 79.7321 193.019 81.5455 191.471 83.2989C191.085 83.7356 190.7 84.1718 190.313 84.6064C189.925 85.0438 189.534 85.4744 189.145 85.9026C188.012 87.1495 186.942 88.3273 185.947 89.6527C185.827 89.8132 185.643 89.8976 185.457 89.8976Z" fill="#0E0E0E"/>
<path d="M184.945 86.6976C184.72 86.6976 184.504 86.5735 184.397 86.3588C184.246 86.0567 184.369 85.6894 184.671 85.5388C185.05 85.3498 185.337 84.9342 185.64 84.4941C185.83 84.2181 186.027 83.9327 186.265 83.6734C186.385 83.5421 186.513 83.438 186.626 83.346C186.674 83.3075 186.722 83.2686 186.768 83.2278C187.022 83.0046 187.408 83.029 187.631 83.2828C187.855 83.5366 187.83 83.9229 187.576 84.1459C187.518 84.1973 187.458 84.2462 187.398 84.2949C187.309 84.3669 187.226 84.435 187.166 84.4998C186.986 84.6969 186.821 84.9358 186.647 85.1886C186.287 85.7112 185.878 86.3038 185.217 86.6334C185.13 86.677 185.036 86.6976 184.945 86.6976Z" fill="#0E0E0E"/>
<path d="M191.913 78.8726C191.796 78.8726 191.679 78.8394 191.574 78.7699C191.293 78.5823 191.217 78.2028 191.405 77.9217C191.954 77.0983 192.707 76.4876 193.434 75.8969C193.842 75.5661 194.227 75.2536 194.567 74.9136C194.806 74.6746 195.193 74.6746 195.432 74.9136C195.671 75.1523 195.671 75.5393 195.432 75.7782C195.047 76.1633 194.619 76.5107 194.205 76.8464C193.518 77.4043 192.869 77.931 192.422 78.6003C192.305 78.7772 192.111 78.8726 191.913 78.8726Z" fill="#0E0E0E"/>
<path d="M191.818 110.58C191.589 110.58 191.37 110.45 191.265 110.23C191.12 109.925 191.251 109.56 191.556 109.415C192.54 108.948 193.517 108.331 194.463 107.733C195.163 107.29 195.887 106.832 196.62 106.431C200.641 104.225 204.584 101.93 208.338 99.6099C208.625 99.4325 209.002 99.5212 209.18 99.8087C209.357 100.096 209.268 100.473 208.981 100.65C205.209 102.982 201.248 105.287 197.208 107.503C196.508 107.887 195.801 108.334 195.116 108.767C194.14 109.383 193.131 110.021 192.08 110.52C191.995 110.56 191.906 110.58 191.818 110.58Z" fill="#0E0E0E"/>
<path d="M213.175 97.3334C212.946 97.3334 212.726 97.2039 212.622 96.9832C212.478 96.678 212.608 96.3134 212.913 96.1688C213.974 95.6668 214.987 94.9933 215.968 94.342C216.333 94.0988 216.7 93.8554 217.069 93.6195C217.354 93.4379 217.732 93.5213 217.914 93.8059C218.096 94.0904 218.012 94.4688 217.727 94.6504C217.364 94.8826 217.004 95.1217 216.644 95.3606C215.628 96.0359 214.577 96.7343 213.436 97.2745C213.352 97.3144 213.263 97.3334 213.175 97.3334Z" fill="#0E0E0E"/>
<path d="M172.552 94.5033C172.316 94.5033 172.091 94.3657 171.991 94.1351C170.766 91.3164 169.503 82.9088 170.879 79.4223C171.003 79.1082 171.358 78.9541 171.673 79.078C171.987 79.2019 172.141 79.5572 172.017 79.8716C170.767 83.0399 171.985 91.054 173.113 93.6479C173.247 93.9578 173.105 94.3178 172.796 94.4523C172.716 94.487 172.633 94.5033 172.552 94.5033Z" fill="#0E0E0E"/>
<path d="M177.435 94.4436C177.217 94.4436 177.006 94.3268 176.896 94.1211C176.233 92.8872 174.342 82.7238 175.336 79.4291C175.433 79.106 175.774 78.9231 176.098 79.0201C176.421 79.1176 176.604 79.4586 176.507 79.7821C175.615 82.7405 177.432 92.5348 177.973 93.5426C178.133 93.8402 178.021 94.2108 177.724 94.3708C177.632 94.4201 177.533 94.4436 177.435 94.4436Z" fill="#0E0E0E"/>
<path d="M120.113 114.409C119.775 114.409 119.501 114.135 119.501 113.798C119.501 113.406 119.402 112.958 119.297 112.485C119.223 112.148 119.146 111.799 119.102 111.454C118.796 109.003 118.994 105.845 119.201 103.367C119.258 102.687 119.305 101.992 119.351 101.32C119.397 100.637 119.445 99.9312 119.503 99.2351C119.514 99.1028 119.54 98.976 119.568 98.8582C119.525 98.7748 119.501 98.6804 119.501 98.5806C119.501 98.2067 119.501 97.5809 120.042 97.4531C120.283 97.3956 120.599 97.4818 120.76 97.8031C120.982 98.2467 120.869 98.6949 120.787 99.0221C120.757 99.1401 120.729 99.2518 120.722 99.3364C120.665 100.024 120.617 100.725 120.571 101.403C120.525 102.08 120.477 102.78 120.42 103.469C120.218 105.888 120.024 108.964 120.316 111.302C120.352 111.59 120.42 111.896 120.491 112.221C120.606 112.738 120.724 113.272 120.724 113.798C120.724 114.135 120.45 114.409 120.113 114.409Z" fill="#0E0E0E"/>
<path d="M136.739 116.224C136.401 116.224 136.128 115.951 136.128 115.613C136.128 115.14 136.051 114.643 135.97 114.117C135.916 113.768 135.861 113.408 135.828 113.047C135.542 109.9 135.656 105.931 136.133 102.429C136.156 102.264 136.172 102.026 136.189 101.775C136.232 101.15 136.281 100.443 136.462 99.9005C136.569 99.5802 136.915 99.4069 137.236 99.5142C137.556 99.6214 137.729 99.9679 137.622 100.288C137.49 100.682 137.445 101.334 137.409 101.858C137.391 102.131 137.373 102.389 137.345 102.595C136.88 106.01 136.768 109.876 137.046 112.936C137.075 113.259 137.126 113.585 137.179 113.93C137.263 114.479 137.351 115.046 137.351 115.613C137.351 115.951 137.077 116.224 136.739 116.224Z" fill="#0E0E0E"/>
<path d="M192.654 102.901C192.63 102.901 192.605 102.9 192.58 102.897L152.967 98.0737L131.767 95.4195C131.432 95.3775 131.195 95.0719 131.237 94.7366C131.279 94.4015 131.585 94.1648 131.919 94.2058L153.117 96.86L192.727 101.683C193.063 101.724 193.301 102.028 193.261 102.364C193.223 102.674 192.959 102.901 192.654 102.901Z" fill="#0E0E0E"/>
<path d="M189.788 136.558C189.78 136.558 104.622 135.574 104.622 135.574C104.285 135.57 104.014 135.293 104.018 134.955C104.022 134.617 104.295 134.347 104.637 134.351L189.795 135.335C190.132 135.339 190.403 135.616 190.399 135.953C190.395 136.289 190.122 136.558 189.788 136.558Z" fill="#0E0E0E"/>
<path d="M109.207 122.297C109.077 122.297 108.946 122.256 108.835 122.17C108.567 121.964 108.517 121.58 108.723 121.313C110.752 118.678 112.986 116.308 115.363 114.267C115.494 114.154 115.654 114 115.823 113.837C116.167 113.505 116.558 113.129 116.939 112.872C117.219 112.683 117.599 112.757 117.787 113.037C117.976 113.318 117.902 113.698 117.622 113.886C117.33 114.084 116.98 114.42 116.672 114.717C116.49 114.893 116.318 115.059 116.16 115.195C113.845 117.181 111.67 119.491 109.692 122.059C109.572 122.215 109.39 122.297 109.207 122.297Z" fill="#0E0E0E"/>
<path d="M105.484 126.51C105.353 126.51 105.222 126.468 105.111 126.383C104.843 126.176 104.794 125.792 105 125.525C105.101 125.394 105.165 125.308 105.211 125.246C105.357 125.049 105.388 125.016 105.582 124.851C105.633 124.808 105.701 124.75 105.796 124.667C106.05 124.445 106.436 124.472 106.658 124.726C106.881 124.98 106.854 125.367 106.6 125.589C106.5 125.676 106.429 125.737 106.375 125.782C106.269 125.872 106.269 125.872 106.193 125.975C106.144 126.041 106.075 126.133 105.969 126.272C105.848 126.428 105.667 126.51 105.484 126.51Z" fill="#0E0E0E"/>
<path d="M201.293 121.444C201.109 121.444 200.927 121.362 200.807 121.205C200.469 120.763 200.226 120.272 199.991 119.796C199.819 119.447 199.653 119.112 199.461 118.819C199.339 118.757 199.237 118.654 199.179 118.519C199.17 118.5 199.156 118.474 199.143 118.447C198.887 117.947 199.077 117.674 199.281 117.534C199.534 117.359 199.89 117.411 200.096 117.639C200.529 118.123 200.813 118.698 201.088 119.254C201.306 119.697 201.513 120.114 201.778 120.461C201.984 120.729 201.933 121.113 201.664 121.318C201.553 121.403 201.423 121.444 201.293 121.444Z" fill="#0E0E0E"/>
<path d="M202.833 119.612C202.695 119.612 202.555 119.566 202.441 119.47C202.02 119.117 201.735 118.672 201.458 118.241C201.329 118.039 201.206 117.848 201.077 117.677C200.872 117.409 200.924 117.025 201.193 116.82C201.462 116.616 201.846 116.668 202.05 116.937C202.209 117.146 202.351 117.367 202.488 117.58C202.725 117.95 202.949 118.3 203.226 118.532C203.485 118.749 203.519 119.135 203.302 119.394C203.181 119.538 203.008 119.612 202.833 119.612Z" fill="#0E0E0E"/>
<path d="M204.395 118.04C204.227 118.04 204.059 117.971 203.938 117.835C203.834 117.719 203.719 117.607 203.597 117.49C203.194 117.101 202.693 116.616 202.626 115.829C202.597 115.493 202.847 115.197 203.184 115.168C203.519 115.14 203.816 115.389 203.845 115.726C203.871 116.04 204.08 116.255 204.447 116.61C204.58 116.738 204.718 116.871 204.852 117.022C205.077 117.274 205.054 117.661 204.802 117.885C204.685 117.989 204.54 118.04 204.395 118.04Z" fill="#0E0E0E"/>
<path d="M205.343 116.285C205.16 116.285 204.98 116.204 204.859 116.048L204.676 115.81L204.39 115.526C204.335 115.472 204.291 115.407 204.26 115.335L204.162 115.109C204.028 114.799 204.171 114.439 204.48 114.305C204.79 114.171 205.15 114.314 205.285 114.624L205.336 114.742L205.566 114.971C205.585 114.99 205.603 115.009 205.619 115.031L205.827 115.299C206.033 115.567 205.984 115.951 205.717 116.157C205.606 116.243 205.474 116.285 205.343 116.285Z" fill="#0E0E0E"/>
<path d="M181.089 176.17C180.952 176.17 180.814 176.124 180.699 176.029C180.44 175.814 180.403 175.428 180.619 175.168C181.27 174.383 182.06 173.793 182.825 173.222C183.04 173.062 183.255 172.901 183.468 172.736C184.367 172.035 185.267 171.288 186.137 170.565C186.849 169.974 187.585 169.362 188.322 168.775C188.901 168.314 189.46 167.802 190 167.307C190.428 166.915 190.871 166.509 191.328 166.124C191.998 165.561 192.714 165.047 193.406 164.551C194.08 164.067 194.776 163.567 195.41 163.035C195.73 162.765 196.051 162.494 196.372 162.223C198.505 160.422 200.712 158.559 203.013 156.887C203.841 156.285 204.663 155.677 205.485 155.069C206.282 154.48 207.079 153.89 207.88 153.307C208.162 153.103 208.45 152.899 208.741 152.693C209.969 151.824 211.239 150.926 212.158 149.818C212.373 149.558 212.759 149.522 213.019 149.737C213.279 149.953 213.315 150.338 213.1 150.598C212.078 151.831 210.741 152.777 209.447 153.691C209.161 153.894 208.877 154.095 208.6 154.296C207.801 154.878 207.007 155.465 206.213 156.052C205.388 156.662 204.562 157.272 203.732 157.876C201.467 159.521 199.278 161.37 197.161 163.157C196.84 163.429 196.519 163.7 196.197 163.97C195.528 164.533 194.812 165.047 194.119 165.544C193.446 166.027 192.749 166.527 192.116 167.059C191.679 167.428 191.245 167.824 190.826 168.208C190.271 168.717 189.696 169.244 189.085 169.731C188.358 170.311 187.626 170.918 186.919 171.506C186.041 172.234 185.134 172.988 184.22 173.7C184 173.871 183.778 174.037 183.557 174.203C182.817 174.754 182.119 175.276 181.561 175.948C181.439 176.094 181.265 176.17 181.089 176.17Z" fill="#0E0E0E"/>
<path d="M203.901 143.703C203.625 143.703 203.374 143.514 203.307 143.233C203.185 142.725 203.272 142.323 203.356 141.935C203.369 141.873 203.383 141.81 203.396 141.744C203.437 141.537 203.479 141.329 203.522 141.121C203.632 140.579 203.747 140.02 203.829 139.471C203.862 139.256 203.898 139.021 203.937 138.771C204.13 137.534 204.369 135.994 204.447 134.768C204.468 134.431 204.761 134.179 205.096 134.196C205.433 134.218 205.689 134.508 205.668 134.845C205.586 136.127 205.342 137.697 205.145 138.959C205.107 139.207 205.07 139.44 205.038 139.654C204.951 140.233 204.833 140.808 204.72 141.365C204.678 141.571 204.636 141.776 204.595 141.982C204.58 142.055 204.565 142.124 204.551 142.192C204.477 142.533 204.441 142.721 204.496 142.948C204.575 143.277 204.372 143.607 204.044 143.685C203.996 143.697 203.948 143.703 203.901 143.703Z" fill="#0E0E0E"/>
<path d="M205.78 141.833C205.762 141.833 205.744 141.832 205.727 141.831C205.39 141.802 205.141 141.506 205.17 141.169C205.242 140.324 205.335 139.476 205.425 138.657C205.471 138.24 205.517 137.823 205.56 137.404L205.794 135.154C205.814 134.972 205.832 134.791 205.85 134.611C205.882 134.291 205.914 133.972 205.951 133.652C205.952 133.648 205.952 133.644 205.953 133.639C205.962 133.549 205.995 133.428 206.013 133.364C206.104 133.046 206.43 132.859 206.75 132.94C207.07 133.02 207.268 133.34 207.198 133.662C207.198 133.662 207.178 133.754 207.163 133.822C207.128 134.123 207.097 134.428 207.067 134.732C207.048 134.915 207.03 135.098 207.011 135.281L206.777 137.529C206.733 137.952 206.687 138.371 206.641 138.79C206.552 139.603 206.46 140.443 206.388 141.274C206.361 141.593 206.094 141.833 205.78 141.833Z" fill="#0E0E0E"/>
<path d="M208.047 140.341C208.033 140.341 208.02 140.341 208.006 140.34C207.669 140.318 207.414 140.027 207.436 139.69C207.458 139.351 207.497 139.015 207.535 138.691C207.556 138.516 207.577 138.341 207.594 138.166L207.679 137.325C207.813 136.004 207.952 134.637 208.054 133.293C208.063 133.183 208.062 133.065 208.06 132.939C208.058 132.704 208.055 132.437 208.118 132.158C208.193 131.829 208.521 131.621 208.85 131.697C209.18 131.772 209.386 132.1 209.311 132.429C209.279 132.568 209.281 132.742 209.283 132.926C209.285 133.074 209.287 133.226 209.273 133.389C209.17 134.745 209.031 136.119 208.896 137.448L208.811 138.288C208.793 138.471 208.772 138.653 208.75 138.834C208.712 139.157 208.676 139.463 208.656 139.77C208.635 140.093 208.366 140.341 208.047 140.341Z" fill="#0E0E0E"/>
<path d="M210.729 137.889C210.716 137.889 210.703 137.888 210.69 137.887C210.353 137.866 210.097 137.575 210.118 137.238C210.148 136.774 210.145 136.318 210.143 135.835C210.14 135.229 210.136 134.602 210.202 133.965C210.237 133.629 210.539 133.385 210.873 133.419C211.209 133.454 211.453 133.755 211.419 134.09C211.36 134.662 211.363 135.228 211.366 135.828C211.368 136.311 211.371 136.809 211.339 137.315C211.318 137.639 211.049 137.889 210.729 137.889Z" fill="#0E0E0E"/>
<path d="M122.723 83.5751C122.392 83.5751 122.12 83.3105 122.112 82.9776C122.104 82.6401 122.372 82.36 122.709 82.3522L163.614 81.4025C163.619 81.4023 163.624 81.4023 163.628 81.4023C163.96 81.4023 164.232 81.6669 164.239 81.9998C164.247 82.3374 163.98 82.6175 163.642 82.6252L122.738 83.5749C122.733 83.5751 122.728 83.5751 122.723 83.5751Z" fill="#0E0E0E"/>
<path d="M215.038 119.853C214.712 119.853 214.397 119.696 214.201 119.416C211.619 115.707 201.446 109.807 198.963 109.424C198.406 109.339 198.025 108.818 198.11 108.262C198.196 107.706 198.717 107.324 199.273 107.41C201.832 107.804 209.22 112 213.457 115.7L212.974 112.934C212.914 112.588 213.036 112.235 213.298 112C213.559 111.765 213.923 111.682 214.262 111.78C214.415 111.825 214.954 111.984 215.668 112.23C212.753 109.187 208.896 105.736 206.126 105.112C205.577 104.989 205.232 104.443 205.356 103.894C205.48 103.345 206.024 103 206.574 103.124C212.279 104.409 220.336 114.392 220.677 114.816C221.014 115.237 220.965 115.847 220.566 116.209C220.167 116.571 219.555 116.56 219.17 116.183C218.51 115.54 216.792 114.795 215.273 114.252L216.042 118.658C216.124 119.129 215.868 119.594 215.426 119.776C215.3 119.828 215.168 119.853 215.038 119.853Z" fill="#0E0E0E"/>
<path d="M186.878 94.5357C186.697 94.5357 186.514 94.4878 186.349 94.3871C185.21 93.6942 184.414 91.889 183.983 89.0221C183.515 85.9053 183.51 80.7789 184.965 79.1396C186.659 77.2355 196.15 68.7492 196.553 68.389C196.972 68.014 197.617 68.0504 197.992 68.4698C198.367 68.8897 198.331 69.534 197.911 69.9091C197.813 69.9966 188.105 78.6768 186.489 80.4937C185.821 81.2463 185.453 85.084 185.999 88.7196C186.4 91.3859 187.074 92.4422 187.409 92.646C187.89 92.9387 188.042 93.5658 187.75 94.0464C187.557 94.3616 187.222 94.5357 186.878 94.5357Z" fill="#0E0E0E"/>
<path d="M186.462 92.4438C186.165 92.4438 185.872 92.3154 185.67 92.0677C185.315 91.6309 185.381 90.989 185.818 90.6339C187.073 89.6126 193.072 82.7857 195.697 79.7586C195.283 78.0763 194.132 73.2093 194.227 71.3966C194.256 70.8344 194.739 70.402 195.298 70.4322C195.86 70.4617 196.292 70.9412 196.262 71.5034C196.184 73.0061 197.347 77.9838 197.802 79.7749C197.884 80.0978 197.803 80.4405 197.585 80.6924C196.691 81.727 188.796 90.839 187.104 92.2153C186.915 92.369 186.688 92.4438 186.462 92.4438Z" fill="#0E0E0E"/>
<path d="M123.765 95.9209C123.093 95.9209 122.148 95.6002 121.387 94.1093C119.696 90.793 119.398 81.7553 121.35 79.1612C123.416 76.4144 135.292 70.2571 136.639 69.5643C136.774 69.495 136.922 69.4566 137.074 69.4519L196.968 67.5766C196.979 67.5764 196.989 67.5762 197 67.5762C197.548 67.5762 198.001 68.0118 198.018 68.5636C198.036 69.1262 197.594 69.5965 197.032 69.614L137.368 71.482C132.235 74.133 124.315 78.6112 122.98 80.3867C121.719 82.0625 121.642 90.1217 123.203 93.1832C123.497 93.7593 123.725 93.8826 123.767 93.8826C126.609 93.8345 181.433 93.0956 186.767 93.0236C191.54 88.2816 198.107 81.5397 199.519 79.6468C198.989 79.6323 198.164 79.7143 197.451 79.871C196.901 79.9913 196.358 79.6439 196.237 79.0942C196.116 78.5444 196.464 78.0007 197.014 77.8799C198.602 77.5307 200.667 77.3295 201.482 78.3505C201.665 78.5799 202.043 79.2136 201.606 80.145C200.735 81.9924 190.045 92.6445 187.911 94.761C187.723 94.9471 187.471 95.0531 187.206 95.0566C186.603 95.0645 126.77 95.8703 123.803 95.9207C123.79 95.9207 123.778 95.9209 123.765 95.9209Z" fill="#0E0E0E"/>
<path d="M121.679 81.5078C121.123 81.5078 120.669 81.0618 120.66 80.5043C120.651 79.9415 121.101 79.4782 121.663 79.4696L185.976 78.4748C185.982 78.4746 185.987 78.4746 185.992 78.4746C186.548 78.4746 187.003 78.9206 187.011 79.4782C187.02 80.041 186.571 80.5043 186.008 80.5128L121.695 81.5076C121.689 81.5078 121.684 81.5078 121.679 81.5078Z" fill="#0E0E0E"/>
<path d="M191.431 107.133C191.414 107.133 191.397 107.132 191.381 107.131C189.336 107.025 117.219 98.8869 114.15 98.5404C113.723 98.4921 113.372 98.1808 113.273 97.7625C113.174 97.344 113.348 96.9084 113.708 96.6736L120.792 92.0585C121.264 91.7513 121.895 91.8847 122.202 92.3562C122.51 92.8277 122.376 93.4592 121.905 93.7666L117.198 96.8328C143.52 99.8018 189.075 104.917 191.432 105.092C193.555 104.66 210.145 94.1526 216.412 90.1836C217.468 89.5148 218.358 88.9513 219.055 88.5127C215.345 87.7368 205.977 86.5962 197.349 85.7694C196.789 85.7156 196.378 85.2177 196.432 84.6576C196.485 84.0972 196.984 83.6863 197.543 83.7401C197.603 83.7458 203.515 84.3141 209.384 85.0259C212.841 85.445 215.609 85.8313 217.613 86.1744C221.396 86.822 222.095 87.2046 222.274 88.0255C222.381 88.5186 222.147 89.0133 221.676 89.2859C221.25 89.5331 219.678 90.5285 217.503 91.9061C197.425 104.621 192.748 107.132 191.431 107.133Z" fill="#0E0E0E"/>
<path d="M192.201 123.791C192.16 123.791 192.118 123.789 192.077 123.784L113.879 114.162C113.507 114.117 113.19 113.871 113.054 113.522C112.103 111.089 112.138 98.7477 113.392 96.7172C113.688 96.2384 114.316 96.0896 114.795 96.3858C115.274 96.6816 115.422 97.3092 115.127 97.7882C114.371 99.0749 114.201 109.207 114.802 112.222L191.014 121.599C190.439 117.216 189.369 107.895 190.369 105.814C190.613 105.306 191.222 105.092 191.729 105.336C192.237 105.58 192.45 106.189 192.207 106.696C191.62 107.917 192.257 115.757 193.211 122.632C193.254 122.946 193.15 123.262 192.927 123.487C192.735 123.683 192.472 123.791 192.201 123.791Z" fill="#0E0E0E"/>
<path d="M213.844 109.07C213.522 109.07 213.206 108.918 213.008 108.634C212.685 108.172 212.798 107.537 213.26 107.215C218.28 103.71 221.839 101.219 223.474 100.068C222.671 99.8951 221.527 99.733 220.421 99.6511C219.86 99.6095 219.438 99.1207 219.48 98.5595C219.522 97.9979 220.01 97.5745 220.572 97.6184C225.818 98.0071 226.109 99.0243 226.249 99.5133C226.325 99.7805 226.417 100.464 225.625 101.042C224.864 101.596 217.54 106.712 214.426 108.886C214.249 109.01 214.046 109.07 213.844 109.07Z" fill="#0E0E0E"/>
<path d="M192.765 123.77C192.443 123.77 192.126 123.618 191.928 123.334C191.606 122.872 191.719 122.237 192.181 121.915C192.181 121.915 198.82 117.288 206.081 112.224C206.543 111.902 207.178 112.016 207.5 112.477C207.822 112.939 207.709 113.574 207.247 113.896C199.986 118.96 193.347 123.587 193.347 123.587C193.169 123.711 192.966 123.77 192.765 123.77Z" fill="#0E0E0E"/>
<path d="M192.055 120.839C191.794 120.839 191.538 120.714 191.38 120.482C191.127 120.11 191.223 119.603 191.595 119.349L203.918 110.957C204.29 110.703 204.797 110.8 205.051 111.172C205.304 111.544 205.208 112.052 204.836 112.305L192.513 120.697C192.373 120.793 192.213 120.839 192.055 120.839Z" fill="#0E0E0E"/>
<path d="M211.524 107.782C211.198 107.782 210.878 107.626 210.681 107.336C210.364 106.871 210.484 106.237 210.95 105.92L219.18 100.315C217.948 97.5088 217.974 91.6713 218.224 90.1953C218.317 89.6402 218.844 89.2662 219.398 89.3602C219.954 89.4539 220.327 89.9799 220.234 90.5349C219.895 92.5371 220.26 98.7747 221.301 99.945C221.496 100.164 221.587 100.456 221.551 100.747C221.515 101.039 221.355 101.3 221.113 101.465L212.097 107.605C211.921 107.724 211.722 107.782 211.524 107.782Z" fill="#0E0E0E"/>
<path d="M191.085 114.021C190.812 114.021 190.545 113.884 190.391 113.634C190.154 113.251 190.272 112.749 190.655 112.512C193.405 110.812 217.56 95.8858 218.866 95.2847C219.275 95.0967 219.759 95.2755 219.947 95.6846C220.136 96.0937 219.957 96.5781 219.547 96.7662C218.621 97.1939 202.274 107.246 191.513 113.899C191.379 113.982 191.231 114.021 191.085 114.021Z" fill="#0E0E0E"/>
<path d="M186.755 132.605C178.744 132.605 159.232 132.005 144.896 131.462C136.554 131.146 124.553 130.651 114.756 130.088C100.636 129.277 100.179 128.863 99.7751 128.498C99.5034 128.252 99.3729 127.893 99.4259 127.539C99.4869 127.133 99.6294 126.182 105.296 120.167C108.252 117.029 111.334 113.997 112.466 113.113C112.909 112.767 113.55 112.846 113.896 113.289C114.243 113.733 114.164 114.373 113.72 114.72C111.767 116.246 104.097 124.171 101.958 127.057C105.833 127.596 119.981 128.484 145.582 129.448C167.613 130.278 188.246 130.771 189.842 130.507C191.406 130.015 200.117 121.125 207.651 112.795C208.028 112.377 208.673 112.345 209.09 112.722C209.508 113.1 209.54 113.744 209.163 114.162C209.123 114.206 205.179 118.563 200.965 122.946C192.258 131.999 190.909 132.341 190.333 132.486C190.006 132.569 188.73 132.605 186.755 132.605Z" fill="#0E0E0E"/>
<path d="M190.666 149.234C182.624 149.234 105.651 146.761 102.541 146.383C101.416 146.247 101.018 145.585 100.881 145.202C100.33 143.669 102.129 141.465 103.249 140.288C103.637 139.88 104.283 139.864 104.69 140.253C105.098 140.641 105.114 141.286 104.726 141.693C103.833 142.632 103.024 143.8 102.848 144.366C106.571 144.726 188.122 147.34 191.082 147.193C191.475 147.059 193.274 145.968 200.786 137.89C205.397 132.931 210.367 127.282 213.336 123.906C214.28 122.833 215.026 121.985 215.455 121.507C216.896 119.9 216.244 117.737 214.44 114.057C214.193 113.551 214.402 112.94 214.907 112.693C215.413 112.446 216.023 112.654 216.271 113.16C217.674 116.022 219.595 119.943 216.973 122.868C216.55 123.34 215.807 124.184 214.867 125.253C197.465 145.034 192.941 149.09 191.283 149.222C191.187 149.231 190.978 149.234 190.666 149.234Z" fill="#0E0E0E"/>
<path d="M190.362 146.268C190.357 146.268 190.353 146.268 190.347 146.267C190.134 146.264 168.769 145.95 147.634 145.448C135.218 145.153 125.308 144.852 118.18 144.553C113.94 144.375 110.645 144.195 108.389 144.02C104.549 143.72 103.89 143.53 103.689 142.661C103.316 141.046 103.523 131.201 103.568 129.244C103.581 128.681 104.052 128.229 104.611 128.248C105.173 128.261 105.619 128.728 105.606 129.29C105.514 133.269 105.447 139.657 105.61 141.687C111.177 142.719 158.305 143.758 189.938 144.223L214.36 119.134C214.753 118.731 215.398 118.723 215.802 119.115C216.205 119.508 216.214 120.153 215.821 120.556L191.093 145.959C190.901 146.156 190.637 146.268 190.362 146.268Z" fill="#0E0E0E"/>
<path d="M189.927 145.645C189.526 145.645 189.176 145.349 189.12 144.94C189.048 144.416 189.089 143.238 189.167 141.2C189.26 138.774 189.452 133.745 189.009 132.906C188.719 132.597 188.713 132.113 189.004 131.797C189.308 131.465 189.824 131.444 190.156 131.748C190.979 132.505 191.04 134.899 190.797 141.263C190.739 142.761 190.68 144.311 190.736 144.719C190.797 145.165 190.485 145.577 190.039 145.638C190.001 145.643 189.964 145.645 189.927 145.645Z" fill="#0E0E0E"/>
<path d="M180.163 163.628C180.012 163.628 179.903 163.597 179.801 163.569C177.612 162.961 126.727 148.186 124.562 147.558C124.021 147.401 123.71 146.835 123.867 146.295C124.024 145.754 124.59 145.444 125.13 145.6C125.651 145.751 176.339 160.469 180.186 161.56C180.766 161.367 183.697 159.878 197.246 148.69C204.251 142.906 210.96 137.112 213.029 135.229C212.052 134.617 209.802 133.66 207.852 132.979C207.321 132.793 207.041 132.212 207.226 131.681C207.412 131.149 207.993 130.869 208.525 131.054C215.009 133.319 215.28 134.493 215.382 134.935C215.484 135.376 215.358 135.815 215.036 136.14C214.045 137.141 206.14 144.007 197.93 150.768C183.886 162.334 181.145 163.628 180.163 163.628Z" fill="#0E0E0E"/>
<path d="M181.315 185.051C179.688 185.051 176.745 184.701 171.075 183.441C165.561 182.215 158.443 180.339 150.49 178.015C134.476 173.337 119.523 168.171 114.128 165.452C112.156 164.459 111.649 163.909 111.471 163.344C110.314 159.685 110.787 148.131 112.554 145.642C112.88 145.183 113.516 145.075 113.975 145.401C114.434 145.727 114.542 146.363 114.216 146.822C113.762 147.461 113.177 150.048 112.963 154.218C112.78 157.782 112.949 161.132 113.384 162.631C114.704 164.042 127.729 169.047 146.804 174.795C165.363 180.387 179.979 183.724 182.35 182.908C184.324 182.23 191.388 177.505 216.529 153.488C216.625 153.395 216.717 153.308 216.803 153.226C216.031 153.227 215.024 153.274 214.06 153.377C213.5 153.436 212.998 153.032 212.938 152.473C212.878 151.913 213.282 151.411 213.842 151.35C218.997 150.795 219.402 151.688 219.62 152.168C219.736 152.424 219.925 153.092 219.184 153.776C219.042 153.906 218.602 154.326 217.937 154.962C198.549 173.482 186.799 183.533 183.013 184.836C182.68 184.951 182.186 185.051 181.315 185.051Z" fill="#0E0E0E"/>
<path d="M182.193 179.897C182.118 179.897 182.055 179.89 181.998 179.883C181.414 179.814 180.907 179.462 180.492 178.835C178.41 175.693 178.606 164.879 179.23 162.734C179.356 162.301 179.808 162.053 180.241 162.179C180.673 162.304 180.921 162.757 180.796 163.189C180.182 165.298 180.199 175.441 181.851 177.934C181.991 178.146 182.104 178.232 182.164 178.256C182.699 178.15 185.405 176.817 198.631 165.037C205.927 158.539 212.889 152.008 212.959 151.942C213.287 151.634 213.803 151.651 214.111 151.979C214.42 152.307 214.403 152.823 214.075 153.132C214.003 153.199 206.825 159.933 199.396 166.539C185.384 179.001 183.018 179.897 182.193 179.897Z" fill="#0E0E0E"/>
<path d="M213.634 153.158C213.214 153.158 212.857 152.835 212.822 152.409C212.703 150.934 211.901 147.51 211.352 145.845C210.648 143.705 211.289 138.172 211.317 137.937C211.37 137.49 211.774 137.172 212.222 137.223C212.669 137.276 212.989 137.681 212.936 138.128C212.691 140.21 212.464 144.007 212.901 145.335C213.427 146.93 214.308 150.548 214.448 152.277C214.484 152.726 214.149 153.12 213.701 153.156C213.678 153.157 213.656 153.158 213.634 153.158Z" fill="#0E0E0E"/>
<path d="M207.03 193.241C206.11 193.241 204.9 192.762 203.374 191.798C201.638 190.703 199.722 189.108 198.249 187.533C194.969 184.027 195.228 182.173 196.022 181.235C197.364 179.653 207.653 170.177 216.731 161.816C221.979 156.984 226.511 152.81 227.266 152.035C228.578 150.692 231.95 149.851 234.548 149.382C235.098 149.283 239.952 148.431 241.127 149.032C241.482 149.213 241.719 149.543 241.831 150.013C242.345 152.162 240.339 160.84 239.194 162.413C237.855 164.25 210.324 191.308 208.185 192.89C207.869 193.123 207.484 193.241 207.03 193.241ZM197.577 182.553C197.534 182.605 197.477 183.017 198.032 183.956C200.049 187.368 205.61 191.211 206.962 191.212C206.986 191.212 207.008 191.211 207.028 191.208C209.375 189.361 236.348 162.856 237.546 161.213C238.392 160.05 239.976 152.856 239.894 150.842C237.767 150.758 230.186 151.963 228.725 153.459C227.932 154.272 223.599 158.263 218.112 163.316C209.978 170.807 198.839 181.066 197.577 182.553Z" fill="#0E0E0E"/>
<path d="M135.073 169.761C134.995 169.761 134.913 169.753 134.826 169.736C133.942 169.564 116.949 164.225 114.842 162.493C112.841 160.848 113.145 153.331 114.059 150.196C114.235 149.594 114.769 147.761 116.178 147.591C118.737 147.276 136.156 153.831 137.424 154.391C138.255 154.757 138.946 155.712 138.376 160.186C138.08 162.513 137.475 165.367 136.872 167.288C136.523 168.398 136.095 169.761 135.073 169.761ZM116.138 160.919C117.547 162.074 131.333 166.618 134.617 167.573C134.97 166.699 135.546 164.677 136.016 162.096C136.709 158.289 136.573 156.631 136.43 156.182C133.579 154.977 118.68 149.642 116.516 149.612C116.167 150.002 115.538 151.882 115.409 155.137C115.27 158.626 115.815 160.624 116.138 160.919Z" fill="#0E0E0E"/>
<path d="M175.248 181.497C175.219 181.497 175.189 181.496 175.16 181.494C173.921 181.403 145.17 173.734 142.51 172.493C140.897 171.742 140.794 168.539 142.203 162.972C142.543 161.629 142.931 160.368 143.295 159.42C143.73 158.289 144.195 157.284 145.144 157.335C146.041 157.391 168.949 162.732 175.949 164.368C176.245 164.437 176.495 164.635 176.63 164.907C176.765 165.179 176.772 165.498 176.648 165.775C176.094 167.018 176.324 171.281 176.492 174.393C176.752 179.206 176.746 180.498 176.081 181.151C175.852 181.376 175.559 181.497 175.248 181.497ZM143.44 170.677C145.912 171.735 169.832 178.23 174.598 179.315C174.659 178.254 174.544 176.137 174.456 174.503C174.258 170.827 174.14 167.931 174.457 166.113C163.67 163.594 148.537 160.091 145.487 159.462C145.106 160.266 144.402 162.299 143.841 164.919C143.016 168.768 143.264 170.354 143.44 170.677Z" fill="#0E0E0E"/>
<path d="M137.136 141.476C126.198 141.476 110.213 141.366 106.999 141.142C106.55 141.111 106.211 140.722 106.242 140.272C106.273 139.823 106.662 139.48 107.112 139.515C111.329 139.808 140.614 139.934 146.753 139.791C146.76 139.791 146.766 139.791 146.773 139.791C147.214 139.791 147.577 140.143 147.587 140.587C147.598 141.037 147.241 141.411 146.791 141.421C145.218 141.458 141.596 141.476 137.136 141.476Z" fill="#0E0E0E"/>
<path d="M153.763 141.259C153.315 141.259 152.951 140.897 152.948 140.449C152.945 139.998 153.307 139.631 153.758 139.628C165.57 139.549 188.26 139.371 189.582 139.262C190.029 139.223 190.424 139.559 190.461 140.007C190.498 140.456 190.165 140.85 189.716 140.887C188.003 141.028 155.166 141.249 153.768 141.259C153.767 141.259 153.765 141.259 153.763 141.259Z" fill="#0E0E0E"/>
<path d="M190.302 139.96C190.013 139.96 189.732 139.805 189.585 139.533C189.37 139.138 189.517 138.642 189.912 138.428C191.236 137.709 202.835 125.988 209.835 118.769C210.149 118.446 210.665 118.438 210.988 118.751C211.312 119.065 211.319 119.581 211.006 119.904C209.135 121.834 192.669 138.787 190.69 139.861C190.567 139.928 190.433 139.96 190.302 139.96Z" fill="#0E0E0E"/>
<path d="M192.028 162.588C191.82 162.588 191.612 162.509 191.453 162.352C191.134 162.035 191.132 161.518 191.449 161.199C191.978 160.666 192.567 160.239 193.138 159.826C193.509 159.557 193.86 159.303 194.189 159.026C194.573 158.701 194.935 158.344 195.318 157.966C195.662 157.627 196.017 157.277 196.394 156.948C197.338 156.12 198.346 155.371 199.32 154.646C199.817 154.277 200.331 153.894 200.824 153.51C202.143 152.482 203.448 151.37 204.71 150.295C205.995 149.2 207.324 148.068 208.684 147.008C208.972 146.784 209.26 146.534 209.566 146.27C210.134 145.778 210.721 145.27 211.36 144.883C211.745 144.65 212.246 144.772 212.48 145.158C212.713 145.543 212.59 146.044 212.205 146.277C211.684 146.593 211.15 147.055 210.634 147.503C210.325 147.769 210.007 148.045 209.686 148.295C208.354 149.333 207.039 150.453 205.768 151.536C204.493 152.623 203.173 153.747 201.827 154.797C201.319 155.192 200.797 155.58 200.293 155.955C199.345 156.66 198.364 157.39 197.468 158.175C197.127 158.473 196.805 158.791 196.463 159.128C196.075 159.51 195.674 159.906 195.242 160.272C194.866 160.589 194.474 160.872 194.094 161.147C193.553 161.539 193.042 161.909 192.607 162.348C192.447 162.508 192.237 162.588 192.028 162.588Z" fill="#0E0E0E"/>
<path d="M181.025 171.493C180.749 171.493 180.48 171.353 180.327 171.1C180.093 170.715 180.216 170.214 180.601 169.98C181.573 169.391 182.407 168.593 183.291 167.748C184.192 166.887 185.124 165.997 186.23 165.326C186.615 165.093 187.117 165.216 187.35 165.601C187.584 165.986 187.46 166.487 187.075 166.721C186.122 167.299 185.294 168.09 184.418 168.927C183.51 169.795 182.571 170.693 181.447 171.374C181.315 171.455 181.169 171.493 181.025 171.493Z" fill="#0E0E0E"/>
<path d="M35.3115 145.82C33.7686 145.023 27.3715 144.67 26.5038 149.506C25.6362 154.341 31.2505 156.977 34.7862 155.419C38.322 153.86 38.9631 147.706 35.3115 145.82Z" fill="#FFAE79"/>
<path d="M41.0164 190.727C40.9171 190.727 40.8164 190.707 40.7204 190.663C38.164 189.495 21.1288 178.79 19.6923 177.573C19.3916 177.319 19.3541 176.869 19.6087 176.568C19.8633 176.267 20.3134 176.23 20.6143 176.484C21.901 177.574 38.8567 188.243 41.3132 189.365C41.6716 189.529 41.8295 189.952 41.6656 190.31C41.546 190.573 41.2871 190.727 41.0164 190.727Z" fill="#0E0E0E"/>
<path d="M41.1867 188.777C41.0936 188.777 40.9992 188.759 40.9081 188.72C39.3146 188.043 35.6485 186.307 33.9861 185.173C33.6608 184.951 33.577 184.507 33.799 184.182C34.0212 183.856 34.465 183.772 34.7905 183.995C36.3511 185.06 39.9663 186.769 41.4662 187.407C41.8288 187.561 41.9978 187.98 41.8439 188.343C41.7283 188.614 41.4643 188.777 41.1867 188.777Z" fill="#0E0E0E"/>
<path d="M51.6528 197.464C51.5957 197.464 51.5378 197.456 51.4805 197.439C50.1186 197.04 48.4893 195.943 47.0516 194.976C46.8712 194.854 46.693 194.734 46.5177 194.617C46.2368 194.43 46.1612 194.05 46.3485 193.769C46.5359 193.488 46.9158 193.412 47.1967 193.6C47.3733 193.718 47.5528 193.839 47.7345 193.961C49.0984 194.879 50.6441 195.92 51.8244 196.266C52.1485 196.361 52.3342 196.701 52.2392 197.025C52.1609 197.291 51.9171 197.464 51.6528 197.464Z" fill="#0E0E0E"/>
<path d="M54.5765 177.8C54.4999 177.8 54.4218 177.785 54.3464 177.755C52.4488 176.983 40.9535 169.751 36.0993 166.677C29.5203 162.511 12.1752 150.955 9.84994 148.424C9.62143 148.175 9.63794 147.788 9.88663 147.559C10.1355 147.331 10.5222 147.347 10.7507 147.596C12.8742 149.908 30.0651 161.408 36.7537 165.644C46.8052 172.008 53.5541 176.112 54.8071 176.621C55.12 176.749 55.2704 177.105 55.1432 177.418C55.0468 177.656 54.8181 177.8 54.5765 177.8Z" fill="#0E0E0E"/>
<path d="M52.3123 198.213C52.2497 198.213 52.1859 198.203 52.1231 198.183C51.8018 198.079 51.6261 197.734 51.7305 197.412C51.8911 196.918 52.4034 196.13 52.8987 195.368C53.1545 194.974 53.4994 194.443 53.584 194.253C53.6181 193.989 53.8231 193.769 54.0993 193.727C54.433 193.678 54.7449 193.907 54.7951 194.241C54.8483 194.594 54.6585 194.904 53.924 196.034C53.5359 196.632 53.0043 197.45 52.8934 197.791C52.8098 198.049 52.5701 198.213 52.3123 198.213Z" fill="#0E0E0E"/>
<path d="M13.9969 174.418C13.8516 174.418 13.705 174.374 13.5784 174.282C12.5967 173.57 11.5667 172.873 10.5705 172.199C9.45692 171.445 8.30521 170.666 7.19976 169.851C6.6875 169.475 6.20256 169.07 5.73352 168.679C5.33154 168.343 4.91569 167.996 4.49557 167.679L4.4016 167.608C3.64901 167.04 2.87053 166.452 2.14546 165.839C1.98401 165.702 1.82012 165.568 1.65643 165.434C1.43954 165.257 1.22265 165.08 1.01025 164.896C0.819247 164.733 0.640476 164.561 0.467616 164.394C0.38934 164.319 0.311268 164.244 0.231769 164.169C0.0913209 164.034 0.00631758 163.852 0.000406112 163.666C-0.0057092 163.476 0.0572788 163.287 0.18672 163.149C0.454367 162.863 0.907715 162.853 1.19554 163.117C1.20207 163.123 1.39633 163.305 1.39633 163.305C1.41202 163.32 1.42691 163.335 1.44117 163.351C1.44647 163.356 1.45198 163.361 1.45728 163.366C1.6228 163.526 1.77894 163.676 1.94018 163.814C2.14505 163.991 2.35236 164.16 2.55946 164.33C2.72926 164.469 2.89907 164.607 3.06662 164.749C3.76194 165.337 4.52411 165.913 5.26162 166.469L5.35559 166.541C5.80303 166.879 6.23232 167.237 6.64735 167.583C7.09988 167.961 7.5679 168.351 8.04531 168.702C9.12833 169.5 10.2678 170.271 11.3698 171.017C12.3756 171.697 13.4154 172.401 14.4162 173.127C14.7351 173.359 14.8062 173.805 14.5746 174.124C14.4354 174.316 14.2177 174.418 13.9969 174.418Z" fill="#0E0E0E"/>
<path d="M13.3395 147.288C13.1104 147.288 12.8855 147.178 12.7477 146.974C12.527 146.648 12.6128 146.204 12.9393 145.984C15.7599 144.077 47.1072 131.497 48.4402 130.963C48.8059 130.816 49.2213 130.993 49.3679 131.359C49.5144 131.725 49.3369 132.14 48.9712 132.287C37.728 136.796 15.8949 145.709 13.7382 147.166C13.6157 147.249 13.4769 147.288 13.3395 147.288Z" fill="#0E0E0E"/>
<path d="M70.6154 170.622C70.3373 170.622 70.0729 170.458 69.958 170.186C69.8045 169.824 69.9743 169.405 70.3371 169.251C75.4544 167.088 91.0307 160.142 95.5826 158.109C90.1727 154.954 69.929 143.42 67.8019 142.537C67.438 142.386 67.2656 141.968 67.4166 141.604C67.5677 141.241 67.9854 141.067 68.3492 141.219C70.8422 142.254 95.3127 156.241 97.5075 157.59C97.7329 157.728 97.8632 157.98 97.8458 158.244C97.8285 158.508 97.6667 158.741 97.4251 158.849C97.2204 158.94 76.895 168.028 70.893 170.566C70.8021 170.604 70.7079 170.622 70.6154 170.622Z" fill="#0E0E0E"/>
<path d="M60.9018 141.209C59.3907 141.209 58.1615 140.024 58.1615 138.568C58.1615 137.112 59.3909 135.928 60.9018 135.928C62.4127 135.928 63.6418 137.112 63.6418 138.568C63.6418 140.024 62.4127 141.209 60.9018 141.209ZM60.9018 137.558C60.2898 137.558 59.7922 138.011 59.7922 138.568C59.7922 139.125 60.29 139.579 60.9018 139.579C61.5133 139.579 62.0111 139.125 62.0111 138.568C62.0111 138.011 61.5135 137.558 60.9018 137.558Z" fill="#0E0E0E"/>
<path d="M59.6519 170.555C58.141 170.555 56.9119 169.371 56.9119 167.915C56.9119 166.46 58.141 165.275 59.6519 165.275C61.163 165.275 62.3922 166.46 62.3922 167.915C62.3922 169.371 61.1628 170.555 59.6519 170.555ZM59.6519 166.906C59.0404 166.906 58.5426 167.359 58.5426 167.915C58.5426 168.471 59.0402 168.924 59.6519 168.924C60.2637 168.924 60.7615 168.471 60.7615 167.915C60.7615 167.359 60.2637 166.906 59.6519 166.906Z" fill="#0E0E0E"/>
<path d="M45.6537 156.907C44.1428 156.907 42.9136 155.722 42.9136 154.266C42.9136 152.81 44.1428 151.626 45.6537 151.626C47.1646 151.626 48.3938 152.81 48.3938 154.266C48.3938 155.722 47.1646 156.907 45.6537 156.907ZM45.6537 153.257C45.042 153.257 44.5444 153.709 44.5444 154.266C44.5444 154.823 45.042 155.277 45.6537 155.277C46.2652 155.277 46.763 154.823 46.763 154.266C46.763 153.709 46.2652 153.257 45.6537 153.257Z" fill="#0E0E0E"/>
<path d="M54.0111 181.625C53.5954 181.625 52.6276 181.178 46.0176 176.97C41.5377 174.117 35.7067 170.305 30.0195 166.509C23.0539 161.86 6.57867 150.74 4.04388 147.905C3.84125 147.679 3.4195 147.207 3.58156 146.639C3.72241 146.146 3.86796 145.636 10.9138 142.559C14.5905 140.953 19.7123 138.846 25.7255 136.468C36.1352 132.35 47.5812 128.072 48.8332 127.831C49.2831 127.744 49.9006 127.625 58.8569 132.32C65.0062 135.544 72.4726 139.673 77.6535 142.569C86.2967 147.401 104.456 157.731 105.419 158.823C105.643 159.077 105.707 159.422 105.591 159.748C105.376 160.353 104.976 161.479 79.823 171.643C68.2508 176.318 54.8579 181.493 54.1562 181.61C54.1095 181.618 54.0649 181.625 54.0111 181.625ZM5.41697 146.999C6.92684 148.532 13.8359 153.705 29.3501 164.1C41.6115 172.315 52.3404 179.139 54.0384 179.949C55.7366 179.376 66.7397 175.166 78.856 170.274C96.8664 163.004 102.079 160.39 103.575 159.468C100.819 157.659 90.0745 151.386 77.1266 144.143C58.2987 133.612 50.2779 129.659 49.0693 129.448C46.3227 130.113 9.84303 144.105 5.41697 146.999Z" fill="#0E0E0E"/>
<path d="M52.6204 199.849C52.4842 199.849 52.3464 199.815 52.2197 199.743C45.5287 195.956 2.98037 170.317 0.859779 167.42C-0.566516 165.472 0.168545 159.131 0.550752 156.495C0.75908 155.058 1.88817 147.81 3.66385 146.197C3.99714 145.894 4.51286 145.919 4.81557 146.252C5.11828 146.586 5.09362 147.101 4.76033 147.404C4.05625 148.044 2.89292 151.706 2.16458 156.729C1.35695 162.299 1.60401 165.676 2.17559 166.457C3.82917 168.715 43.2479 192.792 53.023 198.324C53.4148 198.546 53.5528 199.043 53.331 199.435C53.1808 199.7 52.9048 199.849 52.6204 199.849Z" fill="#0E0E0E"/>
<path d="M53.1176 200C52.9467 200 52.7765 199.975 52.609 199.92C51.7848 199.651 51.3199 198.797 51.2269 197.383C50.9768 193.58 51.2876 183.33 53.5415 180.529C53.8241 180.178 54.3374 180.123 54.688 180.405C55.0388 180.688 55.0942 181.201 54.8119 181.552C53.0959 183.684 52.5692 192.944 52.854 197.276C52.9141 198.191 53.1267 198.375 53.129 198.377C53.3813 198.421 54.2948 197.773 54.9866 196.95C55.073 196.847 55.1843 196.767 55.3093 196.717C71.6319 190.208 101.346 178.344 107.421 175.874C106.1 175.186 103.526 174.12 101.252 173.281C100.83 173.125 100.614 172.656 100.769 172.233C100.925 171.811 101.394 171.595 101.816 171.75C109.716 174.664 109.749 175.466 109.771 175.996C109.787 176.383 109.566 176.73 109.195 176.903C108.073 177.428 60.0307 196.589 56.099 198.158C55.5651 198.763 54.3261 200 53.1176 200Z" fill="#0E0E0E"/>
<path d="M54.4736 194.933C54.1513 194.933 53.8462 194.741 53.7178 194.424C53.5484 194.006 53.7496 193.531 54.1668 193.361L101.161 174.299C100.631 173.228 99.7514 171.241 99.3152 169.09C98.7438 166.276 98.3704 163.775 99.5938 161.673C99.8205 161.284 100.319 161.152 100.709 161.378C101.098 161.605 101.23 162.104 101.003 162.493C100.149 163.961 100.303 165.757 100.913 168.766C101.497 171.642 102.993 174.287 103.008 174.313C103.124 174.517 103.147 174.762 103.07 174.984C102.993 175.206 102.824 175.384 102.606 175.473L54.7798 194.872C54.6793 194.913 54.5755 194.933 54.4736 194.933Z" fill="#0E0E0E"/>
<path d="M20.3122 180.245C19.9541 180.245 19.6453 179.976 19.6041 179.612C19.2086 176.106 20.2515 166.852 23.6559 161.665C23.8722 161.335 24.3143 161.244 24.6439 161.46C24.9733 161.676 25.065 162.118 24.849 162.448C21.6768 167.281 20.6569 176.216 21.0222 179.452C21.0664 179.843 20.7847 180.196 20.3934 180.24C20.3658 180.244 20.3387 180.245 20.3122 180.245Z" fill="#0E0E0E"/>
<path d="M3.80452 169.018C3.47817 169.018 3.18402 168.793 3.10921 168.461C1.95892 163.354 3.97738 152.674 6.70869 149.415C6.96166 149.113 7.41175 149.072 7.71384 149.326C8.01573 149.579 8.05548 150.029 7.80251 150.331C5.3782 153.224 3.46553 163.548 4.50147 168.148C4.5881 168.532 4.34655 168.914 3.9621 169C3.9091 169.012 3.8565 169.018 3.80452 169.018Z" fill="#0E0E0E"/>
<path d="M42.1153 193.46C41.7906 193.46 41.4969 193.237 41.4208 192.907C40.0498 186.971 42.233 177.342 43.9263 174.934C44.153 174.611 44.5981 174.534 44.9202 174.761C45.2425 174.987 45.3202 175.432 45.0935 175.755C43.6036 177.874 41.5666 187.198 42.8111 192.586C42.8997 192.97 42.6604 193.353 42.2764 193.442C42.2224 193.454 42.1685 193.46 42.1153 193.46Z" fill="#0E0E0E"/>
<path d="M46.4509 195.687C46.1406 195.687 45.8555 195.484 45.7656 195.171C44.5609 190.979 45.8663 180.78 47.6275 177.291C47.805 176.939 48.2341 176.798 48.5858 176.975C48.9376 177.153 49.0788 177.582 48.9013 177.934C47.3021 181.102 46.0583 191.023 47.1368 194.776C47.2457 195.155 47.027 195.55 46.6482 195.659C46.5824 195.678 46.5159 195.687 46.4509 195.687Z" fill="#0E0E0E"/>
<path d="M59.43 149.423C54.0116 150.301 55.3582 158.907 60.3404 158.667C65.3223 158.428 64.7475 148.56 59.43 149.423Z" fill="#0E0E0E"/>
<path d="M61.7386 168.626C61.4302 168.626 61.1352 168.451 60.9976 168.152C60.8091 167.743 60.9879 167.259 61.3968 167.07C62.9199 166.368 65.536 163.691 65.9447 153.651C66.2511 146.13 65.1469 141.21 62.8353 139.797C62.4511 139.562 62.33 139.06 62.565 138.676C62.7998 138.292 63.3019 138.171 63.6859 138.406C67.3248 140.63 67.8087 147.96 67.5741 153.718C67.2402 161.919 65.3401 167.048 62.0792 168.551C61.969 168.602 61.853 168.626 61.7386 168.626Z" fill="#0E0E0E"/>
<path d="M57.5029 168.298C57.3719 168.298 57.239 168.266 57.1154 168.199C53.1927 166.076 53.1191 159.543 53.0598 154.293L53.0579 154.126C53.0206 150.867 53.8592 141.747 58.1292 138.725C58.4967 138.465 59.0055 138.552 59.2658 138.92C59.5259 139.287 59.4389 139.796 59.0711 140.056C55.7882 142.38 54.6406 149.908 54.6885 154.107L54.6903 154.275C54.7447 159.097 54.8124 165.098 57.8917 166.765C58.2877 166.98 58.4349 167.474 58.2205 167.87C58.0731 168.143 57.7926 168.298 57.5029 168.298Z" fill="#0E0E0E"/>
<path d="M64.3696 160.826C62.926 160.826 61.3607 160.742 59.6794 160.573C55.1795 160.122 49.2224 159.034 46.3981 156.408C46.0683 156.102 46.0495 155.586 46.3561 155.256C46.6627 154.926 47.1786 154.908 47.5085 155.214C49.4811 157.048 53.7461 158.34 59.8422 158.95C66.2774 159.597 70.9758 158.949 73.0711 157.123C73.8324 156.46 74.2365 155.643 74.2719 154.694C74.433 150.38 68.0944 148.824 61.8729 147.87C57.3588 147.177 47.1876 147.298 46.3704 152.175C46.296 152.619 45.8755 152.918 45.4315 152.844C44.9873 152.77 44.6877 152.349 44.7621 151.905C45.099 149.895 46.7061 147.293 52.4494 146.312C55.95 145.713 59.8467 145.909 62.1202 146.258C66.67 146.956 76.1383 148.407 75.9015 154.755C75.8493 156.152 75.241 157.395 74.1423 158.352C72.2635 159.989 68.9263 160.826 64.3696 160.826Z" fill="#0E0E0E"/>
<path d="M48.5267 163.465C47.9987 163.465 47.5391 163.396 47.1475 163.257C46.4499 163.01 45.9505 162.541 45.7029 161.899C44.514 158.819 49.0812 155.226 56.304 150.778C56.8704 150.429 70.1003 142.345 72.896 146.527C73.2642 147.078 73.3722 147.739 73.2083 148.439C72.6506 150.821 68.673 154.154 61.386 158.346C55.4676 161.75 51.1551 163.465 48.5267 163.465ZM70.0734 146.947C69.1606 146.947 67.7051 147.209 65.3909 148.085C62.5126 149.174 59.1826 150.92 57.1593 152.167C54.4681 153.824 46.2799 158.865 47.2241 161.312C47.2745 161.443 47.3733 161.607 47.6916 161.72C48.5393 162.021 51.4924 162.154 60.5726 156.932C69.9307 151.549 71.4161 148.939 71.6204 148.067C71.6993 147.73 71.6187 147.551 71.5396 147.433C71.4298 147.268 71.0839 146.947 70.0734 146.947Z" fill="#0E0E0E"/>
<path d="M70.2882 165.213C67.7942 165.213 63.4597 162.536 57.3927 157.248C51.2127 151.859 48.0901 147.868 48.1113 145.385C48.1176 144.645 48.3989 144.02 48.9248 143.577C51.448 141.45 56.3337 144.597 62.893 149.977C63.4034 150.395 75.3619 160.274 72.3151 164.279C71.9143 164.807 71.3246 165.124 70.6101 165.197C70.5065 165.208 70.3989 165.213 70.2882 165.213ZM50.9068 144.532C50.5307 144.532 50.2145 144.622 49.9754 144.824C49.8682 144.914 49.7449 145.061 49.7418 145.399C49.7341 146.298 50.5686 149.134 58.4641 156.018C66.6017 163.112 69.553 163.666 70.444 163.575C70.7881 163.54 70.9307 163.405 71.0168 163.292C71.2455 162.992 71.7319 161.7 68.399 157.691C66.4311 155.324 63.6963 152.744 61.8589 151.238C59.7067 149.473 53.6825 144.532 50.9068 144.532Z" fill="#0E0E0E"/>
<path d="M32.3194 156.603C28.7246 156.603 25.7999 153.857 25.7999 150.482C25.7999 147.107 28.7246 144.362 32.3194 144.362C35.9142 144.362 38.8389 147.107 38.8389 150.482C38.8389 153.857 35.9142 156.603 32.3194 156.603ZM32.3194 145.993C29.6238 145.993 27.4306 148.007 27.4306 150.482C27.4306 152.958 29.6238 154.973 32.3194 154.973C35.015 154.973 37.2082 152.958 37.2082 150.482C37.2082 148.007 35.015 145.993 32.3194 145.993Z" fill="#0E0E0E"/>
<path d="M31.9008 161.803C31.4902 161.803 31.1535 161.68 30.8976 161.534C28.8955 160.388 29.0033 156.176 29.0453 155.344C29.0679 154.894 29.4528 154.556 29.9006 154.57C30.3505 154.593 30.6966 154.976 30.674 155.426C30.5499 157.888 31.1141 159.779 31.7079 160.118C31.7768 160.158 31.9866 160.277 32.5255 159.924C32.9919 159.572 33.9614 156.717 34.5522 151.709C35.0856 147.189 35.0338 143.114 34.4237 141.57C34.2574 141.15 34.1204 140.972 34.0535 140.903C33.4092 141.256 32.2695 143.979 32.1474 145.037C32.0958 145.485 31.6914 145.805 31.244 145.754C30.7965 145.702 30.4757 145.298 30.5275 144.85C30.5784 144.408 31.7921 139.538 33.8897 139.262C34.4857 139.184 35.3261 139.416 35.9405 140.971C36.8111 143.174 36.6252 148.107 36.1611 151.99C35.8688 154.437 35.0163 160.24 33.4208 161.287C32.8395 161.669 32.3298 161.803 31.9008 161.803Z" fill="#0E0E0E"/>
<path d="M54.7767 185.363C54.4542 185.363 54.1489 185.171 54.0205 184.853C53.8515 184.436 54.0531 183.96 54.4706 183.792C56.1435 183.115 95.4835 167.205 98.8798 165.929C99.3013 165.771 99.7716 165.984 99.9298 166.406C100.088 166.827 99.8745 167.298 99.4532 167.456C96.0763 168.724 55.4916 185.138 55.0823 185.303C54.982 185.344 54.8784 185.363 54.7767 185.363Z" fill="#0E0E0E"/>
<path d="M53.9455 191.407C53.634 191.407 53.3366 191.227 53.2008 190.924C53.0168 190.513 53.2006 190.031 53.6116 189.847C55.2709 189.104 74.2836 181.179 76.7393 180.193C77.1576 180.025 77.6319 180.228 77.7999 180.645C77.9677 181.063 77.765 181.538 77.3472 181.706C74.8961 182.691 55.9313 190.595 54.2784 191.335C54.1701 191.384 54.057 191.407 53.9455 191.407Z" fill="#0E0E0E"/>
<path d="M80.5839 179.82C80.2673 179.82 79.9663 179.634 79.8338 179.325C79.6566 178.911 79.8486 178.432 80.2629 178.254C81.5577 177.701 99.4788 170.799 100.241 170.505C100.661 170.343 101.133 170.553 101.295 170.973C101.457 171.393 101.247 171.865 100.827 172.027C100.641 172.099 82.1719 179.211 80.9044 179.754C80.7996 179.799 80.6909 179.82 80.5839 179.82Z" fill="#0E0E0E"/>
<path d="M16.0007 170.55C14.3952 170.55 12.5048 169.853 10.437 169.017C5.95242 167.202 3.8934 164.538 4.78766 161.709C5.23408 160.297 6.09573 159.281 7.27904 158.771C8.81358 158.11 10.8235 158.341 13.0914 159.439C15.9848 160.841 21.3701 163.452 19.7376 167.865C19.3105 169.018 18.6236 169.811 17.6957 170.22C17.1752 170.45 16.6082 170.55 16.0007 170.55ZM10.9723 167.694C13.4227 168.685 15.7365 169.525 17.119 168.915C17.6883 168.664 18.1072 168.158 18.3991 167.369C19.3845 164.706 16.8607 162.852 12.4693 160.723C10.5856 159.811 8.98582 159.589 7.84369 160.082C7.04095 160.427 6.47059 161.12 6.14832 162.139C5.23693 165.021 9.21821 166.984 10.9723 167.694Z" fill="#0E0E0E"/>
<path d="M54.1491 195.2C53.9065 195.2 53.6662 195.092 53.5054 194.886C52.339 193.395 52.0897 185.123 55.1219 180.228C55.3589 179.845 55.8614 179.727 56.2444 179.964C56.6272 180.201 56.7453 180.704 56.5082 181.087C53.7133 185.599 54.133 192.981 54.791 193.883C55.0685 194.238 55.0053 194.75 54.6504 195.027C54.5014 195.143 54.3246 195.2 54.1491 195.2Z" fill="#0E0E0E"/>
<path d="M87.1767 141.489C83.1567 141.489 78.4991 140.88 73.2071 139.308C59.4588 135.223 55.671 126.34 52.9052 119.854C51.7505 117.146 50.7531 114.806 49.3117 113.52C47.5578 111.954 45.035 114.056 41.0884 117.704C37.5935 120.935 33.6834 124.55 29.4506 124.55C28.9257 124.55 28.3963 124.495 27.8616 124.376C22.9294 123.279 17.879 120.047 17.7689 115.99C17.7067 113.699 19.2327 110.52 26.856 108.385C32.2714 106.869 32.2453 101.493 31.7546 92.8454C31.2315 83.6306 30.5807 72.1628 41.3579 65.9119C44.9647 63.8201 48.1858 63.3259 50.9312 64.445C56.6519 66.7758 59.0682 75.4571 61.1998 83.1169C62.6718 88.4054 64.3413 94.4064 66.5238 94.2093C67.9664 94.0841 68.709 93.6707 69.2965 91.553C69.9433 89.2218 70.2256 85.3074 70.6933 78.8225C71.0198 74.2933 71.4263 68.6566 72.1079 61.5001C72.2021 60.5113 72.2943 59.5251 72.3862 58.5421C74.8721 31.9425 77.2201 6.81799 113.879 0.577315C126.605 -1.58975 138.987 2.40497 147.849 11.5351C153.599 17.4584 157.735 25.4611 159.811 34.6779C162.097 44.8259 161.976 56.3402 159.451 68.9009C159.329 69.5081 158.739 69.9005 158.131 69.7792C157.524 69.6571 157.131 69.0662 157.253 68.4589C161.979 44.9439 158.068 25.2828 146.24 13.097C137.9 4.50497 126.243 0.747115 114.255 2.7878C98.2725 5.5087 88.1127 11.9224 82.282 22.9726C77.0328 32.9208 75.8601 45.4676 74.6187 58.7509C74.5267 59.735 74.4344 60.7227 74.34 61.7127C73.6608 68.8434 73.2556 74.466 72.9296 78.9838C72.452 85.6077 72.1636 89.6059 71.4571 92.1527C70.6841 94.9389 69.2668 96.222 66.7181 96.4434C66.606 96.4532 66.4953 96.4579 66.3869 96.4579C62.5852 96.4583 60.9383 90.5405 59.0395 83.7183C57.0459 76.5556 54.7865 68.4373 50.0851 66.5218C47.9865 65.6669 45.4996 66.1019 42.4825 67.8519C32.8972 73.4113 33.4793 83.6687 33.993 92.7186C34.4527 100.817 34.8869 108.466 27.4604 110.545C22.6693 111.886 19.9537 113.849 20.0101 115.93C20.0764 118.372 23.8167 121.179 28.3478 122.187C32.0475 123.009 36.0419 119.316 39.5661 116.058C43.4198 112.496 47.4045 108.811 50.8048 111.847C52.6192 113.467 53.7076 116.02 54.9675 118.975C57.7031 125.39 61.1075 133.374 73.8453 137.159C81.7145 139.496 89.1173 139.886 95.2532 138.287C100.307 136.97 103.036 134.69 103.662 133.923C104.053 133.443 104.759 133.371 105.239 133.763C105.719 134.154 105.791 134.86 105.4 135.34C103.737 137.38 97.6129 141.489 87.1767 141.489Z" fill="#0E0E0E"/>
<path d="M113.825 53.6068C112.313 53.6068 110.786 53.4156 109.275 53.0293C104.896 51.91 101.179 49.284 98.8058 45.6352C96.4155 41.9597 95.6737 37.6886 96.717 33.6087C98.8627 25.2183 107.987 20.2783 117.056 22.5978C121.434 23.7171 125.152 26.3431 127.525 29.9919C129.915 33.6674 130.657 37.9385 129.614 42.0184C128.571 46.0992 125.87 49.4903 122.008 51.5677C119.498 52.9182 116.692 53.6068 113.825 53.6068ZM98.6918 34.1134C97.7915 37.6346 98.4389 41.3317 100.515 44.5239C102.608 47.7428 105.898 50.0619 109.78 51.0544C113.661 52.0461 117.661 51.5915 121.042 49.7726C124.396 47.9686 126.739 45.0355 127.639 41.5135C128.539 37.9923 127.892 34.2952 125.816 31.103C123.723 27.8841 120.433 25.565 116.551 24.5725C108.571 22.5326 100.559 26.8123 98.6918 34.1134Z" fill="#0E0E0E"/>
<path d="M111.362 36.6331C111.915 34.4723 114.268 33.2065 116.617 33.8078C118.966 34.4071 120.422 36.6473 119.869 38.8081C119.317 40.9709 116.964 42.2367 114.615 41.6354C112.266 41.0361 110.81 38.7958 111.362 36.6331Z" fill="#0E0E0E"/>
<path d="M115.798 42.806C115.321 42.806 114.839 42.7456 114.362 42.6235C112.978 42.2704 111.8 41.4369 111.046 40.2767C110.275 39.0901 110.036 37.7068 110.375 36.3814C110.714 35.0564 111.587 33.9579 112.833 33.2877C114.052 32.6323 115.485 32.4666 116.87 32.8211C118.253 33.1739 119.431 34.0072 120.186 35.1673C120.957 36.3539 121.196 37.7368 120.857 39.0615C120.518 40.3867 119.645 41.4861 118.399 42.1567C117.6 42.5866 116.708 42.806 115.798 42.806ZM112.35 36.8859C112.154 37.653 112.298 38.4624 112.755 39.1657C113.229 39.8955 113.979 40.422 114.867 40.6485C115.755 40.8758 116.666 40.7736 117.433 40.3612C118.171 39.964 118.686 39.3229 118.882 38.5564C119.078 37.7904 118.934 36.9815 118.477 36.2787C118.002 35.5489 117.252 35.0224 116.365 34.7961C115.476 34.569 114.565 34.671 113.798 35.0829C113.06 35.48 112.546 36.1203 112.35 36.8859Z" fill="#0E0E0E"/>
<path d="M135.339 36.2406C135.155 36.2406 134.969 36.1907 134.801 36.0861C132.895 34.8985 130.394 34.7505 129.224 35.7557C128.797 36.1226 128.153 36.0741 127.786 35.647C127.42 35.22 127.468 34.5766 127.895 34.2097C129.752 32.6142 133.185 32.677 135.879 34.3563C136.357 34.6541 136.503 35.2826 136.205 35.7604C136.012 36.0702 135.679 36.2406 135.339 36.2406Z" fill="#0E0E0E"/>
<path d="M97.0274 37.3857C96.8295 37.3857 96.6297 37.3284 96.454 37.2084L73.69 21.6775C73.225 21.3603 73.1051 20.7262 73.4223 20.2612C73.7397 19.7966 74.3736 19.6764 74.8386 19.9938L97.6027 35.5246C98.0676 35.8418 98.1875 36.476 97.8703 36.9409C97.673 37.23 97.353 37.3857 97.0274 37.3857Z" fill="#0E0E0E"/>
<path d="M130.766 61.5922C126.918 61.5922 124.555 58.2076 123.798 56.2352C123.682 55.9337 123.716 55.5949 123.89 55.3226C124.064 55.0501 124.356 54.8762 124.678 54.8533L136.347 54.0319C136.905 53.9927 137.388 54.4079 137.435 54.9638C137.592 56.848 136.66 60.6341 132.011 61.4776C131.58 61.5557 131.165 61.5922 130.766 61.5922ZM126.371 56.7776C127.23 58.1177 128.937 59.9631 131.647 59.472C134.333 58.9848 135.111 57.2707 135.329 56.1469L126.371 56.7776Z" fill="#0E0E0E"/>
<path d="M150.13 53.5199C148.795 53.5199 147.433 53.3541 146.074 53.0068C137.786 50.8872 132.668 42.8103 134.665 35.0027C135.635 31.2083 138.118 28.0461 141.655 26.0988C145.172 24.1631 149.312 23.6608 153.315 24.6849C157.317 25.7074 160.709 28.1352 162.865 31.5206C165.034 34.9269 165.694 38.8924 164.724 42.6868C163.055 49.2139 156.934 53.5199 150.13 53.5199ZM136.64 35.5076C134.922 42.2267 139.38 49.1908 146.579 51.032C147.77 51.3361 148.963 51.4814 150.132 51.4814C156.027 51.482 161.315 47.7894 162.749 42.1823C163.578 38.9393 163.009 35.5418 161.145 32.6157C159.269 29.6689 156.309 27.5538 152.81 26.66C149.311 25.7651 145.699 26.2001 142.638 27.8847C139.599 29.5576 137.469 32.2649 136.64 35.5076Z" fill="#0E0E0E"/>
<path d="M145.231 36.6888C145.783 34.526 148.136 33.2602 150.485 33.8615C152.834 34.4608 154.29 36.701 153.737 38.8638C153.185 41.0246 150.832 42.2904 148.483 41.6891C146.134 41.0898 144.678 38.8495 145.231 36.6888Z" fill="#0E0E0E"/>
<path d="M149.666 42.8589C149.189 42.8589 148.707 42.7985 148.23 42.6764C146.846 42.3234 145.668 41.4901 144.914 40.33C144.142 39.1436 143.904 37.7607 144.243 36.4359C144.582 35.1106 145.455 34.0112 146.701 33.3408C147.92 32.685 149.353 32.5193 150.738 32.8738C152.122 33.2268 153.3 34.0604 154.054 35.2204C154.825 36.407 155.064 37.7905 154.725 39.1159C154.386 40.4405 153.513 41.5392 152.267 42.2096C151.467 42.6395 150.576 42.8589 149.666 42.8589ZM149.302 34.7306C148.726 34.7306 148.166 34.8674 147.667 35.136C146.928 35.5333 146.414 36.1744 146.218 36.9411C146.022 37.7071 146.166 38.516 146.623 39.2188C147.097 39.9484 147.847 40.4749 148.735 40.7014C149.623 40.9287 150.534 40.827 151.301 40.4144C152.039 40.0173 152.554 39.3768 152.75 38.611C152.945 37.8443 152.802 37.0351 152.344 36.3316C151.87 35.6018 151.12 35.0753 150.232 34.8488C149.923 34.7697 149.61 34.7306 149.302 34.7306Z" fill="#0E0E0E"/>
<path d="M122.887 80.0756C122.309 80.0756 118.146 79.9637 110.41 76.9863C102.93 74.1077 90.5104 67.8631 73.8174 54.4622C73.5102 54.2156 73.4609 53.7665 73.7076 53.4591C73.9542 53.1521 74.4033 53.1028 74.7105 53.3494C106.323 78.7274 122.763 78.6475 122.919 78.6485C123.307 78.6348 123.64 78.9514 123.649 79.3456C123.658 79.7394 123.346 80.066 122.952 80.075C122.942 80.0752 122.921 80.0756 122.887 80.0756Z" fill="#0E0E0E"/>
<path d="M120.031 91.179C117.75 91.179 112.318 90.991 105.258 89.4946C96.7484 87.6908 84.2175 83.5534 72.8475 74.085C72.5448 73.8329 72.5036 73.3832 72.7558 73.0803C73.0077 72.7774 73.4578 72.7362 73.7605 72.9886C84.9059 82.2698 97.2019 86.3283 105.554 88.0987C114.6 90.0161 121.065 89.7366 121.13 89.7329C121.52 89.7111 121.858 90.0181 121.876 90.4117C121.895 90.8053 121.591 91.1394 121.198 91.1582C121.135 91.1613 120.731 91.179 120.031 91.179Z" fill="#0E0E0E"/>
<path d="M98.4313 139.471C98.3143 139.471 98.1956 139.442 98.086 139.382C89.604 134.677 83.0704 126.033 79.0833 119.611C74.0693 111.535 70.2935 102.492 68.7241 94.7987C68.6452 94.4126 68.8943 94.0359 69.2804 93.957C69.6667 93.8779 70.0434 94.1274 70.1221 94.5135C73.1895 109.548 85.0178 130.501 98.7782 138.134C99.1227 138.325 99.2471 138.759 99.0561 139.104C98.9254 139.339 98.6822 139.471 98.4313 139.471Z" fill="#0E0E0E"/>
<path d="M75.8328 138.807C75.7052 138.807 75.5759 138.773 75.4593 138.701C71.6262 136.34 68.7769 128.48 66.9898 115.339C65.676 105.676 65.4361 96.5565 65.4339 96.4656C65.4241 96.0718 65.7354 95.7446 66.1294 95.7346C66.5289 95.7248 66.8506 96.0361 66.8604 96.4301C66.8626 96.5202 67.1011 105.572 68.4053 115.158C70.1078 127.67 72.8057 135.391 76.2074 137.485C76.543 137.692 76.6473 138.132 76.4408 138.467C76.3061 138.686 76.0723 138.807 75.8328 138.807Z" fill="#0E0E0E"/>
<path d="M49.9735 112.623C49.7147 112.623 49.465 112.481 49.3384 112.235C47.2522 108.177 47.4096 98.5913 48.2523 90.9742C49.0929 83.3764 51.0511 73.748 54.0258 69.5115C54.2522 69.189 54.6972 69.1114 55.0197 69.3374C55.3422 69.5637 55.42 70.0087 55.1936 70.3312C52.8706 73.6399 50.7027 81.8043 49.6706 91.1312C48.6404 100.443 49.0081 108.471 50.6075 111.583C50.7877 111.933 50.6497 112.363 50.2991 112.544C50.1947 112.597 50.0832 112.623 49.9735 112.623Z" fill="#0E0E0E"/>
<path d="M47.0249 112.527C46.786 112.527 46.5524 112.407 46.4175 112.189C41.3434 103.987 40.5127 92.6659 40.7092 84.613C40.9263 75.714 42.4201 68.2107 42.9105 66.6267C43.0271 66.2504 43.4269 66.0398 43.803 66.156C44.1795 66.2724 44.39 66.6721 44.2736 67.0486C43.7983 68.5842 42.3493 75.8979 42.1359 84.6479C41.9441 92.5071 42.742 103.535 47.6311 111.438C47.8385 111.774 47.7349 112.213 47.3998 112.42C47.2828 112.493 47.1529 112.527 47.0249 112.527Z" fill="#0E0E0E"/>
<path d="M40.5711 116.967C40.4616 116.967 40.3505 116.941 40.2463 116.888C37.6567 115.561 32.5313 109.842 31.3435 105.567C31.2379 105.187 31.4603 104.794 31.8398 104.688C32.2192 104.583 32.6128 104.805 32.7182 105.185C33.7612 108.939 38.5813 114.432 40.8968 115.618C41.2474 115.798 41.3862 116.227 41.2066 116.578C41.0803 116.825 40.8303 116.967 40.5711 116.967Z" fill="#0E0E0E"/>
<path d="M36.7658 120.778C36.6458 120.778 36.5241 120.747 36.4124 120.683C32.34 118.354 27.443 110.376 27.2365 110.037C27.0313 109.701 27.1377 109.262 27.474 109.057C27.8106 108.851 28.2494 108.958 28.4547 109.294C28.5034 109.374 33.3665 117.297 37.1209 119.445C37.463 119.64 37.5816 120.076 37.3859 120.418C37.2542 120.649 37.0135 120.778 36.7658 120.778Z" fill="#0E0E0E"/>
</svg>
