<svg width="190" height="200" viewBox="0 0 190 200" fill="none" xmlns="http://www.w3.org/2000/svg">
<path d="M128.522 174.751C128.223 174.751 127.94 174.572 127.821 174.277C127.667 173.89 127.855 173.451 128.241 173.297C136.352 170.052 144.751 168.968 152.658 168.136C154.377 167.955 155.944 167.834 157.449 167.768C157.817 167.751 158.207 167.694 158.62 167.634C159.677 167.48 160.875 167.306 161.957 167.846C162.329 168.033 162.48 168.486 162.294 168.858C162.108 169.231 161.655 169.381 161.282 169.195C160.624 168.866 159.756 168.993 158.837 169.127C158.406 169.189 157.959 169.254 157.516 169.274C156.042 169.34 154.504 169.458 152.815 169.636C145.013 170.457 136.733 171.524 128.801 174.697C128.71 174.734 128.615 174.751 128.522 174.751Z" fill="#0E0E0E"/>
<path d="M90.8004 188.989C90.5443 188.989 90.2944 188.859 90.1532 188.623C89.9388 188.266 90.0546 187.803 90.4118 187.589C91.3307 187.037 92.2944 186.676 93.2264 186.327C93.7323 186.138 94.2554 185.942 94.7525 185.721C97.8627 184.338 100.948 183.153 103.555 182.175C104.656 181.762 105.789 181.281 106.988 180.771C109.59 179.665 112.282 178.521 114.867 178.004C115.275 177.923 115.673 178.187 115.755 178.596C115.836 179.004 115.571 179.401 115.163 179.483C112.729 179.97 110.11 181.083 107.578 182.159C106.363 182.675 105.216 183.163 104.085 183.587C101.498 184.557 98.439 185.733 95.3651 187.099C94.8267 187.338 94.282 187.542 93.7555 187.739C92.8468 188.08 91.9888 188.401 91.188 188.881C91.0661 188.954 90.9324 188.989 90.8004 188.989Z" fill="#0E0E0E"/>
<path d="M103.455 190.449C103.139 190.449 102.845 190.249 102.74 189.933C102.608 189.538 102.821 189.111 103.216 188.979C104.886 188.423 106.584 188.368 108.226 188.315C109.274 188.281 110.263 188.249 111.25 188.097C112.2 187.951 113.15 187.806 114.1 187.661C116.516 187.293 119.014 186.912 121.466 186.516C134.094 184.48 147.558 182.491 161.133 182.491C161.55 182.491 161.887 182.829 161.887 183.245C161.887 183.662 161.55 183.999 161.133 183.999C147.67 183.999 134.273 185.978 121.706 188.005C119.248 188.402 116.747 188.783 114.328 189.152C113.378 189.297 112.428 189.442 111.479 189.588C110.403 189.754 109.321 189.788 108.275 189.822C106.67 189.874 105.154 189.923 103.693 190.41C103.614 190.436 103.534 190.449 103.455 190.449Z" fill="#0E0E0E"/>
<path d="M38.5017 171.007C38.4529 171.007 38.4036 171.003 38.3541 170.993C31.8074 169.694 25.438 168.973 20.0708 168.438C18.6246 168.294 16.7159 168.13 14.7787 168.152C13.7497 168.162 12.6989 168.203 11.6827 168.242L10.6371 168.281C10.4141 168.288 10.4141 168.288 10.2676 168.329L10.1475 168.362C9.74606 168.473 9.3311 168.236 9.2205 167.835C9.11016 167.433 9.34618 167.018 9.74782 166.908L9.86118 166.876C10.1661 166.791 10.2299 166.785 10.5898 166.773L11.6241 166.735C12.6509 166.695 13.7125 166.654 14.7627 166.643C16.7724 166.623 18.7352 166.789 20.2199 166.937C25.6228 167.475 32.0373 168.202 38.6469 169.513C39.0556 169.594 39.3211 169.991 39.2399 170.399C39.1692 170.759 38.8543 171.007 38.5017 171.007Z" fill="#0E0E0E"/>
<path d="M60.976 185.614C60.9273 185.614 60.878 185.609 60.8285 185.6C59.0668 185.25 57.2561 185.001 55.505 184.76C54.142 184.572 52.7324 184.378 51.3465 184.137C42.4439 182.591 34.0042 181.677 26.2628 181.421C25.2278 181.387 24.1714 181.332 23.1496 181.279C18.9761 181.063 14.6605 180.839 10.6176 181.949C10.2162 182.058 9.80123 181.823 9.69089 181.421C9.5808 181.02 9.81681 180.605 10.2185 180.494C14.4953 179.32 18.9346 179.551 23.2276 179.773C24.2425 179.826 25.2916 179.88 26.3126 179.914C34.1239 180.172 42.6334 181.093 51.6047 182.651C52.9647 182.887 54.3606 183.08 55.7106 183.266C57.4834 183.51 59.3164 183.762 61.1218 184.12C61.5303 184.201 61.7959 184.598 61.7147 185.007C61.6436 185.366 61.3284 185.614 60.976 185.614Z" fill="#0E0E0E"/>
<path d="M77.4143 189.113C77.3356 189.113 77.2557 189.101 77.1768 189.075C74.2886 188.117 71.4805 187.574 68.5079 186.998C67.9506 186.89 67.3902 186.782 66.8249 186.669C66.4162 186.588 66.1508 186.192 66.232 185.783C66.3131 185.375 66.7115 185.109 67.1182 185.19C67.6812 185.302 68.2394 185.41 68.7944 185.518C71.8163 186.103 74.6706 186.655 77.6513 187.643C78.0464 187.774 78.2608 188.201 78.1296 188.597C78.0248 188.913 77.7302 189.113 77.4143 189.113Z" fill="#0E0E0E"/>
<path d="M89.6963 180.031C89.6847 180.031 89.6729 180.031 89.6608 180.03C89.2449 180.015 88.9201 179.665 88.9355 179.249C88.9465 178.95 89.1302 178.698 89.3871 178.586C89.4939 178.471 89.6817 178.298 89.975 178.248C91.3305 178.017 92.5176 177.925 93.608 177.967C94.0242 177.982 94.3487 178.333 94.3328 178.749C94.317 179.165 93.9666 179.487 93.5507 179.474C92.6134 179.438 91.5836 179.514 90.4073 179.704C90.2827 179.833 90.0477 180.031 89.6963 180.031Z" fill="#0E0E0E"/>
<path d="M92.4007 177.419C92.2029 177.419 92.0058 177.342 91.8583 177.189L91.8281 177.162C91.6916 177.043 91.2764 176.679 91.4348 176.145C91.4941 175.945 91.6798 175.598 92.2587 175.515C92.8606 175.429 93.4671 175.373 94.0535 175.318C94.4976 175.277 94.9571 175.234 95.4017 175.179C95.4042 175.177 95.4256 175.168 95.4475 175.161C95.494 175.144 95.5407 175.128 95.5877 175.115C95.9879 174.997 96.4061 175.228 96.5227 175.627C96.6394 176.027 96.4096 176.446 96.01 176.562C95.9889 176.569 95.9683 176.576 95.9474 176.583C95.8587 176.615 95.7368 176.657 95.586 176.676C95.1195 176.734 94.6487 176.777 94.1935 176.82C93.8359 176.853 93.4704 176.887 93.1077 176.928C93.068 177.035 93.0031 177.135 92.9134 177.218C92.7681 177.353 92.5842 177.419 92.4007 177.419Z" fill="#0E0E0E"/>
<path d="M94.7395 174.929C94.4429 174.929 94.1526 174.924 93.8741 174.914C93.4579 174.898 93.1334 174.548 93.149 174.132C93.1648 173.716 93.5137 173.39 93.9309 173.407C94.9969 173.447 96.2802 173.392 97.4123 173.344C97.9203 173.322 98.3976 173.301 98.8128 173.291C99.232 173.287 99.5751 173.61 99.5852 174.026C99.5955 174.442 99.2662 174.788 98.85 174.799C98.4431 174.809 97.9753 174.829 97.4771 174.85C96.6032 174.887 95.6421 174.929 94.7395 174.929Z" fill="#0E0E0E"/>
<path d="M96.8435 172.901C96.2835 172.901 95.7167 172.814 95.1844 172.522C94.8192 172.322 94.6855 171.863 94.8858 171.498C95.0859 171.133 95.5448 170.999 95.9095 171.199C96.4331 171.486 97.168 171.396 97.9464 171.299C98.3579 171.248 98.7832 171.196 99.2097 171.194C100.193 171.192 101.185 171.179 102.16 171.156C102.569 171.148 102.922 171.475 102.932 171.892C102.942 172.308 102.612 172.653 102.196 172.663C101.211 172.687 100.207 172.7 99.2142 172.702C98.8787 172.704 98.516 172.748 98.1319 172.796C97.7197 172.847 97.2836 172.901 96.8435 172.901Z" fill="#0E0E0E"/>
<path d="M102.406 170.612C100.908 170.591 99.339 170.547 97.4581 170.476C97.0419 170.46 96.7174 170.11 96.733 169.694C96.7489 169.278 97.103 168.955 97.515 168.969C99.384 169.04 100.942 169.083 102.417 169.104C102.833 169.11 103.166 169.453 103.16 169.869C103.154 170.282 102.817 170.612 102.406 170.612Z" fill="#0E0E0E"/>
<path d="M101.538 167.626C100.987 167.626 100.431 167.595 99.8763 167.494C99.4666 167.42 99.1946 167.028 99.269 166.618C99.3432 166.208 99.7355 165.935 100.145 166.011C100.982 166.163 101.864 166.122 102.798 166.079C103.139 166.063 103.479 166.048 103.815 166.042C104.231 166.032 104.575 166.366 104.582 166.783C104.59 167.199 104.258 167.542 103.842 167.55C103.52 167.556 103.194 167.571 102.867 167.586C102.429 167.605 101.985 167.626 101.538 167.626Z" fill="#0E0E0E"/>
<path d="M138.068 146.114C137.482 146.114 136.889 146.102 136.295 146.061C135.639 146.016 134.982 145.961 134.324 145.907C132.667 145.769 130.955 145.627 129.286 145.645C128.479 145.654 127.589 145.707 126.728 145.759C125.503 145.832 124.236 145.908 123.11 145.865C122.694 145.849 122.369 145.499 122.385 145.083C122.401 144.667 122.752 144.341 123.167 144.358C124.22 144.398 125.449 144.325 126.638 144.254C127.517 144.201 128.426 144.147 129.269 144.138C131.005 144.118 132.757 144.263 134.449 144.404C135.1 144.458 135.75 144.512 136.399 144.557C137.345 144.622 138.322 144.608 139.265 144.595C140.028 144.583 140.817 144.572 141.6 144.602C142.016 144.618 142.341 144.968 142.325 145.384C142.309 145.8 141.96 146.125 141.543 146.109C140.8 146.08 140.031 146.092 139.287 146.102C138.886 146.108 138.479 146.114 138.068 146.114Z" fill="#0E0E0E"/>
<path d="M84.5461 193.166C83.9839 193.166 83.3766 193.13 82.7626 192.926C82.104 192.706 81.7481 191.995 81.9676 191.336C82.187 190.678 82.8985 190.322 83.5573 190.541C83.9313 190.666 84.4282 190.657 84.9548 190.648C85.1031 190.645 85.2504 190.642 85.3962 190.642C87.229 190.642 89.5934 190.556 91.625 189.878C92.2835 189.659 92.9953 190.015 93.2145 190.673C93.4339 191.332 93.078 192.044 92.4195 192.263C90.045 193.054 87.419 193.156 85.3962 193.156C85.2655 193.156 85.133 193.158 84.9998 193.16C84.8525 193.163 84.7009 193.166 84.5461 193.166Z" fill="#0E0E0E"/>
<path d="M84.5681 191.913C83.8742 191.913 83.3114 191.35 83.3114 190.656C83.3114 189.962 83.8742 189.399 84.5681 189.399C85.4383 189.399 86.4318 189.241 87.3927 189.088C87.7828 189.026 88.1671 188.965 88.5396 188.914C88.8166 188.876 89.076 188.869 89.305 188.863C89.583 188.855 89.8459 188.848 89.9693 188.787C90.5898 188.476 91.3449 188.727 91.6555 189.348C91.966 189.969 91.7146 190.724 91.094 191.034C90.4715 191.346 89.8625 191.362 89.3728 191.375C89.1919 191.38 89.021 191.385 88.8794 191.404C88.5253 191.452 88.1596 191.511 87.7886 191.57C86.7307 191.739 85.6373 191.913 84.5681 191.913Z" fill="#0E0E0E"/>
<path d="M84.6495 190.588C84.0342 190.588 83.4966 190.136 83.4071 189.509C83.3088 188.822 83.7861 188.186 84.4733 188.087C85.1097 187.996 85.7795 187.815 86.4888 187.623C87.6259 187.316 88.8017 186.998 90.0346 186.998C90.7285 186.998 91.2913 187.561 91.2913 188.255C91.2913 188.949 90.7285 189.511 90.0346 189.511C89.1355 189.511 88.1686 189.773 87.1449 190.05C86.3938 190.253 85.6174 190.463 84.829 190.576C84.7686 190.584 84.7088 190.588 84.6495 190.588Z" fill="#0E0E0E"/>
<path d="M85.3963 189.263C84.7023 189.263 84.1395 188.7 84.1395 188.006C84.1395 187.312 84.7023 186.749 85.3963 186.749C86.4768 186.749 87.6186 186.598 88.723 186.452C88.9985 186.416 89.2735 186.379 89.5475 186.345C90.2359 186.258 90.864 186.748 90.9502 187.436C91.0362 188.125 90.5476 188.753 89.8589 188.839C89.5909 188.872 89.322 188.908 89.0526 188.944C87.8677 189.101 86.6422 189.263 85.3963 189.263Z" fill="#0E0E0E"/>
<path d="M93.5471 192.494C93.3096 192.494 93.1299 192.491 93.0097 192.484C90.1572 192.316 89.9823 189.934 89.8981 188.789C89.8717 188.429 89.8275 187.827 89.7181 187.693C89.7133 187.693 89.4763 187.572 88.6833 187.708C87.9987 187.825 87.3494 187.366 87.2321 186.682C87.1144 185.998 87.5736 185.348 88.2578 185.231C89.5766 185.004 90.5629 185.164 91.2729 185.719C92.2489 186.482 92.3356 187.659 92.405 188.605C92.503 189.936 92.5774 189.94 93.1575 189.975C96.0017 190.14 138.235 187.989 161.365 186.765L159.832 174.887C159.819 174.781 159.818 174.674 159.832 174.568L161.627 160.44C161.715 159.751 162.345 159.262 163.032 159.351C163.721 159.439 164.208 160.068 164.121 160.756L162.346 174.725L164.032 187.788C164.076 188.135 163.975 188.484 163.751 188.753C163.527 189.022 163.201 189.185 162.852 189.204C160.241 189.342 100.755 192.494 93.5471 192.494Z" fill="#0E0E0E"/>
<path d="M82.4018 192.928C82.3527 192.928 82.303 192.926 82.2522 192.924C65.0029 191.995 9.21693 188.622 8.65543 188.588C8.31209 188.567 7.99238 188.407 7.77069 188.144C7.549 187.881 7.4447 187.539 7.48215 187.197C7.5294 186.766 8.6406 176.618 9.02515 174.177C9.27574 172.584 7.90089 166.162 6.97543 162.489C6.88545 162.131 6.95684 161.752 7.17048 161.452C7.38412 161.152 7.71917 160.961 8.08613 160.93C19.7991 159.921 39.224 164.16 53.4974 168.463C67.6478 172.729 84.0777 179.215 87.7516 184.623C87.8079 184.706 87.8527 184.793 87.8869 184.882C88.4386 185.015 88.8483 185.511 88.8483 186.104C88.8483 186.798 88.2855 187.36 87.5915 187.36C86.1227 187.36 85.6986 188.176 85.0816 190.038C84.6757 191.263 84.1232 192.928 82.4018 192.928ZM10.1253 186.159C18.6831 186.675 66.3516 189.548 82.2464 190.406C82.3892 190.172 82.5704 189.625 82.6958 189.247C83.0844 188.074 83.66 186.339 85.2017 185.438C81.6829 181.492 68.9344 175.742 52.772 170.869C35.7338 165.732 19.4982 162.903 9.77114 163.339C10.494 166.367 11.8397 172.46 11.5079 174.568C11.2131 176.44 10.4465 183.264 10.1253 186.159Z" fill="#0E0E0E"/>
<path d="M90.5951 187.035C90.2767 187.035 89.9632 186.884 89.7682 186.603C89.4517 186.146 89.5651 185.52 90.0215 185.204C92.8622 183.234 105.913 176.882 120.714 171.013C133.753 165.841 151.631 159.645 162.76 159.494C162.764 159.494 162.769 159.494 162.774 159.494C163.323 159.494 163.771 159.935 163.779 160.486C163.786 161.041 163.343 161.497 162.787 161.505C142.74 161.778 96.7365 182.995 91.1674 186.856C90.9922 186.977 90.7927 187.035 90.5951 187.035Z" fill="#0E0E0E"/>
<path d="M83.5635 188.135C83.3986 188.135 83.2315 188.094 83.0771 188.008C60.4043 175.446 15.2198 174.737 11.2511 175.452C10.7044 175.55 10.1819 175.187 10.0833 174.641C9.9848 174.094 10.348 173.572 10.8944 173.473C13.2752 173.044 25.8685 173.117 40.4583 174.781C53.6115 176.282 71.8516 179.49 84.0516 186.25C84.5374 186.519 84.7129 187.131 84.4437 187.616C84.2602 187.948 83.9171 188.134 83.5635 188.135Z" fill="#0E0E0E"/>
<path d="M8.4777 163.444C8.04212 163.444 7.61835 163.217 7.38636 162.812C7.04101 162.21 7.24937 161.442 7.8516 161.097C11.9948 158.721 40.0107 147.762 43.7198 147.338C47.5425 146.902 71.3428 150.968 78.802 156.055C79.3753 156.446 79.5231 157.228 79.1322 157.801C78.7411 158.375 77.9595 158.523 77.3859 158.132C70.534 153.459 47.2092 149.471 44.0055 149.835C41.062 150.172 13.3347 160.85 9.10179 163.278C8.90448 163.39 8.68958 163.444 8.4777 163.444Z" fill="#0E0E0E"/>
<path d="M87.1235 186.291C87.026 186.291 86.9267 186.28 86.8277 186.255C86.1528 186.093 85.7381 185.413 85.901 184.739C89.4658 169.974 124.417 142.058 131.1 136.83C124.931 130.157 109.051 122.927 105.658 121.43C99.7423 126.046 83.1141 150.133 79.6252 157.198C79.3178 157.821 78.564 158.076 77.9419 157.769C77.3196 157.462 77.0642 156.708 77.3713 156.086C80.716 149.312 98.7351 122.848 104.83 118.936C105.179 118.711 105.618 118.674 106.001 118.837C106.874 119.209 127.47 128.043 133.9 136.239C134.107 136.503 134.2 136.839 134.158 137.172C134.116 137.504 133.943 137.807 133.677 138.011C133.261 138.331 91.9971 170.199 88.3441 185.328C88.2053 185.904 87.6906 186.291 87.1235 186.291Z" fill="#0E0E0E"/>
<path d="M86.6236 186.219C86.0834 186.219 85.5843 185.868 85.4206 185.324L76.9383 157.122C76.7384 156.457 77.1152 155.756 77.7798 155.556C78.4441 155.357 79.1453 155.733 79.3451 156.398L87.8275 184.6C88.0273 185.264 87.6506 185.965 86.986 186.165C86.8654 186.201 86.7435 186.219 86.6236 186.219Z" fill="#0E0E0E"/>
<path d="M161.314 153.062C161.025 153.062 160.735 152.963 160.499 152.761C158.173 150.776 130.719 144.035 127.434 143.768C126.742 143.712 126.227 143.105 126.283 142.414C126.339 141.722 126.947 141.208 127.637 141.263C130.174 141.469 158.868 148.064 162.131 150.849C162.658 151.3 162.721 152.093 162.27 152.621C162.022 152.912 161.669 153.062 161.314 153.062Z" fill="#0E0E0E"/>
<path d="M87.47 186.64C87.2704 186.64 87.0689 186.581 86.8932 186.458C86.4387 186.139 86.3289 185.512 86.6481 185.057C93.4777 175.33 107.938 166.718 129.627 159.462C146.268 153.894 160.778 151.317 161.804 151.219C162.356 151.168 162.848 151.572 162.9 152.125C162.953 152.678 162.547 153.168 161.995 153.221C161.122 153.304 146.548 155.921 130.265 161.369C115.64 166.262 96.4868 174.544 88.2939 186.213C88.0981 186.491 87.7867 186.64 87.47 186.64Z" fill="#0E0E0E"/>
<path d="M163.068 161.465C162.874 161.465 162.677 161.42 162.493 161.326C158.742 159.395 152.382 156.234 151.285 155.976C150.609 155.817 150.191 155.141 150.35 154.465C150.509 153.789 151.186 153.371 151.861 153.53C153.58 153.934 161.978 158.233 163.644 159.091C164.261 159.408 164.503 160.166 164.186 160.783C163.963 161.217 163.523 161.465 163.068 161.465Z" fill="#0E0E0E"/>
<path d="M91.7663 189.966C91.3868 189.966 91.0233 189.75 90.8534 189.383C90.6199 188.879 90.8393 188.281 91.343 188.048C95.5073 186.119 112.289 182.479 125.394 179.947C138.534 177.409 155.653 174.512 160.652 174.698C161.207 174.719 161.64 175.185 161.62 175.74C161.599 176.295 161.134 176.732 160.577 176.707C151.939 176.386 99.5256 186.474 92.1883 189.872C92.0513 189.936 91.9075 189.966 91.7663 189.966Z" fill="#0E0E0E"/>
<path d="M87.6549 200C81.1945 200 79.5073 199.148 78.9616 197.868C78.6386 197.11 78.849 196.41 79.2019 195.832C76.1835 195.68 70.0876 195.45 63.3078 195.193C51.7344 194.756 37.3309 194.211 25.3372 193.604C3.74767 192.512 3.12359 191.886 2.57264 191.334C2.04909 190.809 1.78065 190.142 1.79624 189.406C1.84273 187.238 4.45043 184.839 6.97218 182.519C7.47813 182.054 7.95569 181.615 8.38675 181.2C8.88667 180.719 9.68243 180.734 10.1638 181.234C10.6451 181.734 10.6297 182.529 10.1298 183.011C9.67841 183.445 9.19055 183.894 8.67378 184.369C7.05361 185.86 4.34387 188.352 4.30943 189.453C8.24725 190.596 44.0166 191.949 63.4029 192.682C78.8837 193.267 81.2878 193.378 81.7767 193.533C82.2763 193.69 82.6335 194.056 82.7559 194.537C82.969 195.371 82.4111 195.953 81.9187 196.466C81.8071 196.582 81.6402 196.756 81.5072 196.914C82.0873 197.133 83.6449 197.487 87.6551 197.487C92.4975 197.487 94.0277 196.965 94.4819 196.716C94.3504 196.532 94.1308 196.301 94.0194 196.184C93.6849 195.831 93.1794 195.299 93.4134 194.533C93.5499 194.086 93.9231 193.743 94.3871 193.64C95.8758 193.31 111.751 192.957 135.801 192.456C150.923 192.142 165.207 191.844 167.219 191.65C167.419 191.631 167.536 191.597 167.597 191.574C167.677 190.419 164.397 186.351 161.988 184.337C161.456 183.892 161.385 183.099 161.83 182.567C162.276 182.035 163.068 181.964 163.601 182.409C163.676 182.472 171.061 188.919 169.989 192.384C169.807 192.971 169.237 193.981 167.46 194.152C165.353 194.355 151.682 194.64 135.853 194.969C120.946 195.279 102.939 195.654 96.9127 195.948C97.1203 196.453 97.1884 197.036 96.9202 197.661C96.2061 199.323 93.522 200 87.6549 200Z" fill="#0E0E0E"/>
<path d="M63.9866 164.787C63.5101 164.787 63.0541 164.515 62.843 164.053C60.0677 157.984 54.098 141.666 55.7948 137.297C56.1218 136.455 56.6627 136.078 57.0591 135.91C58.6825 135.222 60.4567 136.914 61.9781 138.659C63.3904 140.279 65.094 142.604 67.0415 145.569C70.5477 150.907 73.78 156.699 74.5534 158.501C74.8271 159.139 74.532 159.878 73.8944 160.152C73.2562 160.426 72.5175 160.131 72.2438 159.493C71.5755 157.935 68.6667 152.706 65.4474 147.727C60.8609 140.632 58.786 138.852 58.0805 138.41C57.9209 139.131 57.7812 141.475 59.6725 148.087C61.061 152.94 63.2024 158.797 65.1282 163.008C65.4168 163.639 65.1393 164.384 64.5082 164.673C64.3393 164.751 64.1616 164.787 63.9866 164.787Z" fill="#0E0E0E"/>
<path d="M60.4169 154.187C59.9348 154.187 59.4748 153.908 59.267 153.439C58.986 152.804 59.2725 152.062 59.9071 151.781L67.7735 148.297C68.4081 148.015 69.1504 148.302 69.4316 148.937C69.7126 149.571 69.4261 150.314 68.7914 150.595L60.9251 154.079C60.7597 154.153 60.5868 154.187 60.4169 154.187Z" fill="#0E0E0E"/>
<path d="M77.0413 136.266C76.4441 136.266 75.9145 135.838 75.8057 135.23L72.1665 114.865C72.0443 114.182 72.4993 113.529 73.1824 113.407C73.8656 113.284 74.5183 113.739 74.6405 114.423L78.2797 134.787C78.4019 135.471 77.9469 136.124 77.2635 136.246C77.1891 136.259 77.1147 136.266 77.0413 136.266Z" fill="#0E0E0E"/>
<path d="M77.375 136.269C77.2579 136.269 77.141 136.268 77.0227 136.266C76.3287 136.254 75.7752 135.683 75.7865 134.989C75.7979 134.295 76.3621 133.743 77.0636 133.753C80.5628 133.81 83.4116 132.904 84.6884 131.332C85.4344 130.413 85.6538 129.248 85.3409 127.87C84.7538 125.285 83.6815 125.253 80.0541 125.542C78.9726 125.629 77.7473 125.725 76.423 125.706C75.8564 125.697 75.366 125.31 75.2253 124.761C75.0845 124.213 75.3283 123.638 75.8207 123.357C76.1993 123.142 76.7042 122.961 77.2891 122.752C80.4176 121.634 81.8915 120.647 81.2659 118.351C80.9768 117.291 80.357 116.541 79.3707 116.058C77.3419 115.064 74.5854 115.562 74.1475 115.744C73.5071 116.011 72.7712 115.707 72.5047 115.066C72.2383 114.425 72.5419 113.689 73.1831 113.423C74.0877 113.047 77.639 112.411 80.4761 113.801C82.1026 114.597 83.2143 115.942 83.6908 117.69C84.3569 120.133 83.5629 121.778 82.3175 122.913C84.7837 122.94 86.9656 123.676 87.792 127.313C88.2776 129.452 87.8792 131.389 86.6399 132.916C84.9031 135.055 81.5388 136.268 77.375 136.269Z" fill="#0E0E0E"/>
<path d="M58.1228 127.918C57.871 127.918 57.6166 127.842 57.3957 127.685C56.8005 127.262 42.788 117.296 40.3075 115.068C39.8119 114.622 39.0724 113.589 39.6887 111.67C40.8175 108.155 46.7543 102.041 49.3132 101.758C50.0031 101.682 50.6242 102.178 50.7009 102.868C50.7773 103.558 50.2801 104.179 49.5902 104.256C48.4478 104.473 43.7781 108.734 42.3251 111.831C41.9078 112.721 41.9508 113.134 41.985 113.196C44.3622 115.331 58.7072 125.534 58.852 125.637C59.4175 126.039 59.5502 126.823 59.1481 127.389C58.903 127.734 58.5159 127.918 58.1228 127.918Z" fill="#0E0E0E"/>
<path d="M47.5717 119.755C47.2882 119.755 47.0029 119.66 46.7681 119.464C46.2348 119.02 46.1626 118.228 46.6068 117.694L52.762 110.306C53.2061 109.773 53.9986 109.701 54.5319 110.144C55.0653 110.589 55.1374 111.381 54.6933 111.914L48.5381 119.303C48.2895 119.601 47.9319 119.755 47.5717 119.755Z" fill="#0E0E0E"/>
<path d="M127.704 123.471C127.465 123.471 127.224 123.403 127.01 123.261C126.432 122.877 126.274 122.096 126.659 121.518C126.681 121.485 128.918 118.111 130.949 114.415C134.144 108.602 134.268 106.692 134.21 106.196C133.777 106.318 132.219 107.067 128.736 111.661C126.474 114.645 124.584 117.694 124.565 117.724C124.247 118.237 123.61 118.452 123.046 118.237C122.483 118.021 122.152 117.435 122.259 116.841C123.214 111.526 123.996 105.345 123.926 102.65C122.348 104.737 119.532 110.246 117.086 116.192C116.822 116.834 116.088 117.14 115.446 116.876C114.804 116.612 114.497 115.877 114.762 115.236C115.084 114.453 116.791 110.351 118.787 106.449C121.681 100.79 123.046 99.716 123.999 99.4116C124.557 99.2337 125.126 99.35 125.56 99.7311C126.281 100.363 126.902 101.639 125.915 109.512C125.826 110.22 125.731 110.924 125.635 111.604C128.086 108.199 131.357 104.263 133.699 103.733C134.596 103.531 135.245 103.784 135.631 104.033C135.999 104.269 136.474 104.732 136.653 105.592C136.897 106.759 136.778 109.107 132.945 115.998C130.921 119.639 128.839 122.778 128.751 122.91C128.51 123.274 128.111 123.471 127.704 123.471Z" fill="#0E0E0E"/>
<path d="M14.558 125.993C14.2209 125.993 13.8849 125.858 13.6373 125.592L0.336408 111.287C-0.13612 110.779 -0.107468 109.984 0.401003 109.511C0.909222 109.039 1.70473 109.067 2.17701 109.576L15.4779 123.881C15.9504 124.389 15.9218 125.184 15.4133 125.657C15.1715 125.882 14.8644 125.993 14.558 125.993Z" fill="#0E0E0E"/>
<path d="M8.97654 119.135C8.80613 119.135 8.6332 119.1 8.46757 119.026C7.84197 118.748 7.55519 118.022 7.81734 117.394C8.31349 115.832 8.32581 105.365 7.46897 103.934C7.11232 103.339 7.30585 102.567 7.90129 102.21C8.49697 101.853 9.2686 102.047 9.62526 102.642C11.0481 105.018 10.8186 116.827 10.1259 118.387C9.91783 118.856 9.45812 119.135 8.97654 119.135ZM7.82865 117.368C7.82664 117.372 7.82438 117.377 7.82236 117.382C7.82438 117.377 7.82639 117.372 7.82865 117.368Z" fill="#0E0E0E"/>
<path d="M22.837 124.188C22.468 124.188 22.1028 124.026 21.8545 123.716C18.1401 119.069 12.3152 118.626 10.0224 119.421C9.36591 119.649 8.65058 119.301 8.42337 118.645C8.1959 117.99 8.54326 117.274 9.19902 117.046C11.8924 116.113 19.0085 116.131 23.8177 122.146C24.2513 122.688 24.1631 123.479 23.6209 123.912C23.3894 124.098 23.1122 124.188 22.837 124.188Z" fill="#0E0E0E"/>
<path d="M101.619 114.941C100.022 114.941 98.6139 114.111 97.5666 112.522C94.2541 107.5 94.8101 95.0223 97.0795 92.1331C99.2893 89.3203 101.254 89.2894 102.513 89.7589C106.534 91.2577 107.972 99.6604 107.709 105.148C107.448 110.594 105.755 114.008 102.941 114.76C102.489 114.881 102.047 114.941 101.619 114.941ZM99.056 93.6859C98.5239 94.3633 97.7679 97.2422 97.7533 101.522C97.739 105.707 98.4536 109.302 99.6645 111.139C100.606 112.567 101.563 112.526 102.292 112.332C103.865 111.911 105.006 109.045 105.198 105.028C105.505 98.6178 103.535 92.8223 101.635 92.114C100.777 91.7928 99.7583 92.7916 99.056 93.6859Z" fill="#0E0E0E"/>
<path d="M102.483 149.097C101.995 149.097 101.531 148.811 101.327 148.334L98.0859 140.741L96.0601 145.354C95.7808 145.989 95.0391 146.278 94.404 145.999C93.7686 145.72 93.4795 144.979 93.7587 144.343L101.728 126.197C101.885 125.841 102.197 125.577 102.574 125.483C102.95 125.389 103.35 125.474 103.656 125.714C103.918 125.92 110.051 130.815 108.689 135.853C107.759 139.294 103.689 139.922 100.357 139.66L103.639 147.346C103.911 147.985 103.614 148.723 102.976 148.996C102.815 149.064 102.648 149.097 102.483 149.097ZM99.7058 137.052C101.951 137.331 105.686 137.332 106.263 135.198C106.857 132.998 104.905 130.394 103.329 128.802L99.7058 137.052Z" fill="#0E0E0E"/>
<path d="M37.696 148.565C37.3394 148.565 36.9925 148.413 36.75 148.136C36.4247 147.764 36.3476 147.236 36.5524 146.787C38.679 142.124 40.8288 136.432 40.9665 134.522C38.9844 134.733 32.5646 138.298 30.3997 140.103C29.8666 140.547 29.0744 140.476 28.6295 139.942C28.1851 139.409 28.257 138.617 28.7899 138.172C29.5236 137.561 38.9374 131.01 42.1486 132.157C42.8245 132.398 43.289 132.937 43.4229 133.635C43.8258 135.734 41.5743 141.52 39.9797 145.247C42.3278 144.45 45.6378 143.234 47.3218 142.188C47.9117 141.822 48.6863 142.003 49.0523 142.593C49.4187 143.182 49.2375 143.957 48.6479 144.323C45.6018 146.215 38.3666 148.418 38.0602 148.511C37.9401 148.547 37.8174 148.565 37.696 148.565Z" fill="#0E0E0E"/>
<path d="M74.3773 111.555C74.0088 111.555 73.6436 111.394 73.3953 111.084C73.3066 110.973 64.4791 99.9466 60.5403 95.0546C60.1049 94.514 60.1904 93.723 60.731 93.2877C61.2717 92.8523 62.0629 92.9378 62.498 93.4784C66.4391 98.3734 75.2688 109.402 75.3575 109.513C75.7914 110.055 75.7037 110.846 75.162 111.28C74.93 111.465 74.6525 111.555 74.3773 111.555Z" fill="#0E0E0E"/>
<path d="M63.1842 112.557C62.9992 112.557 62.8114 112.516 62.634 112.43C62.0102 112.125 61.7513 111.373 62.0559 110.749C62.358 110.13 69.4867 95.5471 72.2786 91.7782C72.6918 91.2202 73.4788 91.1036 74.0365 91.5165C74.5942 91.9298 74.7114 92.7167 74.2982 93.2745C71.6422 96.8591 64.3874 111.702 64.3145 111.851C64.0968 112.298 63.6497 112.557 63.1842 112.557Z" fill="#0E0E0E"/>
<path d="M134.076 143.427C133.857 143.427 133.635 143.369 133.433 143.249C132.837 142.893 132.643 142.121 132.999 141.525C135.343 137.604 136.841 122.066 136.231 116.139C136.16 115.449 136.662 114.832 137.353 114.761C138.042 114.688 138.661 115.192 138.731 115.882C139.39 122.291 137.841 138.324 135.156 142.815C134.921 143.209 134.504 143.427 134.076 143.427Z" fill="#0E0E0E"/>
<path d="M34.1951 150.392C33.5024 150.392 32.9049 149.873 32.8235 149.168C32.6719 147.855 32.2783 145.404 31.7337 142.012C28.5584 122.237 21.1224 75.9282 26.0417 40.9156C27.3995 31.2504 31.8608 22.4888 38.9432 15.5778C45.3927 9.2846 53.8377 4.61663 63.3654 2.07855C73.099 -0.514076 83.5479 -0.687 92.7881 1.59169C102.784 4.05688 111.061 9.21473 116.724 16.508C131.292 35.2709 138.08 59.9881 138.084 94.294C138.084 95.0575 137.466 95.6764 136.702 95.6766C135.939 95.6768 135.32 95.0578 135.32 94.2945C135.315 60.6346 128.712 36.456 114.54 18.2036C104.19 4.87375 83.9101 -0.532423 64.0772 4.75034C44.456 9.97706 31.2606 23.6404 28.7796 41.3004C23.9184 75.901 31.5796 123.613 34.4635 141.574C35.0137 145.001 35.4113 147.478 35.5699 148.851C35.6574 149.61 35.1135 150.295 34.3549 150.383C34.3017 150.389 34.2481 150.392 34.1951 150.392Z" fill="#0E0E0E"/>
<path d="M150.129 149.191C149.672 149.191 149.226 148.965 148.962 148.552C148.551 147.909 148.74 147.054 149.383 146.643L149.875 146.33C156.019 142.43 168.803 134.313 164.074 106.585C159.612 80.4233 160.824 62.1325 167.579 53.6893C169.55 51.2259 172.24 49.0457 175.088 46.7378C181.631 41.436 188.397 35.9536 186.432 26.6526C185.376 21.6559 181.422 20.1275 178.291 19.7256C170.312 18.7001 158.204 23.9936 153.587 33.2265C151.523 37.3554 149.919 41.3576 148.505 44.8887C144.909 53.8652 142.069 60.9554 134.675 61.9198C133.917 62.0191 133.225 61.4847 133.126 60.7279C133.027 59.9709 133.561 59.2772 134.318 59.1784C140.105 58.4236 142.426 52.6301 145.938 43.8607C147.373 40.28 148.999 36.2216 151.114 31.9904C156.325 21.5684 169.556 15.8182 178.643 16.9836C184.325 17.7133 188.051 20.9443 189.137 26.0816C191.451 37.0372 183.683 43.3324 176.829 48.8863C174.1 51.0977 171.522 53.1863 169.738 55.417C163.49 63.2261 162.474 80.7589 166.799 106.12C168.958 118.777 167.831 129.108 163.45 136.828C159.761 143.329 154.703 146.54 151.356 148.665L150.871 148.974C150.641 149.12 150.383 149.191 150.129 149.191Z" fill="#0E0E0E"/>
<path d="M53.748 71.035C51.9159 71.035 50.0467 70.8073 48.1777 70.3295C42.7793 68.9494 38.195 65.7111 35.2693 61.2117C32.3221 56.6792 31.4074 51.4126 32.6938 46.3816C35.3392 36.0363 46.5909 29.9462 57.7725 32.805C68.9556 35.6646 75.9017 46.4075 73.2566 56.7531C71.0531 65.3697 62.8791 71.035 53.748 71.035ZM35.1288 47.0042C34.0187 51.3462 34.8169 55.9053 37.3764 59.8417C39.9574 63.8111 44.0144 66.6709 48.8002 67.8945C50.4614 68.3193 52.1253 68.5221 53.752 68.5221C61.7613 68.5226 68.9078 63.6136 70.8213 56.1306C73.1231 47.1279 66.9901 37.7565 57.1497 35.2403C47.31 32.7243 37.4309 38.0016 35.1288 47.0042Z" fill="#0E0E0E"/>
<path d="M47.7304 54.492C48.412 51.8263 51.3128 50.2657 54.2093 51.0064C57.1058 51.7469 58.9014 54.5084 58.2198 57.1742C57.5381 59.8397 54.6373 61.4003 51.7408 60.6598C48.8443 59.9191 47.0487 57.1578 47.7304 54.492Z" fill="#0E0E0E"/>
<path d="M53.1863 62.0998C52.608 62.0998 52.0186 62.0279 51.4294 61.8774C47.8661 60.9662 45.6606 57.5135 46.5126 54.1807C46.9304 52.5469 48.0069 51.1919 49.5436 50.365C51.0459 49.5567 52.8136 49.3526 54.5205 49.7887C56.2276 50.225 57.6799 51.253 58.6098 52.6832C59.5612 54.1462 59.855 55.8516 59.4373 57.4854C58.726 60.2673 56.1052 62.0998 53.1863 62.0998ZM48.9479 54.8035C48.4392 56.7934 49.8316 58.8745 52.0523 59.4423C54.2721 60.0104 56.4933 58.8529 57.0022 56.863C57.244 55.9182 57.0663 54.9204 56.5028 54.0535C55.9177 53.1534 54.9927 52.504 53.8981 52.2242C52.8033 51.9445 51.68 52.0704 50.7347 52.5786C49.8241 53.0685 49.1894 53.8585 48.9479 54.8035Z" fill="#0E0E0E"/>
<path d="M102.329 71.4353C100.497 71.4353 98.6278 71.2075 96.759 70.7297C85.576 67.8702 78.63 57.1272 81.2749 46.7816C82.5613 41.7507 85.8916 37.5693 90.6529 35.0079C95.3794 32.465 100.955 31.8248 106.354 33.2052C111.752 34.5853 116.336 37.8234 119.262 42.323C122.209 46.8555 123.124 52.1222 121.837 57.1528C119.634 65.7697 111.46 71.4345 102.329 71.4353ZM100.745 35.0069C97.6214 35.0069 94.5698 35.7546 91.8435 37.2215C87.7086 39.4461 84.8202 43.0625 83.71 47.4044C81.4082 56.4071 87.541 65.7785 97.3816 68.2947C99.0428 68.7195 100.706 68.9221 102.333 68.9223C110.342 68.9228 117.489 64.0135 119.402 56.5305C120.513 52.1888 119.714 47.6296 117.155 43.6933C114.574 39.7241 110.517 36.864 105.731 35.6405C104.074 35.2167 102.399 35.0069 100.745 35.0069Z" fill="#0E0E0E"/>
<path d="M95.1986 56.3778C95.8802 53.712 98.781 52.1514 101.677 52.8921C104.574 53.6326 106.37 56.3941 105.688 59.0599C105.006 61.7254 102.106 63.286 99.209 62.5455C96.3125 61.8048 94.5172 59.0436 95.1986 56.3778Z" fill="#0E0E0E"/>
<path d="M100.654 63.9855C100.076 63.9855 99.4866 63.9136 98.8974 63.763C95.3344 62.8519 93.1288 59.3994 93.9806 56.0666C94.3983 54.4329 95.4749 53.0776 97.0116 52.2509C98.5136 51.4429 100.281 51.238 101.988 51.6746C103.696 52.1109 105.148 53.1389 106.078 54.5691C107.029 56.0322 107.323 57.7378 106.905 59.3715C106.194 62.1529 103.573 63.9855 100.654 63.9855ZM96.4159 56.6889C95.9072 58.6791 97.2999 60.76 99.5202 61.3277C101.74 61.8955 103.961 60.7383 104.47 58.7484C104.712 57.8036 104.534 56.8058 103.971 55.9389C103.386 55.0388 102.461 54.3894 101.366 54.1096C100.272 53.8299 99.148 53.9558 98.2027 54.4643C97.2921 54.9541 96.6577 55.7444 96.4159 56.6889Z" fill="#0E0E0E"/>
<path d="M72.7664 50.024C72.1069 50.024 71.5534 49.51 71.5132 48.8429C71.4712 48.1502 71.9991 47.5546 72.6918 47.5128L81.4567 46.984C82.1474 46.94 82.7451 47.4698 82.7868 48.1626C82.8288 48.8553 82.3009 49.451 81.6082 49.4927L72.8431 50.0215C72.8177 50.0233 72.7921 50.024 72.7664 50.024Z" fill="#0E0E0E"/>
<path d="M119.483 44.4573C119.08 44.4573 118.684 44.2638 118.441 43.9051C118.052 43.3303 118.203 42.5491 118.778 42.16L133.947 31.8891C134.522 31.5 135.303 31.6503 135.692 32.2251C136.081 32.7999 135.931 33.5811 135.356 33.9702L120.187 44.2412C119.97 44.3872 119.725 44.4573 119.483 44.4573Z" fill="#0E0E0E"/>
<path d="M33.5208 49.0404C33.3072 49.0404 33.0908 48.9859 32.8922 48.871L17.8809 40.1803C17.2802 39.8324 17.0751 39.0638 17.4229 38.4631C17.7705 37.8626 18.5391 37.6575 19.1404 38.0052L34.1517 46.6959C34.7524 47.0438 34.9575 47.8124 34.6096 48.4131C34.3769 48.8155 33.9546 49.0404 33.5208 49.0404Z" fill="#0E0E0E"/>
<path d="M79.0804 85.38C73.5054 85.38 70.5227 82.3214 69.002 79.7554C67.3984 77.0492 67.0845 74.358 67.0719 74.2449C67.033 73.8935 67.1436 73.5419 67.3771 73.2765C67.6103 73.0108 67.9449 72.856 68.2983 72.8497L88.8897 72.4787C89.2287 72.4727 89.5595 72.6051 89.8008 72.8464C90.0421 73.0877 90.1748 73.4165 90.1688 73.7576C90.1668 73.8749 90.1019 76.6623 88.7457 79.4751C87.447 82.1688 84.7156 85.38 79.0804 85.38ZM69.8475 75.3352C70.5129 77.8391 72.6495 82.8663 79.0804 82.8663C85.5161 82.8663 87.1232 77.5541 87.5236 75.0168L69.8475 75.3352Z" fill="#0E0E0E"/>
<path d="M75.1569 100.387C50.7167 100.387 27.3001 94.7364 27.049 94.6751C26.577 94.5597 26.288 94.0837 26.4033 93.6117C26.5184 93.1399 26.9942 92.8498 27.4668 92.966C27.7339 93.0311 54.4964 99.4851 80.5234 98.5312C113.027 97.3389 135.682 88.156 135.907 88.0632C136.357 87.879 136.87 88.0926 137.055 88.5418C137.24 88.9909 137.026 89.5052 136.577 89.6902C136.349 89.7839 113.426 99.0849 80.5882 100.289C78.7786 100.356 76.9638 100.387 75.1569 100.387Z" fill="#0E0E0E"/>
<path d="M165.798 121.798C165.395 121.798 165.032 121.52 164.94 121.11C160.777 102.488 137.38 64.8906 133.506 61.2214C133.154 60.8872 133.139 60.3304 133.473 59.9778C133.807 59.6252 134.364 59.6101 134.716 59.9441C136.809 61.9265 143.74 72.4141 150.722 84.8672C155.641 93.6386 164.251 109.961 166.657 120.726C166.763 121.201 166.464 121.671 165.99 121.777C165.926 121.791 165.861 121.798 165.798 121.798Z" fill="#0E0E0E"/>
<path d="M163.022 82.4105C162.733 82.4105 162.45 82.2688 162.282 82.0086C160.176 78.7535 143.178 61.6726 139.716 58.8593C139.339 58.5529 139.282 57.9989 139.588 57.6219C139.894 57.2449 140.449 57.1873 140.826 57.494C143.862 59.9612 161.45 77.4834 163.759 81.053C164.023 81.461 163.907 82.0056 163.499 82.2695C163.351 82.3651 163.185 82.4105 163.022 82.4105Z" fill="#0E0E0E"/>
<path d="M177.517 47.5809C177.248 47.5809 176.983 47.4577 176.81 47.225L160.099 24.6761C159.81 24.2857 159.892 23.7348 160.282 23.4455C160.673 23.1559 161.224 23.2384 161.513 23.6285L178.223 46.1774C178.513 46.5677 178.431 47.1187 178.04 47.408C177.883 47.5248 177.699 47.5809 177.517 47.5809Z" fill="#0E0E0E"/>
<path d="M76.9322 119.017C67.8805 119.017 58.6036 118.068 49.5358 116.192C38.4138 113.89 30.6631 110.864 28.1187 109.586C27.6847 109.368 27.5095 108.839 27.7276 108.405C27.9456 107.971 28.4741 107.796 28.9087 108.014C34.236 110.69 60.3308 119.971 90.6749 116.488C121.408 112.96 132.66 108.561 132.77 108.517C133.221 108.337 133.733 108.555 133.914 109.006C134.094 109.457 133.876 109.968 133.425 110.149C132.969 110.332 121.91 114.674 90.8755 118.236C86.3319 118.758 81.662 119.017 76.9322 119.017Z" fill="#0E0E0E"/>
</svg>
